<mxfile host="app.diagrams.net" modified="2024-04-09T09:33:48.127Z" agent="Mozilla/5.0 (Windows NT 10.0; Win64; x64) AppleWebKit/537.36 (KHTML, like Gecko) Chrome/123.0.0.0 Safari/537.36" etag="K1DiM_7NLPjcJJesjvvQ" version="24.2.3" type="device">
  <diagram name="Page-1" id="eMbxQq30vQqTh56M7WIi">
    <mxGraphModel dx="600" dy="379" grid="1" gridSize="10" guides="1" tooltips="1" connect="1" arrows="1" fold="1" page="1" pageScale="1" pageWidth="470" pageHeight="165" math="0" shadow="0">
      <root>
        <mxCell id="0" />
        <mxCell id="1" parent="0" />
        <mxCell id="yM3fGQsoTe8s-scs91LO-1" value="" style="shape=image;verticalLabelPosition=bottom;labelBackgroundColor=default;verticalAlign=top;aspect=fixed;imageAspect=0;image=data:image/png,iVBORw0KGgoAAAANSUhEUgAABQAAAAIwCAYAAADZOcbUAAAAAXNSR0IArs4c6QAAIABJREFUeF7s3XeY1GS7x/F76UtXivSOFJGOoKIgRZQmShVQQESQXl+QDoqK0rsoYqH3IiqKCogiivQiUqUISlt6Wcq57vHMsrOb2Ummz843/5xzvZs8efJ5kmB+85SIzmOX3RU3ttwPZJI8WTNJ9swZ5f70aSVdZCpJkTyZREREuFEahyCAAAIIIIAAAggggAACCCCAAAIIIICACty9e1duRt+SS9euy7mLl+XkmSg5+u9ZOfbPWbeAIqwEgPelSyNlCueVhwrkknSpI906IQchgAACCCCAAAIIIIAAAggggAACCCCAgHWBS1evye5Dx2Xr/r/k/KUrpgswFQCmiUwplUsWkXJF8psumB0RQAABBBBAAAEEEEAAAQQQQAABBBBAwDcCv+87LBt27JMr1264PIHLALBUobxSo/xDkjJFcpeFsQMCCCCAAAIIIIAAAggggAACCCCAAAII+Efgxs1oWbN5t2w/8FeCJ0wwAKxVsSS9/vzTXpwFAQQQQAABBBBAAAEEEEAAAQQQQAABtwS0N+DqTTucHus0AGz01CPyYO7sbp2UgxBAAAEEEEAAAQQQQAABBBBAAAEEEEDAfwJ/Hjspi3741fCEhgEg4Z//GoczIYAAAggggAACCCCAAAIIIIAAAggg4A0BZyFgvACQYb/e4KYMBBBAAAEEEEAAAQQQQAABBBBAAAEE/C9gNBzYIQDUBT/qPFba/zXjjAgggAACCCCAAAIIIIAAAggggAACCCDgFYFVP29zWBgkJgBME5lSOjxXndV+vcJMIQgggAACCCCAAAIIIIAAAggggAACCARGQFcHnrb8O7ly7YatAjEBIEN/A9MgnBUBBBBAAAEEEEAAAQQQQAABBBBAAAFvC8QeCmwLAO9Ll0Zef76Gt89DeQgggAACCCCAAAIIIIAAAggggAACCCAQIIGpS9fI+UtX/usBWK1scalUonCAqsJpEUAAAQQQQAABBBBAAAEEEEAAAQQQQMDbAr/s2i/fb9nzXwDYpdHTki51pLfPQXkIIIAAAggggAACCCCAAAIIIIAAAgggECCBS1evycRF30jEyDk/3n2pVuUAVYPTIoAAAggggAACCCCAAAIIIIAAAggggICvBD5fvUEi5q7Zc7dKmWK+OgflIoAAAggggAACCCCAAAIIIIAAAggggECABNZt3SsRa7f9fffB3NkDVAVOiwACCCCAAAIIIIAAAggggAACCCCAAAK+Evjz2EmJ2HHo4t3MGdL56hyUiwACCCCAAAIIIIAAAggggAACCCCAAAIBEjhz4ZJEHD55827KFMkDVAVOiwACCCCAAAIIIIAAAggggAACCCCAAAK+ErhxM1oiTpy5czciIsJX56BcBBBAAAEEEEAAAQQQQAABBBBAAAEEEAiQwN27dyXi77N37wbo/JwWAQQQQAABBBBAAAEEEEAAAQQQQAABBHwsQADoY2CKRwABBBBAAAEEEEAAAQQQQAABBBBAIJACBICB1OfcCCCAAAIIIIAAAggggAACCCCAAAII+FiAANDHwBSPAAIIIIAAAggggAACCCCAAAIIIIBAIAUIAAOpz7kRQAABBBBAAAEEEEAAAQQQQAABBBDwsQABoI+BKR4BBBBAAAEEEEAAAQQQQAABBBBAAIFAChAABlKfcyOAAAIIIIAAAggggAACCCCAAAIIIOBjAQJAHwNTPAIIIIAAAggggAACCCCAAAIIIIAAAoEUIAAMpD7nRgABBBBAAAEEEEAAAQQQQAABBBBAwMcCBIA+BqZ4BBBAAAEEEEAAAQQQQAABBBBAAAEEAilAABhIfc6NAAIIIIAAAggggAACCCCAAAIIIICAjwUIAH0MTPEIIIAAAggggAACCCCAAAIIIIAAAggEUoAAMJD6nBsBBBBAAAEEEEAAAQQQQAABBBBAAAEfCxAA+hiY4hFAAAEEEEAAAQQQQAABBBBAAAEEEAikAAFgIPU5NwIIIIAAAggggAACCCCAAAIIIIAAAj4WIAD0MTDFI4AAAggggAACCCCAAAIIIIAAAgggEEgBAsBA6nNuBBBAAAEEEEAAAQQQQAABBBBAAAEEfCxAAOhjYIpHAAEEEEAAAQQQQAABBBBAAAEEEEAgkAIEgIHU59wIIIAAAggggAACCCCAAAIIIIAAAgj4WIAA0MfAFI8AAggggAACCCCAAAIIIIAAAggggEAgBQgAA6nPuRFAAAEEEEAAAQQQQAABBBBAAAEEEPCxAAGgj4EpHgEEEEAAAQQQQAABBBBAAAEEEEAAgUAKEAAGUp9zI4AAAggggAACCCCAAAIIIIAAAggg4GMBAkAfA1M8AggggAACCCCAAAIIIIAAAggggAACgRQgAAykPudGAAEEEEAAAQQQQAABBBBAAAEEEEDAxwIEgD4GpngEEEAAAQQQQAABBBBAAAEEEEAAAQQCKUAAGEh9zo0AAggggAACCCCAAAIIIIAAAggggICPBQgAfQxM8QgggAACCCCAAAIIIIAAAggggAACCARSgAAwkPqcGwEEEEAAAQQQQAABBBBAAAEEEEAAAR8LEAD6GJjiEUAAAQQQQAABBBBAAAEEEEAAAQQQCKQAAWAg9Tk3AggggAACCCCAAAIIIIAAAggggAACPhYgAPQxMMUjgAACCCCAAAIIIIAAAggggAACCCAQSAECwEDqc24EEEAAAQQQQAABBBBAAAEEEEAAAQR8LEAA6GNgikcAAQQQQAABBBBAAAEEEEAAAQQQQCCQAgSAgdTn3AgggAACCCCAAAIIIIAAAggggAACCPhYgADQx8AUjwACCCCAAAIIIIAAAggggAACCCCAQCAFCAADqc+5EUAAAQQQQAABBBBAAAEEEEAAAQQQ8LEAAaCPgSkeAQQQQAABBBBAAAEEEEAAAQQQQACBQAoQAAZSn3MjgAACCCCAAAIIIIAAAggggAACCCDgYwECQB8DUzwCCCCAAAIIIIAAAggggAACCCCAAAKBFCAADKQ+50YAAQQQQAABBBBAAAEEEEAAAQQQQMDHAgSAPgameAQQQAABBBBAAAEEEEAAAQQQQAABBAIpQAAYSH3OjQACCCCAAAIIIIAAAggggAACCCCAgI8FCAB9DEzxCCCAAAIIIIAAAggggAACCCCAAAIIBFKAADCQ+pwbAQQQQAABBBBAAAEEEEAAAQQQQAABHwsQAPoYmOIRQAABBBBAAAEEEEAAAQQQQAABBBAIpAABYCD1OTcCCCCAAAIIIIAAAggggAACCCCAAAI+FiAA9DEwxSOAAAIIIIAAAggggAACCCCAAAIIIBBIAQLAQOpzbgQQQAABBBBAAAEEEEAAAQQQQAABBHwsQADoY2CKRwABBBBAAAEEEEAAAQQQQAABBBBAIJACBICB1OfcCCCAAAIIIIAAAggggAACCCCAAAII+FiAANDHwBSPAAIIIIAAAggggAACCCCAAAIIIIBAIAUIAAOpz7kRQAABBBBAAAEEEEAAAQQQQAABBBDwsQABoI+BKR4BBBBAAAEEEEAAAQQQQAABBBBAAIFAChAABlKfcyOAAAIIIIAAAggggAACCCCAAAIIIOBjAQJAHwNTPAIIIIAAAggggAACCCCAAAIIIIAAAoEUIAAMpD7nRgABBBBAAAEEEEAAAQQQQAABBBBAwMcCBIA+BqZ4BBBAAAEEEEAAAQQQQAABBBBAAAEEAilAABhIfc6NAAIIIIAAAggggAACCCCAAAIIIICAjwUIAH0MTPEIIIAAAggggAACCCCAAAIIIIAAAggEUoAAMJD6nBsBBBBAAAEEEEAAAQQQQAABBBBAAAEfCxAA+hiY4hFAAAEEEEAAAQQQQAABBBBAAAEEEAikAAFgIPU5NwIIIIAAAggggAACCCCAAAIIIIAAAj4WIAD0MTDFI4AAAggggAACCCCAAAIIIIAAAgggEEgBAsBA6nNuBBBAAAEEEEAAAQQQQAABBBBAAAEEfCxAAOhjYIpHAAEEEEAAAQQQQAABBBBAAAEEEEAgkAIEgIHU59wIIIAAAggggAACCCCAAAIIIIAAAgj4WIAA0MfAFI8AAggggAACCCCAAAIIIIAAAggggEAgBQgAA6nPuRFAAAEEEEAAAQQQQAABBBBAAAEEEPCxAAGgj4EpHgEEEEAAAQQQQAABBBBAAAEEEEAAgUAKEAAGUp9zI4AAAggggAACCCCAAAIIIIAAAggg4GMBAkAfA1M8AggggAACCCCAAAIIIIAAAggggAACgRQgAAykPudGAAEEEEAAAQQQQAABBBBAAAEEEEDAxwIEgD4GpngEEEAAAQQQQAABBBBAAAEEEEAAAQQCKUAAGEh9zo0AAggggAACCCCAAAIIIIAAAggggICPBQgAfQxM8QgggAACCCCAAAIIIIAAAggggAACCARSgAAwkPqcGwEEEEAAAQQQQAABBBBAAAEEEEAAAR8LEAD6GJjiEUAAAQQQQAABBBBAAAEEEEAAAQQQCKQAAWAg9Tk3AggggAACCCCAAAIIIIAAAggggAACPhYgAPQxMMUjgAACCCCAAAIIIIAAAggggAACCCAQSAECwEDqc24EEEAAAQQQQAABBBBAAAEEEEAAAQR8LEAA6GNgikcAAQQQQAABBBBAAAEEEEAAAQQQQCCQAgSAgdTn3AgggAACCCAQT+DO7duyZNEC2b/vj5i/FS/xsNR77nlJkjQpYggggAACCCCAAAIIIGBRgADQIhi7I4AAAggggIBvBXbt2C5frlwut2/ftp0oTeo00qzly5I1WzbfnpjSEUAAAQQQQAABBBBIpAIEgCHesGfOXpAly9bL7Vu35fX2DUL8aqg+AolbgOc1cbcvV+cdgcuXL8uczz6Rs2dOxxRY8dHH5akaNSUiIsI7J6EUBBBAAAEEEEAAAQTCTIAAMAQb/M6du3LgwHH54KMVsm79Vom+dVvatK4t3Ts3DsGrocoIJG4BntfE3b5cnfcFNqxfKz+u/SGm4LTp0kmLl1vL/Zkye/9klIgAAggggAACCCCAQJgIEACGYENv/n2ftG3/rkPNCQBDsCGpclgI8LyGRTNzkV4SOHf2jMz+7BO5fOlSTImVHq8sT1Wv6aUzUAwCCCCAAAIIIIAAAuEpQAAYgu1OoBCCjUaVw1aA5zVsm54Ltyhw9+5dWf3VKtm6+beYI5n7zyIiuyOAAAIIIIAAAggg4ESAADAEbw0ChRBsNKoctgI8r2Hb9Fy4RYF/T52SebM+kytXr8QcWapMOXm2bj3m/rNoye4IIIAAAggggAACCMQVIAAMwXuCQCEEG40qh60Az2vYNj0XblHgh+++lV9+2hBzVPLkKaRpi5aSO09eiyWxOwIIIIAAAggggAACCBAAJoJ7gEAhETQilxA2AjyvYdPUXKgHAufPn5PZn86USxcvxpSSK3ceadK8paRMmdKDkjkUAQQQQAABBBBAAAEEVIAegCF4HxAohGCjUeWwFeB5Ddum58ItCGza+LN8/+1qhyOq1awlFR99zEIp7IoAAggggAACCCCAAALOBAgAQ/DeIFAIwUajymErwPMatk3PhZsUiI6OlkVzZ8uRI4djjohMnVpebNlKHsiWzWQp7IYAAggggAACCCCAAAIJCRAAunF/XLl6XU6eOitnz1ywHX3t+g2JTPXfEKW06VJLnlxZJW3aSJ9NWh4sgcL16zfl9Oko+fvkGdu137gZLcmSJpWkSZNIZGRKyZM7q6RPn1aSJIlwQ9l7h2g9Dx7+Wy5fuhpTx2TJk0qe3A9I5kwZJFmypF45ma5gefnyNTl6/F/buW7fviO3bt+WlCmS28rPlDmDZM+WSdKkTuWV81GIOQGeV3NOgdjr1q3bEnXhshw5ckpu377t8A7Rd2m+vNkC8rzosxwVdVkOHvrbVi/7O17fa3nzZJP06VN77f1+585dOR91SQ4fPhnPIEf2zJIlS0ZJlSqF35pH2+TkybO297r9nZ4iRXLJnz+73JcxnU/e58eO/iXzZ8+S6OibMdeZL19+afRiC0me/L/3JxsCCCCAAAIIIIAAAgh4JkAAaNLvzNkL8sWqn2XJsvXy19FTLo9Knz6NPFWljNR+ppKUfLigpLYQ+oybtFBmfvKly3O4u8PDJQrIpHHdJWPGdJaKuHr1uuzYeVDWrt8m6zdslxMnTrs8Xh3q13lcnm/wpBQskMMrH81xA9Ds2TPJlAk9pUD+HDH10Y/qTb/ulo8/WSVbt+2X6Fu3DeuqH7Z1nn1UWjZ/2q36aVBw4sQZWbJsnSxfuUH0PnG1aej4bK2KUrN6BSlePJ8kT57M1SGW/67Xv2PbNlk8f5Hs3bNbUqaKlGo1qkvDpo0kY8aMlstz94CoqCj5auUq+ear1XL+/HkpWKiQNH+5pZQpV9YnQYK9njyv7raY74+LvnlLfvltjyxaslZ+3rhLbt6MTvCkxYvmk3p1H5Onaz5iC+zd3eK+V/XdPGRgG4dw7dq1G7Jo6TpZuOiHBN/z2R64X15sWkMa1K9s+T1qr//ff5+RBUt+kMVL1snFi/dWvY17fcmTJZUypQtLm1Z15JEKxdz+wWLZih9lyPCPY4qP+960X/us2avl1D/nDJn1ulu2qCWNnq9i+5HHW1vcxT+03CeqPiWVn6zqrVNQDgIIIIAAAggggAACYS9AAOjiFtCP1TkL1sikKUtcfqg6K0pDpu5dGkuLF2uauuGCLQA8cPCETJq6RDZs2O40SDNzYU9VLSt9ezUX/fD0ZDPqATnjg35SvlwRW7HaK/G90XPkmzW/mT6NfmR/OK2v7UPb7Hb5yjWZMm2pLFj4vdsuGpC+ObStVH2yjNnTutxPeyytWvGFfPbxTNHePLG3HDlzSr9B/SVP3jwuy/F0h1MnT8qYkaPkz31/xiuqafNm0qR5M0ma1Du9L+0n4Hn1tNV8d7yG0j9v3Cnvvj9bjh3/1/KJ9D36wnNPyitt6sgDWe+zfHzc92rsH0I0yN+y9U9bQGalbqVLFZYJY7pJhgxpTNfHk/dG2TIPSp9eL4qGola3uAGg9kSeNqWPlCxRQI78dUoGDP5Qdu0+ZKrY3LmyyrDBr4jWJyLCsx7eN27ckAVzZsnxY0djzp0sWXJp0ryF5M2X31R92AkBBBBAAAEEEEAAAQRcCxAAJmCkPd7eGz1Xli5f71rSxR5tWteW7p0bmyon2ALAuB+Opi7CyU7ag2fE8HZS8ZHibn84JhQAWv2QjV3N2CGiq2s8fSZKBg2dIRt/2eVqV5d/1w/pBvWfcLmf2R3+OnxEhg4cIufPGffiqf50TenQ6XVJ/v9Dk82Wa2U/DSE/+/gTWb5kmeFhkZGRMuStYVK0eDErxSa4L8+r1yi9XtCFqMvy/th5snLVTx6X7e7z4iwAzJAhraz+5lcZMfLzBHviGVXcam9q7Vk39M2ZHr039EeDAX1fklpPP2LpHWr0Hp8+tY9kypRBevaeZKpne2wDd+sR1/Hff/+RuZ9/Klev3OsFmfG+++SlNm0lbVprvdQ9vrkoAAEEEEAAAQQQQACBRCxAAOikcbXn1Eczv5CpHxgHGHpY/nzZJU2ayJgS7t65I8dOnDb8iEysAaD2nMuXL7ukTOk4R9WpU2edDofVD8dRIztKxQrF3Xq0jAJADRUfe7SE9HtjmmzavNehXO05VKBADtv8hPbNqH5mA0CdU/DtkZ/bhvwabUYmOhfgoUN/G/YidTfQcIanw22nTJjk1DZ7juwyaPgQ0d6AvtouXLggbw4aKgf2H3B6iiYvNrUNB/bGxvPqDUXflGEmLNcfBrJlu9czOKF3qbvPS9wAUHuxTZ7QQ06fviA9+kyM996OWyejZ9hKAKgO/QZME31/GW36XsydM4tEJEli+7POC+hsmgV33qFGAWDP7k1tUyT8sHaLQ5Vi/9t25co1OXzkpNM6e/Iu10J3bNsiq1Ysdzx/gYLSqNmLoj0B2RBAAAEEEEAAAQQQQMA7AgSAThz37z8mr3cdYxtOGnvTD74O7Z6z9WAzmrvNPnn85i37ZM68b23DynSzEgDqogXRCcyLtX3HQenac7xDvZo3qyntX61n6q6IiEgi6dKlNj0HW+wPRw3TNGh7ru7jUqpUYaeTwqvDmTMXZNWXP8vnc76JFwbq0LlR73a0TXBvdTMKADUUOHfuooyftMhWnIZwVZ4sI6+1rScFC+aMN2+WUf3MBoA//bxTuvUcH2/Y75OVS8lr7epLsSJ5Defp0iGQGgLo8Xpv7D9w3FZXdwMNZ26fzfxUliz4z8Foy5I1qwx5a6jkyp3bKr3p/Y8fOybDBg6V0/86H+r5QpNG8nKbVqbLTGhHnlevMHq9EO2V+fbIWYY9/zRge6n501Kn9mOSOXOGeL3ZnL1D3H1e4gaAOhXBO2+2lw8+WhHTI0+DtZda1JLn6z9hWCcNmg8ePCGz530rX361UYoWzWtqPlU9bsz4+TJ77rfxjHUY7evtG0jZ0g86vDfs84t+8vlXsmz5+njvG12MZPyYrrYfosxsRgFgzpxZYkJGfbe3bVNHGr1QNd5cizqnps7ZOGPmqng/YnjyLtd6r1y2WHbt2OFwCZWfrCJPVK1m5rLYBwEEEEAAAQQQQAABBEwKEAA6gdLefxMnL3b4a/WnysmQAa0lQ8a0pnj1A07nk/ro4y9sH1RdOzcydZyrnfy9CrB+OM6a84281OJpqfZUeUmX9l6vR1d11b8fOHTCcIhZ/74vSdPG1j/yjK5fQ0ldjEMXaNEP+8H9W8ujlR4yNUROhydO+WCZbUidfowntEVH35J33psli5euc9hNg4wunRrG6wnprCwNA/f8cUQ+mL5cqlcr59UhwOHYA5Dn1cyT6N999P0389MvY0L52GevWqWMDOz3sukfAHSBig9mrJBZs1bLwP6t3Hpe4gaA+iNBzRoV5Muvf7FVTQN8fSeZnaNUn9+589ZIr+5NXS4Esum3PdKj10TRH3dib3VqP2o7Z9pYPcnjtpK+K1au2iBvvfN5vPBN55Xt2a2pqYVBEprKQYPP4UN0LtLSTt+Z2p66ANTgYTPi9Zbs1rmRtGlV29T7Nvb1Xb9+XRbM+VxOHP/vxxD71uCFRlKsxMP+vWE5GwIIIIAAAggggAACiVyAANCggfUjrf+g6bJ23daYv+qE6VMn9pJSpQpZviX0w+ny5Wu2Xnfe2PwdAJ4/f8n2gZo8hfur1eqqwT17T3ToxaIhwNtvviZqa2Uzun778dqjcOSIDlKu7H8LgpjdtIeOzlsXdyhz3OP//fe8dO4xTvbtuzdhvfbEmTy+h+TOndXs6WL20497vd+shqoJnSjc5gDkebV82/nlAGe9Ms2EXkYVtAdQV69cFy3D6pbQ3KpPPF5Shg9tK/ffl95SsTdu3LQtZJMsmfPFbHTKgGFvzYwJGu0n0EWL3h3RQbJkdt0L2lmYqu+7qRN6SuHCrnvzJhQA9uvTQpo1qe4ywHNWj4eK5ZPxY7qZDnTtBhcvXJDPZn4kly5ejHFPmTKlNG3xkuTM5fqaLDUWOyOAAAIIIIAAAgggEOYCBIAGN0BU1CXp3H2c7Nx1b0VE/cCZNKGH5Q9EX9xf/g4AvXENly5dld79psgvm3bHFGefg0sDNCubswBQe/QMGtBK6tet7PJD1sr5Yu976PDf0rHrGDl58mzM/6w9B4cNekUiI1O6W6xXjwu3VYB5Xr16+3ilMA3Ux09cKJ/NXu1QXsECOWX86K5uheX2grTshAI3ZxfgLADU98+YUZ2lUAHfzIn5xx9/yetdxsi58/dCLn1XjRnVxdbr0Oymw3D/98ZU+X2L4xyCnTu+IK+2qevynecsANQfS9575/V4w36d1UunxdApEHbvPeKwi/7w8kytimYvx7bfiRPHZcGsz+X6jXs9I3Xhj5at28h993u2WrylirAzAggggAACCCCAAAJhIEAAaNDIRoGClcnefX3fhGIAqD1Hxk5YIJ9+/rUDj9l592If5CwAfKpqWXlz6Kte7U0Xty2NAsDaz1SSIQPbSKpUjguh+Po+SKh87Vm4Y9s2WTx/kezds1tSpoqUajWqS8OmjSRjRtc9jrxV96ioKPlq5SrRYcnnz5+XgoUK2Rb+KFOurOk5KF3VhefVlZD//66LV+iPKPq8xN7cHfbvjStwFgCa7f3mbh103r/3Rs9xOLxi+WLy/shOkiFDGkvFzl/4vW0BothbpYoP2eZTddXD3FkA+L9ezUWHEpvd9F2uQ+4nTVnicEjD56vIG/9raTg3rrOy/9i7R5YunO/w5/QZMkirV16VtOms9cY0W3/2QwABBBBAAAEEEEAgXAUIAA1a3ihQ0KFhUyf2tE36HugtFANANTP6AB01spPUrF7eEqmzANDdxQGsnNwoACxSJI9MGttdsma9z0pR7OslAZ5XL0F6sZhvv9ssvftOdigx0M+JUQCo8/1NmdBTCuTP4cWrv1fUzZvRMnzEp/EWQdH5QrXXntXNqDdhtgful8kTe7rswWj0/tXpF6ZN6SMlSxSwVJUduw5Jh47vO8xp6E4v+c2//iLffv2Vw7lz5c4jTZq3FB0KzIYAAggggAACCCCAAALeEyAANLDUCeeHvPmxrP7mV4e/tm1dRzp2eN6t4WfeazKRxBQAuhPaGV2/rz/k7e2nw/g6dx0bb/jb0EFtbAsTREREeLOpKcuEAM+rCSQ/7uKst++LTWtI7x7NAvb+NAoAfd1719n7YvrUPlKxQnHLrXLhwhXbCvDbtu93OHbiuO4uhxMbBYDuhHZ6YqO5UN35kWzD+rXy49ofCAAt3wkcgAACCCCAAAIIIICAdQECQCdmRquK6rxNDZ57Ulq/9KzkzJk5YGFPoANA/cA/c+aC/PLrbtmx86Ds2fuXnDp1VnSOKqubtwJAs8PgrNYv7v7OVgFOkSK5tG1TRxq9UNX0XFqe1oXj7wnwvAbP3eAskB08oLVRpnWuAAAgAElEQVToMNFAbUYBoLs98cxeg1GPYbM99ozO4axHoZlhvEYBoLsBqNHCO1pfq8EmAaDZO4n9EEAAAQQQQAABBBDwXIAA0Inh4SMnpVvPCfLX0VOGexQvmk9q1CgvFcoXk4IFclheydaTpgtUABh985Zs+HmHTJ62VPYfOO7JJcQc660AsF6dx2XwgFaiQZyvN/Xv0WeiXLx4Jd6pNCQuU7qwVK1SVipWLC65cmQJqrkBfW0TqPJ5XgMlH/+8RkOydS935vv05lUZBYAjhreTurUf8+ZpHMoyele72+vOXrDRdbRpXVu6d26c4HUYBYCtXnpGenRtYvnHLGdBpNX3OQGgz249CkYAAQQQQAABBBBAIJ4AAaCTm0J7ua34YoO8OeJTib512+WtkzlTBilVspCULl1YSpcqLMWK5LE0GbrLE8TaIRAB4IFDJ2TEO5/Jlq1/Wqmqy32tfjBqgYG4/tgXoquQfjhjpUz7cLnL69MdcubMImVLPyglSuSXCuWKSd48DwRsGKSpCofgTjyvwdNoRr3e/DVEPyEFo+DM16Gk0bvK0wWljBYVMbMAh1EAaCY4dGZq5GmmJ2Ls8ggAg+e5pSYIIIAAAggggAACiV+AADCBNtZQYf2P22X4iE8sD29Nnz6NNG1UTZo2riZZsnh31VV/B2A64fvAwR867Q3pyWMSigGgXq+GgEuX/2hb3VN7w1jZdAhgyxa1bHMGpksbaeVQ9uV5Dfp7gADwXhP5IgB0dyivPwJAq4EiAWDQP85UEAEEEEAAAQQQQCARCRAAmmjMs+cuytx5a2T+ou8Nh30mVIT2DNReEU/XrGB5mJWzcv0ZAB479q906zVBDh46Ea86sYe7Fi6cS3LnyiqRqVI45fhq9SZ59/3ZDn8P1QDQfhHHj58WnX9u1VcbLQeB6vXm0FdtQ4bZvCcQzs+r9xTdL4kA8J7dzxt3yetdRjtgVq1SRt5+8zW3p40gAHT/3uRIBBBAAAEEEEAAAQTCWYAA0ELra6+vP/48Kpt+3SMbftohu3YfNhX6aFA2aEArqV+3sldCQH8FgHq94yculM9mr3ZQ0utp+HxVefWVupZ6Nxp9uIZ6AGiHuXHjpuzcdVh+2rhTfvllt+w/cMzU0HHtKTpqZEe3VgS1cOuG5a7h9rwGSyMTAN5rCaN3tU4RMWFMN8mQIY1bTZaYAsA/9u6RpQvnOzhkypxZWrR+RdKkds/HLVQOQgABBBBAAAEEEEAgDAQIAD1o5Dt37sr5qEuye89hWfPdZvlh3VanPQTz5skm48d0lfz5sntwxv8O9VcAqL3/OnUb6zD0V8O/Pr2a21bzTJYsqaVrWbx0nW04dewtsQSAcSE0fNJVkXfuOiRffPmzaE8gZ0OFK5YvJu++00Huvy+9JU92tiaQ2J9Xaxq+2/vEidPSufs40SDQvum9PXViTylaNK/vTuyi5MQyB+DkqUtk+oyVDldrZjEPfwwBtrrS88ED+2Xx/Lly+/a9eXbTZ8ggrV55VdKm430YsIeFEyOAAAIIIIAAAggkSgECQC82q/YCW/P97zL1g2Vy7Pi/8Uru3PEFebVNXY97AforAPz2u83Su+9kh+t4qmpZ27BVd+auM/oAT6wBYNzGv3T5mixZtk4++/xrw/kkR47oIM/UqujFu5GiXAkktufV1fX66+/OVgGePrVPQHu6BiIA1PlTO3R8X65cvR7DX6RIHpk0trtkzXqf5SbReWnHTlggn37+tcOxZubeMwoAX2xaQ3r3aGb5x5zr12/KsLdmypdf/+JQD6vv83///Ufmfv6pXL1yb0X1VClTSZOWL0nOnLks+3AAAggggAACCCCAAAIIOBcgAPTB3XHqn3MyYPB0W0+92Fulig/JqHc7Srp0qT06q78CQKOeJlY/8OwXqr3fho/4VFau+smjD0Y92F/X71EjOTl4//5j0qvvlHgLqphZxdNKfbS3245t22Tx/EWyd89uSZkqUqrVqC4NmzaSjBm9uyhNQvWKioqSr1aukm++Wi3nz5+XgoUKSfOXW0qZcmUlSZIIK5fks30Ty/PqMyCLBTt71q2uEGvxtC53D0QA+NfRU9Kp61iHH4Q86Q157doNGfLmx7L6m18tv0eNAkB35yO8dOmq9O43RX7ZtNuhHlZXVb5y9YrM/uRjOXvmTEw5ERER0rBJMylcpKjLNmUHBBBAAAEEEEAAAQQQMC9AAGjeytKe27cfsE3+HrvnR4H8OWTSuO6SM2cWS2XF3dkfAVh09C15571ZosN2Y29WP/Dsx/7773np3GOc7Nt31KE8d0IBf1y/Rw3k4uCvV2+SvgOmOezlrXBYC9XhdKtWfCGffTzTtlpx7C1HzpzSb1B/yZM3jy8v0Vb2qZMnZczIUfLnvj/jnatp82bSpHkzSZrU2jByX1U61J9XX7m4W64ujDNx8mKHw2s/U0mGDGwjqRJYKMjd85k5LhAB4IULV6Rrz/Gybft+hyqOGtlJalYvb6baDvs4e4+a6V1pFAC62xvRaJi3rm4+eWJPKVQgp+nr0nfVkoXz5cCfjj+WVa1eQx59/AnT5bAjAggggAACCCCAAAIIuBYgAHRt5NYeRsPgsmfPJFMm9BQNAj3Z/BGAORvi5W4A+NPPO6Vbz/HxFsYwM3QtrpU/rt+T9nF1rNEiCQ+XKGALhzNmTOfqcJd//+vwERk6cIicP3fOcN/qT9eUDp1el+Qpkrssy90d9MP+s48/keVLlhkWERkZKUPeGiZFixdz9xRePS7Un1evYnihMH1GO3R63+F5z5Ilo0yd0FMKF87thTNYLyIQAaAG8KPGzpO589c4VPjlFrWkW5fGlofeGrnqauKTJ/QQnWc2oc0oANQ5XadN7iPlyxWxBLp+w3bp0n2cwzHuLm6yYf1a+XHtDw5lFS1WXBo0auLxdBmWLoqdEUAAAQQQQAABBBBI5AIEgD5qYH8HCu7O5eTs8p19uJrpaRK3TGdhou5HAPifljcDQB1uO2XCJKd3dvYc2WXQ8CGivQF9tV24cEHeHDRUDuw/4PQUTV5sahsOHAxbqD+vwWAYuw7a861P38myafNeh6q91raetG/3nOXgyxvXF4gAUOttFLw9VCyfjB/TzdIq6s5WZa/+VDl5a9irkjp1qgSZjOqhB1gNI53Vw2o59soaLQTyQPbs0rxlK0kVGemNpqcMBBBAAAEEEEAAAQQQEBECQB/dBka9vPSjb9KEHh6v9mo0sbw3h5DaSYzmAHRnIZNv1vwm/Qd+EK/3X7gGgEa9eGo9/YgMG/SKREam9PiO/Gzmp7JkwSKn5WTJmlWGvDVUcuX2XU+s48eOybCBQ+X0v/EXw7FX7IUmjeTlNq08vl5vFJAYnldvOHizjPkLv5e3R37uUGT69Glk1MiOHi0GogGU1RXItRKBCgCNVlPX+vTr00KaNaluupeb0T2q5fTv+5I0bVzNZdM5CwCt9kw3qof2JNRA8/HHHnZZj7g7XLx4QWbN/FguXIiK+VPqNGnkxZdaSdasD1gujwMQQAABBBBAAAEEEEDAWIAA0MDl5MmzsmPnQXnyiVJuBTL6gfrhjJUy7cPlDqV7aw4so/mX0qROJVMn9pJSpQp57V43GuZVsEBOGT+6q+TOndXUeTSsHDj4w3iLXtgPrlfncRk8oJWksDAcNZBDgA8cPCHq/1ilEpI8RTJTBrF3unr1urw9cla8xVDatq4jXTo1NB0GJHTicOsByPNq+Tb0ywG6uEq3XhPkjz/+cjifDlUdPbKj5aHAugLu+h+3y9Vr1+XZWpUsX0OgAkBnPeY0eJs0rocUKui6J66z94ZaTh7fw9T72FkAqJD6Hu7ft6XLXoTO6lGxfDF5f2QnyZAhjeV20XZdsXSx7Nm10+HYOvWfk5Kly1oujwMQQAABBBBAAAEEEECAAND0PWDv4XDlynVp+EIVadigiuTMkcXUqqXRN2/J4uXrZNToufF6vI0c0UGeqVXRdD2c7agfYQOHfCTf/fC7wy46j9OI4a+JTsbuje306SjbvH279x5xKE5XjhzY7+UEh6/pKrTr1m+Vt975TM6cvWA7Xif/v33rtoOLOz0XAxkA2s+txjrsus6zj0rmzBlMBXe6gufU6cvk08+/dvD0dngbbnMA8rx642n3TRnOev9mzpRBBr7xslR5soyp96q+iz76+AtZvHStDOzfShrUt75ARKACQJXd+8df0qXHONHriL3pDyrDh7aVEsXzO22Ay1eu2RZUmbfgu3j7dOvcSNq0qm3q/ZNQAKgFt375WenYvoGkTJnCsC76b9v0GStk+oyVDn/X3n9vv9Venq5Rwe2b6I+9u2XZooWiYaB9K17iYan/vHd+FHG7YhyIAAIIIIAAAggggEAiEqAHoEFjGg1x0pV7q1UpI5UfLykFC+aUjBnSSvLk//UA0x4eGnJt+nW3LFy8VnbuOhSv1EcrlRANAN3pIWF0vxkNr9P99MO60QtVpWy5IlIgX3bRj7O4W0REEkmXLrXLD2/9GNOPznffnx2vDD3PS82flmeeqWQ7pw7J09DvfNQl2bL1T5kz71vb/7VvWg/9cF+6/EeHFTHdWRk5GALA2CC6qIHOw1XpkeKSL282m619iKKupnzq1DlZ++M2mb/gOzl2PP6Q2MYNq0rfXi3c6lFodG+E2yrAPK/B+y+Ss97Q9hoXLpRLmjaubnt2smW73+GdGnXhsuzZe0SWr9gg2hv55s1o22HDBr8ScgFgQu9S7f3c/MWaUveZSpJP39nJk8W8Szf8tF0+nPGF4XtDe929+04H01NKuAoA1VbnIm3bpq6UL1vE9h7T7dKlq7J5yz6ZMfMLw3/bzPYeTOguvXz5ksz+ZKacO3c2ZrcMGTJKyzavSPr0GYL3BqdmCCCAAAIIIIAAAgiEkAABoEFjOZtryd121WFaY0Z1lkIFXA/1MnsOZ8PrzBxvZcEJncy/74BpsvGXXWaKNtxHw78+vZpL/bqPy/tj5sripeti9tPeb9Om9JGSJQqYLj/YAkDTFTfYUXttvjuig2TJnNGTYuIdq2Hsjm3bZPH8RbJ3z25JmSpSqtWoLg2bNpKMGb17roQqHhUVJV+tXCU6LPn8+fNSsFAh28IfZcqVdRlAmwXheTUrFZj9nPUcc7c2oRgA6rVqz+33Rs+VpcvXu3vpMce582+KUQCoPxbduBEdb0oCsxX01vtLA9Kvvlgp27fe69UeEREhDRo1lqLFHjJbHfZDAAEEEEAAAQQQQACBBAQIAA1wvBko6BCvkSPaW57vysxdu+m3PdJ/4PSYIbZmjtF9rASAur+GjQMGTxcN3qxuOum/Tnavc3YlSRJhuCLm4AGtpeHzVUwXnVgCQO0VOnRQG68N2TYNmMh25HkN/gbVnoCrvtooEyYtsvy+int1oRoA6nXcuHFTPvhwhXw262vDRZHMtGSJhwrIiOHtbL2NrWxGAaCuwt6iWU3pN2Ca5fe7u/VwVudjR/+S+bNnSXT0zZhdihQtJs81bCxJk8bvyW7l2tkXAQQQQAABBBBAAAEEWAXY8B7QOZfWfLdZFi9bL3v3HHbrQ02HdbVvV9/2ceWNlV2d3awHDp2Q996bLZs27zV9P1sNALXgC1GXZcoHy2xzcEXfum3qXE9VLSu9uzeTXLmyxOyvCwK83mWMnDt/MeZ/0/m8dE5Bs4tqBDIAPH/+kq0Hz5erN8n+/cdMOcTdSYdMd+3cUGrXetT0Nbt1ojA5iOc1dBr677/P2ObAXLJ8fcyQXrO11+HCnTo8L5UfK+nWcxPIOQBjX6P2zv15407b1ApGUwI48/D03xRnAWD3zo1tcxO+N3qO6JyNrjbt0d3w+aryWrv6kun+9K52N/336OhoWbJgnhw6eCDmmLRp00nL1m3kvvszmS6HHRFAAAEEEEAAAQQQQMBYgB6ALu6M69dvyp8Hjstvm/fKTz/vlP0HjsvFi1cMj9Jgp1TJQlK39qNSoUJxSZc20i/3nQ6f0nnmvl+7xTZU9/iJ03L4yEmn53YnANTC9DwnTpyRJcvWydff/mpbDTfuZp8rsX7dylKoUK54wzx1OOCuPYcdPv61d0fxYnldrkDpF0wLJ9G5sfb9eUx+2rjTdn/o/2+fp8zIpUK5ovJsrYpSpnRhpxPtWzg9uxoI8LyGxm1x6fI1+e23PbJy1c+2+eWcvVPt82vWrF5edL5Q7UWcWDbtFblt+wHb8NsNP+0w7BmpoV+5skXk2VqPSJUnSkvGjOncvvyEAkAtVIPJPX8ckZmffOkw56L9hPrvm76/Gjz3pBQskMPUwiNWK3tg3z5Zsmi+6Dym9q1azVpS8dHHrBbF/ggggAACCCCAAAIIIBBHgADQjVtCF3a4cuWaw5Fp0kTGTGDvRpEheYiGLdev34ipe6pUKW0r/YbzFtdEF1xJkyZVzKIg4WwTqGvneQ2UvPnzxm0jswsVmT9D8O8Z10B/GEmbNtJrQZurADC2kIaB+gPH3bt3bP+zv97t2gtw0dzZcuTI4ZjqZMuWXZq1fFkiU/+3KAkbAggggAACCCCAAAIIuCdAAOieG0chgAACCCAQMgJWAsBAXlTcXoC6GEid+g3k4VKlA1ktzo0AAggggAACCCCAQMgLEACGfBNyAQgggAACCCQsECoBoNFcgLly55EmzVtKypQpaWYEEEAAAQQQQAABBBBwU4AA0E04DkMAAQQQQCBUBEIlAFRPHQK8aO6cmBWBdTh0veeel2IlHg4VbuqJAAIIIIAAAggggEDQCRAABl2TUCEEEEDAvEBU1CXp3H2c7Nx1yPxBHu7ZpnVt0dVj2UJHIJQCQF1wavVXq2Tr5nurEjMXYOjca9QUAQQQQAABBBBAIDgFCACDs12oFQIIIGBKgADQFFPY7xRKAaA21vlz52Te7M8k6vx5W9vpXIDP1q0vpcqUDfu2BAABBBBAAAEEEEAAAXcECADdUeMYBBBAIEgECACDpCGCvBqhFgAq5z8nT8qZM6djZFOkTCX5CxSQZMmSBbk21UMAAQQQQAABBBBAIPgECACDr02oEQIIIIAAAl4VCMUA0KsAFIYAAggggAACCCCAQJgLEACG+Q3A5SOAAAIIJH4BAsDE38ZcIQIIIIAAAggggAACCQkQAHJ/IIAAAgggkMgFCAATeQNzeQgggAACCCCAAAIIuBAgAOQWQQABBBBAIJELEAAm8gbm8hBAAAEEEEAAAQQQIADkHkAAAQQQQAABBBBAAAEEEEAAAQQQQCB8BegBGL5tz5UjgAACCCCAAAIIIIAAAggggAACCISBAAFgGDQyl4gAAggggAACCCCAAAIIIIAAAgggEL4CBIDh2/ZcOQIIIIAAAggggAACCCCAAAIIIIBAGAgQAIZBI3OJCCCAAAIIIIAAAggggAACCCCAAALhK0AAGL5tz5UjgAACCCCAAAIIIIAAAggggAACCISBAAFgGDQyl4gAAggggAACCCCAAAIIIIAAAgggEL4CBIDh2/ZcOQIIIIAAAggggAACCCCAAAIIIIBAGAgQAIZBI3OJCCCAAAIIIIAAAggggAACCCCAAALhK0AAGL5tz5UjgAACCCCAAAIIIIAAAggggAACCISBAAFgGDQyl4gAAggggAACCCCAAAIIIIAAAgggEL4CBIDh2/ZcOQIIIIAAAggggAACCCCAAAIIIIBAGAgQAIZBI3OJCCCAAAIIIIAAAggggAACCCCAAALhK0AAGL5tz5UjgAACCCCAAAIIIIAAAggggAACCISBAAFgGDQyl4gAAggggAACCCCAAAIIIIAAAgggEL4CBIDh2/ZcOQIIIIAAAggggAACCCCAAAIIIIBAGAgQAIZBI3OJCCCAAAIIIIAAAggggAACCCCAAALhK0AAGL5tz5UjgAACCCCAAAIIIIAAAggggAACCISBAAFgGDQyl4gAAggggAACCCCAAAIIIIAAAgggEL4CBIDh2/ZcOQIIIIAAAggggAACCCCAAAIIIIBAGAgQAIZBI3OJCCCAAAIIIIAAAggggAACCCCAAALhK0AAGL5tz5UjgAACCCCAAAIIIIAAAggggAACCISBAAFgGDQyl4gAAggggIA3BKKiLknn7uNk565DMcU9XKKATBrXXTJmTOeNU1AGAmEvcOjw39Kx6xg5efJsjEXtZyrJkIFtJFWqFGHvAwACCCCAAAIIuCdAAOieG0chgAACCCAQdgIEgGHX5FxwAAQIAAOAzikRQAABBBAIAwECwDBoZC4RAQQQiC1w5uwFWbJsvdy+dVteb98AHARMC4RTAHjp8jX5evUm2ffnUendoxk9r0zfJezoqQABoKeCHI8AAggggAACRgIEgNwXCCCAQBgI3LlzVw4cOC4ffLRC1q3fKtG3bkub1rWle+fGYXD1XKK3BBJ7AHj37l05ceKMfD57tSxZvl5u3owWhl566+6hHLMCBIBmpdgPAQQQQAABBKwIEABa0WJfBBBAIEQFNv++T9q2f9eh9gSAIdqYAax2Yg8ACV4CeHNx6hgB7kNuBgQQQAABBBDwhQABoC9UKRMBBBAIMgECwCBrkBCtDgFgiDYc1Q4pAQLAkGouKosAAggggEDICBAAhkxTUVEEEEDAfQECQPftOPKeAAEgdwMCvhcgAPS9MWdAAAEEEEAgHAUIAMOx1blmBBAIOwECwLBrcp9cMAGgT1gpFAEHAQJAbggEEEAAAQQQ8IUAAaAvVCkTAQQQCDIBAsAga5AQrQ4BYIg2HNUOKQECwJBqLiqLAAIIIIBAyAgQAIZMU1FRBBBAwH0BAkD37TjyngABIHcDAr4XIAD0vTFnQAABBBBAIBwFCADDsdW5ZgQQCDsBAsCwa3KfXDABoE9YKRQBBwECQG4IBBBAAAEEEPCFAAGgL1QpEwEEEhSIjr4lfx37R86euSA3bkZLsqRJJWnSJJIje2bJlu1+SZ48mVcEr1y9LidPnbWdR7dr129IZKqUtv8/bbrUkidXVkmbNlIiIiK8cr6ECgl0XYItALx+/aYc//u0rW1u374jt27flpQpktvaJV/ebJImdSqft4mzE9y9e1eioi7LwUN/y+3bt2Pum8jIlJI3TzZJnz61X+4ZfwEYPY8pUiSXggVySMaMaR2u1ZcBYKCfEfUOluDl1q3bEnXhshw5csp2D8Z+RiKSREjuXFklc6YMXntX+ute88Z59N1x+nSU/H3yTLz3urf/DfFGfd0pw+x9eOfOXTl9Jkr+OnpKbkXfjnmPqkP27JkkWbKk7pze0jHB/C63dCHsjAACCCCAQBgIEACGQSO7c4n6H5T9BkwTDQ1ib906N5I2rWq79fHrrMwO7Z6Tdm3r+eU/VN2x4BjXAkYfKzM+6CflyxWJOVhDlT/2HZWPPv5C1m/YLjdvRhsWnDxZUqlcuZS83KKWlC5VWJIkMR/OXbhwRX7f8od8v3arbPxll5w5+1/wl9CW7YH7pcFzT8pzdR+XHDkyu9rd0t/1/F+s+lmWLFtv+0BztaVPn0aeqlJGaj9TSUo+XFBSWwjBxk1aKDM/+dLVKdz++8MlCsikcd0lY8Z0bpdx6fI1+f6HzTJv/vey548jCZZTtsyD0vqlZ+WxSiUkeQrPA+G4Pmo8ZGAbSZUqRUw9rl27IYuWrpOFi35IsL30nnmxaQ1pUL+yRx5uQ3rhQH0eNeCcNecbWfXVRqfPo7bDa23rScVHHrI9i94MAAPxvC5b8aMMGf6xFwSNi9DQZcqEnlIgfw5L59DA7/CRk7Z349r122TvnsMSfet2gmXou/LRSiWkSeNqUqlCca88J5Yq7ced9b778utfZOUXP7t8d2h4/dijJaTh81WkYoVikjLlvWfcVZU1zBr21kzbueybu21qdK8NG/yKNKj/hKtquAyio2/ekjU/bJYZM1fJ/gPHDcvTf08avlBFmrzwlNf/bQvku9wlHjsggAACCCCAgFMBAkBuDqcCBw6dkJ69Jzl8COt/UI4a2VEqVihuSU4/bj6csVKmfbjc4biK5YvJu+90kPvvS2+pPHYOLgGjADD2h87lK9dkyrSlsmDh9y4/amNf2Yjh7aRu7cdcXuyvm/fK1A+WyZatf7rc19kO+jHd8Pmq0rF9A8mQMa3b5eiB+nE2Z8EamTRlidNgxdUJ9CO2e5fG0uLFmq52tf09mANA9fhy9UaZMGmxqVA29gWXeKiAvNG3pTxULJ9bPzzYy4rrEzvQ1DBM7x0Nho4d/9eUt+6kAfWEMd0kQ4Y0po8Jhh3deR6fq1dZ/te7udyKviWdu4+TnbsOxVyK1XA4kM9rsAWAFy9esYWwcxd8J/r/u7tpj8D+fV+SRys95NFz4u75fXWchvKz530rH3y4wq13qYb1+gNjvTqPmQoCQyEAPHv2ggx7c6Zs2rzXFLv+W9K54wvSvEkNj0PiYHiXm7podkIAAQQQQAABQwECQG4MpwL6Ubziiw3y5ohPHUKbokXzyvjRXUX/w9rs9s2a36T/wA8cytGhdGNGdZZCBXKaLYb9glQgoQDw3PmLMuytT2Ttuq2Wa2+2t4Q3w6+CBXLKyBHtpXDh3JbrqwdcvXpd3hs9V5YuX+/W8bEPatO6tnTv3NhUOd40MDqh1ZDHXoYO1Xvr3c/can97GfrDw4C+L0mtpx9xO9xwFgBmyJBWVn/zq4wY+bnlAMZdE1MN6qOdPHke69V53BaQ/6//VI8CQG/eq1af12ALAI3ene42vf6I0faVevJq6zoeBz3u1sGbx+3ac1gGD50hBw+d8KhYKz34gj0A7Nj+eRn61sfxRmeYAWr98rO259dKj8jY5QbLu9zMtbIPAggggAACCBgLEAByZyQo4Kznnn4I9u/b0tQQRaOehPqh8vZb7eXpGhVogUQgYPQRq8MG27apK2+P/FyWr9zgcJXa/vnyZXf4EDkfdUlOnDjtsJ83AkDt/VCgQA7bPIP27e6dO3LsxGoVBVsAACAASURBVGmngY+74bQ+Lx/N/MLWG9HZlj9fdkmTJtJUXUI9ANT27D/4Q9m2fb8hR9y2uXHjphw5ctKwl6i7vY/tJ44bOmmPqckTesjp0xekR5+J8e4FnV8tW7ZMMfXWOQoPHfrboRdSqAWAGk6/PXKWrFz1k2F7qHHunFkkIkkS299PnTobr8dmsybVZefOg7J7770h3FYdEgoAff28hloAmDNnFrkvzrD7K1eu2YYLO9sSw7Qam37bI/0HTk+wx3Dcd6mz90diCQCfeLykJEueTH5Yu8Wh6WPfI0bvqdg7u3tvBNO7PBH8JxOXgAACCCCAQMAECAADRh86J9Z5mvoOmGabUy32NnRQG9tcNgktoKDzxAwa+lG8/2B19z9CA6F2/do1uXXLeL46X9UnVWSkJEuW3FfFe71cowBQw6viRfM59PzUId9t29aVsqUfNJy8Xu+1teu3yIczvrANxXQnAIw9j16xovmcLtigk6ef+Pu0bc63OXO/jTe87JlaFWXIgNamQm476P79x+T1rmNsE9TH3jQg0Xu+4iPFDa/bvujE5i37ZM68b2OGMlsJAHUBhWgn8ypqXbbvOChde453qFfzZjWl/av1TN0PERFJJF261KbnZNSeZv3emGY4TE3nlXu9fQPbfRB3knr9iP/p550yZvyCeMNx3Q1m9QLjhk4aCrzzZnv54KMVMe82vXdealFLnq//hGTOnCHeu00D3oMHT9iGJH751UbR3tCezotoCt8LO+k9Nm/Bd/Lu+7PjlabDrLt1aRSvPfQZ2bX7kIydsCDB4fWeBID+fl61h9f16zecih49+o/0eWOqnPrnXMw+NaqVlz69XpRUKV2/k/U5SZMmlek5beO+O/WdWbv2o1L1idIJLoikYe6m3/bKjJlfOPTG1ErrAjqjRnayzYMXipvRj4b269B7TX9Y0rn9jOZIjfuM6jyKiSUAjNuWOsfhK63qSM6cmR3eVfoO/Wr1Jpk4Of6UC+78kBJs7/JQvKepMwIIIIAAAsEiQAAYLC0R5PVwZz5AZ70Hn6paVt4c+qqkS3uvF1QwX/6yxQtl727H8NPX9X2+cVMpWszaPIu+rlNC5RsFgOXKFhENpf744y/Rj47ePZpKnWcfM/VhrB8wn8/5Rh7Iep9ob1NXm4Y727cfkJdbPiOPVXrI8hAn7W3Su+8Uh15g2ktx/Jhu8vhjD7s6fczftfeffnTF3qo/Vc4WJJqdV1CDGg0/dbEU7YXWtXMj0+dPaEd/rgLsrCekmnZ+/QVp8eLTLoco6jx12nt01ZcbHS6rccOq0rdXC5fHx7WIGwBqXWrWqBAz2f+TlUvZ5lDTsMDMpouYzJ23Rnp1bxoSC4EcO/avdOo2Nt7iJhp09+/TMsH701lbxA5lrAShwfK8GrWz2dVXzdwjZvbR8+m758knS0mjBlXjhTmuynDWq1PfO28Ne9XSDxiuzuWPvzv7wdHKu8Nez6PH/pG3RnwqR0/8a3phlmAeAmy/LrXo0qmRbX7YhFb5dRak6sIxI0d0MDV3aTC+y/1xH3IOBBBAAAEEEqsAAWBibVkfXNfPG3dJ776TbaGOfdNVXt8d0UGyZM4Y74xGoYonPXh8cEmmiiQAdM2U0DxW2htlwBsv21a2Tai3aNyzaBB29doNW28WV5v2uMuUKYPp3mlG5zLqHaUrvfbu0cxUaKnPRf9B0x3mutO6T53YS0qVKuTqEuL9Xa//8uVrtl533tj8GQDu2HnQFjbFXdTAas9fo5XD3TVNaNipDq0bPrSt5cWINKhOmjSpqfvDG23obhl6L2k4rYvSxN50/jydzzV37qwui9ZnrHe/KYbDua32AAyG59XZBfs7ANRFLjRk8eQ5196K3XpNsP3YYt90Ya2pE3vaeqmG0jZ/4fe24D/2poGX/hvyXL0nLL/j9Rn9bPZq0UDUzMrMoRAA6oI8+mNF7BXMnbWxpz9uBeO7PJTuZ+qKAAIIIIBAsAkQAAZbiwRxfZz16DP6j1Gdn6hbzwleWUE40CQEgK5bIKEA0Gro4/psvtlD5zjS1U31WuyblVVeo6IuxVsdVVeunTShh+VgyRdX6K8AUN8TY8bPl9lzv3W4DHeGVGsB6zdsl569JzrMC9i2dR3p0qmhpUDZWQAYij9KWL0/zp+/JF17TZAdOw44HNqvTwvROf3MBvNGizlpgVYDQKv1N9rf0+c1WAJAb1hoGUa9j82uou6tOnhajgbD3XqOd5hfUst0t9evvT4agN+9K6bCw2APALNkySgTx3aXYiaDXV21d+To2bJw8VqH5tHhw2/8r6XhlBT2HYP1Xe7pfcbxCCCAAAIIhLMAAWA4t74b12403Eh/nR80oJXUr1vZ9iHpbEhSqARBcVkIAF3fKM4CQHdWjHZ9Nt/soT1xhrz5sW1FWPtmZe4oowAwEMGIMx1/BYBG94K7vfb0WnRIYJ++kx3mEixZspBMGN1V7rsvnembwVkAaDUEM33CINpR275Dp/fjrcI+eXwPU73/7JfiLKAJxH3u6fOa2AJA7en12uvvO1yWlTlEg+F2/fa7zbZRBrE3DbymTujp9qrsVq8r2ANAnXd5YL+XLU2BoHOqarCq8yHaN+0NqcP2dQERK89CMLzLrbYp+yOAAAIIIIDAPQECQO4GywLOevfpx6R+CBoNpbSyarDlCnFAwAWcBYDu9NQK5MXEDYn0Y2falD5SskQBl9UyCgCDaRievwJAo1VWPZmPTHvv6LyKMz5ZFdMGVtrFfpBRAGgl4HV5AwTxDtob873RcxxqqEPyhwxsY2oYof1AbQtdEOTTz792KCsQAaBWwJPn1Uro4Y6Vv28Ho3ewmV5e/q6ns/NFR9+Sd96bJYuXrnPYxco0DN64lmAPAM0ujBXb4t9/z0vnHuNk376jMf+z/nD74bS+UqZ0Yadswfou90Y7UwYCCCCAAALhKkAAGK4t7+F1G80ro/MBai/AUWPnOcz9pUPsxo/pKvnzZffwrBwerAJGH5/6gTFtch/R+yJUNqOQaMYH/Uxdg1GPJL1uDUE7dng+4PPE+SMAdPYR/79ezW0T1ru7ffHlzzJg8IcOh1sd3mjUtqEQ7LhrZj/O221i1EsrWAJAvWazz2s4BIChdH/rSrOdu46NN/x34rjuogv0+GsL5gDQ3R+Ubt6MluEjPpWVq35yYBw8oLVoSGy0efu9YT+HN97l/roXOA8CCCCAAAKJUYAAMDG2qh+uSXuCGPX0i3tqXf111MiOUrFC6Kxo6we+RHcKowDQzBAjX0HcuXNXTp48Iz/+vEN27Toshw6dkGMnTsdblMLM+a0ECkbzcGkQ2uC5J6X1S89aXuHTTP3M7uOPAFCH63btOT7eQhHTp/bx6B1gVHedA/DVNnXNXn683mJ6oNUyTJ8siHY0WpxGq+dusLJ1235p12Gkw3BCTwPAQD2vRs3k70VAjOqg02jo4gt632/fsV9On7kg2vPe6hZKAaCuWNupyxjRBU3sW7YH7pfJE3tKoQI5rV662/sHcwBYpEgemTS2u2TNep/l65s8dYlMn7HS4biEhogH87vc8sVzAAIIIIAAAgjECBAAcjO4LeBsrr/YBXbr3EjatKptepJ5tyvDgQEVMPpotrKAhrcqr73wvvhyo3z08UqHD0lPyrcSABoNj4997uJF80mNGuWlQvliUrBADlMrHHtS99jH+iMA/OvoKenUdawcO/6vw0f8+++8LnnyPOD2pWzfcdAWLMberM5vZtQD0GovQrcvIIAHGg1N1+pYua9jV9/oWXc3AAz082rULIEKAPVHtYOH/papHyyTdeu3OgSs7t4+oRQAGr2f3L2v3PXS44I5APTk31Sj4bw6NcvgAa0kRYrk8ciC+V3uSftyLAIIIIAAAuEuQAAY7neAh9d/+kyU9BswzdZTIe7GvH8e4obQ4YH6aLYT6cfzlq1/ypDhHzuET94gtBKUaD1WfLFB3hzxqakP+MyZMkipkoWkdOnCoh93xYrkSXBVRk+uxx8BYEKrQXtSd6Njrc5v5snwbm/X3Z/lGX3IezL3odF8YlaDmmB5XoMlALx85ZpMmbZUFiz83tR7w+z9E0oBoFFAFYj6B3MA6ImH0dDbhMoL5ne52fuf/RBAAAEEEEAgvgABIHeFRwL6IacTwuvE8LG3DBnTim1RkIdcL57gUQU4OCgEAhkA6j24dv02GTxshltDfF0BWgkAtSytz/oft8vwEZ/ImbMXXBXv8HcdMt+0UTVp2ria6OqX3tz8EQAaDQ/15jXELsvqx3C4BoBGz6YnAaCnq10H2/Ma9/7097vsQtRlefv9WfL16k1ef1SsPiNer4CFAgkAHbG8fR8avf8Tuj+C+V1u4bZiVwQQQAABBBCII0AAyC3hkYD+R2WPPhMNg5dHK5WQkSM6SIYMaTw6R6APvn7tmty6Fe3XaqSKjJRkyeIPy/FrJSyczNsfKxZObZsrq1O3sYb3oA5teuzRElKtahnJmSOr5M37gOicfM62Dz5aKXPmfevwZ6sBoP3gs+cuytx5a2T+ou8tB5PaM1AXzni6ZgWvDZ/3RwBodA4rbWllX6vhBgHg2RjeQAaAwfq82nH8+S6LvnlLRo6eLQsXrzW89XUBrerVytlWas2RI7Nkvj+900fk6NF/pM8bUx2mPrD6jFh5/ry9LwFgcAWAwfwu9/a9R3kIIIAAAgiEkwABYDi1tpevNaHhv/ZTdWj3nLRrWy/gK6B6cunLFi+Uvbt3eVKE5WOfb9xUihYLnYVT/PnRHBtT56EcOOQj+e6H3x2MNfhr366+NG1cXdKljTTt74uQ6Nat2/LHn0dl0697ZMNPO2TX7sOiqzK62jSoHDSglW1l7YiICFe7u/y7PwLAHbsOSYeO74suPOHrzWq44Yu29fU1eqP8YOoBGArPqz/fZT/9vFO69Rwfb9hv2TIPSo+uTaTEQwUkSRJzz74/6+2N+zJuGQSAvg0A12/YLl26j3M4SULv0GB+l/vi/qNMBBBAAAEEwkWAADBcWtrL12lmARA9pbdDDC9fhqniCABdMwXq43P79gPyepfRDoGTDqMdPqStVH2ytKXgTIcm6lB2HdIee3O3B6AzNV3x9HzUJdm957Cs+W6z/LBuq9MegtoDaPyYrpI/X3bXjeBiD38EgN5cIMLjC45TQLgGgEZDdu+/L71MndhTihbNa5nZkzYOhefVX+8y7f331rufiQZfsbdnalWU/n1aik6jYWUzWkXXakhu5Xze3vfb7zZL776THYqtWqWMvP3ma35dLCmY5wCs9fQjMmzQKxIZmdIyv9WA1ZPn3HLlOAABBBBAAAEE/CZAAOg36sRzIg1K5i34Tt59f7bDRZUvV8TWW2nU2HkOgYbOZTZxbHcp5sbHZjCoEQC6bgV/fTTHrclHM7+QiZMXO/zPLV6sKT27NbXc69Tow08L9nYAGPcabty4KWu+/922+mfs1XPt+3Xu+IK82qaupTDTqMX8EQB6Y4EI13ebe3uEawB44cIV2wrK27bvd4Bz9742CprMLgISCs+rv95lJ06cls7dx4mez7558m+l1Tne3HuKfHeUUf0fKpZPJk3oIRpY+2sL5gDQ7HNmZDV77rfy3ug5Dn9q9dIztp6mRj3Mg/ld7q97gfMggAACCCCQGAUIABNjq/r4mjb9tkd6951iGPIVLZLH1qNh6Jsz44WD747oIFkye3dhAx9fqq14AkDXyv76aI5dEx1GO3zEp7Jy1U8x/7P2OJ02uY9oGG1183ZQYvX8p/45JwMGT4+3onalig/JqHc7Srp0qa0W6bC/PwJAHfrbf9B0Wbtua8y5PZlvzqMLjnNwuAaARs+J0gwb/Io0qP+EZWJ9/7/2+vsOx5kJJkLlefXXu8xokQVPeuxZXeXVcsP7+ACj1ao96anqbnW9GQBOnrpEps9Y6VAVs8+d0X2YO1dWmTyhh2jPcCubs97tXTo1tP24ZLQF87vcyrWzLwIIIIAAAgg4ChAAckdYEtDeHz17TxL9j3X7FneYr7PhwfXqPC79+7aU1KlTWTonOwe/gL8+mmNLXLp0VXr3myK/bNrtlbDpjz/+kte7jJFz5y86gE8c112erFzKL41gNESyQP4cMmlcd8mZM4tHdfBHAOjsQ9Ofhs6QwjUAVA+jICKh3j8J3WhGPYnMBICh8rz6611mNOS1Teva0r1zY8vPuc4zqj3v585f43BsIIbQWq78/x9gdH/on8wGZu6eN+5xRgFgmtSpZNqUPlKyRAHTp4mOviXvvDdLFi9d53CM2esxug+1oOlT+0jFCtbmBzYK87SshN7LwfwuN90I7IgAAggggAAC8QQIALkpTAs4C/YaN6wqfXu1kOQpksWUdfp0lC2ciTvsbOigNrZeJ95Y1MB0xdnR5wL++miOfSFGc5t50tts/sLv5e2Rn8ezMvvB5g1kb19T7Dr5IwDU8xkFGy+3qCXdujS2PCzbG6b2MsI5ADRaAKBi+WLy/shOllZpdzZM3kwA6O1721fPq7/eZUZzsrkbAOq/t7qYyO69RxweGTPt4s1nzJOyNHDS6RxmfLLKoZjqT5WTt4a96rcfDr0VfJ0/f0m69pogO3Yc8GoA6M6UEO4uBBSs73Kj++zOnTuyZ9dO2bB+nUSdP2f7b8wHsmWXp2o+LXnz5vPk1uRYBBBAAAEEEpUAAWCiak7fXYz2MPhwxkqZ9uFyh5PoUEtnQ3uNhgrrAg2jRna0/Au2766Mkr0h4K+P5th1NerVkO2B+2XyxJ5SqEBOS5d15uwF+d8bU+X3LfvCKgB8sWkN6d2jmVeDOaMwwpNg1lJDJrBzOAeARvPNaa+mqRN7SalShUwT799/TF7vOka0jWNvZoKmUHlejd5lvuhJZxTKutsr0yhM1PYx0y6mG98POxr1gNb7dOzoLn79bwajuSoTGi5rRONshWezPyg56wHoTnBvFJabuaeD9V0e1/vO7dvy5coVsnPHtnhNkTRZMqlbv4EUL/GwH+5gToEAAggggEDwCxAABn8bBUUNv1nzm/Qf+IFE37odUx8N8yaP7yElHy5oWEf9Jd1oPkCdv2bMqM6WQ5qggKAShgKBCACdzW02ckQH0ZU0zW56n8789EsZP2mR4SFmP9jMni+h/YwcvTUR/o5dh6RDx/cdVkz21vyCsa9JPfUDetKUJQ6XGugpAMI5AHQ2HNHKnHP6I9CY8fNFhwDH3cwETaHyvBqFpd4ahh/bzWgOQHfCnWPH/pVuvSbIwUMn3GoXb7y3vFWGjjIYOOQj+e6H3x2KTOiHRjPn1nfS3bsiSZJEmNldjMLZKk+UkhHDXzM1F6tex7ARn8jXqzfFO5/Zf0+cBYBaoNkydF+dW1bvD53iIvbWv+9L0rRxtQQ9gvVdHrfSx47+JfNnz5Lo6JuG15MpcxZp/nJrSZvW2srapm4WdkIAAQQQQCDEBAgAQ6zBAlFdM/P+OasX8wEGosX8f85ABIB6lUbzkT1aqYRoCJghQxqXEPqBs3b9Nhk8bIbDojaxD3ytbT3p9PoLLss6efKs7Nh5UJ58opRERqZ0uX/cHZz1srUS0iR0Um/1AjNzYc5CCbV8rW19h+kCzJRn30eNtmz7U44e/UcavVDVyqESzgGgQmmP7B69JjoEwHHnb00I9OeNu6R338kOx9v3NxMABtvz6uxanc1FZ/WHBVc3p9Eqq9oeb7/VXp6uUcHV4ba/X4i6LG+/P8swaNK/u7tohKmT+2gnDd969p7o8GOjnqpO7UdFQ6u0aSItnVlXWZ8191upVrWs5M+X3dSxRv+emW0b/TdlxRcb5M0Rn8a7Bj252fAuoQDQ7I+ozv5NKVggp4wf3VVy587q0iMY3+VxK73511/k26+/cnotOhy4Tv0G8nCp0i6vlx0QQAABBBBI7AIEgIm9hT28vtNnoqTfgGnxViY1mvfP2amczQfYod1z0q5tPa8OP/TwcjncTYFABYDOhiQ2a1JddMhWQh+L0TdvydIV6+X9MfNEeyfplipVCrl967bDh1vD56vIG/9rKcmT35vj0ojJbnDlynVp+EIVadigiuTMkcVUrxOty+Ll62TU6LnxPhq9FTwk1LtGe7bo8GlvbQl9BD9Vtaz07t5McuUyt6iJlnXmzAVZ9dVG2yIH2qPFnbnSwj0A1Pn7dI7L5Ss3ODSz9uTu16eFPFurkuG9eufOXVm7bosMeXOm05DcbAAYTM+rs3tdQ5PxExfKZ7NXO+yiocvokR2lcOHcXnlMnJ1Hh8u/NbSdlCv7YIJz5R499o+8NeJT2bR5r60+GlAlTZZUtJ3tmzuLV3jl4jwoRN+FI0fPloWL18YrRXtIDhzQSvLkfsDlGfS+3bX7kIydsEBOnjorUyb0FO3JaWZz9q501TYJvcft5/VGAKhlaYincyrrs2c0p/K1azfkgxkrZNas1fH+TdHnXf+NNDMXczC+y+O24caffpS13zkugBN3nxIlS0q9Bg3NND/7IIAAAgggkKgFCAATdfN6dnH6gTJl2tJ4k3K7MxzHaD5A/WAZMqiN6NBAttAWCFQAmNCwRO390q5tXan8eCm5L2M6W7ih++t8f9qbac68b2X/geMx8FmyZJTuXRrLtOnL5djxf2P+d7PDZI0MdOXealXKSOXHS0rBgjklY4a0MUGivS6bft1t+9jduetQvJvASm9GM3eQs4UTMmfKYOtRV7ZcESmQL7stTIi7RUQksQ1/MzuMzlnvE3tYUblyKXmhwZNSvFg+m0uy/z+nHqe9sI78dcrW22/Nms2y5w/HxQ0IAM20dvx9jHpz2/fSIOGFBlWkQrmiki5dpFy6dE127j4kCxf/IFu2/hlTWOFCuSTqwmWHeQDNBoDB9LwmJOhs/rYUKZLbnpMnHi8p+fNnl8hUKQyfkzRpUpn6YWvvH39Jlx7j4s2pqM9f7WcfFZ2jU3ut6Q8Tuuk8igf2H5elK360BeL2Hy70by1erCnJUySXTz790qFOo0Z2kprVy7t3wwToKGc/PMZ9dzxUPH/Mu13/puGn/uD4y697ZMnSdTHvDXfmIDWa9sR+fm0b7Zmt73RtqzPnLsrGX3bL8hU/xvybogHdc/Ury5hx8x0UPQkA9d+TG9dv2v4Ni23RoH5lKfJgHtv9aK/L/AXfOfw7Zq+EO/+mBNu7PO5tefDAflk8f67cvn1vipq4++QvUFAaNXtRkiVLHqC7mtMigAACCCAQHAIEgMHRDkFXC2e/+mpvkbHvdxENAa1szAdoRSv09g1UAKhSCc2BZVZS7+vhQ9pK2dIPyv/6T5VfNu2OOdTs/F8JDdkyW4/Y+5kd5mWlbGfzQZkpw2zIE7ss7UkzccoSW9jqzY0A0H1Nox9jzJam9+Rbw9vJrDmrZfU3v8YcZuXeCJbnNaFrvnT5mgwa+pH8sHaLWZqY/ayETa7mHzV7cp3ztH+flvLr73/YhmnH3qwuXmH2nL7eT99VAwZPjzf6wJ3zWmkTe/nOpi8xc377YmcpkieXdh1GOvTA8yQA1Pdewfw5ZNibMw2HF7uqmyf/pgTTuzzudSa0CIh931y580iT5i0lZUrr03O4cuXvCCCAAAIIhJIAAWAotZYf67r5933So89EhyFfVuaLMqqqs/+gdqdHoR8pOJUJgUAGgFo9HVrYq+8U+evoKRO1ddwl9rAu/cvEyYvj9XqdPrWPy1UovRkAau+RkSPae224Yewr1gCo/8DpMb1IzIJZCXlil2k01NrsOZ3tZ3ZextjHh/sQYLuFhk6bft0jAwZ/aOkesIca5coUkVFj59mGY9s3q/dGMDyvru7Bg4f+lj79phgurpHQsVbDJn0+ps9YIdNnrHRVJcO/x57uwOgdVOvpR2TYoFfcmpfUrQp58SCd43DKB8tk8dK1bgVe9qpYbRP7cdoLWZ8THUpsdtNeooMHtJK6tR+Tw0dOSseuY0Tnh7VvngSAeqyWu3jpOnl/9BxLJiUeKiAjhreTfHmzmb2UePsFy7vc6AKio6Nly2+/yq+bfpHLly7G24UA0O1m50AEEEAAgUQmQACYyBrUG5fj7Jf35+pVtk3CbR+O5M65nM0HqPOs/a9Xc4/Kdqc+HOMdgUAHgHoV+pE1cvQc0712NNBu+HxVea1dfcl0f/oYCKMVIDt3fEFebVM3wTmTLl+5Jmu+2yyLl62XvXsOW/o4s59cPx7bt6svLZrV9OkHuw4Ffe+92THzh5m5C6yGPHHLPH78tC3o+PKrjW7ZaAClQxmbNa4uhQrlMj0U2V4PAkDHFtHnRYO8deu3umyPsmUelD69XpTiRfPZCpk8dYlDYOXOvRHo59XMPa//Xo0aN0+++26zSyN7ee6ETTrEUof0Tpi0yHQoq1Mc6Fxujz36cMyzoEOE+w+aLmvXbY25PO31NXl8D1MLPpgx8fc+Opff71v3yYcfrrD0vtJ66ju+ypNl5PX2DaRggRym5ryLe316D7w3eo7okGBXmz4nvXo0E125XefXO3f+onTuOlZ27703hYEnAaD9hygN8XXIsc7pGXu6CqP66b8pzRpXk/avPWd5ARVn1xvod7mrdtC/nzhxXBbM+lyu37hu273Qg0XkhcZNJWnS+NNbmCmPfRBAAAEEEEgsAgSAiaUluQ4EEBD9WDxw4LjMX/S97SPYPldSbBqdxL/6U+WkXu3HJGfOzPE+CjXI07m57ty+E3OYzq1UrFg+lwuB2A/Quaj+PHBcftu8V3Q+MZ1r8OLFK4YtpPPvlSpZSOrWflQqVCgu6dJaW+XS3WbXj8hTp87J92u3yMZfdsnxE6dtPVacbe6EPEZlaZvo+b7/YYts3rLPqYsGfiUeyi+VHyspOg9j3jwPmJpXzV2PcDxO74ETJ87I6jW/xrtPde65yo89LE8/XVFKFM9vOXA14xksz6urutrv2R/WbhVdfOPIkZNOA0F3AkD7+XXo8fc/bJZFS41/RNBnHV266AAAIABJREFUonzZIvJ8gyelYoVikjJl/DkIDxw8IWf/f444e7l582bz6iI/rrx88Xf7+2rND7/bwjhnP7Jo4FWubBF5ttYj8vhjJUXfr55u9vtUV/fV+QXt7a8BY+FCuaVSpYfk2acruvXDhCd10xWON/22V5Yt/1G27zgQ8++dXnOxonmlZo3yXjMItXf53l07ZdmSRTHVLl2uvDxbp54n3ByLAAIIIIBAohAgAEwUzchFIICAkYD2iIn+/xV+9e9p0kSaDvG8LRodfUuuXLnmUGwg6+Pt63O3PA1Lr1+/gYu7gInouGB6XgPNqr0CdUXxu3f/+yFCey6lTRvpVi+2QF+Lr84f937RRVB05WO2wAgE07v8q1UrZdvvm2Mg6tR/TkqWLhsYGM6KAAIIIIBAEAkQAAZRY1AVBBBAAAEEEEAAAQQQcE/g8uVLMvuTmXLu3H9zL6ZNm05atm4j992fyb0COQoBBBBAAIFEJEAAmIgak0tBAAEEEEAAAQQQQCAcBXSo+E/r18qP69bGXH6RosXkuYaNmf8vHG8IrhkBBBBAIJ4AASA3BQIIIIAAAggggAACCIS0wIljx2Th/Dly7epV23WkSplKmrR8SXLmzBXS10XlEUAAAQQQ8JbA/7F333FSVOnXwE9PHnLOWTJIVpAouhhAgrKYQAWRnJMoKIqKK5JzUFZdQZKIgqCIShBJkrOSc85pcr/v0/x6mJqp7q6qTtXdp/7Z/TgV7v3eWz30mRsYAHpKkvehAAUoQAEK/J+A2q7D3sTx1CYt3iwj720eAbWd271dOq074Hq7HLx/cAqcOH4c3y2clxr+yU7M9Rs1Rr0GDbl2ZnA2OWtFAQpQgAIGBBgAGkDjJRSgAAUoQAFnAgwA2T/MLMAA0Mytw7LpEUhJScHmjRuwbs0qJCYmpl76YJVqaNq8BcLCw/XcjudSgAIUoAAFglqAAWBQNy8rRwEKUIAC/hBgAOgPdT5TqwADQK1SPM+sAhL8HTt6BKtW/oILF84rilmhYiU0bdESUVHRZi0+y0UBClCAAhTwiwADQL+w86EUoAAFKEABClCAAhSggBEBGe337dw5OHbsaOrl4RERqFu/IerWq8+Rf0ZQeQ0FKEABCgS9AAPAoG9iVpACFKAABShAAQpQgALBJbB75w4sW/K9rVIFChZCs+YtkTd//uCqJGtDAQpQgAIU8KAAA0APYvJWFKAABShAAQpQgAIUoID3BWS3361/bUK58hWRJ18+bvbhfXI+gQIUoAAFAlyAAWCANyCLTwEKUIACFKAABShAAQpQgAIUoAAFKEABZwIMANk/KEABClCAAhSgAAUoQAEKUIACFKAABSgQxAIMAIO4cVk1ClCAAhSgAAUoQAEKUIACFKAABShAAQowAGQfoAAFKEABClCAAhSgAAUoQAEKUIACFKBAEAswAAzixmXVKEABClCAAhSgAAUoQAEKUIACFKAABSjAAJB9gAIUoAAFKEABClCAAhSgAAUoQAEKUIACQSzAADCIG5dVowAFKEABClCAAhSgAAUoQAEKUIACFKAAA0D2AQpQgAIUoAAFKEABClCAAhSgAAUoQAEKBLEAA8AgblxWjQIUoAAFKEABClCAAhSgAAUoQAEKUIACDADZByhAAQpQgAIUoAAFKEABClCAAhSgAAUoEMQCDACDuHFZNQpQgAIUoAAFKEABClCAAhSgAAUoQAEKMABkH6AABShAAQpQgAIUoAAFKEABClCAAhSgQBALMAAM4sZl1ShAAQpQgAIUoAAFKEABClCAAhSgAAUowACQfYACFKAABShAAQpQgAIUoAAFKEABClCAAkEswAAwiBuXVaMABShAAQpQgAIUoAAFKEABClCAAhSgAANA9gEKUIACFKAABShAAQpQgAIUoAAFKEABCgSxAAPAIG5cVo0CFKAABShAAQpQgAIUoAAFKEABClCAAgwA2QcoQAEKUIACFKAABShAAQpQgAIUoAAFKBDEAgwAg7hxWTUKUIACFKAABShAAQpQgAIUoAAFKEABCjAAZB+gAAUoQAEKUECTwLVrN9Gz73js3nMk9fwHK5fC5PF9kSNHVk334EkUoIBzgSNHz6B777E4e/Zy6olNn6qD997pgJiYKPJRgAIUoAAFKEABQwIMAA2x8SIKUIACFKBA6AkwAAy9NmeNfS/AAND35nwiBShAAQpQIBQEGACGQiuzjhSgAAXSCFy6fB3ffb8WyUnJ6NalFW0ooFkglALAm7fu4ucVm/D3PycwsN+LHHmluZfwRHcFGAC6K8jrKUABClCAAhRQE2AAyH5BAQpQIAQEUlKsOHToFGZ8vgRr1m5HYlIyOrRvir4924RA7VlFTwkEewBotVpx+vQlfD1nBb77YS0SEhLBqZee6j28j1YBBoBapXgeBShAAQpQgAJ6BBgA6tHiuRSgAAUCVGDL1r/RscsnitIzAAzQxvRjsYM9AGTw4sfOxUenCrAfsjNQgAIUoAAFKOANAQaA3lDlPSlAAQqYTIABoMkaJECLwwAwQBuOxQ4oAQaAAdVcLCwFKEABClAgYAQYAAZMU7GgFKAABYwLMAA0bscr7wswAGRvoID3BRgAet+YT6AABShAAQqEogADwFBsddaZAhQIOQEGgCHX5F6pMANAr7DyphRQCDAAZIegAAUoQAEKUMAbAgwAvaHKe1KAAhQwmQADQJM1SIAWhwFggDYcix1QAgwAA6q5WFgKUIACFKBAwAgwAAyYpmJBKUABChgXYABo3I5X3hdgAMjeQAHvCzAA9L4xn0ABClCAAhQIRQEGgKHY6qwzBSgQcgIMAEOuyb1SYQaAXmHlTSmgEGAAyA5BAQpQgAIUoIA3BBgAekOV96QABUwlEBeXgFNnLuLypetITk5BUnIyoqMikSVrJpQoXgCZM8X4rLxSlosXr+HM2Uu2Z96Ni0dsTLTt/xcqmAcFCuRCZGSEx8tjpgDQUXvExkajWNF8yJYtC8LCLB430HpDq9WKa9du4fCRM0hOTk5tIylf8WIFkC1bJlgs/iuf1npoPS8xMQnHT563vR/xCYmICA9HVFQkHihVCDlyZFHU1ZsB4O07cTh77rKtHOnfDXlXixXJhyxZYr1qb5bgJSkpGdeu38KxY+dsfTDt55YlzIKiRfIhT+7sXvms0Npv/HWevz5DfVlfrf0wJcWKi5eu4fiJc0hKTE793Sa/SwoWzI2IiHCvF9tMv1+9Xlk+gAIUoAAFKBDgAgwAA7wBvVX8n1dswuCh0xW3f7xxTXw0/A1kcjMsUbt306fq4L13OiAmJspbVeJ9PSAgwcjnX/yIyVO/U9ytZ/fn8EaHZ9z6Yi5f/oe8OxOr12xPvbcEc9MmDUDVqqV1l/7mrbv4fdUWzJv/O/YdOOb0+hrVy6L9K0+jbp3KiIzyfPgmocnynzdi6Y/rXZZFgpe6j1RG62cbofZDFRAdre2dGD95Ib74crluJ60XPFi5FCaP74scObJqvURxXmJCEtZv3IMvv/4J27b/4/QeEmxI/du0boy8eXMYel76i9L7qH3m3L0bj28Xr8HCb1fZvlA7Ogrkz4WXXvgXWrWob9jDI5Vy4ybyLkvAOfubX7Dspw1ISEhUvZu8G507NkfthyvZQllPBoDXr9/G1m0H8Pvq7diwcQ8uXb4X/Dk7xL5Vy4Zo+Uw9FCqUx9XpGX7+/ZI/8N4H/9V9ndYLJHSZOrE/SpUspPUS23kS+B09dhZr1+3E6rU7sH/fUSQmJTu9R2REOB6pUxnPt3kMdR6q6JXPLl2V8OLJvvgMleJLmDX8oy9sn9f2w2ibqvW14cNeR6sWDVxKuQoA5fP011VbMOuLZTh46JTq/bJly4zWzzXC8881NvSuOCukmX6/usTkCRSgAAUoQAEKpAowAGRnUBWQEUp9+k/A3v33g5NcObNh2qT+KF++uGG1O3fi8M57n+O3VVsV9xg5oiueerK24fvyQt8JHDhwHN16jcWVqzdSH1q7VgWMGtkD2bNnNlyQXXuOoGv3UZAg0H4Yua98MVq+YgMmTl6kKVBIW+DKlUrh7cHtUKlCCbfCTPs9JVCaM28lZny2xGHA4gxMwo5OHZujebO6LoNAswaAEjRJ4Cehy8lTF3T1DwlDu3RqgVdefsJl/V3dOL1P2kDTaBmrVS2DiWP7uNXvXZXbGz+/dfsupk5fjAULf3cZMtmf37J5fbw58GUkJSahZ9/x2L3nSGrR9IbDm7fsx7QZ37sMgp3VXcKv1s8+iu5dWiF7jiyamcwWAN64cdsWws5d8Bvk/xs9ZETgkMGv4JE6lTzy2WW0HJ6+zpefoVL2QAgAL1++juEffoFNW/Zr4pbPUfkj3cvP/8vtkNhMv181VZ4nUYACFKAABSigEGAAyA6hKiBfiCdNWYRZXy5T/NzdkV5q4ZGELRPG9vHYSB82qXcF1EJc+TI+fcog1KpZzvDDZWSh9Lm0R68erW0jC7UeElx/9Mn/FKMItV5rP09GTQwd/AqefOJht75I79l3FMPen4XDR07rLYLifK2jT8wYAMr0tKXL1uGj/3xtKAC1QzzaqDree6c95I8QRg9HAWD27Fmw4pfNGDHya90BjN7gy2jZPXmdBPfDP/rS0DvSvFk9W+D25pBpbgWAnuyrD5QqjJEjuqBMmaKamMwWAKqN9NJUEZWT5HO44+vN8Ub7Zm4HPUbL4MnrfP0ZKmU3ewDYvcuzeP+j/0KWdNB7tH/1adv7q3VUefr7m+n3q96683wKUIACFKAABe4JMABkT3AosHPnIXTrNUYxIqtKldKYOKY3cubUPw3Q0fTRju2bQYKeYFpTK9i71fyFv+PjkV8rqulOO8pUwEGDpyhGNOgdcXr69EUMGfYZduw8qMovoyBKlSpkW99Mjvj4BBw7dlZ1BJSEgKNHdkfthyoaaspNf+3DkHdmOh2BWLJEQWTOHJt6f0flCdQAUN73JT+uw4cjvnI4yiytgazLeOTIGYdBoYRPQwa3M7wEQfrQSUZMTZnYDxcvXke/QZMyhH8yDblAgdyp7aNWvkALACW8/3jkbCxd9qdqv5Z+X7RwXljCwmw/P3fucoY+/OLzj2P37sOK0eF6HZwFgOnfUymHNSUFJ09fdBjQyrqMY0f3ROlShV2+r4EWABYunBc50027v337rm26sKOja6eWtpHDvlj/zSW4wRP88RkqRTVzANigXhVEREZg1eptCtW0fcTV56jRvmGm368GuxQvowAFKEABClCAASD7gDMBRyO9ZLRevboP6sZTC3ncWeNNdwEMXhB39y6SktTXxzJ4S5eXxcTGIiIi0uV5/jpBbdSKOyM51cJmPWtOyqimt96erjolStYw69alFWpUK5vhC7GEbn+u342xExZkmJ6qJ1RI2w6HjpxG/4GTVdeQk6CkY4dnbGv7qa2lKeuAHT582jZtePlPG2zBmdYAUKZOJzpYx03Kt3PXYfTuP0HRZV5+sQm6vNFcUzeyWMKQNWsmzZtz7D9wHL36jbdteJL2kICnY4dm+Pdzj9o2MUh7OGsPOU/aUUaEGgk20odO4vqfD7tgxudLbOvPySEB2Cttn8SzLRogT57sGf4okb59ZDkEd9ZF1ATvoZMkkJ234Dd8MmpOhjvK1Pc+vf6d4R2REZx79h7BuIkLnE7XdScAFPPGjapD1mSsUL6Eww1WpCynz1y0rdH4zdyVGYJiWULivaHtXQbEEvDExcU7VD1x4jwGvT0N585fST3nX4/VwqABLyEm2vVnsrwnmTPHaO6j6T9LK5YvgaZNH8GjDao53RBIfj9v+ms/Zn3xo2I0phRafq+OHtnDtpZoIB7++gwVKzMHgOnbUtZJff21ZihcOI/is0o+R39asck2oj79uppG/rhlpt+vgdifWWYKUIACFKCAmQQ4AtBMrWHCsqht2CELWL/z1qu6pxhJ0CLrCqZd2FxPyOMvnu8XLcT+vfcCAl8dz7Z5AeUrGBt95osyyjpAMtVWRtPYD5l+ZiQcdjQyVNazeqHNYy6rI6GMTB+WNcXSHlKent2eQ9uXnnDZV2VNNBnRuGz5BsU92rR+FIMHtHV5vf0iCbll8xx7oJTWRmtZ7NecOHkeH434CidOXzC0qUB6OF/uAqz2JVrKI18+Zb1PV+uUSfjy/odfZHCUDUEmjeuLCgbWIU0fAEr/aPKvh1IX+29Yv6ptDTUJBrUcsrHM3Hm/YkDfFwJiI5CTJy+gR59xGYJpCc6GDGrndB09R++H3clIACih/6vtnkLdOpV0T0mU0WEDB09VjAg0+vmTvq1dbb6gpW/oOUeeJ3Vp2LAq/t3q0Qxhjqt7ORrVGQi/W9Xq5u/P0EAIAKWv9+rxb7R9qYnToNlRkCobx8jnsJY1e830+9XVu8CfU4ACFKAABSjgWoABoGujkD5Dpn3Igu/yJcV+yMioKRP6oWjRfJpt5B+Ro8fNw9z5vyquCYTNPxgAqjezWjj8atsn0adXG82jX+TOV6/eRO8BE7Fr16HUB2kd9SYX7Np92BZspF9AX+9Up4uXruGtodMVayvpHaGqNjVavqwNfftVtGzeQPPoOTuEjOT435wVkC/zencV9WcAKAFNvwGTFMsHiMO7Q19Di2fqa5ruL4FVnwETM6yhaKSPiYWzaacyte6D9zvqXmNQ2ic8PFxXf9f8oenBEx2F7LJ+3oQxvTV9lstIzoFvTVWdYq83AJR75c6dXff7YCdxNJpRdmYe2O9Ft9rD1wGgbHIhvx9ldK3RQwJzeVdkjV37oXcJBaPP9vR1/v4MDYQAUDbkkT9WxMS43iHe3bDcTL9fPd3XeD8KUIACFKBAKAowAAzFVtdRZ/liMmHSQlsIkfbQOjrLfo3a6BMjQaKOonvsVAaA6pRq4XC5csUweVxf5MuXU7O/2shQraNMpX+OnTAfc+auVDxP63TA9IVcu24n+g+cpBilqnVtQ7Wds+X+ekcRpi+ThB1WKwyHJfb7+WoEoKOwv/GjNfDh+28ga5b76x666iRq67UZ/dxwFAAanertquxm+rlayC7le2tQW8iaflrXX/3l178w5J0ZGdZ01BsAesJG7fPHE7sy+zoA9ISF3ENtE6URH3TCM03reuoRXr+PGT5DzR4A6h0FLaP1R46Zg4WLVivaT6YPv/1mO0RGRjhsVzP9fvV65+MDKEABClCAAiEiwAAwRBranWqqrc8mu3J+/GFn21pDWg5PjRbT8ixPn8MAUF3UUdAzaXxfyHRKLYejgFnryFC1L+t6R+2lLafaOpVaN75Z+dsWDBw8RVFt+bI2bWJ/zTuUajEzeo6vAsALF66iZ7/x+PvvE4qiam3TtBc5CgRkfbMmj9fSReEoANQbgul6qElOlrbv2mOUIrgzEqQ6ag9/BIAycu69D/9r28HZfugZOeyoaQI1AJSRXp27jVJUq0P7pujbs41JeqHrYpjhM9TsAaDWP46l1Vb7I5uMKJf1S2UDET3vgr9+v7ruPTyDAhSgAAUoQAEtAgwAtSiF+Dlqm4Ho+Uegu9eHOL+pq6/2xULLyAJ7pdQCBS1fTOzXq40Qc2ftKxltJwunz/pyWaq79PXpUwehSuVSDtsiMTEJ//l0NhYtXqM4xxNTEj3VAXwVAG7fcRCduo5UhE162jRtfR2FzK+98hT69X5e88g1uadaAOiJwMhT7ePN+8gI2U/HfKN4hGy68d47HTRNI7RfKO+HbAjy1dc/K+7ljwBQrU21vKuunAM1AFQrt57PYlcu3v65WT5DzR4ADh/2OiQE1HOo/VFGlmT4bPpgVK9WxuGtzPL7VU9deS4FKEABClCAAs4FGACyh2gSUPuHoNapkbIuUbdeYyE7ydmP2rUqYNTIHpoWodZUQJ7kFwF3AzyZctur73hDoZmjL4xvDnjZtji60ePH5esxdNhnistdTaWTvt2z9zjs3X9McZ2e0ZBGy6v1Ol8FgBKCfjDiS0WxnnziYQx/93XExkZrLW7qeWrtoXcEstxMLQA0EoLproCfL/D0e6I2SsssAaBQz5rxFmrVLGdYPZgCwEDq32b5DDVzAGh0XceEhER8MOIrLF32p+K9GDa0PSQkVjs8/blhf4aR36+GX2ZeSAEKUIACFKBABgEGgOwUmgTU1vCrVKGEbddXmebo6HB3h1dNheNJfhNQGzEnhdEy3VNtdJeenTxlum7v/hMybEowc9og1H7I+A7KakFZrx6t8UaHZxw6y26LPXqNhSzGbz8K5M+FKZP6o3Spwn5rn7QP9lUAqBa0GRmxZy+72ohCI2tNqpXLVbuaouHcLMTtO3EY8u5MrF6zXXEno+G0Wnu4GwCmpFhx9uwl/LF+F/bsOYojR07j5OmLGTb20UIRDAGgjJqXzRfknd256yAuXrqOo8fOaqm+4pxACgDN8hlq5gDQyOeevUNMmfYdZs5aqugfzqaIm+n3q+6OzwsoQAEKUIACFHAowACQnUOTgNG12tQWnzey9pSmQvIkvwiorRGpZZ0itUX8tYTK9koeP3EOPXqPw8lTFxSh26j/dEOxYvkNW+zcddgWLKY9XK2lpRauuRuKGK6Agwt9EQCqfXmW4jgbaeKqnmojsoxM3VULAF2N7HRVtkD4+bVrN207ue/ec0RRXKNBmVp7GO3rso7fj8s34PP/LlWE5+64Gq2X/Zn+GgEof0w5fOQMps34HmvWbs+w0YoRk0AKAM3yGWrmANCdTW7UZnE0b1YPw4a+hqioyAzdy0y/X430fV5DAQpQgAIUoIC6AANA9gzNAkaCHnfXiNNcOJ7oNwG1jTO0hLxqUwm1TiuXyqp9UfcWgqu1tNS+XJnty7c/A0Aj61bZ21Jt/Soja72pBYDuhkXe6m+evK/aF3kjAaqz9tAbAErYtW37P3jvg/8qAnxP1NvdNvVHAHjr9l1Mnb4YCxb+7pHgz+5ots8gZ+1rls9QMweA7rSn2tRbZ/cz0+9XT3wu8B4UoAAFKEABCtwTYADInqBZ4ObNOxj41lRs3LQ39Rpnu5y6O8VTc8F4ot8FPv/iR9vmGWkPZ6FPYkISPvrkf5AvffZDz8Yyco3aVERvQbj64mWWL6/O6h+oAaCnRrCFagDoqRGU9r6l1h56AkAJ/1av3YFhw2cZmuLr6h0PtADw+rVb+HjUbPy8YpOrqun+uavPLd039OIFZvkMDdYAUO3z31n/MNPvVy92O96aAhSgAAUoEHICDABDrsndq/D8hb/j45FfK27iaNMFtXUDA3Hzj7i7d5GUlOgenM6rY2JjERGRcVqOztv47HS1jV6cfbnwRN9Q+0LjrQq7+iJtli+v/g4A1Xb8ljIZXW9OrmUA6F6vNlsAKGvb9egzTjX8k6mIdR+pjMcerY7ChfKhePH8kHVBHR0zPl+Kb+atVPw4kAJA+UPIyDFzsHDRatUqykjqxx+raduptVChPMiTK5tDixMnzmPQ29MUU6ldfW6517M8e7VZPkMZAN5rVzP9fvVsT+PdKEABClCAAqEtwAAwtNtfd+31BDdq/6APxEX3v1+0EPv37tFt5c4Fz7Z5AeUrGN/Iwp1nG7lWLfhxNjpURrsMHjpd8Si9fWPXniPo2n0UZJMDbx+uvkib5curvwNAR2sAurPWHgNA93q3mQJARwGxBH9dOrXAC20eR9YssZor7I1Rnb6cAqy2RIZUvkb1sujX+3lUrlQKYWEWTR6+LLemAuk8ySyfocEaAK5dtxO9+o5XtIqz32tm+v2qsyvxdApQgAIUoAAFnAgwAGT30CWgthmIjNCYPmUQatUsl3ovvYGQrkL4+GQGgNrA1UaHDhn8Cl5o85jiBmpfsHLlzIZpk/qjfPni2h7mYA1APVMRNT9Iw4lq6xk+2qg6Pv6wM2RqsxmOQJ0C7Ggxer07LHsjLDJDu7oqg1qAauR9sz/HnU1A1NaRzZYtMz54ryMebVgNFou2sEvKIlOJx01cgK++/llBECgjANWWQZCKPPVkbQwZ1A7Zc2Rx1bSKn6vtouvqDxe6HuDlk83yGWrmAPDJJx7G8HdfR2xstO7W0BuwuvOe6y4cL6AABShAAQpQwGcCDAB9Rh08D5IgoWuPUYrFyl9t+yT69GqDiP+brqU2JVTLzrBmVGIAqK1V1L4wPN64Jj4a/gYypQnBtJ7n6qlqm0P4KwBUC9dkR+PJE/tBwhYzHL4IABMTk/CfT2dj0eI1iio7WiZAi4tasGFkE4tQDQBlkx7Z1XrHzoMeCcrU2kPre6e2Vmjbl5qgf58XUn93aOkTco6j0aaBEgCq7YIuo6YnjeuLCjr+EGL30rvGm1ZnX51nls9QMweAWt8ztTabM3clPh3zjeJHr73ylG2kqVrwbqbfr77qg3wOBShAAQpQIBQEGACGQit7uI6udn2VkRnyRW/y1O8UT3ZnHTAPV0HX7RgAauNSG9GiNtJI60hBV0+Vqb9D3p2J1Wu2p55qJBhy9RwtP1cbpebOKCstz9R7ji8CQCnTlGnfYeaspYrivfTCvzCw34u6Qx65yaa/9qFzt1GK+xn5IhyqAWBCQiI+GPEVli77U2FodGdmo+2hVg610eNa+7Wng037c301lVZtkwV3Ruzp3eVVq7OvzjPLZ6gnA0C1z0Kt751aPyxaJB+mTOwHWRtSz+FotKyzZTfM9PtVT115LgUoQAEKUIACzgUYALKHGBJQC3FGjuhqm7509epN9B4wEbt2HUq9t4yGmjC2D2SEA4/gFVBb2y/t6C+1qeFGQztHX2r8ETSr7ZAtraz1y54veoSvAkC1IKJO7UoY/Ul3ZM2aSXdV1UauGJkKF6oBoKNQ1tnoH2eNpNYeWgJZtXfE6Lsv5VMbZS7/3d3331cBoNqU1w7tm6Jvzza63xFZmmP0uHmYO/9XxbVmW4bAWcXM8hmqFgDKMg7Tpw5ClcqlNLeNo9HQWn8nqPVDefjMaYNQ+yF96wOrhXmu3hUz/X7Xn87VAAAgAElEQVTVjM4TKUABClCAAhRwKcAA0CURT1ATUNsMxD7dU0Y29Ok/QTFFuGf35/BGh2d0rfFE+cATUJvWljb88fTUcLUv0emno/tCUb4sTZqyCLO+XKZ4nNoUaF+UR+0ZvgoA1drY2YYwzjwcTfPs3LE5enR7ThdlKAeAahsAGNmR3VF7aAkA1dYidCcAVPsjlHQIrQGLo87jqwBQbU02owHgxYvXbL9z9+4/pqiWlnbR9RJ58WSzfIZ6KvhS+0Oonv7pKAA08m8poxsBmeX3q5Zul5KSgn17dmPd2jW4dvWK7d+a+QsUROMmT6B48RJabsFzKEABClCAAiEhwAAwJJrZ85VU++u2THmcMLY35ItN2jXAjH7593ypeUdvC6iNREk7ekJt9JB95KiRsql98XUnVDBSBvs1ahscSN3Hjemle8SGO+VwdK1aAOjO1FxHz3H0xVdtQxhX9Tx48CS69R4LaWf7IdNGZTRxvboPurpc8fNQDgDVgnnpm9MmDUDVqqU1O6q1h1ysJWhSG4VUIH8u6N3MRZ536fJ1vPn2NGzd9neGsnsjAPTGSDq1UNboqEy1MFFru2hufB+caJbPULW1KvXuUu9oh2et/dNRAGgkuFcLy7X0aTP9fnXW/VKSk7F86RLs3rUjw2nhERF4pkUrVKys7/eFD7o7H0EBClCAAhTwiwADQL+wB8dD1f6B+6/HauHgoVOQ9Xzsh5lGQQWHvLlrodYvZNTC860fw5tDpmHjpr2pFShVshAmj++LwoXzGqqUo/UmmzerhyGD2yk2HzH0AB0XqU1vlstld+xPRnRF3jzGpr9LHa1WICxM+w6pasXetecIunYfBQli7Ic7U3Md0ThqE9nhecKY3pDQR8shYfKMz37IsJ6g0eUEQjkAdDQdUc+ac9IeYyfMh4T46Q8tAaCjtQj1/gFA+tcXXy3HhMnfqnYjrQGLoz6oFpa6+zml9iy1NQCNhDsyGr/PgIk4fOS0oXbR8i766hyzfIaqhbONGlTFiA86a1rGQOoxfMSXkCUx0h9a+6ejAFDup/Uecu6581ds/UNGZqc9tPxBxky/X531wZMnjmP+nNlITExQPS13nrx4+dX2yJJF387avur3fA4FKEABClDAlwIMAH2pHWTPUtsMRK2Ker/gBRlTyFVHbdSAfLFt1+5JvDVkuiKA8sQINEdfgGWaaOeOLRAZFWGoDSTw2LbjH5w4cR7/fu5RTfeQL479B05STH+XC5s1fQTyhStL5lhN97GfFB+fgNlzV+KxR2ugZImCuq5Nf7KnRoFpKYSjkWId2zdD967PatoMRDabGDh4Km7cuK14pJEpcHKDUA4Apf7i2W/AJMX7J6Mp3x36Glo8U9/l8gzrN+zBwMFTFNfbG0ZLACjnqo0AfqROZcjviOzZM7vsWhJIrF67A8OGz8rQL+wXG5kenvbBjtai8/TvMbVdVqU9Pv6oC57410MuLeSE69du4eNRs1WDJvm50U0jND3cSyeZ4TNULXzT2jbSR5f8uA4fjvgqw+8BIdMa3jkLAGUTkLGje6J0qcJOW0F+h302aymmf/aD4rwHShW2/TGmaNF8LlvRTL9fHRV2y+aNWPnzTw7rItOBm7VohQerVnNZX55AAQpQgAIUCHYBBoDB3sJerp+jdZjsjzU6WsfLxebtvSigtpaTTDeULy37Dtxfo8roVM70RXf2havxozUwsO+LKFJE2whDudelS9ex7KcNtgX1ZfSEnnW5ZCfkkWPmYOGi1RmEJQR9Z+hrKFY0v0v9lBQr9uw9gnETF+DsucuYOrE/ZBSSO4ez0TUyskXryDwtZXA0Wkza/NV2T6FLpxaIjo5SvZW0wdZt/+Cd9z/D2bOXDX9xTX/zUA8AZf2+j0d+jR+WrlPQZMuWGW8Naounn6yjOspU+uLqNdvw3odfOAzdtAaAjoLhF59/HDLF0llALu/W4iVrMWrsPMhoQjliYqKQnJSsCFpaP9sIb7/ZDpGRxoP/CZMW4n9zViic5PNrzMjuKFOmqJZXwOU58o6oPUeWMPjo/U6oWaOs01D2xMnz+GjEV9i0Zb/tWfJuhUeEQ9rZfhjZvMJlwb18ghk+Qx19VrpqGyn7oh/WYPSYuarhn9B5IgCU+0iI9/67HWzT7yXgSn/cvRuPGbOWYPbsFRnKIu+7vHNq15n596ujrrfhzz+w+jflBjjpz61cpQqat2rt5d7L21OAAhSgAAXML8AA0PxtZOoSOvpCZy+0PzZkMDVYiBRObS2n9FX3ZDjsaKSD/Ytx/fpV8VyrhqhYoQRyZM+SOgJNrpMRP8eOn7ON9vv11y2KkFKu1xMAyvkXL13DW0OnQ9bcS3/Il3R7WSpVLImcObKmhi7yxV1GT27cvA/fLV6TWg5PrmnoKLDPkzu7bZRjjZrlUKpEQVuYkP6wWMJs09+0TkV2NPVM7itfWl975WnUqlEOOXJksX0RlfofPXbWFrwu/2lDhi+tUqb33u0Amd5t5Aj1AFDMDh05jf4DJyuWaLBbSps816oRHqpZHlmzxuLmzbvYvfcIFi5ahW3b/0klL1O6CK5dv6VYl1FrAOhsGrGMVuvU8RnUr1c19b2Q82W9Pxl9+M28lbblJeyHrC3bt1cbTJ/5A06eupD63z0xrd3R+m1RUZG296RBvSooWbIgYmMyhtjynmTOHKNplOv+A8fRq994haX9M6vp049ARkjLyF8JOuWQ6fuHDp7C4iV/2P5IYQ9C5WdtX2qCyKhIfPnVcsXrMXpkDzR5vJaRV8Zv15jhM/SXX//CkHdmqH4OSdvI9PkHHihs+6y8dOUGNmzcix+W/JHaRyWga9miPsaOn69wdCcAlKUy4uMSbO9E2t9trVrUR7myxWz90V6W+Qt+U7wX9kLoGXFrv8ZMv1/VOuXhQwexaP5cJCcnO+yzJUs9gH+/+BIiIiL91q/5YApQgAIUoIAZBBgAmqEVArgM8hfvjz75n23jj/SHkUXmA5iCRU8joGV6uEwHlVE/WkYhaMGVURuTpn5nCwo8eegNAOXZEn4NHTZTNQTUWzZPBoDOQjlX5dIa8qS9j0w7HfLOzNQvrK6e4eznXTu1RKeOzTUFK2r3YQB4T8XR1GotbSOj4D76oBNmf7MCK37ZnHqJnr7hbM06LWWQc2TU4gfvdUSNamU9vq6o3P/mrbt49/3PsWr1Nq1FSj1Pz/vqaj1DrQ9/6snaGDKoHTZvPWCbpp320Lt5hdZnevs8f3+Gyu+Tj0fOxtJlf+quqvTP0SO7IyoyEp26jlSEiO4EgPK76IGShTD8wy8cjjB0VlitU4fV7mGm36/py+dsExD7uUWKFsPzL7dDdHS07vbkBRSgAAUoQIFgEmAAGEyt6ae6OBotYWRBcz9VgY/1goDaTor2x3grHFabJuhu1YyuKSbrc02d8T0WLV5t6Muavdx6AgUtdTUayukJedKWY8++oxj2/izVTQq0lFdG2PTq8W/bCKcIlZGJWu4h5zAAvCclodOmzfswdNhnuoJZe6hRs3o5jB43zzZS037o7RsycnzA4KmqIxFdtWfaaZhy7qQpizDry2WKy2ZOG+T2ztuHj5zBoLem6u63et9X+cyaOWtJhs1uXDnYf552+rTaunFPPvEwhr/7OmJjAy/48PdnqIwMl/dElmPQesgo0WFDX8MzTevaRjR37z1WsZSBOwGgXCv3XbR4DUaN+UbX75XKlUphxAedUKJ4Aa1VyXCemX6/pi9cYmIitv21GZs3bcStmzcylJ0BoOFm54UUoAAFKBBkAgwAg6xB/VEdR6O93hzwsu1LO4/QFJBdB7v1GosrVzP+Y9zb4fCpUxdtX6rVppJqaQ0JO2Ta3IttHkfp0kU0T3tNf29ZP23r9r/x2WdLUtfq0vJ8OUeCr0YNq6Nbl1Z4oFQhj42UlHvLVNBPP52jq0x6Q5609bx85QZmfrZEdxhao3pZDOj3ImS6uLsjRRkAKnuerK8oQd6atdtdBgnSDoMGvISK5UvYbjJl2neKwMpI35DnjxzzjeZRdvI+tH72UXTu1AK5c2VLrYzajq1GN4pJ/27KlPzR4+fht9+2uDSyX6s3AJTrZIqlTOmdOPlbzaGsTJmWtdzqPvJg6ueTTBEe8u5MrF6zPbUqMupryoR+mjZ80PrZ5Mvz/P0ZKn3g0zHfQKYEuzrSf17J776evcdh7/77a9+6EwDag20J8WXKsazpmXb6u1r5JJB8sc1j6NK5pe5NqBzV1yy/X521x+nTp7Bg9teIi7+3633psuXwXJsXEB6ecXkLV+3Kn1OAAhSgAAWCSYABYDC1pp/qorbrq6zPNG1if48tmO6nqvGxbgjIaAEZ/ZV2nSr77XLnzo7SDzjfwdCNR6deKmslbdi4B7+v2oYt2/52uImBBH6VK5VE/bpVIGuIFS+W363RZunLLl/Yzp27gl9XbbV9kdy/76hqoCBf1mrWKIenn3wY9epWgazN563DXqbfV2+zGZ06fdE2YsXRYSTkSX8vaY9fVm7GT79sdmgg61w91qg6nniiNipXLGk4fPWWWzDdV/rA6dOXsOLXzZCR3LLGnn3XZVl7rn7dB73aDhLuHDp0CvO//d0WWtnXNktrLJtuPN64Jpo3rYvChfNkCIJv3b4LWUsvJTkl9TJZC61ChRKGNwJR67fyjqxavR2y+caxY2cdBoJGAkD782Tq8e+rtuDbxWtV3w/5nJJ1M59t1RC1H6qgupHOocOncfn/1oiz37d48QIe3eTHH++APz9D7f1UdveVNVrt7S+hdJnSRVGnTiU8/URtt/5YZMRUdonf9Nd+fP/DH9i561Dq+yO/NyqUL44m/6rl1d8jZvn9qma3f89ufP/dt6k/qlazFp5u1twIM6+hAAUoQAEKBJUAA8Cgak7/VEZtCnCrFg3wzluvIjLK2E6M/qkJnxrsArLRRFxcvKKamTPHeiwo0OMno3US/283U7lOFvCXqdGhcsgX+lv/f621tAu3+6stQsXc7PVM/06Ecn+QUYG3b8fBar0XbMrIpSxZYt0eCWv2PqCnfKH+GarHyhfnmun360/LlmLH1i2p1W7WoiWqVKvhCwY+gwIUoAAFKGBqAQaApm4e8xfO0SYgI0d0hSxMzoMCFKAABShAAQpQgAK+ELh16ybmfPkFrly5bHtclixZ0a59B+TMldsXj+czKEABClCAAqYWYABo6uYxf+FkMfduvcdCpgHbD1mva8LYPpBpwDwoQAEKUIACFKAABSjgbQEZWf7n2tX4Y83q1EeVK18BLVu34fp/3sbn/SlAAQpQICAEGAAGRDOZs5AyRWnCpIX435wVigJ6agF2c9aapaIABShAAQpQgAIUMJvA6ZMnsXD+N7h7546taDHRMXi+3SsoXLiI2YrK8lCAAhSgAAX8IsAA0C/swfHQXbsPo0efcYqNFbj5R3C0LWtBAQq4J6C267B7d3R+tSc2afFm+XhvcwkcOXoG3XuPhezG7KtD6w64vioPnxNcAieOH8d3C+elhn+yc3z9Ro1Rr0FDrp0ZXE3N2lCAAhSggBsCDADdwAvlS8+dv4Khw2Ziy9a/FQxtX2qC/n1e8OgOqqHszLpTgAKBKcAAMDDbLVRKzQAwVFo6+OuZkpKCzRs3YN2aVUhMTEyt8INVqqFp8xYICw8PfgTWkAIUoAAFKKBRgAGgRqhQPS39rm43b97Fil83Y+68X3Hp8nUFi4z+mzSuLyqULx6qXKw3BShAAZsAA0B2BDMLMAA0c+uwbFoEJPg7dvQIVq38BRcunFdcUqFiJTRt0RJRUdFabsVzKEABClCAAiEjwAAwZJraWEW/X/IH3vvgv5ou7talFd7o8AxH/2nS4kkUoAAFKEABClCAAkYEZLTft3Pn4Nixo6mXh0dEoG79hqhbrz5H/hlB5TUUoAAFKBD0AgwAg76J3aug1gCwebN6GDK4HTJlinHvgbyaAhSgAAUoQAEKUIACLgR279yBZUu+t51VoGAhNGveEnnz56cbBShAAQpQgAIOBBgAsms4FXAVAEZFRaJLpxZ45eUnEB0dRU0KUIACFKAABShAAQp4XUB2+9361yaUK18RefLl42YfXhfnAyhAAQpQINAFGAAGegt6ufxqAaCEfpUrlcRjjWuiyeO1UCB/Li+XgrenAAUoQAEKUIACFKAABShAAQpQgAIUMCrAANCoHK+jAAUoQAEKUIACFKAABShAAQpQgAIUoEAACDAADIBGYhEpQAEKUIACFKAABShAAQpQgAIUoAAFKGBUgAGgUTleRwEKUIACFKAABShAAQpQgAIUoAAFKECBABBgABgAjcQiUoACFKAABShAAQpQgAIUoAAFKEABClDAqAADQKNyvI4CFKAABShAAQpQgAIUoAAFKEABClCAAgEgwAAwABqJRaQABShAAQpQgAIUoAAFKEABClCAAhSggFEBBoBG5XgdBShAAQpQgAIUoAAFKEABClCAAhSgAAUCQIABYAA0EotIAQpQgAIUoAAFKEABClCAAhSgAAUoQAGjAgwAjcrxOgpQgAIUoAAFKEABClCAAhSgAAUoQAEKBIAAA8AAaCQWkQIUoAAFKEABClCAAhSgAAUoQAEKUIACRgUYABqV43UUoAAFKEABClCAAhSgAAUoQAEKUIACFAgAAQaAAdBILCIFKEABClCAAhSgAAUoQAEKUIACFKAABYwKMAA0KsfrKEABClCAAhSgAAUoQAEKUIACFKAABSgQAAIMAAOgkVhEClCAAhSgAAUoQAEKUIACFKAABShAAQoYFWAAaFSO11GAAhSgAAUoQAEKUIACFKAABShAAQpQIAAEGAAGQCOxiBSgAAUoQAEKUIACFKAABShAAQpQgAIUMCrAANCoHK+jAAUoQAEKUIACFKAABShAAQpQgAIUoEAACDAADIBGYhEpQAEKUIACFKAABShAAQpQgAIUoAAFKGBUgAGgUTleRwEKUIACFKAABShAAQpQgAIUoAAFKECBABBgABgAjcQiUoACFKAABShAAQpQgAIUoAAFKEABClDAqAADQKNyvI4CFKAABShAAQpQgAIUoAAFKEABClCAAgEgwAAwABqJRaQABShAAQpQgAIUoAAFKEABClCAAhSggFEBBoBG5XidqQTOnLmE3gMm4uDBk6nlioqKxOfT3kTVqqVNVVYWhgLeEvh+yR9474P/6rr98GGvo1WLBrqu4ckUoAAF0gtEnNqCqG1zYElJTP1RSpZ8iK/fBykx2QlGAQpQgAIUoAAFKOBnAQaAfm4APt4zAkeOnkH33mNx9uxlxQ1nzXgLtWqW88xDeBcKmFyAAaDJG4jFo0AQCzAADOLGZdUoQAEKUIACFAgKAQaAQdGM/q1ESooVhw6dwozPl6DtS01Qo3pZnxeIAaDPyflAEwowADRho7BIFNAoEHbtFGLWT4Il4XbqFY5G0EVv/R8iTm5W3DmhYgskln1C49M8f1ooBYDhV44icv+PgDUFcfX7eB7TpHfU2u/09GWTVpXFogAFKEABCgSlAAPAoGxW31QqPj4Bf67fjakzvsfBQ6dsD/XXiDsGgL5pcz7F3AIMAM3dPiwdBZwJ6AlNtAYxvhQP9gDQkpKEiJN/IfKfFbDcltkGViTnLoW4Bv19yezXZ2ntd3r6sl8rxIdTgAIUoAAFQkyAAWCINbgnqzt+8kJ88eVyxS0ZAHpSmPeigD6BuLgExMXFO7zopxWb8MmoOYqfcw1AfcY8mwLeEtATmmgNYrxVVrX7BnsAGPnPL4jat0RRdQaAgNrIUz192Zd9lM+iAAUoQAEKhLoAA8BQ7wFu1N9MASA3AXGjIXlpyAiojRBkABgyzc+KmlxAT2jCAND3jckAENDa7/T0Zd+3JJ9IAQpQgAIUCF0BBoCh2/Zu19xMAaDbleENKBACAgwAQ6CRWcWAFdATmmgNYnyJwRGAvtT2z7O09js9fdk/NeFTKUABClCAAqEpwAAwNNvdI7VmAOgRRt6EAj4TYADoM2o+iAK6BfSEJlqDGN2FcOMCBoBu4AXIpVr7nZ6+HCBVZzEpQAEKUIACQSHAADAomtE/lWAA6B93PpUCRgUYABqV43UU8L6AntBEaxDj/VLffwIDQF9q++dZWvudnr7sn5rwqRSgAAUoQIHQFGAAGJrt7pFaMwD0CCNvQgGfCTAA9Bk1H0QB3QJ6QhOtQYzuQrhxAQNAN/AC5FKt/U5PXw6QqrOYFKAABShAgaAQYAAYFM3on0owAPSPO59KAaMCDACNyvE6CnhfQE9oojWI8X6p7z+BAaAvtf3zLK39Tk9f9k9N+FQKUIACFKBAaAowAAzNdvdIrRkA3mNMTEzCP4dO4fLl64gID0f2HFlQtnQRREZGZHBOSkrG8RPncf78FSQlJyMmJgolixdEnjzZYbFYPNIucpOUFCuuXruJo0fPIjk5GXfj4hEbEw1LmAXFiuZHntzZERER7rHnBcKN4uIScPHiNZw5e8lWXLuJ/P9CBfOgQIFcqm3mibqlb4/4hERbXwkPD7M9O2/eHLa+4O2DAaA531d7u0s/uXjpGo6fOIekxGTbZ0R0VCRy58mO4kXze61/ervf8f7aBPSEJlqDGG1PdnxWWNx1hJ3dhbD4m0BSPBARDWtkLJLzV0RKlvyKC70VAFpSkmC5cQ7hlw/CkngXSEmGFSmwhEXanp+SowhSchRHSkx2d6vr9Hqz7QJsSbiD8CuHIP0mrYmtffKWQ0rWgoAH/10hOFr7nZ6+7NVG480pQAEKUIACFFAIMABkh1AVuHbtJnr2HY/de454TahD+6bo27ONrvtv2fo3Onb5RPM1s2a8hVo1y2k+X+3E9BYFC+bG1In9UaJ4Qfz8yyaMGTcPly5fV1xaIH8u9O/7Ap7410O2YM9qtWLb9n/wn09n4+ChUxke0/jRGhg84GXIvY0eEh4cOnQK8xb+hpW/bcGNG7cd3ipbtsxo/VwjPP9cYxQqlMfoI01/nbTd8p83YumP67HvwDGn5Y2KikTdRyqj9bONUPuhCoiOdj+QO3PmEhZ8twqLvlvjtD0iI8JRvVoZdHitGR5+qILXwllfBYBq76mR913tc+jByqUweXxf5MiRVdNnl7/fVwmeh3/0ha0f2g/pY2+/2S410Lt7Nx7fLl6D2XNW4Nz5K6r1kv75XMuGeL1DM+TPl9P07x4LqF9AT2iiNYjRXwpAArfIw6sQcXQdLHekP1pVbmOBNVMuJJRpgqQS9WxBk6cCQHl+2IUDiDi+HmFXjyMs/gZgVSuDsljW6CxIyl8ZieWbwZpJ/zsS88dYhF/23r95rFGZEVe3ly2wNHpY4q4j8tBviDj5Fyzxtxy0zf/dPSIGSQWrIqHCM4Y81Mqotd/p6ctGLXgdBShAAQpQgAL6BRgA6jcLiSsYAN5vZjULCRZPn7mAD0d8hcSkZNU+IaHOe+92QPNm9bDpr30YOHiq0xBIgspPRnRF3jw5dPexU6cuYvT4eVi1epuua6WMnd5ogVfbPonY2Ghd15r5ZAlU5sxbiRmfLUFCQqLuokqA26ljczRvVtdQEHjr9l1Mnb4YCxb+7rB/OCpUjeplMWjAS6hYvoTucru6IBQDQDHx5/uqFgA2faoO3nung23U5559RzHs/Vk4fOS0q+az/VxG7474oBNqP1zRo6OGNT2cJ3lVQE9oojWI0Vvg8MuHEb3ta1hu3xsp7fqwICVPGcQ93BHhF/YjatscWFLuf+amZMmH+Pp9NI3OsyTcRtT2OQg/v19xD9dlUJ5hDQtHcuFaiK/6vG3EotbDzAGgLZTdvxyRR1YDyQlaq2Q7zxoWiaTSjZFYvimsYRlnJui5mdZ+p6cv63k+z6UABShAAQpQwD0BBoDu+QXt1QwA7zetmoWM7Nu4eZ/TQE/u8ECpwnjrzbYYM34+Dhw47rK/9Oz+HN7o8IzmL/Yy6u+nFRvxyag5Lsvi7OGPNqqO995pj1w5s7kso9lP0BuoOKqPfeRYqZKFdFVZRnC9/+EX2LBxj67r0p4sIzSHDn4FTz7xsOa+oOVhoRoA+vN9VQsA7aMY/z54EkPemZlhBLGrtpT+MW5UL7dHN7t6Dn/uWwE9oYnWIEZPDcJPb0f0zrmQqaV6j+Q8ZZBUrDaidsw3HACq1V9vOdKen5K1AOLrdEFK5ryabmPWADDs9kVEb/4vwq6f1FQP9ZMsSC5QCXG1OugKRdPfS2u/09OX3agUL6UABShAAQpQQKcAA0CdYKFyOgPA+y3tzEK+iBctnBeWsDCcO3dZ9Yu8hGpXrt6w3VBG7xQocG+ar9r5lSqUwISxfWxrwrk6ZD3BRYvXYNSYbxyOMitcOC9yppkq6aiM8iwZqThkcDtkyhTj6tGm/bmMtHQVqJQsURCZM8em1iE+PgHHjp3NYGgkAJT1294aOh0yBVbtSNtf5OeyTuPp0xcdnjt6ZHfUfqiix7xDNQC0A/rjfVULAMuVK4Y3+7+Mj0d+rRj5l/bzwdFnhL0uj9SpjJEjuiJ79swe6x+8kX8F9IQmWoMYrTWSqa/Rmz+DRdb6UzlkVF3qaDorYEmOk8Vm05xpQXLukgi7etJrAaCiDP/3ZIuUQdYmVJ2mDNs6hXF1u8OayfXyGmYMAMOun0L05lmQEFD9sNxblzEs7N6PrVZYkuIcTJm2IKnow4iv0c7w2oBa+52evqy1j/I8ClCAAhSgAAXcF2AA6L5hUN5BRpbdvHkHVmvaf+Arqzrj86X4Zt5KxX+cOLYPqlZ5QJNJZFQkMusMm2TDjdu376reX6083lgD0P5wmbI74oPOkOmiciQmJGHmrCWYOWupavnav/o0undplTqlVKaJSgCwbPmG1PNlSu70KYM0jexZuuxPDP/wiwzBlawV1rFDM/z7uUdtgWPaQ9YiPH36Er78+id8/8PaDNd27dTSNvU1EDcIOXTkNPoPnGzbQCH9Ib9exrkAACAASURBVCOuOnZ4xra2n1rAKWHq4cOnbdOGl/+0weaiNwCUe4ydMB9z5irfCSmLTOvt1qUValQrq7B11R7FixXAhLG9IaGlJ45QDgD99b6qBYDyRwHZ2OPgwXsjemQN0O6dW6F06SIIC7u/GZB8Du/ZewQjR39j+9+0h3xWfPqfbniscU1PdA2v3iMpKRFxd9U/t7314IiISMTE3g/6vfUcT95XT2iiNYjRVL6keMSum4CwaycynG6NzWmbOppU9CHl9NGkeET+8zOiDq9xOiVVzxTgDPUPj0JKzhJIKvYwkvNVcDiNWEYsRhz7A5GyZuHdqxnqIGWPr/Gqy9DLcvvyvU1GHBwRp/9C5MHfFD9NyVEM8dVe1sSMsDBYs+TTPA1XNmCJ/nMSwm5m/J2G8CgklqiLxDJNYE2/+Ym0zeFVtunC99YJTHOEhSGh7FO2NjVyaO13evqykXLwGgpQgAIUoAAFjAkwADTmxqsAmG0XYG+VR20EoASX0yYNQNWqpRV94fr12xg0eAo2bdmv+O+ORvZJANCt91jb7rT2Y9jQ9raNKJwdR4+dRZ/+EzOEXZUrlcLw915H6VKFnV4vwdOGjXsxeOh0xdRhGSE1ZUI/VHlQW4hrlhdB3KUu6afdSkjSs9tzaPvSE4iM0rb20YmT5/HRiK9w4vQF22YvWqcAy+jDfgMm4fadOAVLs6aPYMjgV5AlzajD9G4S9Cxdtg4f/efrDGsWtn2pCfr3ecEjoWyoBoD+fF/VAsC07d+5Y3N07tjCaf90NLI0/WYiZnkf05fjwP59WLxwvk+LV6FSZbRqrW+TKZ8W0EQPizz0O6L2fg+k+4Nfcq6SiH/4jYwBU5qyh1/8G9FbvnQ4clB3ALhhMqzR2ZD0QOOMoaMrs6R4xGycjvBLBxVnWiMzIb52ZyTnUf6+dnW79D/39S7AUdtmI/LEpgyjG1OyF0X8w6+7nNosayrKqM7wS4cUVZHdkuPr9kBKNn3LW+j14vkUoAAFKEABCphPgAGg+dokYErkrcDNKIC3yqMWAFarWgYy2jH99DsJ1sZNXICvvv5ZUY2XXvgXBvZ7MUOII6MsB741FRs37U0939VuqTLScOSYOVi4aLXiGTJabOzoni7DP/tFUtYlP67LsJFJqxYN8M5br2oOzIy2lyevm7/wd9toyrSHhH9D334VLZs3UIyq0vJcmRb8vzkr8HjjmpoCQEchj56NXaQ9vvhqOSZM/lZRRJkOPm1if5QpU1RL0Z2eE6oBoD/fV2cB4FNP1sZ7Q9trmna/dt1O9B84STFqV6YSTx7XF/lMviswA0C3X12v3UBCopg/xiPs5lnDIVHEyU2I2j5PdeMOPQGglMVy5zJkVJ3RI+zWBcSsn2K7T9ojoWwTJFZsafS2tut8GQBGnN2N6K1fATKdN82hZ0qzXCYOMeunIuzWecV9kkrWR3zVF93y4MUUoAAFKEABCgSeAAPAwGsz05TYW4Gb0Qp6qzxqAWDaXTzTl1fW5ftgxJeK/+xoVJ/sUPvBiK8g03nth7N7yzn7DxxHr37jFaMGZYTT6JE9UPeRyrr4bt66i3ff/1yxe7Deqa+6HuiFk2X0ZJ/+E7B3/zHF3du0fhSDB7Q1HGRKIGe1QlN4KBu8dOs1NnWtR9uXxYhwjB3dCw3rV9Vc60uXr+PNt6dh6zblGoJ6N4dx9MBQDQD9+b46CgD1jra9evUmeg+YiF277o/mkfd++tRBqFK5lOY+5o8TGQD6Q13bMyNObcmwcy9gQUKZx5FYqZW2m1itiNk4DeHn92U4X08AqO1hrs+K2rkQkUfXKE6U0X9x9fu6vtjJGT4LAK1W27p/EWd3KEpjjc6C+Ic7ITm3vhH6Ecf+RNTuhbAkJ6Xezx/t4hY+L6YABShAAQpQwCMCDAA9whiaN/FW4GZU01vlUQsAnY3S+3H5egwd9pmiGhLONXm8lmrV0pdbdn4d/u7riI2NznC+hFKTpizCrC+XKX7mzqi9n1dssk2fTXsMH/Y65J6BcKz8bQsGDp6iKKonR81pMZB1/z4d843i1Nq1KmDUyB66N2lQG81Yp3YljP6kO7JmzaSlOA7PCdUA0F/vqzSEowBQRpd+NPwNTaP/5D6yxuTocfMwd/6vivadNL6vrpDZrQ5k8GIGgAbhfHCZ2ppuMgU3TqaIZne+lETa4kWc2IionfMUIZP83B9BU8TJvxC1/RvDm5E4YvdVAChrMdpGMSbcVhTF6Kg9tVGe1rBIJNRoi6Qi6v8u8UHX4yMoQAEKUIACFPCDAANAP6AHyyO9FbgZ9fFWefQGgLIDbMcunyiq4WwzkvTllg0rJo/vixxpdu+130xtFJCMNJOdg+vVfdAQ3ZGjZ9C991icPXt/ylSgrC0mm8L859PZtt2Q0x6OplwbAnJxkdooTrmkV4/WeKPDM7ofqTaaUDaamTKpv+bp3Y4eygAwo4w331d5mqMA8M0BL0PWd9RzfP7Fj7Y/AKQ9Aims11NXnusDgeQExMr033Sbf8gIM9toOcv9DWlclcZy9xpiZCORdLvV+iMAVNuAwhqTDXH1eiMlawFXVXH4c18FgJH/rEDUvh8Va/+5u46hWtCbWLIREqpynUzDHYIXUoACFKAABQJQgAFgADaaWYrsrcDNaP28VR61ANDZl3e9gcKUad8pdg52FgDu2nMEXbuPUmw04e46YLKBRu/+E7Bj5/2F0x2tmWa0bbx13ZWrN9Cz97gM0399OSrKURlmThuE2g9V1F11tfaQm3iiTqEaAPrrfXUWABrpH75qP92dlhcEpIDsLhvz50RY4m4oym90vTwZtRZ+QbkBlmkCwKjMiKvbCyk5ihhuK18FgKqOOYrhboO+kN1/jRyye7FtoxdYUy/3xLRoI2XhNRSgAAUoQAEK+E+AAaD/7AP+yd4K3IzCeKs8agGgs1E3egPA9F/qnQWAatOLnU0Z1mKpNkJJdr6VUYiFC+fVcgu/nXPoyGn06DUW585fSS2Dp0bLaa2U2ghKd8rgaEShkRFj6evgqwBJ7R1wtbmNmrfau+fs/ZB7mOl9dRQAGl27z1ftp7Xv87zAFgi7dBCxm2YCiXdTK2INC0dCleeRVKKe7spFbZ+DyOMbFNe5GwBaEu5ApheHn99r28jCkhgHJMVn2BnXVWGtARIAWuJv3tuUJf2mHUVrIb5me1fVdPhztbUeZRdgGelpjXJvaQnDheKFFKAABShAAQr4XIABoM/Jg+eB3grcjAp5qzxmChTSjxYUq5dfbIIubzQ3yoa4+ESMGjMXv/6+JfUegbIRiFrQ5CogMgzl4EK1MlSqUAKTJ/ZDrpzZDD1OrS8bCdAYAN4T8Fdg7ygANPp+MQA09DrxIgcCaqGQO2vDqY2QMxoAyoYiUfuXIOz6adh2Y3LzCJQAUOobs34SLPG3FDVOLPM4kgo/ZFgh/PI/iNy71OPrIhouEC+kAAUoQAEKUMAvAgwA/cIeHA/1VuBmVMdb5TFTAKhWR6Nezq4zOkLJG2Vxdk+1QMTVLsqeLqM3Qki1TUU8sS6jrwIkjgC838vURtgyAPT0W8j7GRFQmxbqTlBm22121wJYUpJTi6M3AJQNK6K3fW0b8eeJ4M9eEHfqZb+HL6YAq61faKRttVzjiXURtTyH51CAAhSgAAUoYB4BBoDmaYuAK4m3AjejEN4qj1kCQEdTQ416ubrO2cYlrq711c+DNQD0Vr0YAGbsmd6csi9PYwDoq08DPkevgFqg5U5QpjrNNEs+xNfvg5SY7C6LZ4m7jujNnyP8ylGX5+o9wZ16+TIADD+zHTFbvwaSE/RWUff5njDR/VBeQAEKUIACFKCAXwUYAPqVP7Af7q3AzaiKt8pjlgDQ0W6iRr1cXccA0JXQvZ+v37AH3XqNUZz8aKPq+PjDzpCRlEYOBoD31IJ1DcBQGwGYlJSIuLv315kz8k7ovSYiIhIxsbF6Lwup800VAFqtiNk4DTL1V+2QtQmt2QojOXcppGTJj5ScJR22leXORURvnwtL4p3UczwRdvliBKBaiOqtTukJE2+VjfelAAUoQAEKUMA7AgwAveMaEnf1VuBmFM9b5TFLAJiYmIT/fDobixavMUqk6zoGgNq41EaQubuLMgNABoBqvc9XIzi19XztZx3Yvw+LF87XfoEHzqxQqTJatW7jgTsF7y3MFADKRh9RO+fBkpykBA+PQsIDjZBY9ikgIlpTY6hNo/VE2OWLADD83B7EbPkSSIrTVFd3TvKEiTvP57UUoAAFKEABCvhegAGg782D5oneCtyMAnmrPGYJAMVFrY7ONjgwahko1638bQsGDp6iKK67o+/01t0bawCqbfby2itPoV/v52GxWPQWMfV8XwVIXAPwfhNxCjDAANDwK+vVC1VHm0XG4m7tzkjJU0b3sw1vAiKj/9ZPQfjFA4pnWqOzIL56OyQXqKyrLGFXj9vuF4gjAFXDy7BIJNRoi6QitXQ58GQKUIACFKAABSiQXoABIPuEYQFvBW5GC+St8pgpAFTbHCKUA0Bv7MCrt//t2nMEXbuPwu0790dslCtXDJPH9UW+fDn13g5WqxXjJi7AV1//rLiWuwDf43C1y7OZ3lcpLwNABoC6PwR8dIHaenNu7QL890+I2r9MUXotm4CE3TyHmD8nwhJ3I821FiSUeRyJlVrp1lDd3TgqM+Lq9kJKjiK672e/wBcjAC23LyFWLO5cSS2nO21iuLK8kAIUoAAFKECBoBRgABiUzeqbSnkrcDNaem+Vx0yBwtp1O9Gr73iPB0NGzf193fET59Cj9zicPHUhtSi5cmbDtEn9Ub58cZ8Uz9NluHs3Hu99+F+s+GWzovyeCHoDbQSgmi0DwP96vF94+0XhCEBvCxu7f9j104hZPwmW+FuKGyRUbIHEsk/ovmn01i8RcXKL7gBQNYi0BXY9kJKjmO5yeHp3Y18GgLL5R+wf4xF27YRH2kQ3Hi+gAAUoQAEKUCCoBRgABnXzerdy3grcjJZarTwzpw1C7YcqGr2l7TozBYCHjpxGj15jce78/dEBvp7y6hamhy++efMOBr41FRs37fVbKHL9+m307j8BO3YeVJRh9MgeaPK4/ilbFy5cRc9+4/H338ovgJ7oy2oB4LCh7dH62UYebRm1kZnyjLffbIfIyAjNz1IbXckAMPACQM0NzhN9KmCJv4kYCZtunVc8N6loLcTXbK+vLA6CKy0jACOPrEbU7u8Aa0rqM7Vc56iA0ZtmIuLsLuWP3Zja7NMAEIBakJpUsAria3fW1yY8mwIUoAAFKEABCqQTYADILmFYwGwBoLemx5opAFQLvPLmzYFpE/ujTJmihtsyUC+U6bKTpizCrC+V084eb1wTHw1/A5kM7sKrxyMpKRmjx83D3Pm/Ki57te2T6NOrDSIiwvXcDhKede0xColJyanXFS2SD1Mm9kPxYgV03Sv9yZv+2ofO3UYp/rMn1hZM/xxPBdVqgSUDQAaAbr0EvFghoBaWpWQtiLgGfSGbRGg9ZMSabd29hNuKS7QEeYbXDlQpnOXO5XtTaG9fVvzUE9NofTEFWAqtFohaM+fG3Xq9Yc2UW2uThNR5KSkp2LdnN9atXYNrV6/Y1srNX6AgGjd5AsWLlwgpC1aWAhSgAAUo4EyAASD7h2EBtQBw0vi+aFi/quF7unPhj8vXY+iwzxS36NWjNd7o8Iw7tzXVCECpyPyFv+PjkV8r6tS5Y3N06dRSd9jkFoxJLt658xC69RqjWIMvc6YYjBvTy+3Rn1qrqBZUVapQAhPG9oEEtFoPCRMnTFqI/81ZobjEU4HmgQPH0a3XWFy5en+tLW+MID19+iJ69h2PI0fPpNajVMlCmDy+LwoXzquJ486dOLzz3uf4bdVWxfkMABkAaupAPEmTgFrYhPAoxD/UHkkFqmi6h5wUtW8pJCADrIprtASAEcf+RNSuBbCk3P+jR0rmvIir3wfWWO2fn/LgSFmH8MBPitGE8t+9FQDKFOW7DfpCzDx1qIaYljAklH8aieWe9tRjguY+KcnJWL50CXbv2pGhTuEREXimRStUrPxg0NSXFaEABShAAQq4I8AA0B29EL/28y9+tI2+Snt4InAzyrp9x0F06jpSMXLKE+GGmUYAis3JkxfQo884yPpo9iNbtswYPbK7zwIvo23kjescBUW1apbDJyO6Im8efV8g7WWU0YVWKxAW5nrXXbU2kfu8NagtXnz+cc0790pg1r33WJw9qxy9MmTwK3ihzWNu8129ehO9B0zErl2HUu8lYem0SQNQtWppt+9vv4FsiDLk3ZlYvWa74p7jx/RG40bVNT1n/YY9th2e026uIhcyAGQAqKkD8SRNAuobcADJeUoj7pHumoKtsFsX7o3+u6P83JICaAkA1dYANBJCht04g+j1UxAWdz1D3T0SAKpMVbbGZENcvd5Iyere6Oz0BY7eOQ8RR9cp/rM1OiviH+6E5NylNLVtqJx08sRxzJ8zG4mJCapVzp0nL15+tT2yZMkSKiSsJwUoQAEKUMChAANAdg7DAit/22L7gp72qF2rAkaN7IHs2bVPHTJcgHQXqq2d5olww2wBoARTX3y1HBMmf6sQkOmhY0Z2d2sq8KXL1/Hzik1o1LAaZNppoByyOUr/gZMU4a+UvVnTRyDhWZbMsbqqEh+fgNlzV+KxR2ugZImCLq91NHKvYMHcmDy+H0o/UNjlPSTI/HjkbCxd9meGdp0yoR+KFnW/PRyV092wNH3lHE3NfqROZYwc0dXl58PFS9fw1tDptunQ6Q8GgAwAXb5MPEGXQPTW/yHipHLTIYSFIaHsU0gs39T5vaxWRG+T6/9SPU9LAKi2863cLDl/RcTV6QZYXP8RxhJ3HdGbP0f4laMOymtBQqVWSCzzuC6btCeHn9uDmC1fAkn3d3yHjMyT+5Z2/w80aZ/lKMxMyZIf8Y90hYyQNHJYUpJsbRV2bhcSqr0MCRUD/diyeSNW/vyT4y86FguatWiFB6tWC/SqsvwUoAAFKEABtwUYALpNGLo3OHjwJLr1HouLF68pEGQ6aueOLRAZpX2xf08oOgs3RnzQGQXy5zL0GLMFgFIJRwFJntzZ0btnazR98hHN/omJSdix6xBkDcV163YiT94cmDqxP2TKZqAciQlJGDlmDhYuWp2hyBJKvzP0NRQrmt9ldVJSrNiz9wjGTVyAs+cu63LYf+A4evUbn+F9eKBUYXzwfkdUrljS4fNv3b5rG007b8FvGc7p0/Pf6PBaU82jCF1Vctfuw7YRpDduKNfqqlG9LLp2boka1crq2qjD0fP+XL8bffpPyBDKyohIGSnsKJQ9cfI83n1/VoZNVezPYQDIANBVH+fP9QmEXT2OmI0zYIm/vzSA3EFGzSWWfwqJZZ5QDeFkvb/oHfMQfkamXiqn/tpLoCUAlHNjNs+CjARUHGFhSCxaB4lVn4c1zPG/J8KuHkP01q+Vm5lYwjJMA04s2QgJVdvow0lztsP1BWVkXq32SM5bzvC91S6MPLAcUf/8DKTc3xzF1i7RWZBQvimSSjTQFI7KNbLjc+Sh3xFxdqctwNTaLh6tkJdutuHPP7D6N+UavOkfVblKFTRv1dpLJeBtKUABClCAAoEjwAAwcNrKdCV1NPVSCipf0p9r1QjlyhVD4YLqi1ZHRkVCRuh58nAUwkj41/7Vp1G/bhVkzZpxNJjFEobMmWNU19AzYwAoZrLRQv+BkxVTge2WUl+ZMtqwYTUULJBb4SxTKq9cvoF9+49hzbod+GPdLkUYJKPWAi0AlHo7GzUWGRGO+vWr4rlWDVGpYknkzJE1dWpvXFyCLbTbuHkfvlu8BvsOHLMx6nWQUW8S4H0yak6GLh0VFYmXX2qCZ56qgxIlCtoCNgkbr167iXV/7sRns37EyVMXMlwn4eUn/+mKXDmzeew1kaD8s1lLMf2zH3Tfc9aMtyCjBbUcsjvy4KHTsWHjngyny+jS1155GtWrl0GeXNlsIaG8uyt//Qs//7IZCQmJtmvknT169AzW/LEz9R4MABkAaul/PEefgKOwSe6SEpMdyQWrIbngg7BGZUHYzbMIP78HEef2KkfDRcbCmpygXMsvSz7E1+9ju4ezI/zi37YRfJbEuxlOs8bmRGLJ+kgqXAuyGYYcMs03/MJ+hB9fj/CrxxQhmWyUkZytMCLOKXcCTs5XAXF1e+iDSXe2alBpC0vDkZKrFJLzlkVKnnKwqq0JGBYGa5Z8TsNMxeNsoytn/9/ozIwBqwSByYWqI6lgVchahNaoTLbLZZSf5dYFhF0+fM/oylFY4m8pQtpgCgAPHzqIRfPnIjn5/hqS6Ru5ZKkH8O8XX0JERKRb7c+LKUABClCAAoEuwAAw0FvQz+V3NPVSS7E6tG+Kvj2N/zVe7RkSbsjahNNmfK+lCKnnOAt7zBoASuG3bf8HQ4bNzLBmnK7KpztZb/DlzrM8fe2581cwdNhM1amjep9lxEFC8U/HzMXiH9bqfVyG82VK99jRPVG6lOvpw3of5mi6sav76AkA5V6y6/DAwVMzjDZ09Rz5efNm9TCg7wsYM36+Ylo0A0AGgFr6D8/RKeAibHJ1N5lKmlixBSL3LIYl8U7q6XqCpuidCxBx9A+HowldlUF+LqFYfPV2CLtzCVG7v1OMAkzJVghx9WV343tBmZHDWVDp6n6yq3Jc3V5IyVHE1an3f54Uj5gtXyBcwlYHoyy13+z+mXraxcj9fXmNs01A7OUoUrQYnn+5HaKjo31ZND6LAhSgAAUoYDoBBoCma5LAKpA9cPt81tIMU/1c1cQbAaA800gIE6gBoNRXpkx+NOIrbNqy3xW5pp/L6KwpE/tBAqhAPK5fu4WpM77HosWrdffJtPU1EgDK9bJ+4IzPluB/s382/PzKlUphxAedUKK499rA2bRjR+2uNwCUzweZWj5pyre6LGStwA/f72jbwCX9buMMABkABuLnUiCUWUaORW2fi4hTm2HbAUnrIbsGV3sJyblKIvbPibDcuZJ6pZ6g6d7z5yDi5BZDYZc1Uy7E13wNybkfQNi1E/c2Jkm4v9SBNTKTbQRgSs7iWmumep7sNBz598+KkY5abmgoAPy/EX2Re39AxNG1up/pqFyylmBcg75BsQag1DExMRHb/tqMzZs24tZN5VR2+TkDQC09lOdQgAIUoEAoCDAADIVW9nIdZSrjLys329ZNkxFYWg9vBYC2fwwmJOGbBb9i8tTvUqcTOitXIAeA9vr+umoLpkxbrDqVVEubVCxfAi++8Bgea1wLWbPo2zRDy/19eY70ya3b/8Znny3RHYzKdOFGDaujW5dWeKBUIUNr78nz12/YbZsOrDa115GFTBXu0qkF2r7YBLGx3h+pIOWUKc8LFv6OVWu2uxyppzcAlHrKM37+ZRPGjJsH2WTG2aFW/0WL1+CDEV+mXsYAkAGgLz9LQvFZsvts1IHlGdYEVLOQ6bbx1V6ETK+1xN9EzB/jFWvx6QkAbfe3WhF1YJltvTokq+/qmr4cMv02uXAtJDz4HCRksx3JCYiVslw7cf90D27YIRtpRMlox3TrJjrrL0YDQPs9Za1DeWb4lSP6Alr7DSwWSHslFq+LxFKNgAjv/47x1/tz+vQpLJj9NeLi723YUrpsOTzX5gWEh4f7q0h8LgUoQAEKUMAUAgwATdEMwVEIGe0j68pJkCBTU0+duuD0C783A0C7qAQOv/6+BWvW7sCevUcdBhxGR3uZreXStsEff+6CbNTi6JDdbevUroS6j1RG1QdLu9yZ1Wx11VIeWZfv3Lkr+HXVVvzy61/Yv++o6kg0CZ5q1iiHp598GPXqVoFspuKJQ9pjx85Dtims6/7cpfo+pH12owbVkCOHf3ZlFKtbt+46XUcpc+ZYwxuE3Lx1F6vXbMOKXzbb1vuzh4FiXbVKaTz+WE00bFAt4MNnT/Qb3oMC/haw7xYbfmIDwm6evzet1zYq0AKrrPWXvQgSS9RFUuGamjei0FMn2dU38tBvCD+1FWESsqUfkWixICU6my14TCr7hG1Ti/SH7NobnjYAlD9IZM1/r8yeOKxWhF88YJu2LM+xrV+YFO/wzu4GgPYbh926YBsNGH5+Pyx3LjkeFSiBX1RmpGQviuQClZBU5GG3pj97gsxX99i/Zze+/+7b1MdVq1kLTzdr7qvH8zkUoAAFKEAB0wowADRt07BgFHBfQEZf3bx5B1br/V0E5S/gWbLEGhrZ5n6J/H8H2QQl8f82mZDSeGMzGke1lB2Xb9++v8h9qLeF/3sDS0ABCphdwL6pRepuuHo30zB7Bd0snyXhjmLate12MVldbrzi5mNNfflPy5Zix1aZSn7vaNaiJapUq2HqMrNwFKAABShAAV8IMAD0hTKfQQEKUIACFKAABShAAQp4VeDWrZuY8+UXuHLlsu05WbJkRbv2HZAz170dpHlQgAIUoAAFQlmAAWAotz7rTgEKUIACFKAABShAgSAQkKUs/ly7Gn+sWZ1am3LlK6Bl6zZc/y8I2pdVoAAFKEAB9wUYALpvyDtQgAIUoAAFKEABClCAAn4UOH3yJBbO/wZ379yxlSImOgbPt3sFhQsX8WOp+GgKUIACFKCAeQQYAJqnLVgSCphe4MjRM+jeeyzOnr03tcYXx/Bhr6NViwa+eBSfQQEKUIACFKBAAAqcOH4c3y2clxr+WSwW1G/UGPUaNAzZNY8DsBlZZApQgAIU8LIAA0AvA/P2FAgmAQaAwdSarAsFKEABClAgsAVSUlKweeMGrFuzComJiamVebBKNTRt3gJh4eGBXUGWngIUoAAFKOBBAQaAHsTkrSgQ7AIMAIO9hVk/ClCAAhSggPkFJPg7dvQIVq38BRcunFcUuELFSmjaoiWioqLNXxGWkAIUoAAFKOBDAQaAPsTmoyhAAQpQgAIUoAAFKEAB9wRktN+3c+fg2LGjqTcKj4hA3foNOtX03gAAIABJREFUUbdefY78c4+XV1OAAhSgQJAKMAAM0oZltShAAQpQgAIUoAAFKBCsArt37sCyJd/bqlegYCE0a94SefPnD9bqsl4UoAAFKEABtwUYALpNyBtQgAIUoAAFKEABClCAAr4UkN1+t/61CeXKV0SefPm42Ycv8fksClCAAhQISAEGgAHZbCw0BShAAQpQgAIUoAAFKEABClCAAhSgAAW0CTAA1ObEsyhAAQpQgAIUoAAFKEABClCAAhSgAAUoEJACDAADstlYaApQgAIUoAAFKEABClCAAhSgAAUoQAEKaBNgAKjNiWdRgAIUoAAFKEABClCAAhSgAAUoQAEKUCAgBRgABmSzsdAUoAAFKEABClCAAhSgAAUoQAEKUIACFNAmwABQmxPPogAFKEABClCAAhSgAAUoQAEKUIACFKBAQAowAAzIZmOhKUABClCAAhSgAAUoQAEKUIACFKAABSigTYABoDYnnkUBClCAAhSgAAUoQAEKUIACFKAABShAgYAUYAAYkM3GQlOAAhSgAAUoQAEKUIACFKAABShAAQpQQJsAA0BtTjyLAhSgAAUoQAEKUIACFKAABShAAQpQgAIBKcAAMCCbjYWmAAUoQAEKUIACFKAABShAAQpQgAIUoIA2AQaA2px4FgUoQAEKUIACFKAABShAAQpQgAIUoAAFAlKAAWBANhsLTQEKUIACFKAABShAAQpQgAIUoAAFKEABbQIMALU58SwKUIACFKAABShAAQpQgAIUoAAFKEABCgSkAAPAgGw2FpoCFKAABShAAQpQgAIUoAAFKEABClCAAtoEGABqc+JZFKAABShAAQpQgAIUoAAFKEABClCAAhQISAEGgAHZbCw0BShAAQpQgAIUoAAFKEABClCAAhSgAAW0CTAA1ObEsyhAAQpQgAIUoAAFKEABClCAAhSgAAUoEJACDAADstlYaApQgAIUoAAFKEABClCAAhSgAAUoQAEKaBNgAKjNiWdRgAIUoAAFKEABClCAAhSgAAUoQAEKUCAgBRgABmSzsdAUoAAFKEABClCAAhSgAAUoQAEKUIACFNAmwABQmxPPogAFKGA6gfj4eCz4ZjZOnTzhl7I92+YFlK9QMfXZRssTFhaGTJkzI2euXChcpCgqPVgFefLkhfx3I8etmzfw1X8/x43r1xWXN3i0Meo3fFT3LR3Vq0KlymjVuo3T+xk10VNIo/XS8wyeSwEKUIACFKAABShAAQoEtgADwMBuP5aeAhQIYQFfhEvOeD0VAKo9Izo6GlWqVUf9Ro0RExOjq5UZAOri4skUoAAFKEABClCAAhSgQAgIMAAMgUZmFSlAgeAUCOYA0N5iMbGxaPLk07ZRgRaLRVNDMgDUxMSTKEABClCAAhSgAAUoQIEQEmAAGEKNzapSgALBJRAKAaC0mEwFlmmuj9RroCkEZAAYXP2ctaEABShAAQpQgAIUoAAF3BdgAOi+Ie9AAQpQwC8CVqsVd+/cQUpKsubn37p1CwvnzYWEZGmP2o/Uw8N16mi+j5woo/MiIiJTr3EUSBYsVBgtnn0OUVFRGe6fkmLFhQvncfzoUfzz935cu3pVtQzhERF4pkUrVKz8oMsyBkIAWKZsOTzV7BmXddFyQmRUNGTKNA8KUIACFKAABShAAQpQgAKOBBgAsm9QgAIUCCEBT4djaekcBYBFihbD8y+3cxlSSaB59Mhh/LR0CW7cUG7gIc/JkjUr2r7aHrly53HaYp6uozc2AdGygUgIdUtWlQIUoAAFKEABClCAAhTwsgADQC8D8/YUoAAFzCTg6XDMkwGg/V4yCnDe/2vvzuOjLu4/jr9DThKucEkIh6LIfftTQERAEFFBEAICQdSqtV4oarVabWuLrVovPNCiIkKgHCJnAfEGFSyncooKCAjKnfskv8esZc2S3ex3d7+b3YTX/md25jMzz1n6ePT9mO93pr+tY8eOlqLrenEP9b6sHwFgOP2omAsCCCCAAAIIIIAAAgiEvQABYNhvERNEAAEE7BOoCAGgWe3u3bs0d+YMFRTkuyy+Tt26Gn3DTUqIT/CIYvcaOQFo3++PSggggAACCCCAAAIIIBAaAQLA0LgzKgIIIBASAbvDsZKLCPQR4JK1CgoKNHdmmiMILPkx77obMXqMkhs1JgAMyS+IQRFAAAEEEEAAAQQQQKAiChAAVsRdC8M5mxf5p6dn6oe9PysnJ095+QWKioxUZGQVVa0aq6ZNGqhGjXhLN3javbzc3Hx9t+tHZWZkO+cVFR2pJo3PUt06NRUVFWnLkOb9Zenp2drzw8FSBnXq1lRSgzpKiI+zZSyrRTIysrVr9wFlZuaosKhIsTHRMnNp1LCe4uJKX8hgtS7tKq5ARQkAjfDKjz/Uqk8/KYU9+NphalXGZSB2r5ETgBX3987MEUAAAQQQQAABBBBA4BcBAkB+CX4LmNBv46admr9wpT76ZIPS07PKrGVCwAFXdNXAK7srObmu32Hg2nU79Jvf/sM5VlJSHb0ycbyandPQ+TcztzVfbtGbby3Rho07VVDo/pbUmJhoXTWgm1JHXa5zmzX0a07Hj2do/sJVmjnrfR38qfQ7y0qitG55tlJHX66+fbooNta/AM6Md+c9z+vrzd87S994w5W6584Ux3+bIHL7jh/02usLtWrVJrdrj46KVI8eHfTbmwepZYsmfq3b7x8OHUMqYHc4VnIxdp4ANHW3b9uqd+fMKuV1Sa/e6tGzl0dHu9dIABjSnyyDI4AAAggggAACCCCAgA0CBIA2IJ5pJUzAtGXbbj3z3L+1fsM3Pi/fhE+X9uyk228b4gjdfP2cHgCa/m+89pAu6NLCUerQoeN66pkZeu/9/1oubeY0+dUH1aljc8t9CvILNWP2+3rplXnKzy+w3M80bNyovh5+cIy6dW3jc/jmLgAcOuRS/eH3qY5aaTNX6MWX53oMPUtO1Kx7eEofx15US6jq0xpoXDEF7A7HSioQAJb+TQQSHlbMXxizRgABBBBAAAEEEEAAgXAUIAAMx10J4znl5eXrtckL9fb0ZZYCprKWUvLUmi9LLisA3L3noB55bLI2b/n1dJzV2iVDRG99MrNy9NQ/Z2jBolXemnr83oRvd90xTKNH9vPpMWR3AWD/yy/Uo38Yq+kz3tOrkxf4PKdel3bSn/54g2on1vC5Lx0qlgABoOeTg552MpAQL5C+FeuXxWwRQAABBBBAAAEEEEAgnAUIAMN5d8JsbtnZuXrqmZl6d8GnHmdWo0aCGifXU0SVKs42Bw8e0eEjJ0r1sTMAnPD4Lerera0e+sOrWrN2m8tY5jHfZs0aOt5JeOrjbk5WA0Dj8MST07VoyWduHU4fLysrx/EePncfEwI++shYDbq6h+WTgO4CwHZtm8mcApzw97ddgtmS+1F88qT27j/k8VHtgVddrIcfTFV8Ob+nMMx+5pV+OhUpAPzis5X6+IP3S+3JkJQRatmqtce9snuNgYR4gfSt9D9GFogAAggggAACCCCAAALlJkAAWG7UFXugwsIiTX5jkdvTZSbwGjWyn4YNuVTJDeupSpWIUos9cSJLH3+6XpPfWKy9+352fG9nAPiXx27S0aPpeuGluY7apx4zvvU3A3XuucmlTtiZx5gPHz6hJf/5XNNmvOcIKK0EgKbfv2d/oH88nVZqjeax3vHjhuvi7u1Kvd/P1J8772O9MWVJqceFTUj33NN3OR9h9vZLcRcAmstFzGUrp4LWzp3O1+9+O1idO57vsnazj+s3fqNJr813+/j2nx+9UYMHXWI5jPQ212B9X1hYoNycnGCVd1s3KipacVUr/mPSdodjJbHsfAS4qKhI8+bM0rff7HDZj7jYOA1PHaPk5EYEgOX6L4DBEEAAAQQQQAABBBBAoCILEABW5N0rx7mb9+k9/MfXSj3227ZNM/3lTzfpvGbJlmZj3pv37sJP9fSz/9boUf2cF1dY6vy/Ru4eATan//bvP+y4gddcCvLYwzdYfr/eieOZeuW1+TKP0ZrgrKzP97t+1O13P6sDB464NDPvH5zw+K1qcFZtj91NeLjmy62OR5RPPxHZu1dn/fXPN6t6Ne8Bk7sAsOSgV/S/SA8/kKqatap5nItZ8xNPT9ey5Wtc2pzbLFkvPHO3Gjeu78uWlHtbT5dDBHMirdq01eChv1y0UpE/FSUA/OngQc2cPlU52dku3ElJDTVyzFjFxnm+UdvuNQZyii+QvhX5d8bcEUAAAQQQQAABBBBAILwECADDaz/CcjbmUo1x419wXPxR8mMl9PK0oK82f691a7c7TgH6+nEXAJ6qUa9eLT054TZ16fzLhSBWP+ZknDlxVNbNvKbNa5MX6F9vLHIpa243fvafd1oOQd2FqebE4gvPjnOcHvT2KSsAbNmyqSPAKyuIPFV/796fNe6+ifru+/0uQ5rLSUak9PE2jZB+TwDoP7/d4VjJmdh1AjAvN1dzZs3Q3j17XBZqLrkZcPUgdejUuUwAu9cYSIjnqa//O+jas7IE03Z5UAcBBBBAAAEEEEAAAQTcCxAA8svwKjBrzod64slpLu3MY6svv3Cv2rc712t/Tw1MoBYV9et7+awW8hQA+vM+PatjmnY//3xMd977vHbs+MGl20MPjNZ1wy+z/Nhsbm6+/vK3KfrPstUudcyjt3986HpFx0SVOa2yAkDzKLSpY/Xjbm8vuqCVnn7yDtWsmWC1TLm3IwD0n9zucKzkTOwIAE8cP65FC+aVCv/MOM3OPU/XDr9O0dHRZQLYvUYCQP9/b/REAAEEEEAAAQQQQACB8BAgAAyPfQjbWWRkZOv+h17R6jVbXOZ4/ej+GndXil8BXqCL9RQA+vIYrT9z+HTVJt11z/MuXc3pPxOE+vrI7Geff+04VVlQWOSs1+ychnrp+XuUnFzPrwCwRYsmeum5e1S/fqLl5ZlTgHeMe87x6PSpj3mf4KuvPKD2bZtZrlPeDQkA/Re3OxyzEgAmNUzWoCHXKiYmxu3ETxw/of3792nHtq36cf8+nTx5slS75EaNdW3KCFWrXt3r4u1eIwGgV3IaIIAAAggggAACCCCAQJgLEACG+QaFenrmUd3bbn9aWdm5zqnUTqyhSS+Ol3ncNBQfTwGgr6fffJ37y5PmlXr819y8+4ffpyo6uuxTe6eP5ek04b8mPaCL/s/z7aamjqcTgP7MpaCgUH9/arreefcTlyk+9sgNjluF+VQ+AbvDMSsBYCCKVapUUftOnXVZv8sVExNrqZTdayQAtMROIwQQQAABBBBAAAEEEAhjAQLAMN6ccJiaCYYen/CWy1R6XdpJT/z1VpmTYqH4uAsAzcUfr0wcL3OKLhifnJw8/emvb2r5e1/aEpTl5xfo8QlTtWjJZy71fn/fKI0e2a/MJXgKAP0N7dJmrtBTz8xwGXPkiL66/97rQnLCMxj7R81fBewOx4IVAFarVk0tWrbWRd0vVs1atXzaQrvXGIwAsPn5LXTFVVf7tC53jSvL7dQBQ1AAAQQQQAABBBBAAAEEyhQgAOQH4lHA3Fr73MTZmjptmUubsWOu0L13D7f8zju7id0FgF0vaqN//uN2Va8eb/dwjnqeQjcrJ/Y8TcjdiUIrwZunubzx2kMyF7P4+nH3aLO5Efkvj96kqlWtnbjydUzah07A7nAsGAFgnbr1dPElPdWqdRtVifT9PaF2rzEYASCXd4Tu3wAjI4AAAggggAACCCBwJgoQAJ6Ju25xzZ4uqwj2o7bepucuABx41cV67JGxiokp+3IAb7U9ff/9rh91+93P6sCBI84m5qbdl18cb/n239Nrz1+4Un96/E2XP195RVf96Y83Ki7O/bvSPIWRgcxlw8aduuW2J13eR9iubTPH+whr1fL+vjV/TekXGgG7w7FgBICnatavf5auGZqiuvXKfi/m6ZJ2r5EAMDS/VUZFAAEEEEAAAQQQQAAB+wQIAO2zrHSV7D5pZheQuwDwxhuu1D13ptg1RKk67gLAQB87dnfyzspJRnf7Eshc3K3NnwtFgoZPYVsF7A7HrASAjRo30fBRqYqNLX2i1IRrPx08qPVr12jHtm2lLgBJTKyt61KvV61E65fb2L1GAkBbf4IUQwABBBBAAAEEEEAAgRAIEACGAL2iDEkA+OtOBSMAdBdkWjl5Vx4BYCCBYkX5fZ+p87Q7HAs0ACzZ/7tvd2rR/HnKyc522Z7GTZsqZcQoxcZZe++o3WskADxT/7WwbgQQQAABBBBAAAEEKo8AAWDl2UvbV0IA+Cvpzp179bu7n9WhQ8edfwz0lBwBoP8/2cLCAuXm5PhfwI+eleWyBbvDMTsDQFNr6+avtXjhfBUVFjpLR0REqGfvPureo6elnbN7jQSAlthphAACCCCAAAIIIIAAAmEsQAAYxpsT6qkRAP66A+5OADZuVF8vT7xXTZs08GurCAD9YnN02r5tq96dM8v/An70rCyXNtgdjtkdAJrLh5YvXaINa//rsksJ8QmOR4HrN/D+783uNRIA+vEPhi4IIIAAAggggAACCCAQVgIEgGG1HeE1mYyMbN3/0CtavWaLy8RefP4e9ezRIWSTrSzvAFz8n8/1yGOTXRyt3L5bHo8At2l1tl6aeK9qJ9YI2T6XNTABoP/bYnc4ZncAaOqdOH5cM6dP1bGjR10W2qFTFw24eqDXG8jtXiMBoP+/N3oigAACCCCAAAIIIIBAeAgQAIbHPoTlLDzdAvzYIzdo6JBLQzbnUASA+/cf0p33PC9zEvDUx4Rjk14cr5Ytm/pl8c67n+jxCW+59PX3FuBA5uLvSUS/Fm1TJwJA/yHtDseCEQCamv9ds1ofvLdM5kTgqU9cbJyGp45RcnKjMgE8BXYdu1ygAVcN9BkvkHqBhIc+T5QOCCCAAAIIIIAAAggggIAHAQJAfhplCrw8aZ7+9cYilzYjR/TV/fdep6ioyJDohSIAPHEiS3ePf0EbN+10WbO/pyFNqPHcxNmaOm2ZSz0rtxl7ejTb37ms+GCt7n/wZZ+DyJBs/v8GJQD0X7+iBICZmRlKe2uKjh494rLYtu3b68qBgxUZ6fl/f+wO3TzVu6RXb/Xo2cuvMLKyPFLu/y+RnggggAACCCCAAAIIIFCeAgSA5aldAcdyFw61b3+eJj5ztxITq4dkRaEIAPPzC/T4hKlatOQzlzXfdcdQ3Xzj1T47ZGXn6uFH/6WPP9ng0tfK6UpPAeDv7xul0SP7+TyX16cs1osvv+PSb+yYK3Tv3cO9Pmrp82B0CLlARQkADdSaLz7XhyuWu5hZOQVYVFSkeXNm6dtvdrj09Td0y8rOUtpbb+rI4cMu9Xpd1lfdLr6EADDkv2omgAACCCCAAAIIIIAAAt4ECAC9CZ3h37u7/CI6KlIvPDtOF3dvFxKdUASAZqFpM1foqWdmuKz5st5d9Le/3Kz4+DifLDy5Tn71QXXq2LzMWp4CQCuPD59e2FMQOeHxW3T1ld19WhONK4ZARQoAPb0L0MopwKVLFmnjurUum9KyVWsNHuZ7sO3JbEjKCJmaZX3sPo1YMX5lzBIBBBBAAAEEEEAAAQTCTYAAMNx2JMzmU5BfqL/9423NX7jSZWb+hE12LS1UAaAZ97Y7nlZBYZFzKfXq1dKkiePVvHljn5Y3a86HeuLJaS59zMUbJlg1Ncv6eAoA/ZnLzp179bu7n9WhQ8cDXpNPADQOmUBFCgAN0kcfrNDqz1a5eEVHx2jE6FQ1buL5/Ztrv1ytFcuWuvQ7KylJo1LHKq5qVZ/89+/bq1lp02TCvFMfU2Nk6vVqkNSwzFoEgD5R0xgBBBBAAAEEEEAAAQSCJEAAGCTYylT2s8+/1rjxL7gEX+YU4KOPjNWgq3v4/ZhoYWGRX+8RDFUAaN4D+MCDL2vN2m0u22seux0/boTltRw+ckK//8MkrVvv+nji9aP7a9xdKV7reAoAzaRu/c1A/faWa7zWMG2N/2uTF5R6x6O/pxor02++Mq+logWAx44dVdrUKcpIT3fZlhYtW+maoSke3wW4f/8+zZ4+Tbl5uc5+5r2B1w4bofNatLC8xeZ9nR+9v0JrvnB9/N9qmEgAaJmahggggAACCCCAAAIIIBBEAQLAIOJWltIZmTl69M+v66OP17ssqUaNBD054TZ169rG5xBw89ZdWrduh8y75nz9hCoANPN0d3IvIT5O/3zyDnXv1tbrUkzoNvmNRXp18gKXtqbGpBfvU4cO53mtUVYAaPbkn0/erov+r+zHEs0ga/67Vfc/+IrS07NcxjR7ekX/i7zOgwYVU6CiBYCeAjhvpwALCgo0d2aadu/e5bJRiYm1dV3q9aqVmGhpA/fs2a15/57pEiSajl0v7qHel3l/5yYBoCVmGiGAAAIIIIAAAggggECQBQgAgwxcWcp/9fV3umPcc6XCopiYaD0w/joNGdRT0TFRXpdrwsRZcz7Qa5MXavSofrrnzhSvfU5vEMoA8OBPRzXuvonavn2Py7Tq1qkpc4FHz0s6eAxDzePUaTPf00uT5rmcpjSFUob20oP3jbZkWFYAaGo1bdJAf3v8FrVv28yjrXn0974HX9GeHw66tOnWta0j1K1ZM8HnfaFDxRCoaAGgUf3p4EHNnD5VOdnZLsjeTgF+vWmjliycLxMilvzUrl1H1wxLUYMGSR437eTJk9r81SZ9sHxZqfAvIT7BESLWb9DA66Z7CgCbn99CV1zl+wVCbgeMqKL4+HhVqVLF63xogAACCCCAAAIIIIAAAmemAAHgmbnvPq/a/B/ohYtX6a8TppYKr0yxBmfV1oiUPurZs6MaNaynuLgYxxgnTxYrPT1T3373o/6z7AuZW4VPnTi78YYrK1wAaNb06apNGn//i6UczGPRVw7opqGDL1WLFk0cBsYtPT1b6zd+ozemLNbXm78vZW8CuxeevVvnnO05jCjZyVsAaNqaYHbUyH669ppLlNywnuORYHP6cP+PhzRvwUrNmLlC5mbjkh9fTg/6/AOiQ9gIVMQA0Pw7Wrp4kTZtWOfi6O0U4ElzG/Dc2dq5Y3sp/4iICNWrV1/tOnZScnIj1axV09Hm0KFD+m7nN9q6ebOysjLd9uvZu4+69+hpaU89BYCWOltsVKNmTY296WZVq17DYg+aIYAAAggggAACCCCAwJkmQAB4pu14AOs1Yd6CRSs14e9vuw0BfS1dUQNAE6S9PmWxXn9jUcAO/oRu7gLApKQ6Gjmir15/c3GpU5pW9sWOdzpaGYc2oReoiAGgUXP3Tj/zd2+nADMzMjRvziyZizwC/ZjQsPMFF6rv5f1VJTLSUjkCQEtMNEIAAQQQQAABBBBAAIEgCxAABhm4spU3J3G+WL3FcYPt3n0/B7S8ihoAmkWbEPDdBSv11DMzSp2ks4piQrsnHr9VnTudb7WLo52nAPDlF8Zr85bvPJ7S9DSICf/uumOYzGUm5qQgn8otUFEDwKKiIi14Z452bHe9hMfbKUCzm/n5eY4ThNu2bC71OLDV3Y6Ojlaffv3VsXMXnx61JQC0Kkw7BBBAAAEEEEAAAQQQCKYAAWAwdStxbRNCzX7nY01LW+7ziTPzuPDNNw3U1Vd2U9WqsT4rhfIdgCUna8LQLdt265nn/q31G76xvA4TuA0d0ku33jJIdWr7/siepwDwlYnjdXbTJC17b41jTua2YW+fxo3q66EHRqt7t3aqUiXCW3O+rwQCFTUANPR7f9ijWWnTVVCQ77IT3k4Bmsbm3+tPPx3UssWLdPDAj5aDwMioKLVt1149e/X26xFbAsBK8I+GJSCAAAIIIIAAAgggUAkECAArwSaGcgl5efnasHGnli5fo1WffeUxdEpOrqc+l3bS5f0uVOtWZ1eqk2bm0ehvv93neEfih59s0P79h0ptiQn9WrU+R5f3/T/1u+wCxzsT/f2UFQA2O6eho6y5bGX+wpWaM/ejUhd9mLl06thcgwb2UN8+F/gVwvo7d/qFXsBcbpFtLtMoPukymeiYWMXG+h7IlyxiQjZzUcfJk0UutatUiVTV+Hifbws/XcvT3OXjJRiZmRnasW2btm3drKOHjyg7O8sZCJrAr1q1akpKaqjzW7ZS8xYtFBMTmEvod50ZIIAAAggggAACCCCAwJkuQAB4pv8CbF6/eTQ2KytXxf8LFyIiqighIa5SBX7eyNwZVK9ubui054SdlQCw5Bxzc/OVm5vn+JPZDzvn4s2C7xFAAAEEEEAAAQQQQAABBBBAIPQCBICh3wNmgIBPAr4GgD4VpzECCCCAAAIIIIAAAggggAACCFQ6AQLASrelLKiyCxAAVvYdZn0IIIAAAggggAACCCCAAAII2CtAAGivJ9UQCLoAAWDQiRkAAQQQQAABBBBAAAEEEEAAgUolQABYqbaTxZwJAgSAZ8Ius0YEEEAAAQQQQAABBBBAAAEE7BMgALTPkkoIlIsAAWC5MDMIAggggAACCCCAAAIIIIAAApVGgACw0mwlCzlTBAgAz5SdZp0IIIAAAggggAACCCCAAAII2CNAAGiPI1UQKDcBAsByo2YgBBBAAAEEEEAAAQQQQAABBCqFAAFgpdhGFnEmCRAAnkm7zVoRQAABBBBAAAEEEEAAAQQQCFyAADBwQyogUK4CBIDlys1gCCCAAAIIIIAAAggggAACCFR4AQLACr+FLOBMEyAAPNN2nPUigAACCCCAAAIIIIAAAgggEJgAAWBgfvRGAAEEEEAAAQQQQAABBBBAAAEEEEAgrAUIAMN6e5gcAggggAACCCCAAAIIIIAAAggggAACgQkQAAbmR28EEEAAAQQQQAABBBBAAAEEEEAAAQTCWoAAMKy3h8khgAACCCCAAAIIIIAAAggggAACCCAQmAABYGB+9EYAAQQQQAABBBBAAAEEEEAAAQQQQCCsBQgAw3p7mBwCCCCAAAIIIIAAAggggAACCCCAAAKBCRAABuZHbwQQQAABBBBAAAEEEEB6nWZhAAARWElEQVQAAQQQQAABBMJagAAwrLeHySGAAAIIIIAAAggggAACCCCAAAIIIBCYAAFgYH70RgABBBBAAAEEEEAAAQQQQAABBBBAIKwFCADDenuYHAIIIIAAAggggAACCCCAAAIIIIAAAoEJEAAG5kdvBBBAAAEEEEAAAQQQQAABBBBAAAEEwlqAADCst4fJIYAAAggggAACCCCAAAIIIIAAAgggEJgAAWBgfvRGAAEEEEAAAQQQQAABBBBAAAEEEEAgrAUIAMN6e5gcAggggAACCCCAAAIIIIAAAggggAACgQkQAAbmR28EEEAAAQQQQAABBBBAAAEEEEAAAQTCWoAAMKy3h8khgAACCCCAAAIIIIAAAggggAACCCAQmAABYGB+9EYAAQQQQAABBBBAAAEEEEAAAQQQQCCsBQgAw3p7mBwCCCCAAAIIIIAAAggggAACCCCAAAKBCRAABuZHbwQQQAABBBBAAAEEEEAAAQQQQAABBMJagAAwrLeHySGAAAIIIIAAAggggAACCCCAAAIIIBCYAAFgYH70RgABBBBAAAEEEEAAAQQQQAABBBBAIKwFCADDenuYHAIIIIAAAggggAACCCCAAAIIIIAAAoEJEAD66Hfy5Ekt/89ibVy/ztmz2bnn6drh1yk6OtrHajRHAAEEEEAAAQQQQAABBBBAAAEEEEAguAIEgH74Hj1yWGlvv6XMjAxH74iICA24epA6dOrsRzW6IIAAAggggAACCCCAAAIIIIAAAgggEDwBAkA/bIuLi/XR+yu05ovPnL0Ta9fWyNSxqlmrlh8V6YIAAggggAACCCCAAAIIIIAAAggggEBwBAgA/XQ9duyo0qZOUUZ6urPCRd0uVu++/RwnAvkggAACCCCAAAIIIIAAAggggAACCCAQDgIEgAHswkcfrNDqz1Y5KyTEJ+i61OtVv0GDAKrSFQEEEEAAAQQQQAABBBBAAAEEEEAAAfsECAADsDz9XYCmVIdOXTTg6oGcAgzAla4IIIAAAggggAACCCCAAAIIIIAAAvYJEAAGYGneBbh08SJt2vDrjcBV4+Md7wI8i1OAAcjSFQEEEEAAAQQQQAABBBBAAAEEEEDALgECwAAl9/6wR7PSpqugIN9ZiVOAAaLSHQEEEEAAAQQQQAABBBBAAAEEEEDANgECwAApCwoKNHdmmnbv3uWsVL1GDY0ee6MSE2sHWJ3uCCCAAAIIIIAAAggggAACCCCAAAIIBCZAABiYn6P32i9Xa8WypS6V+vTrr4u6dbehOiUQQAABBBBAAAEEEEAAAQQQQAABBBDwX4AA0H87Z89jR49o+ltTlJmZ4fxbUlJDjRwzVrFxcTaMQAkEEEAAAQQQQAABBBBAAAEEEEAAAQT8EyAA9M/NpVdRUZHmzZmlb7/Z4fx7VFS0ho8araZnn2PDCJRAAAEEEEAAAQQQQAABBBBAAAEEEEDAPwECQP/cSvVy9xhwxy4XaMBVA20agTIIIIAAAggggAACCCCAAAIIIIAAAgj4LkAA6LuZ2x779+/T7OnTlJuX6/z+rKQkjUodq7iqVW0ahTIIIIAAAggggAACCCCAAAIIIIAAAgj4JkAA6JuXx9ZZ2VlKe+tNHTl82NkmLjZOw1PHKDm5kU2jUAYBBBBAAAEEEEAAAQQQQAABBBBAAAHfBAgAffPy2Lq4uFjz587W9m1bXdr0u2KALriwq02jUAYBBBBAAAEEEEAAAQQQQAABBBBAAAHfBAgAffMqs/WqTz/Wyo8/cmnTslVrDR42XBERETaORCkEEEAAAQQQQAABBBBAAAEEEEAAAQSsCRAAWnOy1Mqc/nt3ziyXtrwH0BIdjRBAAAEEEEAAAQQQQAABBBBAAAEEgiRAAGgjrLuLQOITEjRyzFjVr3+WjSNRCgEEEEAAAQQQQAABBBBAAAEEEEAAAWsCBIDWnCy1ysxI19Q3X1f6iRPO9lFR0Ro+arSann2OpRo0QgABBBBAAAEEEEAAAQQQQAABBBBAwE4BAkAbNXNzcjRj+lT9dOCAS9XB1w5Tq7btbByJUggggAACCCCAAAIIIIAAAggggAACCFgTIAC05mSpVV5enmbPmK59e39waX9Jr97q0bOXpRo0QgABBBBAAAEEEEAAAQQQQAABBBBAwE4BAkAbNfPz8zV75nTt3bOHANBGV0ohgAACCCCAAAIIIIAAAggggAACCPgvQADov53bnvPfmaNtWza7fNeqTVsNHppi80iUQwABBBBAAAEEEEAAAQQQQAABBBBAwLsAAaB3I59aEAD6xEVjBBBAAAEEEEAAAQQQQAABBBBAAIEgCxAA2gxMAGgzKOUQQAABBBBAAAEEEEAAAQQQQAABBAISIAAMiM+1c3FxsebPna3t27a6fHFh1+667PL+No5EKQQQQAABBBBAAAEEEEAAAQQQQAABBKwJEABac7LUiluALTHRCAEEEEAAAQQQQAABBBBAAAEEEECgHAUIAG3E9hQA9rtigC64sKuNI1EKAQQQQAABBBBAAAEEEEAAAQQQQAABawIEgNacLLXKzEjX1DdfV/qJEy7th6SMUMtWrS3VoBECCCCAAAIIIIAAAggggAACCCCAAAJ2ChAA2qj5888/aea0qcrOynJWjYuN0/DUMUpObmTjSJRCAAEEEEAAAQQQQAABBBBAAAEEEEDAmgABoDUnS6327N6l2TPSVFhY4Gxfo2ZNjb3pZlWrXsNSDRohgAACCCCAAAIIIIAAAggggAACCCBgpwABoI2aa79crRXLlrpUbNy0qYaPTFVMTIyNI1EKAQQQQAABBBBAAAEEEEAAAQQQQAABawIEgNacLLVaumSRNq5b69L2wq7dddnl/S31pxECCCCAAAIIIIAAAggggAACCCCAAAJ2CxAA2iTq7gbgiIgIDR6Wopat2tg0CmUQQAABBBBAAAEEEEAAAQQQQAABBBDwTYAA0Dcvj62PHT2i6W9NUWZmhrNNtWrVlXrDjUqsXcemUSiDAAIIIIAAAggggAACCCCAAAIIIICAbwIEgL55eWy9fdsWzZ87R8XFxc42553fQtemjFBkZKRNo1AGAQQQQAABBBBAAAEEEEAAAQQQQAAB3wQIAH3zctvahH5LFy/Spg3rXL6/atA1at+xsw0jUAIBBBBAAAEEEEAAAQQQQAABBBBAAAH/BAgA/XNz6ZWVnaW0t97UkcOHnX+vXqOGRo+9UYmJtW0YgRIIIIAAAggggAACCCCAAAIIIIAAAgj4J0AA6J+bS69vd+zQvLmzVFRU5Px767btNGjIUJmLQPgggAACCCCAAAIIIIAAAggggAACCCAQKgECwADl3T3+a975d+2wETqvRYsAq9MdAQQQQAABBBBAAAEEEEAAAQQQQACBwAQIAAPz07FjR5U2dYoy0tOdlc4++xwNGzla0dHRAVanOwIIIIAAAggggAACCCCAAAIIIIAAAoEJEAAG5qc1X3yuD1csd1Yxj/xeNWiw2nXoGGBluiOAAAIIIIAAAggggAACCCCAAAIIIBC4AAFgAIZ5ubmaOW2qDhz40VklKamhRo4Zq9i4uAAq0xUBBBBAAAEEEEAAAQQQQAABBBBAAAF7BAgAA3A8/fIPTv8FgElXBBBAAAEEEEAAAQQQQAABBBBAAIGgCBAA+slaUFCguTPTtHv3LmeFRo2baPioVMXGxvpZlW4IIIAAAggggAACCCCAAAIIIIAAAgjYK0AA6Kfn6af/IqOiNDTlOp3bvLmfFemGAAIIIIAAAggggAACCCCAAAIIIICA/QIEgH6Y5uXlafaM6dq39wdn79Zt22ngNUNUJTLSj4p0QQABBBBAAAEEEEAAAQQQQAABBBBAIDgCBIB+uG7asF5LFy9UcXGxo3e16tU1+vobVLtOXT+q0QUBBBBAAAEEEEAAAQQQQAABBBBAAIHgCRAA+mhbVFjoeO9fbk6Os2fduvV0VlKSj5VojgACCCCAAAIIIIAAAggggAACCCCAQPAFCACDb8wICCCAAAIIIIAAAggggAACCCCAAAIIhEyAADBk9AyMAAIIIIAAAggggAACCCCAAAIIIIBA8AUIAINvzAgIIIAAAggggAACCCCAAAIIIIAAAgiETIAAMGT0DIwAAggggAACCCCAAAIIIIAAAggggEDwBQgAg2/MCAgggAACCCCAAAIIIIAAAggggAACCIRMgAAwZPQMjAACCCCAAAIIIIAAAggggAACCCCAQPAFCACDb8wICCCAAAIIIIAAAggggAACCCCAAAIIhEyAADBk9AyMAAIIIIAAAggggAACCCCAAAIIIIBA8AUIAINvzAgIIIAAAggggAACCCCAAAIIIIAAAgiETIAAMGT0DIwAAggggAACCCCAAAIIIIAAAggggEDwBQgAg2/MCAgggAACCCCAAAIIIIAAAggggAACCIRMgAAwZPQMjAACCCCAAAIIIIAAAggggAACCCCAQPAFCACDb8wICCCAAAIIIIAAAggggAACCCCAAAIIhEyAADBk9AyMAAIIIIAAAggggAACCCCAAAIIIIBA8AUIAINvzAgIIIAAAggggAACCCCAAAIIIIAAAgiETIAAMGT0DIwAAggggAACCCCAAAIIIIAAAggggEDwBSL2Hz5ZHBEREfyRGAEBBBBAAAEEEEAAAQQQQAABBBBAAAEEylWguLhYEbsO5BfHxkSX68AMhgACCCCAAAIIIIAAAggggAACCCCAAALBF8jLL1DEV9+nF9etWT34ozECAggggAACCCCAAAIIIIAAAggggAACCJSrwOETGYr4eOOPxec3TirXgRkMAQQQQAABBBBAAAEEEEAAAQQQQAABBIIv8M3eA4qY+f7W4ks7tQr+aIyAAAIIIIAAAggggAACCCCAAAIIIIAAAuUq8MmGbYp4csbK4jH9e5TrwAyGAAIIIIAAAggggAACCCCAAAIIIIAAAsEXmLZ8lSLufG5+8V3DLlf1+KrBH5EREEAAAQQQQAABBBBAAAEEEEAAAQQQQKBcBDKyc/Ti3Pd+CQD7dG6trm2bl8vADIIAAggggAACCCCAAAIIIIAAAggggAACwRdYvXmnPly/9ZcAMLF6gn43pG/wR2UEBBBAAAEEEEAAAQQQQAABBBBAAAEEECgXgUnvvq9jGVm/BIBmxP4XtVeXFueUy+AMggACCCCAAAIIIIAAAggggAACCCCAAALBE1i3Y5eWr/nKMYAzAEyoGqvbrrlMsTHRwRuZyggggAACCCCAAAIIIIAAAggggAACCCAQVIG8/AK9uuADZeXkuQaA5r86nNdUV3XvGNQJUBwBBBBAAAEEEEAAAQQQQAABBBBAAAEEgiew5PON2vTtHucAzhOAp/7Co8DBw6cyAggggAACCCCAAAIIIIAAAggggAACwRQo+ejvqXFKBYDmi2G9L9T5jZOCORdqI4AAAggggAACCCCAAAIIIIAAAggggICNAt/sPaC5H31ZqqLbAJAQ0EZ5SiGAAAIIIIAAAggggAACCCCAAAIIIBBkAU/hnxnWYwBovuRx4CDvDOURQAABBBBAAAEEEEAAAQQQQAABBBAIUMDdY78lS5YZAJqG5mKQvhe04XbgADeC7ggggAACCCCAAAIIIIAAAggggAACCNgpYG77fX/tFpcLP9zV9xoAmk4JVWPVo30LdWlxjp1zpBYCCCCAAAIIIIAAAggggAACCCCAAAII+CFgTv2t+mqHsnLyvPa2FACeqpJYPUGdmjdVm2aNVD2+qtfiNEAAAQQQQAABBBBAAAEEEEAAAQQQQAABewQysnO05ft92rBzj45lZFku6lMAWLJq47PqqEn9OkqqW0u1a1RT9apxiomOUkREhOXBaYgAAggggAACCCCAAAIIIIAAAggggAACrgLFxcXKLyhURk6ujqZn6sDh4/rh5yPa+9MRv6j+H79YSod5bdBnAAAAAElFTkSuQmCC;clipPath=inset(14.89% 32% 4.96% 2.33%);" parent="1" vertex="1">
          <mxGeometry x="257" y="30" width="210" height="111.92325262677022" as="geometry" />
        </mxCell>
        <mxCell id="yM3fGQsoTe8s-scs91LO-2" value="" style="shape=image;verticalLabelPosition=bottom;labelBackgroundColor=default;verticalAlign=top;aspect=fixed;imageAspect=0;image=data:image/png,iVBORw0KGgoAAAANSUhEUgAABQAAAAJ4CAYAAAA6Mk7VAAAAAXNSR0IArs4c6QAAIABJREFUeF7s3Xm8DfX/wPG37FtUyL5LJEK+VIpCSkiWCBVJkX2LyJJSyb5vScle9qWUCimU7EuyZonsa5Zr+T3ep9+5nXPvnHtm5ixzjvuaf77fR3fmszw/n5lj3vNZkrQeMu+m2Dhy3X2X5M5yl2TLlFHuvD2dpE+dSlIkTyZJkiSxkRqXIIAAAggggAACCCCAAAIIIIAAAggggIAK3Lx5U67GXJPzly7LqXMX5MiJM3Lg2Ek5+PdJW0BJrAQA70ifVkoWyiP35c8p6dOktpUhFyGAAAIIIIAAAggggAACCCCAAAIIIICAdYHz/1ySbXsPyYZdf8rp8xdNJ2AqAJg2dUopX7ywlC6cz3TCnIgAAggggAACCCCAAAIIIIAAAggggAACoRH4bec+WbV5p1y8dMVvBn4DgCUK5pHKD94nKVMk95sYJyCAAAIIIIAAAggggAACCCCAAAIIIIBAeASuXI2RZeu2yabdfyaYYYIBwKplizPqLzztRS4IIIAAAggggAACCCCAAAIIIIAAAgjYEtDRgEvXbvZ5rc8AYN3H/yf35MpmK1MuQgABBBBAAAEEEEAAAQQQQAABBBBAAIHwCfxx8Ih8+cMvhhkaBgAJ/oWvccgJAQQQQAABBBBAAAEEEEAAAQQQQACBYAj4CgLGCwAy7TcY3KSBAAIIIIAAAggggAACCCCAAAIIIIBA+AWMpgN7BQB1w49nHn4g/CUjRwQQQAABBBBAAAEEEEAAAQQQQAABBBAIisDinzd6bQwSGwBMmzqltHi2Erv9BoWZRBBAAAEEEEAAAQQQQAABBBBAAAEEEHBGQHcHHjv/O7l46YqrALEBQKb+OtMg5IoAAggggAACCCCAAAIIIIAAAggggECwBTynArsCgHekTystn6sc7HxIDwEEEEAAAQQQQAABBBBAAAEEEEAAAQQcEhgzd5mcPn/x3xGAT5QqKuWKFXKoKGSLAAIIIIAAAggggAACCCCAAAIIIIAAAsEWWLN1l3y/fvu/AcA2dZ+U9GlSBzsP0kMAAQQQQAABBBBAAAEEEEAAAQQQQAABhwTO/3NJRnz5jSTpP+3Hmy9WLe9QMcgWAQQQQAABBBBAAAEEEEAAAQQQQAABBEIl8PnSVZJk+rLtNyuULBKqPEgXAQQQQAABBBBAAAEEEEAAAQQQQAABBBwSWLFhhyRZvvGvm/fkyuZQEcgWAQQQQAABBBBAAAEEEEAAAQQQQAABBEIl8MfBI5Jk895zNzNlSB+qPEgXAQQQQAABBBBAAAEEEEAAAQQQQAABBBwSOHH2vCTZd+TqzZQpkjtUBLJFAAEEEEAAAQQQQAABBBBAAAEEEEAAgVAJXLkaI0kOn7hxM0mSJKHKg3QRQAABBBBAAAEEEEAAAQQQQAABBBBAwCGBmzdvSpK/Tt686VD+ZIsAAggggAACCCCAAAIIIIAAAggggAACIRYgABhiYJJHAAEEEEAAAQQQQAABBBBAAAEEEEDASQECgE7qkzcCCCCAAAIIIIAAAggggAACCCCAAAIhFiAAGGJgkkcAAQQQQAABBBBAAAEEEEAAAQQQQMBJAQKATuqTNwIIIIAAAggggAACCCCAAAIIIIAAAiEWIAAYYmCSRwABBBBAAAEEEEAAAQQQQAABBBBAwEkBAoBO6pM3AggggAACCCCAAAIIIIAAAggggAACIRYgABhiYJJHAAEEEEAAAQQQQAABBBBAAAEEEEDASQECgE7qkzcCCCCAAAIIIIAAAggggAACCCCAAAIhFiAAGGJgkkcAAQQQQAABBBBAAAEEEEAAAQQQQMBJAQKATuqTNwIIIIAAAggggAACCCCAAAIIIIAAAiEWIAAYYmCSRwABBBBAAAEEEEAAAQQQQAABBBBAwEkBAoBO6pM3AggggAACCCCAAAIIIIAAAggggAACIRYgABhiYJJHAAEEEEAAAQQQQAABBBBAAAEEEEDASQECgE7qkzcCCCCAAAIIIIAAAggggAACCCCAAAIhFiAAGGJgkkcAAQQQQAABBBBAAAEEEEAAAQQQQMBJAQKATuqTNwIIIIAAAggggAACCCCAAAIIIIAAAiEWIAAYYmCSRwABBBBAAAEEEEAAAQQQQAABBBBAwEkBAoBO6pM3AggggAACCCCAAAIIIIAAAggggAACIRYgABhiYJJHAAEEEEAAAQQQQAABBBBAAAEEEEDASQECgE7qkzcCCCCAAAIIIIAAAggggAACCCCAAAIhFiAAGGJgkkcAAQQQQAABBBBAAAEEEEAAAQQQQMBJAQKATuqTNwIIIIAAAggggAACCCCAAAIIIIAAAiEWIAAYYmCSRwABBBBAAAEEEEAAAQQQQAABBBBAwEkBAoBO6pM3AggggAACCCCAAAIIIIAAAggggAACIRYgABhiYJJHAAEEEEAAAQQQQAABBBBAAAEEEEDASQECgE7qkzcCCCCAAAIIIIAAAggggAACCCCAAAIhFiAAGGJgkkcAAQQQQAABBBBAAAEEEEAAAQQQQMBJAQKATuqTNwIIIIAAAggggAACCCCAAAIIIIAAAiEWIAAYYmCSRwABBBBAAAEEEEAAAQQQQAABBBBAwEkBAoBO6pM3AggggAACCCCAAAIIIIAAAggggAACIRYgABhiYJJHAAEEEEAAAQQQQAABBBBAAAEEEEDASQECgE7qkzcCCCCAAAIIIIAAAggggAACCCCAAAIhFiAAGGJgkkcAAQQQQAABBBBAAAEEEEAAAQQQQMBJAQKATuqTNwIIIIAAAggggAACCCCAAAIIIIAAAiEWIAAYYmCSRwABBBBAAAEEEEAAAQQQQAABBBBAwEkBAoBO6pM3AggggAACCCCAAAIIIIAAAggggAACIRYgABhiYJJHAAEEEEAAAQQQQAABBBBAAAEEEEDASQECgE7qkzcCCCCAAAIIIIAAAggggAACCCCAAAIhFiAAGGJgkkcAAQQQQAABBBBAAAEEEEAAAQQQQMBJAQKATuqTNwIIIIAAAggggAACCCCAAAIIIIAAAiEWIAAYYmCSRwABBBBAAAEEEEAAAQQQQAABBBBAwEkBAoBO6pM3AggggAACCCCAAAIIIIAAAggggAACIRYgABhiYJJHAAEEEEAAAQQQQAABBBBAAAEEEEDASQECgE7qkzcCCCCAAAIIIIAAAggggAACCCCAAAIhFiAAGGJgkkcAAQQQQAABBBBAAAEEEEAAAQQQQMBJAQKATuqTNwIIIIAAAggggAACCCCAAAIIIIAAAiEWIAAYYmCSRwABBBBAAAEEEEAAAQQQQAABBBBAwEkBAoBO6pM3AggggAACCCCAAAIIIIAAAggggAACIRYgABhiYJJHAAEEEEAAAQQQQAABBBBAAAEEEEDASQECgE7qkzcCCCCAAAIIIIAAAggggAACCCCAAAIhFiAAGGJgkkcAAQQQQAABBBBAAAEEEEAAAQQQQMBJAQKATuqTNwIIIIAAAggggAACCCCAAAIIIIAAAiEWIAAYYmCSRwABBBBAAAEEEEAAAQQQQAABBBBAwEkBAoBO6pM3AggggAACCCCAAAIIIIAAAggggAACIRYgABhiYJJHAAEEEEAAAQQQQAABBBBAAAEEEEDASQECgE7qkzcCCCCAAAIIIIAAAggggAACCCCAAAIhFiAAGGJgkkcAAQQQQAABBBBAAAEEEEAAAQQQQMBJAQKATuqTNwIIIIAAAggggAACCCCAAAIIIIAAAiEWIAAYYmCSRwABBBBAAAEEEEAAAQQQQAABBBBAwEkBAoBO6pM3AggggAACCCCAAAIIIIAAAggggAACIRYgABhiYJJHAAEEEEAAAQQQQAABBBBAAAEEEEDASQECgE7qkzcCCCCAAAIIIIAAAggggAACCCCAAAIhFiAAGGJgkkcAAQQQQAABBBBAAAEEEEAAAQQQQMBJAQKATuqTNwIIIIAAAggggAACCCCAAAIIIIAAAiEWIAAYYmCSRwABBBBAAAEEEEAAAQQQQAABBBBAwEkBAoBO6pM3AggggAACCCCAAAIIIIAAAggggAACIRYgABhiYJJHAAEEEEAAAQQQQAABBBBAAAEEEEDASQECgE7qkzcCCCCAAAIIIIAAAggggAACCCCAAAIhFiAAGGJgkkcAAQQQQAABBBBAAAEEEEAAAQQQQMBJAQKATuqTNwIIIIAAAggggAACCCCAAAIIIIAAAiEWIAAYYmCSRwABBBBAAAEEEEAAAQQQQAABBBBAwEkBAoBO6pM3AggggAACCCCAAAIIIIAAAggggAACIRYgABhiYJJHAAEEEEAAAQQQQAABBBBAAAEEEEDASQECgE7qkzcCCCCAAAIIIIAAAggggAACCCCAAAIhFiAAGGJgkkcAAQQQQAABBBBAAAEEEEAAAQQQQMBJAQKATuqTNwIIIIAAAggggAACCCCAAAIIIIAAAiEWIAAYYmCSRwABBBBAAAEEEEAAAQQQQAABBBBAwEkBAoBO6pM3AggggAACCCCAAAIIIIAAAggggAACIRYgABhiYJJHAAEEEEAAAQQQQAABBBBAAAEEEEDASQECgE7qkzcCCCCAAAIIIIAAAggggAACCCCAAAIhFiAAGGJgkkcAAQQQQAABBBBAAAEEEEAAAQQQQMBJAQKATuqTNwIIIIAAAgggEAUCN65flzlfzpJdO3+PLW3RYvdLjWefk9uSJo2CGlBEBBBAAAEEEEAgcQsQAEzc7U/tEUAAAQQQQAABvwJbN2+SJQvny/Xr113npk2TVho0fkmyZM3q91pOQAABBBBAAAEEEHBegACg820QUAlOnDwrc+atlOvXrkvL12sFlBYXI4BAaAW4X0PrG82p0zeiufVCV/YbN27K7t2HZNzHC6TRC1WkVMl7QpdZAilfuHBBpk3+VE6eOB57VtmHHpHHK1eRJEmSOFImMkUAAQQQQAABBBCwJkAA0JpXRJzt+UKwYuUGibl2XZo2qSbtW9eLiPJRCAQQ+E+A+5Xe4EuAvkHf8CVw5cpV+ennLTJ63DzZtfuQ67SJ47rJg6ULO4K2auVy+XH5D7F5p0ufXhq91ETuvCuTI+UhUwQQQAABBBBAAAHrAgQArZs5fsW633ZKs9c/9CoHAUDHm4UCIGAowP1Kx/AlQN+gb/gSGDryC5n06RKvPzsVADx18oRMnfypXDh/PrY85R4pL49XqkIDIoAAAggggAACCESRAAHAKGosd1F5aYzCRqPIiVaA+zXRNr3fitM3/BIl2hMiJQB48+ZNWfrVYtmw7tfYtmDtv0TbLak4AggggAACCES5AAHAKGxAXhqjsNEocqIV4H5NtE3vt+L0Db9EifaESAkAHjt6VGZMmSwX/7kY2xYlSpaWp6vXYO2/RNs7qTgCCCCAAAIIRKsAAcAobDleGqOw0ShyohXgfk20Te+34vQNv0SJ9oRICQD+8N23suanVbHtkDx5CqnfqLHkyp0n0bYNFUcAAQQQQAABBKJVgABgFLYcL41R2GgUOdEKcL8m2qb3W3H6hl+iRHtCJAQAT58+JVM/myTnz52LbYecuXLL8w0bS8qUKRNt21BxBBBAAAEEEEAgWgUIAEZhy/HSGIWNRpETrQD3a6Jter8Vp2/4JUq0J0RCAHDt6p/l+2+XerXBE1WqStmHHk607ULFEUAAAQQQQACBaBYgABiFrcdLYxQ2GkVOtALcr4m26f1WnL7hlyjRnuB0ADAmJka+nD5V9u/fF9sGqdOkkRcavyx3Z82aaNuFiiOAAAIIIIAAAtEsQADQRutd/OeyHDl6Uk6eOOu6+tLlK5I61b/TYdKlTyO5c2aRdOlSh2yB7Eh5abx8+aocP35G/jpywlX3K1djJFnSpJI06W2SOnVKyZ0ri9x+ezq57bYkNpSDd4mWc8++v+TC+X9iy5gseVLJnetuyXRXBkmWLGlQMtPdEi9cuCQHDh1z5XX9+g25dv26pEyR3JX+XZkySLasd0naNKmCkh+JmBPgfjXnFO6z9L489Ndx13PU817RZ2jePFkTxX0SKc9yf20fjmfojRs35dy5C3Lg4DG5dOlKvOdn9myZJHPmjJIqVQp/xQ3q3z2fH579NMltSYL+G+JZcKcDgAcP/Ckzp06RmJirscXKmzef1H2hkSRP/u9vGgcCCCCAAAIIIIBAdAkQADTZXidOnpVFi3+WOfNWyp8Hjvq96vbb08rjFUpKtafKSfH7C0gaC0Efo3/4+83Qwgn3F8svI4e2l4wZ01u4SuSffy7L5i17ZPnKjbJy1SY5fPi43+vVoeYzj8hztR6TAvmzByUoGvelOVu2u2T08I6SP1/22PLoy+TaX7bJJ58ulg0bd0nMteuGZU2RIrk88/RD0rjhk7bKp0G/w4dPyJx5K2T+wlWi/cTfoUHHp6uWlSqVykjRonklefJk/i6x/Het/+aNG2X2zC9lx/ZtkjJVanmiciWpU7+uZMyY0XJ6di84c+aMfLVwsXzz1VI5ffq0FChYUBq+1FhKli4V0sAw96vdFgvtdecvXJLvf1gnM2Z+L9t/359gZqVK3iNNXnxaHi5XTJKnMH+P6D25YNEqebffZ173fYH8OWTYoLaSK1cWy5X0lWae3Fll8MDWUjB/DsM0I/VZHgnPUH1GHTlywvV78uNPm+W39Tvl6tUYv22j/aJ2rcek8hMPuj40heL4668TMn/RT/LV12v8/t67f+trVi8vD5QoaOqD0pkz56V1+6GyZeveUBTflWbTJtWkfet6ttOPu/mHJvRoxcel/GMVbafJhQgggAACCCCAAALOChAA9OMfc/WaTJu1TEaOnmPq5cQoOQ0ytW9TTxq9UMVUa0faS+PuPYdl5Jg5smrVJp+BNDMVe7xiKenaqaFowC6Qw2jUzMRx3eTB0oVdyeqoxI8GTZNvlv1qOpvkyZLKhLFdpeQDhUxfc+HiJRk9dq7M+uJ72y768vhun2ZS8bGSpvP1d+L169dl8YJFMvmTSXItTuAze44c0q1nd8mdJ7e/ZAL++9EjR2Rw/4Hyx84/4qVVv2EDeb5hA0maNDijL90ZcL8G3GwhSUDbZcnS1TJ85GxTQXLPQhS7L7+81bWx3Fckr+kPCNrvJ0xcKGMnzPeqT41nHpHuXRtb+iCjCezee1g6dh7pFQzSZ0bvnk1F0/R1RNqz3F1OJ5+h2hdmzf5BJk/5Wo7+fcp2f9MPKW1b13V9wAnWKO6Tp87J+AkLZPbc5bae6YUK5pRWLWvLo48UT7BMkR4AvHLlisyaNkUOHTwQ2z7JkiWX5xs2kjx589luMy5EAAEEEEAAAQQQcFaAAGAC/jri7aNB02Xu/JUBt5KVr/GR9tI4b8GP0rvvJwEbaAL60tavb3Mp+7+ipl/m42ac0Mvr/j+PSo9eE2TrNusjKzyDiP4qe/zEGenZZ6KsXrPV36l+//5Or1ekVs1H/Z5n9oQ/9+2XPm/3ltOnjF+uKz1ZRVq0ainJ/39qstl0rZynQcjJn3wq8+fMM7wsderU0vu9d+TeokWsJJvgudyvQaMMakIakH/vw8myfMUG2+lqoLxH1xel6pP/M/3c0Hu0W4+xos8Lz6Nbl0bS4PlKptM5e/aidO0xNt693qL5s9K8WY0EAz2R9ix3Ozj5DA128OvZGuXlzc4NJV3a1Lb7l47wXPnjJunb71PLAeq4mZoZYR9sA6OKW/k3R9zrjx37W6Z//pn8c/Fi7J8y3nGHvNi0maRLZ23mgO1G4UIEEEAAAQQQQACBoAsQAPRBqiNIPp60SMaMMw5g6GX58maTtB4vHTdv3JCDh4/LuXP//aPZnbyVf4xH2ktjQgFAHQWTN282SZnSe12mo0dP+nyR0pf5gf3fkLJlitrq0EYvrxpUfPihYtLtrbGydt0Or3R1BGb+/Nld6xO6D6PymQ0A6npY7/f/3DXl1+gwMtG1APfu/ctwFGmwA4A63Xb08JE+bbNlzyY9+/YWHQ0YquPs2bPybs8+snvXbp9ZPP9Cfdd04GAc3K/BUAx+GrpMQPdeE2Tjpl2Gice9N69cuSr79x8xHH1l57lhNHLPSjq+RhI+VK6Y9O/XQjJkSJsgWqQ9y92FdfIZ6i/4pR+Jsmb1HiWeUL/QOtkd2anXavBv0ZKfpW+/z3yO8jd6pl+8eEn27T8Sr/1vhQDg5o3rZfEC79Gz+fIXkLoNXhAdCciBAAIIIIAAAgggEJ0CBAB9tNuuXQelZdvBrumknof+415HfugINqO12/Rl4syZC7Ju/U6ZNuNbWb/h3+mPVgKAuuh4TAJrIW3avEfadhzmVa6GDarI66/WMNULkyS5TdKnT2N6DTbPAKC+sGug7dnqj0iJEoXkjozpDdNRhxMnzsriJT/L59O+iRcMfKBEIRn44RuuRd2tHkYvrxpEO3XqnAwb+aUrOX1hq/BYSXmtWQ0pUCBHvFE6RuUzGwD86ect0q7jsHhBisfKl5DXmteUIoXzGI4K0jWvdFSSXq99Y9fuQ66yBjsAOHnSZzJn1r8ORkfmLFmk93t9JGeuXFbpTZ9/6OBBeeftPnL82DGf19R+vq681PRl02kmdCL3a1AYg5rIqdPnDAPymomu49by9VpS6oF74t0rGuzRe2TwsFly8JB3//G35p5RBXQpgO5vj/O6X80+f3St046dR3hda6UMkfYsd/s4+QyNGwBUz6efKieVHy8luXLd7XOTj5iYa7Jx826Z/PnXrjVo4x59ejZ1jaROksTaplNrf90unbuONvxwp8/0l158Sh4oXtDw996oTGYCgPpbcP78P3Lz5g2f99y4jxe6fic8j+GD20mJ4gVM3ac6wtvuhlML582WrZs3e+VT/rEK8mjFJ0zlzUkIIIAAAggggAACkSlAANBHu+jovxGjZnv9tdLjpaV3jyaSIWM6U62pQSZ9gf34k0Wuqa+6XlEwjnDvHKkBwCnTvpEXGz0pTzz+oKRPZ22qldEoHHXo3vVFqV/P+guFUf01KKmbcegGLbrGYK/uTeShcveZehk8e+aCjB43zzW9UAMTCR36wvfBR1Nk9twVXqe92PBJadOqTryRkL7S0hdA3QRh3Pj5UumJ0kGdApwYRwByvwbjyRK8NHyNyNTAfOuWtaXRC0/63dhD19jUkbaLl6z2Kli9OhWla6dGfq93X2R3PUBf6/4NHthGNDAUjCPcz3J3mZ18hmoAsF2nEa4R9A3rV5aCBXOa/hil5ffVnrpG5LDB7Sx9VDp48Ji06zRc9uw97NWcOkpUp4o/XbWcqbLpb71u6NHn3UmSJk1KW5tsxe1PTu0CfPnyZZk17XM5fOjfD1Tuo1btulKk2P3B6PakgQACCCCAAAIIIOCQAAFAA3gdtdG953ivNav0S/qYEZ2kRImClptKXw4uXLjkGnUXjCPcL42nT593ra9kZSfOuPU0GklTsUJJef/d1yyPUjCqvzs/HVGoU/NKl/p3QxCzh75U6rp1cacyx73+2LHT0rrDUNm587/F0XUEy6hhHWztLqqBQO1vVoOqCdUrsa0ByP1qtpeH7zzdLbxVuyHxRlWZWTfPs5RG6/jZeRbr+pDv9PtUvl66NjZ5DUb27PGy6O6tcUeN6fnv958iCxf/5IVmtfz+xMP9LHeXx8lnqG4CosHdO+6wv5ac7ibds8/H8sPy9V7EI4a2Nx2c1Wf+sBFfyOSpS73S0OCf/oaY/YDkebF+TPpk8hJp+tLTkjGj/fppmk4FAM+dPSuTJ30s58+di61aypQppX6jFyVHztCNGvd3r/B3BBBAAAEEEEAAgcAFCAAaGBqtUaSjC0YO7yB33nF74OoBpuDUS2MgxdbpTp27jZY1a7fFJpMrZxYZNbyDaADNyuHr5TWhF3or6Sd07t59f8kbbQfLkSMnY0/TkYPv9HxFUqdOGaxsAkonse0CzP0aUHcJ+sUaWBk8bKZMne49ffGpqmVdI6jTpEllKU+jjwfNmjzjGnFrZbqnr/UAhwxoE7uDuBbM1+jFQNaZ81Vhp57lTj5DLTV+Aid/+9066dx1lNcZuuSD7sJr5vC1bEC71nWl6cvVLPUtz/z0o47OQrbSN43K61QA8PDhQzJryudy+crl2GLpxh+NmzSVO+70XpvRjDPnIIAAAggggAACCESOAAFAg7YwCiiYWdcnXM3q1EtjIPXTUZBDhs+Szz7/2isZs+vueV7k6+X18Yql5N0+rwZ1NF3cOhsFAKs9VU56v93U59pVgbjZvVZfQjdv3CizZ34pO7Zvk5SpUssTlStJnfp1JWNG6+su2i3HmTNn5KuFi0WnJZ8+fVoKFCzo2vijZOlSpqbWmcmX+9WMUvjOMbpH7Izac5dYd+Ht0nWU1+Y+xYsXlOGD2loeRWa03tuDpQvLh/1aSOZM/94XRudYWffPirRTz3Inn6FWfBI6VwO6rdoMlqN//7fbuZVnsdGyAXamEQerPnHTcSoA+PuO7TL3i5lexbk9QwZ5+ZVXJV165z+AhsqbdBFAAAEEEEAAgcQgQADQZABQR/6NGdFR7r03j+P9wqmXxkArbrSb8MD+raRKpQctJe3r5TXYm2kYFcoouFG4cG4ZOaS9ZMlyh6V6cHJwBIwCgNyvwbG1k4rRfa7rp773zquWR/9p/vrxQNdjnfjp4tjiaEBx7OguUrxYfktF9DW6z72u4MnT51xrwv3++5+x6VrZNdhSYUTEqWe5k89Qq0a+zje678uVvc+1uZS/5TaMRqRrPm92aiiNXqgSrCIGlI5TAcB1v6yRb7/+yqvsOXPllucbNhadCsyBAAIIIIAAAgggEL0CBAAN2u7SpSvS+91PZOk3v3j9VaedvdHiOcMdXsPZBZx6aQy0jkaBATtBO6P668Yfo4d3lPz5sgdazASv151NW7cdItt27Pc6z+4OlCEtbCJJnPs1chra1yY5gQZWFi35WXr0muBV0X59m0v1ag9brrzR+n5b4RoEAAAgAElEQVS6fED7ts+7NuaJu+mI7lb8atPqIXnuO/Usd/IZarnBfFwQyMhfo9GDkfTRQKvsVABw1crl8uPyHwgABqujkg4CCCCAAAIIIBBBAgQAfTSG0fQgfUms9exj0uTFpyVHjkwBr/Fjtx849dLoLq+OyDlx4qys+WWb6GL/23f8KUePnpQTJ89arlKwAoBmR35YLmCcC3wFOFKkSC7Nmj4jdWtXdO34zBFeAe7X8Hr7yk2n67btOEw2btrldcr4MV2kbJmitgtp9MzTNQA1MGfn0GmjcUf6GaUTinX/PPNx6llulG+4nqFGzvpc3b59v2ua9+bNu13TevfvPyIx165bal6zS3XoNO/XWg7wSjuS1vklAGip2TkZAQQQQAABBBBAwKQAAUAfUPv2H5F2HYfLnweOGp5R9N68Urnyg1LmwSJSIH92yzvZmmwfw9OcemnU3RtX/bxZRo2dK7t2HwqkCrHXBisAqC/qvXq8LBqIC/Wh/h26jIi3w6nmq0Hikg8UkooVSknZskUlZ/bMEbU2YKhtnEqf+9Upee989XnZqu0QOXjoWOwfst59pwz4oKXkzn237UJu2rzHFVj0PJo2qSbtW9eznabRWn+eiRXIn0OGDWpra3dvs4Vy6llulG84n6Fun7/+OuFaF3bO/JVy9WqMWTaf55kNABqNRreyfmDABTWRACMATSBxCgIIIIAAAggggIAlAQKAPrh0lNuCRavk3X6fmRqFoKO+ShQvKA88UEgeKFFIihTOLcmTJ7PUGGZPduKlUadM9ftgsqzf8IfZYpo6L1gBwECDAaYK+/8n6TpiEyYulLET5pu6LEeOzFLqgXukWLF8UqZ0EcmT++6QTCc0VZhb9CTu18hoWKM1MkNVsjrPVZC33mxs+zmbUJ8J5bp/nh5OPMs1f6fyddddPyZNm7VMRo6eE5TAnztdswFAo+BaOH9DzNwTBADNKHEOAggggAACCCCAgBUBAoAJaOkL4sofN0nffp9ant6qL5D16z4h9es9IZkzB3fX1XC/vG3eulfe7jXB52hIKx0u7rnRGADUOmgQcO78H+WjQdMsv8DqiKjGjapKrZqPhnTH4kDaJRqv5X51vtU2bNwlzVv0N/XRJNDSBmPElo5Aa9VuiGjg0vNwbQrSuZHt4KLZuoX7We4ul1P5av5XrlyV0ePmyaeTvTeaMGuW0HkEAANXZA3AwA1JAQEEEEAAAQQQiFQBAoAmWubkqXMyfcYymfnl94bTPhNKQkcG6gL4T1YpE7Q1A8P58nbw4DHXWll79h6OV03P6a6FCuWUXDmzSOpUKXxyfLV0rXw4YKrX36M1AOiuxKFDx0XXn1v81WrLgUD1erfPq64pwxzBE0jM92vwFO2l5Gt3WXupJXxVoAHAy5evyvv9P5f5C1cZPtvef+91ebJymVAUPTbNcD7LPSviVL4apJ/02RIZNvJLQ1f9vaxSuYz878F75e6sd0mObHf59D977qJ06z7OtXGL+yAAGHh3JQAYuCEpIIAAAggggAACkSpAANBCy+ior9//OCBrf9kuq37aLFu37TMV9NFAWc8eL0vN6uWDEgQM18ub1nfYiC9k8tSlXkpanzrPVZRXX6luaXRjKHcBdnr6lo5q2bJ1n/y0eousWbNNdu0+aGoUVLimGlro5rfMqYntfo2EhtPRwi3eGCAX/7kc8uIEEgA0M2U8T+6sMnhgaymYP0fI6hKuZ3ncCjiV765dB6Vl28Fy/PgZryLpx5A3OzeUh8sVM708QiC7ADMF2HeX/n3Hdpn7xUyvE+7KlEkaNXlF0qZJG7J7gYQRQAABBBBAAAEEQi9AADAA4xs3bsrpM+dl2/Z9suy7dfLDig0+Rwjqy+SwwW0lX95sAeT476XhennT0X86Pc5zIxQN/nXp1FB0/a1kyZJaqsvsuStc06k9j2gfAegLQINPuivylq17ZdGSn+Xn1Vt9BovLPlhEPvyghdx5x+2WPDnZmsCtfr9a0wjN2UZrAJodlRWaEhmn6m8DEPdVD5YuLB/2ayGZMwV3GQd3+uF6lsdVcCJfDbrqaGld98/z0DVz3+/bXHStVCvHqdPnpHXbIbJth/URgEa7hr9Qv7J07tDA8u+alTJbOdepNQD37N4ls2dOl+vX/9uB+fYMGeTlV16VdOn5jbLShpyLAAIIIIAAAghEmgABwCC2iI4CW/b9bzJm3DyvXTDdWbR+o7a82rR6wKMAw/Xy9u1366Rz11FeQo9XLOWatpo+XWrLckYvNLdqADAuzvkLl2TOvBUy+fOvDdeT7N+vhTxVtaxlUy6wL3Cr3a/2JYJ35bFjp6V1h6Gyc+eB2EQjLQB49O9TrmUNfv/9z9gy6oeN9m2fd00nXbxktRdIoxeqSMd29UMSGArXszwSAoDnz/8jnbuNljVrt3m5Dx7YRh4rX8JyJwwk2Gw0Gr3qk/+Td3q+IqlTp7RcllBc4FQA8Nixv2X655/JPxcvxlYrVcpU8nzjFyVHjpyhqCppIoAAAggggAACCIRJgABgCKD1BbNHr/GukXqeR7my98nAD9+Q9OnTBJRruF4aR42ZI+MnLvQqq52AnSZw9WqM9O33mSxc/FPA6YWr/gE1ko+LdQpcp66j422oEuiOpnGz09FumzdulNkzv5Qd27dJylSp5YnKlaRO/bqSMWNoRjMZVfnMmTPy1cLF8s1XS+X06dNSoGBBafhSYylZupTcdluSUBBbTvNWuV8tVzwEF+jU3+49x8vyFRtiU8+W7S4ZPbyj5M+XPQQ5Wkvyn38uy/v9p8R7DrmDfKdPn3cFqTZu2hWbcLCXcPAssVPPMify1ZHkrdoO8fo4Vrx4QRk+qK3ccUd6aw0pIkYbzpgNNhtdW7hwbhk5pL1kyXKH5bKE4gKnAoAX/7koUz/9RE6eOBFbrSRJkkid5xtIocL3hqKqpIkAAggggAACCCAQJgECgCGC3rRpt7RsM8hrLSx9AR45tL3lqU5xixiOl7eYmGvywUdTRKfteh4Tx3UTnRZn9TAaGaRp6AYp+vJt5QhH/a2Ux+q5Xy9dK117jPW6LFjBYU1Up24tXrBIJn8yybVbseeRPUcO6dazu+TOk9tqsS2ff/TIERncf6D8sfOPeNfWb9hAnm/YQJImtTaN3HIhTF4Q7feryWqG/DSd5jlk+Cz57POvvfIaMbS9rVFewSyw3gsTJi6UsRPmeyUbd5qv0fTgUK3V6dSzzIl8jdaHDGQdx6nTv3Xtwu55mA3iHT58XFq3H+q1+7MGeseO6mLr9y2Y/dSdllMBQP39mPPFTNn9h/cHzIqVKstDjzwaiqqSJgIIIIAAAggggECYBAgAhgjaaIHyYI2ECcfLm+6Q+c57k2TJ12u8hOwGAH/6eYu06zgs3sYYdjbvCEf9Q9QtXMkGMnXNTLn+3Ldf+rzdW06fOmV4eqUnq0iLVi0leYrkZpKzdY6+RE7+5FOZP2ee4fWpU6eW3u+9I/cWLWIr/WBfFO33a7A9AknPaOmAlxpVlXZt6oVkGq3ZsvoK7I0a1kGK318gNhkNYuoU0T7vTvJKWteq0xHcmTMHbwStU88yJ/I1ytNuAFBHcr7d+2P57offvNrI7G+sr9+3SOinTgcANX+jnYDvLVJUatV9PuAlTMzer5yHAAIIIIAAAgggEHwBAoDBN3WlGO6AQrAXMNfRMgOHzJDpM5d5CY0f00XKlilqSc3Xy5YmQgDwX0qzU9fMwOt029HDR/o8NVv2bNKzb2/R0YChOs6ePSvv9uwju3ft9pnF8y/Ud00HjoQj2u/XSDB0l0F3eNVgv+fmDGYDM6Gqx+69h6Vj55HxNjTytTu7r6nCNZ55RLp3bSxp0qQKSlGNgmLBfpYbFdSJAKCuudiyzWDRzTvch9119zSY26HTiHi7TVvpZ0Yjsa1cH5QOkEAiRiMAwzWS1mgjkLuzZZOGjV+WVKmtr/8baivSRwABBBBAAAEEEDAnQADQnJPls4xGed1XJK+MHN4h4N1ejaZSBXMKqbuyRmsA2tnI5Jtlv0r3t8fFG/2n+STGAKC+fLdoNcDLw+6LsFHHnDzpM5kz60uffTZzlizS+70+kjNXLsv92uwFhw4elHfe7iPHjx3zeUnt5+vKS01fNptkSM+7Fe7XkAJZSNzXbq/BDp6ZLdLZsxddU+5Xr9nqdUm9OhWla6dGkjxFMsOkNJAZdz1APbFF82elebMaQRnNGK5nedwKOhEANFoDME/urKIjMHPlymK2OcVXe2oCVgJ4RoFqTSPQfqrrryZJIgGPlDPaqbhNqzqujcRCfZw7d1amTPpEzp49E5tVmrRp5YUXX5YsWe4OdfakjwACCCCAAAIIIBAiAQKABrBHjpyUzVv2yGOPlrC1I6CvtabsTneKW0Sj9YvSpkklY0Z0khIlCgatq6xctUnatB/qlV6B/Dlk2KC2pl/Y9AX37V4T4m164U5UX7Z69XhZUliYjurEy6u7vLv3HBb1f7hcMZ+Bg4QawNfIomZNnhF9udPF1gM9EtsIQO7XQHtM8K8/ePCYa6fdPXsPeyX+WrMa8lqzmrbuHU1In63rN/4hBw78LXVrV/RbcLPr/vlKKNTrAYbrWR63fk48Q402iNFytWtdV5q+XM3Us0937h49bp58OvkrwybTdfwmjO0qJR8o5LdvaKB6xqzv5MMBU+Oda7efnj1zQSZPXSovNnpSMma0vrGJZ0GMptKXfbCIDOjfSjJkSOu3foGcoDYL5s6W7Vu3eCXzTM1npfgDpQJJmmsRQAABBBBAAAEEHBQgAGiA7x4NdPHiZalTu4LUqVVBcmTPbGrX0pir12T2/BUycND0eCPe+vdrIU9VLRtwc/ta/0gXs+/X9zXJevedAeehCfgaIVGxQkl5u9tLCa6FpaMgVqzcIO99MFlOnDzrKk+qVCnk+rXrXi52Ri468fLqBnXnrcY6Ve+Zpx+STJkymHp5vXTpiowZPy/eBgnBDt4mtjUAuV+DcrsHNRFXAGHRKnm332fxnoOPVywlnds3kJw5M5vKU9M6ceKsLP5qtWtJAt212czIYV9l0A094q7756sgvtYD1JFrgwe2loL5A5tGH65neSQEALUMM7/4Xt7v/7lXcbQ9unVpJE9XLZfgb+zJU+dkyLBZXjs467NTA4uex8D+raRKpQdN9a2ERhPqx6kO7Z6Xu+683W9aGmj+ec1W+WjgNMmYMZ1rs69AA4C6Y3zLtoNdv8Oeh93gpN9KxDnh9x3bZN6XX4jeA+6jaLH7peZzwflQZbU8nI8AAggggAACCCAQuAABQANDo+mAOXJklicqlJTyjxSXAgVySMYM6SR58n+njuk//jXItfaXbfLF7OWyZeveeKk+VK6YaAAwWF/ujV6kNNNMd2VwjYwpVbqw5M+bTXRERNwjSZLbJH36NH4DmgmNkNB8Xmz4pDz1VDlXnsmSJRUN+p0+c17Wb/hDps341vW/7kPL8Xb3l2Xu/B9l46Zdsf/dzs7IkRAA9DQtVCiXVHq8tJT7X1HJmyery1Y99NDdlI8ePSXLf9woM2d9JwcPxZ8S628qotXbPLHtAsz9arWHhOd8X6PvNHd9HpQvX0Jq13pMihbJ63qeuu8Zve78+X9k/59HXaP9li1bJ9t/3+9VaDMBQB2t27r9ENERop7PIV/r/vlS8TVqV0djffhBi4CXdAjHszxu3Zx6hmrwVkeG6nqAcY/HypeQl158ytUfNLCnh64fe/Dg37J46RqZPWeFnDt3MfYyDSQ/WKqwDBg83Sspq9NkjdaHdCeoI9P1I0/1ag9LoYI55fbb08R+7NHA45GjJ2Xlyo0yb8Gq2FHuwVrP1VdwWMumedSuVUF01+Mc2e4y7Lq6yZPb0c4df+HCeZn66SQ5deq/+ydDhozSuOkrcvvtGewkyTUIIIAAAggggAACDgsQADRoAKOAQiDtFKzRIp5lSOhFyl9ZrbygJDRCwl8+ni/dXTo1lJrVH3G9rM2euyL2Un1BGTu6ixQvlt9scuLUy6sW0Chv0wU3OFFHbX7Yr4VkzhS8nUU1Gw3Gbt64UWbP/FJ2bN8mKVOllicqV5I69etKxozBzSuh+p85c0a+WrhYdFry6dOnpUDBgq6NP0qWLuU3AG3WlfvVrFT4z9MgxojRc1wfBIJ5+AsAHj9xRrr1GOu6Xz2PZ2uUl+5dX3SNRrZyhHI9wHA9yz3r6+QzNKE1Yc22ie7I/H7f5nLy9Hlp8cYAr1GAdZ6rIG+92Tj2A52ZNHW0Xaeuo30uVWEmDfc5Vn5f/aWry3B07DzCcP1cf9f6u0f8Xa8fAL9atFA2bfhvp2VdoqJW3Xpyb5H7/F3O3xFAAAEEEEAAAQQiUIAAoEGjBDOgoGvm9e/3uugosWAfuj5V97fHx06xNZu+1RcUfUHt0Wt8vJdpM/nFnd41b8GP0rvvJ16X9urRRPSlzezh5MtrMAOAOiq0T8+mQZuybdbvVjuP+zWyW1SXRZi7YKUMGDxDrl6NCUphdRpkq5a1DdPSUWM6zXT+wlVefw802G60HqCOZLQ6otCo0OF6lrvzdvIZqh8n5i/8Ufp9MNlWYMtzCYrTp89L207DZfPm/3Ybt7vZlo4U7T9omvywfH1AfdTq72tCmeloWN0M5OOJCy1bBRoA1HIdPPCnzJw6RWJirsYWs/C9ReTZOvUkadL4swsCguNiBBBAAAEEEEAAgZALEAA0IL5w8ZIs+26dzJ63UnZs32f5H96apE4der15TWnUoIqtjUTMtrxOX/roo6mydt0Os5e4pg9ZXaNIFzfXxddnz11u2sNorS+d+tWyzWA5dfpcbHlr1XzUtaagr90441bMyZdXfeGcO3+lLFm6VnTUiJ1Dp0y3bV1HqlV9yHSd7eSTWK7hfo2Olj506LiMn7hAlny12vQzxLNm+jFB13ZrUK+SFCyY03AEqa/gkl47ZEAb0SCg3cPXeoCa9ogh7URHpQVyhOtZrmV08hmq+avl6jXbXIFao2URjByNnpsaIBs4ZIZrbUj3EciaqhqsXvXzZhk1dq7s2n3IUnPqb37tZx+Tl198SrJnz2Tp2oRO1j79zbe/yJDhs1zrX5o9ghEAjImJkTmzZsjePf8FWNOlSy+NmzSVO+40nnpstnychwACCCCAAAIIIBB+AQKAfsx1NMkfuw/Jr+t2yE8/b3G9FHiuQ+R5ub6glCheUKpXe0jKlCkq6dOlDkuL6suUrjP3/fL1snrNVjl0+Ljs23/EZ952AoDul7bDh0/InHkr5Otvf3Hthhv3cK+VWLN6ecOXdH3B2rp9n9dIIB1JULRIHknz/+s+hQUtCJnoOmU7/zgoP63e4uof+v99jXBSlzKl75Wnq5Z17VCZMqW1KYhBKG6iSIL7NfKbWddL1efU9z+sl3Xrd/p8nmpgrdh9+aT8w8VFNwvKk/vu2HUCI7+W9koYrme5vdIF/yrd1ffnNdtcm4P8tn5nvOenBtVKlyoszzxdTipWKGX4m6q/Q/qb53lkyXKH5MubzXaBNeimI4t1J97vfvjN58ce7aO6DmGNZx4O+W++Bju379gvP6zY4Fpf99ChYwmO/g9GAFABd+/cKXO+nCm6tqz7eKJKVSn70MO2fbkQAQQQQAABBBBAwBkBAoA23HVjh4sXL3ldmTZtaktrDtnINuIu0WDL5ctXYsuVKlVKy2trRVylAixQXBPdcCVt2lS3fOAiQLaQXs79GlLegBOPe89ogonxeRowZJQnoEE3/ahy8+YNV03MblYVjmprYPbChUteQbDE8nunowC/nD5V9u/fF0udNWs2adD4JUmdJk04+MkDAQQQQAABBBBAIEgCBACDBEkyCCCAAAIIIIDArSYQdxSgbgbyTM1acn+JB261qlIfBBBAAAEEEEDglhYgAHhLNy+VQwABBBBAAAEE7AsYrQWYM1dueb5hY0mZMqX9hLkSAQQQQAABBBBAIKwCBADDyk1mCCCAAAIIIIBAdAnoFOAvp0+L3RFY1+6t8exzUqTY/dFVEUqLAAIIIIAAAggkYgECgIm48ak6AghEv8CZM+eldfuhsmXr3rBVJlgbDIStwGSEAAIBCeg6iEu/Wiwb1v0amw5rAQZEysUIIIAAAggggEDYBQgAhp2cDBFAAIHgCRAADJ4lKSGAgG+B06dOyYypk+XM6dOuk3QtwKer15QSJUvBhgACCCCAAAIIIBAFAgQAo6CRKCICCCDgS4AAIH0DAQTCJfD3kSNy4sTx2OxSpEwl+fLnl2TJkoWrCOSDAAIIIIAAAgggYFOAAKBNOC5DAAEEEEAAAQQQQAABBBBAAAEEEEAgGgQIAEZDK1FGBBBAAAEEEEAAAQQQQAABBBBAAAEEbAoQALQJx2UIIIAAAggggAACCCCAAAIIIIAAAghEgwABwGhoJcqIAAIIIIAAAggggAACCCCAAAIIIICATQECgDbhuAwBBBBAAAEEEEAAAQQQQAABBBBAAIFoECAAGA2tRBkRQAABBBBAAAEEEEAAAQQQQAABBBCwKUAA0CYclyGAAAIIIIAAAggggAACCCCAAAIIIBANAgQAo6GVKCMCCCCAAAIIIIAAAggggAACCCCAAAI2BQgA2oTjMgQQQAABBBBAAAEEEEAAAQQQQAABBKJBgABgNLQSZUQAAQQQQAABBBBAAAEEEEAAAQQQQMCmAAFAm3BchgACCCCAAAIIIIAAAggggAACCCCAQDQIEACMhlaijAgggAACCCCAAAIIIIAAAggggAACCNgUIABoE47LEEAAAQQQQAABBBBAAAEEEEAAAQQQiAYBAoDR0EqUEQEEEEAAAQQQQAABBBBAAAEEEEAAAZsCBABtwnEZAggggAACCCCAAAIIIIAAAggggAAC0SBAADAaWokyIoAAAggggAACCCCAAAIIIIAAAgggYFOAAKBNOC5DAAEEEEAAAQQQQAABBBBAAAEEEEAgGgQIAEZDK1FGBBBAAAEEEEAAAQQQQAABBBBAAAEEbAoQALQJx2UIIIAAAggggAACCCCAAAIIIIAAAghEgwABwGhoJcqIAAIIIIAAAggggAACCCCAAAIIIICATQECgDbhuAwBBBBAAAEEEEAAAQQQQAABBBBAAIFoECAAGA2tRBkRQAABBBBAAAEEEEAAAQQQQAABBBCwKUAA0CYclyGAAAIIIJDYBM6cOS+t2w+VLVv3xlb9/mL5ZeTQ9pIxY/rExkF9EQiJwN59f8kbbQfLkSMnY9Ov9lQ56f12U0mVKkVI8iRRBBBAAAEEELj1BQgA3vptTA0RQAABBBAIigABwKAwkggCCQoQAKSDIIAAAggggEAoBAgAhkKVNBFAAIEIFjhx8qzMmbdSrl+7Li1frxXBJaVokSaQmAKA5y9ckq+XrpWdfxyQzh0aMPIq0jrjLVweAoC3cONSNQQQQAABBBwUIADoID5ZI4AAAuESuHHjpuzefUjGfbxAVqzcIDHXrkvTJtWkfet64SoC+dwCArd6APDmzZty+PAJ+XzqUpkzf6VcvRojTL28BTpulFWBAGCUNRjFRQABBBBAIEoECABGSUNRTAQQQCAQgXW/7ZRmr3/olQQBwEBEE+e1t3oAkMBL4uzXkVZr+mGktQjlQQABBBBA4NYQIAB4a7QjtUAAAQQSFCAASAcJhgABwGAokgYCCQsQAKSHIIAAAggggEAoBAgAhkKVNBFAAIEIEyAAGGENEqXFIQAYpQ1HsaNKgABgVDUXhUUAAQQQQCBqBAgARk1TUVAEEEDAvgABQPt2XPmfAAFAegMCoRcgABh6Y3JAAAEEEEAgMQoQAEyMrU6dEUAg0QkQAEx0TR6SChMADAkriSLgJUAAkA6BAAIIIIAAAqEQIAAYClXSRAABBCJMgABghDVIlBaHAGCUNhzFjioBAoBR1VwUFgEEEEAAgagRIAAYNU1FQRFAAAH7AgQA7dtx5X8CBADpDQiEXoAAYOiNyQEBBBBAAIHEKEAAMDG2OnVGwGGBmJhr8ufBv+XkibNy5WqMJEuaVJImvU2yZ8skWbPeKcmTJwtKCS/+c1mOHD3pykePS5evSOpUKV3/P136NJI7ZxZJly61JEmSJCj5JZSI02WJtADg5ctX5dBfx11tc/36Dbl2/bqkTJHc1S5582SVtGlShbxNfGVw8+ZNOXPmguzZ+5dcv349tt+kTp1S8uTOKrffniYsfSZcAEb3Y4oUyaVA/uySMWM6r7qGMgDo9D2i3pESeLl27bqcOXtB9u8/6uqDnvdIktuSSK6cWSTTXRmC9qwMV18LRj767Dh+/Iz8deREvOd6sH9DglFeO2mY7Yc3btyU4yfOyJ8Hjsq1mOuxz1F1yJbtLkmWLKmd7C1dE8nPcksV4WQEEEAAAQQSgQABwETQyHaqqP+g7NZjrGjQwPNo17quNH25mq2XX19ptmj+rDRvViMs/1C1Y8E1/gWMXlYmjusmD5YuHHuxBlV+33lAPv5kkaxctUmuXo0xTDh5sqRSvnwJealRVXmgRCG57TbzwbmzZy/Kb+t/l++Xb5DVa7bKiZP/Bv4SOrLefafUevYxebb6I5I9eyZ/p1v6u+a/aPHPMmfeStcLmr/j9tvTyuMVSkq1p8pJ8fsLSBoLQbChI7+QSZ8u8ZeF7b/fXyy/jBzaXjJmTG87jfMXLsn3P6yTGTO/l+2/708wnVIl75EmLz4tD5crJslTBB4Qjuujxr3fbiqpUqWILcelS1fky7kr5Isvf0iwvbTPvFC/stSqWT4gD9uQQbhQ70cNcE6Z9o0s/mq1z/tR2+G1ZjWk7P/uc92LwQwAOnG/zlvwo/Tu+0kQBI2T0KDL6OEdJX++7Jby0IDfvv1HXM/G5Ss3yo7t+yTm2vUE09Bn5UPlisnz9Z6QcmWKBuU+sVToMJ6s/W7J12tk4aKf/T47NHj98EPFpM5zFaRsmSKSMuV/97i/IjBYIo0AACAASURBVGsw6533Jrnych9229Sor73T6xWpVfNRf8XwG4iOuXpNlv2wTiZOWiy7dh8yTE9/T+rUriDP13486L9tTj7L/eJxAgIIIIAAAgj4FCAASOfwKbB772Hp2Hmk14uw/oNyYP83pGyZopbk9OVmwsSFMnbCfK/ryj5YRD78oIXcecftltLj5MgSMAoAer7oXLh4SUaPnSuzvvje70utZ8369W0u1as97Leyv6zbIWPGzZP1G/7we66vE/Rlus5zFeWN12tJhozpbKejF+rL2bRZy2Tk6Dk+Ayv+MtCX2PZt6kmjF6r4O9X190gOAKrHkqWrZfjI2aaCsp4VLnZffnmra2O5r0heWx8e3GnF9fEMaGowTPuOBoYOHjpmyltP0gD18MHtJEOGtKaviYQT7dyPz9YoL292bijXYq5J6/ZDZcvWvbFVsRocdvJ+jbQA4LlzF11B2OmzvhP9/3YPHRHYveuL8lC5+wK6T+zmH6rrNCg/dca3Mm7CAlvPUg3W6wfGGs88bCoQGA0BwJMnz8o7706Stet2mGLX35LWb9SWhs9XDjhIHAnPclOV5iQEEEAAAQQQMBQgAEjH8CmgL8ULFq2Sd/t95hW0uffePDJsUFvRf1ibPb5Z9qt0f3ucVzo6lW7wwNZSMH8Os8lwXoQKJBQAPHX6nLzz3qeyfMUGy6U3O1oimMGvAvlzSP9+r0uhQrksl1cv+Oefy/LRoOkyd/5KW9d7XtS0STVp37qeqXSCaWCUodUgjzsNnar33oeTbbW/Ow398NCj64tS9cn/2Q5u+AoAZsiQTpZ+84v06/+55QCMXRNTDRqikwK5H2s884grQP5m9zEBBQCD2Vet3q+RFgA0enbabXr9iNHslRryapNnAg702C1DMK/bun2f9OozUfbsPRxQslZG8EV6APCN15+TPu99Em92hhmgJi897bp/rYyI9Ew3Up7lZurKOQgggAACCCBgLEAAkJ6RoICvkXv6Iti9a2NTUxSNRhLqi8r7770uT1YuQwvcAgJGL7E6bbBZ0+ryfv/PZf7CVV611PbPmzeb14vI6TPn5fDh417nBSMAqKMf8ufP7lpn0H3cvHFDDh4+7jPgYzc4rffLx5MWuUYj+jry5c0madOmNlWWaA8Aant27zVBNm7aZcgRt22uXLkq+/cfMRwlanf0sTvjuEEnHTE1angHOX78rHToMiJeX9D11bJmvSu23LpG4d69f3mNQoq2AKAGp9/vP0UWLv7JsD3UOFeOzJLktttcfz969GS8EZsNnq8kW7bskW07/pvCbdUhoQBgqO/XaAsA5siRWe6IM+3+4sVLrunCvo5bYVmNtb9ul+5vj09wxHDcZ6mv58etEgB89JHikix5Mvlh+XqvpvfsI0bPKc+T7faNSHqW3wL/ZKIKCCCAAAIIOCZAANAx+ujJWNdp6tpjrGtNNc+jT8+mrrVsEtpAQdeJ6dnn43j/YLX7j1An1C5fuiTXrhmvVxeq8qRKnVqSJUsequSDnq5RAFCDV0Xvzes18lOnfDdrVl1KPXCP4eL12teWr1wvEyYuck3FtBMA9FxHr8i9eX1u2KCLpx/+67hrzbdp07+NN73sqaplpXePJqaC3G7QXbsOSsu2g10L1HseGiDRPl/2f0UN6+3edGLd+p0ybca3sVOZrQQAdQOFGB/rKmpZNm3eI207DvMqV8MGVeT1V2uY6g9Jktwm6dOnMb0mo4406/bWWMNparquXMvXa7n6QdxF6vUl/qeft8jgYbPiTce1G5jVCsYNOmlQ4IN3X5dxHy+IfbZp33mxUVV5ruajkilThnjPNg3w7tlz2DUlcclXq0VHQwe6LqIp/CCcpH1sxqzv5MMBU+OlptOs27WpG6899B7Zum2vDBk+K8Hp9YEEAMN9v+oIr8uXr/gUPXDgb+ny1hg5+vep2HMqP/GgdOn0gqRK6f+ZrPdJ2rSpTK9pG/fZqc/MatUekoqPPpDghkgazF376w6ZOGmR12hMLbRuoDOwfyvXOnjReBh9NHTXQ/uafljStf2M1kiNe4/qOoq3SgAwblvqGoevvPyM5MiRyetZpc/Qr5aulRGj4i+5YOdDSqQ9y6OxT1NmBBBAAAEEIkWAAGCktESEl8POeoC+Rg8+XrGUvNvnVUmf7r9RUJFc/Xmzv5Ad27yDn6Eu73P16su9RaytsxjqMiWUvlEAsHSpwqJBqd9//1P0paNzh/ryzNMPm3ox1heYz6d9I3dnuUN0tKm/Q4M7mzbtlpcaPyUPl7vP8hQnHW3Suetor1FgOkpx2OB28sjD9/vLPvbvOvpPX7o8j0qPl3YFEs2uK6iBGg1+6mYpOgqtbeu6pvNP6MRw7gLsaySkmrZuWVsavfCk3ymKuk6djh5dvGS1V7Xq1akoXTs18nt9XIu4AUAtS5XKZWIX+3+sfAnXGmoaLDBz6CYm02csk07t60fFRiAHDx6TVu2GxNvcRAPd3bs0TrB/+moLz6CMlUBopNyvRu1sdvdVM33EzDmanz57HnushNStVTFeMMdfGr5Gdepz5713XrX0AcNfXuH4u68PjlaeHe5yHjj4t7zX7zM5cPiY6Y1ZInkKsLteatGmVV3X+rAJ7fLrK5CqG8f079fC1NqlkfgsD0c/JA8EEEAAAQRuVQECgLdqy4agXj+v3iqdu45yBXXch+7y+mG/FpI5U8Z4ORoFVQIZwROCKplKkgCgf6aE1rHS0Sg93nrJtbNtQqNF4+aigbB/Ll1xjWbxd+iIu7vuymB6dJpRXkajo3Sn184dGpgKWup90b3neK+17rTsY0Z0khIlCvqrQry/a/0vXLjkGnUXjCOcAcDNW/a4gk1xNzWwOvLXaOdwu6YJTTvVqXV9+zSzvBmRBqqTJk1qqn8Eow3tpqF9SYPTuimN56Hr5+l6rrlyZfGbtN5jnbuNNpzObXUEYCTcr74qHO4AoG5yoUGWQO5zHa3YrtNw18cW96Eba40Z0dE1SjWajplffO8K/HseGvDS35Bnazxq+Rmv9+jkqUtFA6JmdmaOhgCgbsijHys8dzD31caBftyKxGd5NPVnyooAAggggECkCRAAjLQWieDy+BrRZ/SPUV2fqF3H4UHZQdhpEgKA/lsgoQCg1aCP/9xCc4aucaS7m2pd3IeVXV7PnDkfb3dU3bl25PAOlgNLoahhuAKA+pwYPGymTJ3+rVc17Eyp1gRWrtokHTuP8FoXsFmTZ6RNqzqWAsq+AoDR+FHCav84ffq8tO00XDZv3u11abcujUTX9DMbmDfazEkTtBoAtFp+o/MDvV8jJQAYDAtNw2j0sdld1INVhkDT0cBwu47DvNaX1DTtjvp1l0cD4DdviqngYaQHADNnzigjhrSXIiYDu7prb/9BU+WL2cu9mkenD7/1ZmPDJSncJ0bqszzQfsb1CCCAAAIIJGYBAoCJufVt1N1oupF+ne/Z42WpWb2860XS15SkaAkExWUhAOi/o/gKANrZMdp/bqE5Q0fi9H73E9eOsO7DytpRRgFAJwIjvnTCFQA06gt2R+1pXXRKYJeuo7zWEixevKAMH9RW7rgjvenO4CsAaDUIZjrDCDpR275FqwHxdmEfNayDqdF/7qr4CtA40c8DvV9vtQCgjvR6reUAr2pZWUM0Errrt9+tc80y8Dw04DVmeEfbu7JbrVekBwB13eW3u71kaQkEXVNVA6u6HqL70NGQOm1fNxCxci9EwrPcaptyPgIIIIAAAgj8J0AAkN5gWcDX6D59mdQXQaOplFZ2DbZcIC5wXMBXANDOSC0nKxM3SKQvO2NHd5HixfL7LZZRADCSpuGFKwBotMtqIOuR6egdXVdx4qeLY9vASru4LzIKAFoJ8PrtABF8go7G/GjQNK8S6pT83m83NTWN0H2htoVuCPLZ5197peVEAFALEMj9aiXoYccq3N3B6BlsZpRXuMvpK7+YmGvywUdTZPbcFV6nWFmGIRh1ifQAoNmNsTwtjh07La07DJWdOw/E/mf9cDthbFcp+UAhn2yR+iwPRjuTBgIIIIAAAolVgABgYm35AOtttK6MrgeoowAHDpnhtfaXTrEbNrit5MubLcBcuTxSBYxePvUFY+yoLqL9IloOoyDRxHHdTNXBaESS1luDoG+0eM7xdeLCEQD09RL/ZqeGrgXr7R6LlvwsPXpN8Lrc6vRGo7aNhsCOXTP3dcFuE6NRWpESANQ6m71fE0MAMJr6t+4027rtkHjTf0cMbS+6QU+4jkgOANr9oHT1aoz07feZLFz8kxdjrx5NRIPERkewnxvuPILxLA9XXyAfBBBAAAEEbkUBAoC3YquGoU46EsRopF/crHX314H935CyZaJnR9sw8N1yWRgFAM1MMQoVxI0bN+XIkRPy48+bZevWfbJ372E5ePh4vE0pzORvJaBgtA6XBkJrPfuYNHnxacs7fJopn9lzwhEA1Om6bTsOi7dRxPgxXQJ6BhiVXdcAfLVpdbPVjzdaTC+0mobpzCLoRKPNabR4dgMrGzbukuYt+ntNJww0AOjU/WrUTOHeBMSoDLqMhm6+oP1+0+ZdcvzEWdGR91aPaAoA6o61rdoMFt3QxH1kvftOGTWioxTMn8Nq1W2fH8kBwMKFc8vIIe0lS5Y7LNdv1Jg5Mn7iQq/rEpoiHsnPcsuV5wIEEEAAAQQQiBUgAEhnsC3ga60/zwTbta4rTV+uZnqReduF4UJHBYxemq1soBGswusovEVLVsvHnyz0epEMJH0rAUCj6fGeeRe9N69UrvyglHmwiBTIn93UDseBlN3z2nAEAP88cFRatR0iBw8d83qJH/BBS8md+27bVdm0eY8rsOh5WF3fzGgEoNVRhLYr4OCFRlPTtThW+rVn8Y3udbsBQKfvV6NmcSoAqB/V9uz9S8aMmycrVm7wCrDa7T7RFAA0ej7Z7Vd2vfS6SA4ABvKbajSdV5dm6dXjZUmRInk8skh+lgfSvlyLAAIIIIBAYhcgAJjYe0CA9T9+4ox06zHWNVIh7sG6fwHiRtHlTr00u4n05Xn9hj+kd99PvIJPwSC0EijRcixYtEre7feZqRf4THdlkBLFC8oDDxQSfbkrUjh3grsyBlKfcAQAE9oNOpCyG11rdX2zQKZ3B7vs4UzP6EU+kLUPjdYTsxqoiZT7NVICgBcuXpLRY+fKrC++N/XcMNt/oikAaBSgcqL8kRwADMTDaOptQulF8rPcbP/nPAQQQAABBBCIL0AAkF4RkIC+yOmC8LowvOeRIWM6cW0Kcp//zRMCKgAXR4SAkwFA7YPLV26UXu9MtDXF1x+glQCgpqXlWfnjJunb71M5cfKsv+S9/q5T5uvXfULq13tCdPfLYB7hCAAaTQ8NZh0807L6MpxYA4BG92YgAcBAd7uOtPs1bv8M97Ps7JkL8v6AKfL10rVBv1Ws3iNBL4CFBAkAemMFux8aPf8T6h+R/Cy30K04FQEEEEAAAQTiCBAApEsEJKD/qOzQZYRh4OWhcsWkf78WkiFD2oDycPriy5cuybVrMWEtRqrUqSVZsvjTcsJaCAuZBftlxULWrrWyWrUbYtgHdWrTww8VkycqlpQc2bNInjx3i67J5+sY9/FCmTbjW68/Ww0Aui8+eeqcTJ+xTGZ++b3lwKSODNSNM56sUiZo0+fDEQA0ysNKW1o512pwgwDgyVheJwOAkXq/unHC+SyLuXpN+g+aKl/MXm7Y9XUDrUpPlHbt1Jo9eybJdOftPm+RAwf+li5vjfFa+sDqPWLl/gv2uQQAIysAGMnP8mD3PdJDAAEEEEAgMQkQAExMrR3kuiY0/dedVYvmz0rzZjUc3wE1kKrPm/2F7Ni2NZAkLF/7XL36cm+R6Nk4JZwvzZ6Yug7l270/lu9++M3LWAN/rzevKfXrVZL06VKb9g9FkOjatevy+x8HZO0v22XVT5tl67Z9orsy+js0UNmzx8uunbWTJEni73S/fw9HAHDz1r3S4o0BohtPhPqwGtwIRduGuo7BSD+SRgBGw/0azmfZTz9vkXYdh8Wb9luq5D3Soe3zUuy+/HLbbebu/XCWOxj9Mm4aBABDGwBcuWqTtGk/1CuThJ6hkfwsD0X/I00EEEAAAQQSiwABwMTS0kGup5kNQDTLYAcxglwNU8kRAPTP5NTL56ZNu6Vlm0FeASedRtu3dzOp+NgDlgJnOjVRp7LrlHbPw+4IQF9quuPp6TPnZdv2fbLsu3Xyw4oNPkcI6gigYYPbSr682fw3gp8zwhEADOYGEQFXOE4CiTUAaDRl9847bpcxIzrKvffmscwcSBtHw/0armeZjv5778PJooEvz+OpqmWle5fGostoWDmMdtG1GiS3kl+wz/32u3XSuesor2QrVigp77/7Wlg3S4rkNQCrPvk/eafnK5I6dUrL/FYDrIHc55YLxwUIIIAAAgggEDYBAoBho751MtJAyYxZ38mHA6Z6VerB0oVdo5UGDpnhFdDQtcxGDGkvRWy8bEaCGgFA/60QrpfmuCX5eNIiGTFqttd/bvRCFenYrr7lUadGL36acLADgHHrcOXKVVn2/W+u3T89d891n9f6jdryatPqloKZRi0WjgBgMDaI8N/b7J2RWAOAZ89edO2gvHHTLi84u/3aKNBkdhOQaLhfw/UsO3z4uLRuP1Q0P/cRyG+l1TXe7N1FobvKqPz3FckrI4d3EA1Yh+uI5ACg2fvMyGrq9G/lo0HTvP708otPuUaaGo0wj+Rnebj6AvkggAACCCBwKwoQALwVWzXEdVr763bp3HW0YZDv3sK5XSMa+rw7KV5w8MN+LSRzpuBubBDiqrqSJwDoXzlcL82eJdFptH37fSYLF/8U+591xOnYUV1Eg9FWj2AHSqzmf/TvU9Kj1/h4O2qXK3ufDPzwDUmfPo3VJL3OD0cAUKf+du85Xpav2BCbdyDrzQVU4TgXJ9YAoNF9ojTv9HpFatV81DKxPv9faznA6zozgYlouV/D9Swz2mQhkBF7Vnd5tdzwIb7AaLfqQEaq2i1uMAOAo8bMkfETF3oVxex9Z9QPc+XMIqOGdxAdGW7l8DW6vU2rOq6PS0ZHJD/LrdSdcxFAAAEEEEDAW4AAID3CkoCO/ujYeaToP9bdR9xpvr6mB9d45hHp3rWxpEmTylKenBz5AuF6afaUOH/+H+ncbbSsWbstKMGm33//U1q2GSynTp/zAh8xtL08Vr5EWBrBaIpk/nzZZeTQ9pIjR+aAyhCOAKCvF81wGvpCSqwBQPUwCkQkNPonoY5mNJLITAAwWu7XcD3LjKa8Nm1STdq3rmf5Ptd1RnXk/fSZy7yudWIKreXC//8FRv1D/2Q2YGY337jXGQUA06ZJJWNHd5HixfKbziYm5pp88NEUmT13hdc1Zutj1A81ofFjukjZMtbWBzYK5mlaCT2XI/lZbroROBEBBBBAAAEE4gkQAKRTmBbwFdirV6eidO3USJKnSBab1vHjZ1zBmbjTzvr0bOoadRKMTQ1MF5wTQy4Qrpdmz4oYrW0WyGizmV98L+/3/zyeldkXtmAgB7tOnmUKRwBQ8zMKbLzUqKq0a1PP8rTsYJi600jMAUCjDQDKPlhEBvRvZWmXdl/T5M0EAIPdt0N1v4brWWa0JpvdAKD+3upmItt27Pe6Zcy0SzDvsUDS0oCTLucw8dPFXslUery0vPfOq2H7cBiswNfp0+elbafhsnnz7qAGAO0sCWF3I6BIfZYb9bMbN27I9q1bZNXKFXLm9CnXvzHvzppNHq/ypOTJkzeQrsm1CCCAAAII3FICBABvqeYMXWV0hMGEiQtl7IT5XpnoVEtfU3uNpgrrBg0D+79h+Qt26GpGysEQCNdLs2dZjUY1ZL37Thk1oqMUzJ/DUrVOnDwrb741Rn5bvzNRBQBfqF9ZOndoENTAnFEwIpDArKWGTODkxBwANFpvTkc1jRnRSUqUKGiaeNeug9Ky7WDRNvY8zASaouV+NXqWhWIknVFQ1u6oTKNgoraPmXYx3fhhONFoBLT20yGD2oT13wxGa1UmNF3WiMbXDs9mPyj5GgFoJ3BvFCw306cj9Vke1/vG9euyZOEC2bJ5Y7ymSJosmVSvWUuKFrs/DD2YLBBAAAEEEIh8AQKAkd9GEVHCb5b9Kt3fHicx167HlkeDeaOGdZDi9xcwLKN+STdaD1DXrxk8sLXlIE1EQFAIQwEnAoC+1jbr36+F6E6aZg/tp5M+WyLDRn5peInZFzaz+SV0npFjsBbC37x1r7R4Y4DXjsnBWl/Qs07qqS/QI0fP8aqq00sAJOYAoK/piFbWnNOPQIOHzRSdAhz3MBNoipb71ShYGqxp+J5uRmsA2gnuHDx4TNp1Gi579h621S7BeG4FKw2dZfB274/lux9+80oyoQ+NZvLWZ9LNmyK33ZbEzOliFJyt8GgJ6df3NVNrsWo93un3qXy9dG28/Mz+nvgKAGqCZtPQc3VtWe0fusSF59G964tSv94TCXpE6rM8bqEPHvhTZk6dIjExVw3rc1emzNLwpSaSLp21nbVNdRZOQgABBBBAIMoECABGWYM5UVwz6/75KhfrATrRYuHP04kAoNbSaD2yh8oVEw0CZsiQ1i+EvuAsX7lRer0z0WtTG88LX2tWQ1q1rO03rSNHTsrmLXvksUdLSOrUKf2eH/cEX6NsrQRpEso0WKPAzFTMV1BCLV9rVtNruQAz6bnPUaP1G/+QAwf+lrq1K1q5VBJzAFChdER2h04jvALAcddvTQj059VbpXPXUV7Xu883EwCMtPvVV119rUVn9cOCv85ptMuqtsf7770uT1Yu4+9y19/Pnrkg7w+YYhho0r/b3TTCVOYhOkmDbx07j/D62KhZPVPtIdGgVbq0qS3lrLusT5n+rTxRsZTky5vN1LVGv2dm20Z/UxYsWiXv9vssXh00c7PBu4QCgGY/ovr6TSmQP4cMG9RWcuXK4tcjEp/lcQu97pc18u3XX/msi04HfqZmLbm/xAN+68sJCCCAAAII3OoCBABv9RYOsH7HT5yRbj3GxtuZ1GjdP19Z+VoPsEXzZ6V5sxpBnX4YYHW53KaAUwFAX1MSGzxfSXTKVkIvizFXr8ncBStlwOAZoqOT9EiVKoVcv3bd68WtznMV5K03G0vy5P+tcWnE5Da4ePGy1KldQerUqiA5smc2NepEyzJ7/goZOGh6vJfGYAUeEhpdoyNbdPp0sI6EXoIfr1hKOrdvIDlzmtvURNM6ceKsLP5qtWuTAx3RYmettMQeANT1+3SNy/kLV3k1s47k7talkTxdtZxhX71x46YsX7Feer87yWeQ3GwAMJLuV199XYMmw0Z8IZOnLvU6RYMug/q/IYUK5QrKbeIrH50u/16f5lK61D0JrpV74ODf8l6/z2Ttuh2u8miAKmmypKLt7D7sbF4RlMoFkIg+C/sPmipfzF4eLxUdIfl2j5cld667/eag/Xbrtr0yZPgsOXL0pIwe3lF0JKeZw9ez0l/bJPQcd+cbjACgpqVBPF1TWe89ozWVL126IuMmLpApU5bG+03R+11/I82sxRyJz/K4bbj6px9l+XfeG+DEPadY8eJSo1YdM83POQgggAACCNzSAgQAb+nmDaxy+oIyeuzceIty25mOY7QeoL6w9O7ZVHRqIEd0CzgVAExoWqKOfmnerLqUf6SE3JExvSu4oefren86mmnajG9l1+5DsfCZM2eU9m3qydjx8+XgoWOx/93sNFkjA92594kKJaX8I8WlQIEckjFDuthAorssa3/Z5nrZ3bJ1b7xOYGU0o5ke5GvjhEx3ZXCNqCtVurDkz5vNFUyIeyRJcptr+pvZaXS+Rp+4gxXly5eQ2rUek6JF8rpckv1/nnqdjsLa/+dR12i/ZcvWyfbfvTc3IABoprXjn2M0mtt9lgYSateqIGVK3yvp06eW8+cvyZZte+WL2T/I+g1/xCZWqGBOOXP2gtc6gGYDgJF0vyYk6Gv9thQpkrvuk0cfKS758mWT1KlSGN4nadOmMvVha8fvf0qbDkPjramo91+1px8SXaNTR63phwk9dB3F3bsOydwFP7oC4u4PF/q3Ri9UkeQpksunny3xKtPA/q2kSqUH7XUYh67y9eEx7rPjvqL5Yp/t+jcNfuoHxzW/bJc5c1fEPjfsrEFqtOyJO39tGx2Zrc90basTp87J6jXbZP6CH2N/UzRA92zN8jJ46EwvxUACgPp7cuXyVddvmKdFrZrlpfA9uV390V2WmbO+8/odcxfCzm9KpD3L43bLPbt3yeyZ0+X69f+WqIl7Tr78BaRugxckWbLkDvVqskUAAQQQQCAyBAgARkY7RFwpfH311dEiQwa0EQ0CWjlYD9CKVvSd61QAUKUSWgPLrKT26769m0mpB+6RN7uPkTVrt8Veanb9r4SmbJkth+d5Zqd5WUnb13pQZtIwG+TxTEtH0owYPccVbA3mQQDQvqbRxxizqWmffK9vc5kybaks/eaX2Mus9I1IuV8TqvP5C5ekZ5+P5Yfl683SxJ5nJdjkb/1Rs5nrmqfduzSWX3773TVN2/OwunmF2TxDfZ4+q3r0Gh9v9oGdfK20iTt9X8uXmMnfvdlZiuTJpXmL/l4j8AIJAOpzr0C+7PLOu5MMpxf7K1sgvymR9CyPW8+ENgFxn5szV255vmFjSZnS+vIc/lz5OwIIIIAAAtEkQAAwmlorjGVd99tO6dBlhNeULyvrRRkV1dc/qO2MKAwjBVmZEHAyAKjF06mFnbqOlj8PHDVRWu9TPKd16V9GjJodb9Tr+DFd/O5CGcwAoI4e6d/v9aBNN/SssQaAur89PnYUiVkwK0EezzSNplqbzdPXeWbXZfS8PrFPAXZbaNBp7S/bpUevCZb6gDuoUbpkYRk4ZIZrOrb7sNo3IuF+9dcH9+z9S7p0G224uUZC11oNNun9MX7iAhk/caG/Ihn+3XO5A6NnUNUnLKe7zQAAIABJREFU/yfv9HzF1rqktgoUxIt0jcPR4+bJ7LnLbQW83EWx2ibu63QUst4nOpXY7KGjRHv1eFmqV3tY9u0/Im+0HSy6Pqz7CCQAqNdqurPnrpABg6ZZMil2X37p17e55M2T1WxV4p0XKc9yowrExMTI+l9/kV/WrpEL58/FO4UAoO1m50IEEEAAgVtMgADgLdagwaiOry/vz9Yo71qE2z0dyU5evtYD1HXW3uzUMKC07ZSHa4Ij4HQAUGuhL1n9B00zPWpHA9p1nqsorzWvKXfdeXsshNEOkK3fqC2vNq2e4JpJFy5ekmXfrZPZ81bKju37LL2cuTPXl8fXm9eURg2qhPSFXaeCfvTR1Nj1w8z0AqtBnrhpHjp03BXoWPLVals2GoDSqYwN6lWSggVzmp6K7C4HAUDvFtH7RQN5K1Zu8NsepUreI106vSBF783rSmTUmDleASs7fcPp+9VMn9ffq4FDZ8h3363za+ROz06wSadY6pTe4SO/NB2U1SUOdC23hx+6P/Ze0CnC3XuOl+UrNsRWT0d9jRrWwdSGD2ZMwn2OruX324adMmHCAkvPKy2nPuMrPFZSWr5eSwrkz25qzbu49dM+8NGgaaJTgv0dep906tBAdOd2XV/v1Olz0rrtENm2478lDAIJALo/RGkQX6cc65qenstVGJVPf1Ma1HtCXn/tWcsbqPiqr9PPcn/toH8/fPiQzJryuVy+ctl1esF7CkvtevUladL4y1uYSY9zEEAAAQQQuFUECADeKi1JPRBAQPRlcffuQzLzy+9dL8HutZI8aXQR/0qPl5Ya1R6WHDkyxXsp1ECers114/qN2Mt0baUiRfL63QjEfYGuRfXH7kPy67odouuJ6VqD585dNGwhXX+vRPGCUr3aQ1KmTFFJn87aLpd2m11fIo8ePSXfL18vq9dslUOHj7tGrPg67AR5jNLSNtH8vv9hvaxbv9Oniwb8it2XT8o/XFx0HcY8ue82ta6aXY/EeJ32gcOHT8jSZf/H3nnHSVFsbfidzeScXLIgEgQEFAQEUUEBQZRrAlQwk6PCFUVFUZGcQeRiIqsgKIKJICAgOStIEBAkZzbv953GWbZ3ume6e8L2zLz1j/6YCuc8VdWz/c6pOutd1qncPdew/i1o1qwuqlUpZ1pwNcLTLvvVk63ONbts+WZI8o2DB4/pCoJWBEDn+HL0+OdlG/DFfO0fEWRP1KlVCQ+1aYS6t1VGbKzrHYT7/jyK0//eEefst0yZ4j5N8uOJlz8+dz6vfly2URHj9H5kEcGrdq1KaH7f7WhQvzrk+eptca5Tye4r9ws6518ExooVSqFevapo3qyupR8mvLFNMhyv+203Fnz9C7Zu25fxfSc+V765DJreW8dnDILtWb57x3Ys+OqLDLNr1q6D5i1beYObbUmABEiABEggJAhQAAyJaaQTJEACWgQkIib53wy/8nmuXDkMi3i+JpqcnILLl6+qus1Oe3ztn9X+RCxNSEgkF6sAQ6idnfZrdmOVqEDJKJ6efu2HCIlcyp07h6Uotuz2xV/jZ10vkgRFMh+zZA8BOz3Lv/t2EbZs3JABomXrB1G9Zq3sAcNRSYAESIAESMBGBCgA2mgyaAoJkAAJkAAJkAAJkAAJkIA1ApcuXcSMj6fjzJlrdy/mzp0HHTp2QoGChax1yFYkQAIkQAIkEEIEKACG0GTSFRIgARIgARIgARIgARIIRwJyVHz1yuX4ZcXyDPcr3VwZD7Z9hPf/heOCoM8kQAIkQAIuBCgAclGQAAmQAAmQAAmQAAmQAAkENYGjhw9j3pyZuHrliuJHXGwcHu3wJOLjSwa1XzSeBEiABEiABHxFgAKgr0iyHxIgARIgARL4l4BW1mF/wvFVkhZ/2si+7UNAK3O7v60zmgHX33aw/9Ak8NehQ/hq3uwM8U8yMTds3AQN7mzEuzNDc8rpFQmQAAmQgAUCFAAtQGMTEiABEiABEnBHgAIg14edCVAAtPPs0DYzBNLS0rB+7a9YtWIZkpOTM5reUr0mWrRqjYjISDPdsS4JkAAJkAAJhDQBCoAhPb10jgRIgARIIDsIUADMDuoc0ygBCoBGSbGeXQmI8HfwwH4s++F7nDjxj8rMylWqokXrBxETE2tX82kXCZAACZAACWQLAQqA2YKdg5IACZAACZAACZAACZAACVghINF+X8yagYMHD2Q0j4yKQv2GjVC/QUNG/lmByjYkQAIkQAIhT4ACYMhPMR0kARIgARIgARIgARIggdAisH3rFny7cIHiVPESN6BlqwdRpFix0HKS3pAACZAACZCADwlQAPQhTHZFAiRAAiRAAiRAAiRAAiTgfwKS7Xfjb+tQ6eYqKFy0KJN9+B85RyABEiABEghyAhQAg3wCaT4JkAAJkAAJkAAJkAAJkAAJkAAJkAAJkAAJuCNAAZDrgwRIgARIgARIgARIgARIgARIgARIgARIgARCmAAFwBCeXLpGAiRAAiRAAiRAAiRAAiRAAiRAAiRAAiRAAhQAuQZIgARIgARIgARIgARIgARIgARIgARIgARIIIQJUAAM4cmlayRAAiRAAiRAAiRAAiRAAiRAAiRAAiRAAiRAAZBrgARIgARIgARIgARIgARIgARIgARIgARIgARCmAAFwBCeXLpGAiRAAiRAAiRAAiRAAiRAAiRAAiRAAiRAAhQAuQZIgARIgARIgARIgARIgARIgARIgARIgARIIIQJUAAM4cmlayRAAiRAAiRAAiRAAiRAAiRAAiRAAiRAAiRAAZBrgARIgARIgARIgARIgARIgARIgARIgARIgARCmAAFwBCeXLpGAiRAAiRAAiRAAiRAAiRAAiRAAiRAAiRAAhQAuQZIgARIgARIgARIgARIgARIgARIgARIgARIIIQJUAAM4cmlayRAAiRAAiRAAiRAAiRAAiRAAiRAAiRAAiRAAZBrgARIgARIgARIgARIgARIgARIgARIgARIgARCmAAFwBCeXLpGAiRAAiRAAiRAAiRAAiRAAiRAAiRAAiRAAhQAuQZIgARIgARIgARIgARIgARIgARIgARIgARIIIQJUAAM4cmlayRAAiRAAiRAAiRAAiRAAiRAAiRAAiRAAiRAAZBrgARIgARIgARIgARIgARIgARIgARIgARIgARCmAAFwBCeXLpGAiRAAiRAAiRAAiRAAiRAAiRAAiRAAiRAAhQAuQZIgARIgARIgARIgARIgARIgARIgARIgARIIIQJUAAM4cmlayRAAiRAAiRAAiRAAiRAAiRAAiRAAiRAAiRAAZBrgARIgARIgARIgARIgARIgARIgARIgARIgARCmAAFwBCeXLpGAiRAAiRAAiRAAiRAAiRAAiRAAiRAAiRAAhQAuQZIgARIgARIgASCisD+A3+jS4+ROHbsdIbdLe6vhzde64S4uJig8oXGkoBdCWzY+DueffF9lXmdOrZAr26P2NVk2kUCJEACJEACJOCGAAVALg8SIAESIAESIIGgIkABMKimi8YGKQEKgEE6cTSbBEiABEiABHQIUADk0ggZAikpqdi05Q/M+2IZOr/YBuXL3RAyvtEREgg1AtyvoTajgfUnXATAtLR07Nt3BFM+Woj2TzRFrVtvCixojhbWBCgAhvX003kSIAESIIEQJEABMAQnNdxcunjpKpYsXYeP/rcIx/85gxIlCmHi2D4UAMNtIdDfoCDA/RoU02R7I0NdAExMTMLqNdsxccoC7N13RJmPaVMGoE7tSrafGxoYOgQoAIbOXNITEiABEiABEhACFAC5DoKaQEJCEt56ZzoWL1mb4QcFwKCeUhofwgS4X0N4cgPsWqgLgKPHz8P0jxerqFIADPAi43CgAMhFQAIkQAIkQAKhRYACYGjNZ9h5Q0Eh7KacDgcxAe7XIJ48m5lOAdBmE0JzQpIABcCQnFY6RQIkQAIkEMYEKACG8eSHgusUFEJhFulDuBDgfg2Xmfa/nxQA/c+YI5AABUCuARIgARIgARIILQIUAENrPsPOGwoKYTfldDiICXC/BvHk2cx0CoA2mxCaE5IEKACG5LTSKRIgARIggTAmQAEwjCc/FFynoBAKs0gfwoUA92u4zLT//aQA6H/GHIEEKAByDZAACZAACZBAaBGgABha8xl23lBQCLspp8NBTID7NYgnz2amUwC02YTQnJAkQAEwJKeVTpEACZAACYQxAQqAYTz5oeA6BYVQmEX6EC4EuF/DZab97ycFQP8z5ggkQAGQa4AESIAESIAEQosABcDQms+AeiMv8ydPnsPfx04p4yYmJSMqMhKRkRHIkSMWpUsVRd68uRER4fCbXRQU/IaWHfuYQHp6Oi5cuIJDfx3H1auJqv1yQ4nCKF68IKKjo3w8qnZ3aWliyyX8dfiEiy2yd8uULo68eXPC4fDt3rXTfnU3H4UK50OJ4oWQK2dcQOZDbxCZp5OnzilrJiU5FSmpqYiNiUbuPDlRtkzxbLfP13Bkffx54G9cungFVxMSkSMuVvkuKVe2BPLkyakazl8CYNa9kZqalsFdDJC9WqRIfsTFxfjafVV/o8fPw/SPF6v+bdqUAahTu5Jfx83a+eUrCTh2/DROnzqvfOScF/l/WYelSxZF7tw5fP6sCKiTFgfLzCbzOnFEOFC6VDEULpQPUVGRFnu3RzOjAmBKSiqOHTut/D3o/FswKjpS+S4pUji/X/8OFFJ2+n61x8zRChIgARIgARLQJkABkCvDMIErVxKwbfufWL5yC1au2oqjR096bJs3by60btkAD7VphBvL32D6JUHrJc/joCYrvDXoGbRpfafJVqyenQSSk1LwzvufYsHCX1RmDB3yEu6/r65Xpp04cRbdeo/G77//ldGPvMRMGNMbpUoVNdW3vJQcPXoKXy1Yga8XrcKp09deorVKTEw0Wja/Ax3aNbO0VzwZJsLGlq17FWbLVmzGhQuX3TYRn5vfXw+tWtRHfHxhQ3s3GPbruXMXsWDhKsya8yOO/3PGLYMqN5dFh/bNcO/dtREb673goyWAdurYAr26PaKy4/SZC5gz9yd8OX+F2zVTsUJJPNm+GZrde7silAVjca7LT2csxapVW5GckuriRnRUJBo2rIEXn2uNmyuVVtairwRAGf/YsVPK99ovq7dh46bfkZSU7BFlrVtvwsNtGuHeu+uYZi9rsFuv0di+Y7/HcaxW0FpXRvo6f/4yNm7ag5+Xb8ava3e4XX/O/ooXK4g2DzbCgw80wA03FDYyTNDW+fvvU/j6m9X4bslaRZh3V+TvnyaNb0XrBxqiZo0KpsRAX61vb3908SQAyo9ZX8xfgc9nLNV9nsr6eOKxe9GmdUPkz5/HZ3Nvp+9XnznFjkiABEiABEjAzwQoAPoZcCh0v+/Poxg/6SvdlzOjPja5qxb6922HEiUKGW2i+ZJnuLHBihQADYKyWTURobv3Gq2ySoTc1wY8hegY65F0P/y0Af36T/C6XxFxPpy6EF/OX64parjD+UjbJuj8YhsUKpjXa+rykrRz90GMGDUbmzb/Ybo/EV8aN7oVXV56SBEm3RU7C4AiGs+c+yPGT/zKkMCT2c9SJYvi1f5P4o56VQ0JoXqMtF7GW9xfD2+81kmJKBMxasn365S5cicWZ+2/VcsGGDTwaYiIHExFIsg/GDET3//4myGzZS0++0wrPNexJQ4fPYEuPUYqUUfOkpmlpw5lPcz9chk+/XyJRyHYXV8S5dWj238U8d5otJcdBcD1G3Zj0pQFlp4RTj4yP20fugtdXmyDfPlze5qCoPrcm+e5OCpifdfOD+POBtUNrZNgEAB37DqAQW9Ow5/7jxqaS9krfXs/jvub1fU6ItCb+fDl96shx1mJBEiABEiABGxEgAKgjSbDrqZIxNAbg//nE/PkD8Ahg59H3durGHqRtrOg4BMg7MQyAREPevYZo4hbziLi8sSxfVC+nHuhSm/Q5OQUvPfB50rkVeYyfGhXNL2njiFbRXDbuOkPvPbmVJU4YahxpkrVqpZX9ooc9bRaEhOTMGXqQkXk0IqsMtOvkYgiu+7XS5ev4oPhM5UoTKtFxI3uXf+D9k80NfQCrzWOOwFQxKMZs37AuAlfmJ4rM8KXVf993e7goeMYOGgqduw0HwX30vMPKlGZ3fuMsSwA+lqEe7BVQ7zSrx1y58rhEZWvx9Ya0Mh+zdxO68ixR0d0KtxYPh5Dh7yIihVLWe3CNu3keb7yl60YPORjU6K8lgO3VCuP8aN7GYqCs7sA+ECL+ujTb7zHKMisHOQ5+nLfdmj7UGNLz1E7fb/aZpHSEBIgARIgARIwQYACoAlY4VrVnQAof8yVLVvC5Xjc8eOndf9YlmMxw4d2Qd3bqnhEaldBwaPhrOB3AnLn0Jhx8yBHBzMXbyI6Dx8+ga49R6leaipVKo3xo3qhaNECHn2SlxM5SjjorWm6R2xFBC9e/HoU7NlzF3WP08t9X+8PeUm5Q8lskSP7H4yYhflfr9RtKnuxVHwROCIiMuro7V0jgoId96tweHfo51j07WpNDhI1V778Dcr9pVIuX76KAwePadaV593rA59WjvRZuR9RSwCsWaMixo7siZWrtuCtt6e7iH/x8UVQINOxORF1Dx48pqoXbAKg3Gs4YOBkyPFCrZJ5j6SnpeHw0ZOq/STz0KHDfViydJ3fBMCs+1Ts1GKf2X6JxHy1fwfk9HB3ZLAJgFn3iPisNS+ZWcgVAiOHd0OF8vFmH122qS/P828Wr8HgIZ/oRg1r/Q2k9wwJFQHwvma349yZi1i3YbdqruSuzlz/CuDu9orV56idvl9ts0hpCAmQAAmQAAmYJEAB0CSwcKyeWQCUF4H6d1RT7vqpUaOi8mKqleRD/lA7deo8vl28Bp/N/N5FDJSX3uHvd1EuU3dXROS5fDkB6elpmtUSEpMxbMQs/PjzhozP5b6ZYe91RunSxQxNV1xcrN8vdDdkiJtKwvPqlStIS3O9H8vbvnXbOxzImSMnIv4VRvw2jhcdi4DwUtdhKjHknia18c5bz3l8CdcaVgSF/gMnqz56qv196Nn9EUPRCmJP75fHuYh/8sIjd2R1fLK55n16ctzzi6+WY9r0b11eNI2KCpmNln0zddoiTJ76tYubsofbPdEU/3moMeJvKKK5f+UesOUrN2HqtG9w+MgJpQ8jAqDd9qvsm9lzf8L7w2a4cJBjvX16PooG9W9x+QHD3XyIaDpqWHdLyRi0BEARBV7p2w5vvj094yidPMOee6YVmt17G/Lly+Viu0Sqbtm2D59+tkS5jzWYBEBZIyPHzFGiHbOWRg1roHuXtqhQoaRqXUqbNWt3KFGczvWotX/NcMgqwjnvvLy3SS2UKlVM9zshK/usdrz5eiflTll3ArEc9b548Yru95r0OeWjRZg5W81IhOIa1W809MSMjok2lSQmcwSg8+464Vn55rK6CYHEj6N/n1TugJs56weXZ5fcx/rGwI6WnsWGnPRzpXW/7UK//hM1f8yRtfrUk/ejZvUKmsmbtNZJqAiAmbErx/I7PYBH/tNESXqSuVy8dBVz5v2kRKFnvVfTikBsl+9XPy87dk8CJEACJEACfiVAAdCveEOjcxEAP5/5vXLZ/N1N6iBPbs9HnDJ7vm//Uc2jInKn1mOP3O0VJG8vuPZq8AA2TkxMxNyZn+PI4euJKfw9fFxsHB7t8CTi40v6eyjL/YtQ9XL/CapIBBGVJ43tY/r4mVZiEXm5GTOypyISeSpnzl7AgP9OdomKkGPJ77z5PGrXuslj1NjevYfRt/9EVQSi2PDuOy8qYpDRIneqvfraFJdoMjlW/NYbzxiOyhEm8xeuxLCRs9G+XVOXZBVG7XHWC/R+1YtIlMjKIYNfgAhtekXEw3XrdynHVLPexyf3mb795nOmn4V6/le8saQi5EmR+6m6d37Y0B1qYuOva3dixcot6N3zUdv/kCH+bd26D527j4BkUM1cOj7VXLk7zl2yFUnaMnDQh7qRg2YFwJ59xykZhts9dq+L6OhpbeuJ7FUrl1WeGZ5+3PLUf6CzAMt4MjdPdbgf9etVNZ30RkssM/P89MQj0J9LNHjPvmNd7rcTcXTAy+3R/L56hu6xkz0qyV5E4M+ZMzYkjgA750JYDOz/JCQi0J3grSekPtL2LvTv297Qnb12+n4N9FrkeCRAAiRAAiTgSwIUAH1JM0T7Onv2onKvkTeJFeTltk+/cSpB4q7Gt+Ldt18wFaWQFXGgBYXsmmIKgNrk5eXqo+nfKIkdMhcr4rKWWFS9egWMHdEDBQq4z1wodkz/ZDHGjP9CZYeZ4+7OhlovS3XrVMawoV01o8GyktG6G1HqGBG99Nb3th37sXHDHiUK0JsSyP0qAs2UqV/jw2mLVCabjTzRElOtChta/mc27tH/NEHvHo+ajpiSTJzR0VGGolS9mT9v2+pl776jXjVIBm+taMesY0pSqm69Rmner2lGABRb5G5IT3vbnc8S4fT6mx9h2fJNqmrjRveCRIh5UwItAMpzo1ChfIZELS2/9KJtJftrv96P235tZvZJ73oJeZ7LOrWSDOj8uUv436eL0emp5kF/B6CTlSSqeq7TAx7nVtbGwm9W4e0hn6j+BjT6Y52dvl+92dNsSwIkQAIkQAJ2IEAB0A6zEAY2yHGnfgMmYu26nRneyhG8CWN7Q17IrZZACgpWbfRFOwqA+hRFnHqpyzBVRJEVcXnOvJ/x7tDPVAN16/Kw8oLj6b43iUySaJE9ew6p2hs5DpjVM60jkiI4TZ7wsqFjp1p+yIvrhDG9Uf0WY8cHtWiLXUaznOrNViD364kTZ9Gt92j8/rs6alaidx5/9B6Pc+r0QU+0s5Jx2p0A6M19j754xgSiDy2RXdb2yOHdDQtmemKA2G9GAPSVv1pZw194tpWS8dWbEmgB0BtbnW2PHj2Jbr1GQ+bZWZx3XBoRd31hgy/6kEjszj1GQkTRzKVnt/+g09MtDD87stoiR6YdDhhqb+ckIOLXzTeXwZgRPdxGUWf2X6L15XqNX9fuUGHp3rWt8h3rrtjp+9UX64t9kAAJkAAJkEB2EqAAmJ30w2hseWkbNXYuPvlsicrraVMGGBI19FAFUlDIzumiAKhPX44Svvr6h1i+YnNGpYIF8mLSuD7KS4qRIokiXnvjI/y0bGNG9Vw54zBpXF/UqFHBYxdaiXLMRO1lHUDrmOSzHVtCXpbciZFaQrv0beYeQ4/OelEhkPtVoo679xqtslZ+bBAhtFSpoqa8WL1mu5JxOnMmZck0LRk9JUmH0aInAJoVwYyOZ7d6vtonegJNdgiAcsVF1+4jISKFs/jCjmAUACUS9Y23/4el36/PYOFtZvbsWMMSVT5uwpeqoX11tNuoP3YXAI3+OJbZX60fp+rVrarcB50nT05dNL56bjgHsPr9anTuWI8ESIAESIAE7EyAAqCdZyfEbNP6I2740K5oek8dy54GUlCwbCQb+p2A1ouFkcgCp2FagoKRFxNpryfqWDmG7LRHjt336DsW27bty2BnxB6taEizYqg/JyuQ+3XCpK9cjv+2fagx/vtKB81L+935rRdN+OGklw1lM3f2rbdWjB419+fc+LtviSAdPmo2Zs35UTWUEWE7q21aQpPU8YXwZpaDVkZfI3vV0zjBKACKT1ntlh9SJk98GdWrlffksi0+1/sRRRL1tH+iacBstLMAaCYiPTMwiZDv3H0k5D4/Z/F0EsRO368Bm3wORAIkQAIkQAJ+JEAB0I9w2bWagJYA+NagZ5SMiVZLIAUFqzaynf8JeCPgiXWSkfSDETNVhhp94dM69uat6CYZEwcP+QSLvl1t+EVJKn45fwUGD/lY5YeV49D+mrFA7Vc9gWjQwI4QEdBs0ZoP6cPoGnGOp/cya0UEM+tDdtfXE1as3penFaVlFwHQTLZXvXkJFQFQ/PM20j+Qa1crotPb57kV++0sAFaqVBrjR/VC0aIFTLkmx4B79BmDLVv3qtq5+yHFTt+vppxlZRIgARIgARKwKQEKgDadGDubJcd5T506j7Xrd2Lb9j+xa/chHD9+2iVTphEfKAAaocQ6nghoCStGj/BqHSE2ejm52LV5y148/9JQ1fFQOS42fmxvyIuj1WI2kkbvmP3TT96vJJbwdI+hVTvNtAuUAKgVlSV2mo3Yy+ybVkSh2QQHegKgt5HQZuYgu+pqRVF6I6x8s3iNkqE5c/FWAExOTsGuXQeVTN4SfSvHeg8ePOaSTdsTw1AQAOW+umPHTuGXNduwY8cB7N9/FIePnsSFC5c9ue/yeTAJgJKE6YXOw1Q++OJ5bhaanQVAqz8q6f2Q4u7vQLt8v5qdP9YnARIgARIgAbsSoABo15mxoV2SNXHVmm2YMHk+9u474hMLKQD6BCM7AbBk6TrlkvHMxcg9RVrHZu9pUhvvvPWcoWysWkLEvXfXwct9n0BcbLTluZny0SLMnP2Dqr27F2k9ccnbPWbZAY2GgRIAtV6eixcriAnj+qBC+XhLLmlFMJsVnLT8l+N0Uyf3x601K1qyK1gaac2JN/fDbdj4O5598X2fCIB//31KuZ/2q69XQkQKb0swC4ASPfvN4l/x0f8Wqe419IZJMAmAvtjn3rBytrWzANiqZQMMGvg0YmLMf79pRba6S5pjl+9XX8wp+yABEiABEiABOxCgAGiHWQgCG+RYzJD3PsWmzX/41FpvxYlACQo+dZqd+YXA4cMn0LXnKBz663hG/0YScWgdJTSzLrVeGP3iIAB3kWJ6UW92evkO1H71tdgk86mVVMTsXW+B8t9f68+bfrUiebwRyrTuEzMryMqPWjPn/ojxE7/yifDn5OONX84+An0EWCKI5fv9jcH/w+EjJ7yZape2dnoGeXJMi3unji3Qq9sjnpr69HM7C4De8NCKpHbXn12+X306ueyMBEiABEiABLKRAAXAbIQfLENLhNRrg6aqhBVf2W5YB2raAAAgAElEQVRGaNEaM5xfqH01B6HSjxzfe++Dz5V78JzF02XlcifRy/0nKEf+nMVsplitFxp/MXW3XygAXqfuDwFQK+LMrNATzs8rX/DLvK+8FUgSE5MwccoCfPzpdz7frmbXhZYBgRQARfxbvnILBr01zdIRX08AKQB6IuT6ubfr29mjt88crX3rjQCoJei5688u36/mZ5AtSIAESIAESMCeBCgA2nNebGOVRFX17DsWf+4/6mKTiCtybO2uxrVQsWJJSDa3HHExurZ/t3Qd3h82Q/U5BUBjUy0vaFevXEFaWqqxBr6o5XAgZ46ciIiM9EVvAelDK0rLXYKFrVv3oXP3EZB7AJ1FktK8NuApRMdEGbJZ60XdUEMLlSgAGoOmlRTG6sX1zhF9IWB5+zJuzHt71vIFv8yeeSOQyPN0+ieLMWb8F5qwChfKh6b33obb69yMYsULIb5EIV2o5y9cxoBXp2DXnoMZdYJNAJS7fCV6Wut+PznmWf+Oarj7rlsRf0NRlClTDPLdr1fMXl1gt9XKCED1jGS3AGiX71e7rVPaQwIkQAIkQAJWCVAAtEouDNqlpKRizLh5+HTGUpW38sd/24fuwnPPPABJlmC0MAuwUVKu9RITEzF35uc4cvgv652YbBkXG4dHOzyJ+PiSJltmX/WTJ8+hZ58x2Ln7+su4XOA+ZmRPl7UqIoAc/5Xjf5mL2YQMWkeI/UWAAqAxslrikPxAMWFsb0iEp5XiCwGLAqD6zj5vhDJvBEAtgVjWhKyRV/q1Q/161RDlRuTKvH60Im+98cvZd6AiAK9cScBrb3yEn5ZtVG0LEf5efL41HnvkHuTJncPwlgmU3YYNMlmRAqAamK8FwBmzfsAHI2aqBnEXAWiX71eTy4jVSYAESIAESMC2BCgA2nZqst8wrTvVRPx7uW87tH2oseEXJKcncjRz8JCPVY4xAtDYPFMANMZJS7SWNSsCYIP6t6g6OXv2Inr0Hatk+3QWK1FiZo80GfPEfK2LF6+g34CJWLtup6rxuNG90KhhDfMd+qFFoAQwfxwB1rqM/r5mt+Ot159BjhyxhmgFyn9DxgS4ktacWNlvTrOtJgHRE/5r1qiIdwc/j/j4IqbInDl7Ad16jFL96BBMAqBWFHTevLkw+I1ncVejmqayh+tlIg+mI8BagpPZbN+mFpBOZW8E7sxdevvM0dpn3mSWNyuw2uX71Rdzyj5IgARIgARIwA4EKADaYRZsasMPP21Av/4TVNY1uasW3n7zOVMRAc4OtP7wowBobPIpABrjJLXkheWlrsOQnHL9uPRT7e9Dz+6PqERro/U8jax17NibO5I8jaf3uV4W4EEDOyqCvR2Kty+jRn04evQkuvUaDXmJdpaCBfJi0rg+uPnmMka7UdXT+gHDbNKJQPlvyUE/N5LkPF17jFIlmPAmC/C633bhhc7DVFYbmQ8toVx+JBg5vLsloVxLqAkmAVBL8Gr/RFP06fmY6R/59J5BwSQAaglOZoV+X2wlOwuARvaZFgP5gW74qNmYNedH1cfuvqPs8v3qizllHyRAAiRAAiRgBwIUAO0wCza1QevyZauCXVJSMgYP+QSLvl2t8tZqf85OwuWFmgKg8U2ildgja6SRmUhBTyP7IhuppzGMfq61Z7MjesWMSOmNCKQ3jqyBHn3GYMvWvaoqVqMh9SKbzAq94fK80poXvTmxKg5ZFWS1hMjq1Stg7IgeKFAgj9GtllHP19mNnR0H4iit1veyp8RJ7gD5eo5NT4YPGmjNpzeRqlZN8pUAqDUnZp65WhGAEi07dmRP5MuXy5R7V68m4o23/4el369XtXN37Yadvl9NOcvKJEACJEACJGBTAhQAbTox2W2WVkZVscnqy9qJE2fRrfdo/P67+g67V/q2g0QbWC3h/EJtlVmot9M74pdZ/NG6K9CqCKB1BDA7XhhlXrWidq365Y91Eqj9qveDQ/eubfFcpwdMuyZJYl59/UMsX7FZ1dZsdGWg/DftYAAa6M2JWYZiql4kkZHIJMlq/1KXYarEP0ba6SHSutPMF/s/EAKgVjSkGXEoKxMtsUbqWBXeA7AsXYbQih72RhS16oOWAFivblUMf78L8uTJabhbLX/MzLGWAFi8WEFMGNcHFcrHG7ZDKmr9HegpMttO36+mnGVlEiABEiABErApAQqANp2Y7DbL10d5Vq/ZriRnyHwsU3w0G0GTlUs4v1Bn9xqx8/haL/lyDPa/r3RAdHQUtI4VdevysCIOORwOU65pieV69w6a6thCZa2XxuyyRcv8QO5XLWHmnia18c5bzyFnzjhTdPW4Tp3cX8mEbrQE0n+jNgWyntacmM26LfZq3d8p/25EyLN6d6AWJ70EGmYEFj3+gRAAtRKYeGP7nHk/492hn7m45G2kfyDXqN7fPlrXSPjTLl8JX1pXXZiZY639In4PHfIS7r+vrikEWrZ4+oHKTt+vRpxNTk7Gpt/WY/26tbh08QIio6JQunQZ3HtfcxQuYu5+USPjsQ4JkAAJkAAJmCVAAdAssTCprxdh8eGkl1H3tiqmKOj9QS2d+EMA9PSLsinjWTkoCWhFbJUvdwPGj+6FYsUKutxDlCtnHCaN64saNSpY8ldL4DYiRlgazE2j5KQUvPP+p5B7rDKX7LBFy0ytZ4G/9qvWy6ZkLZ80tg8qVixlCr2WsKGXXdpdx+EuAGoJ85KVecKY3ihVqqjhOdH7QcnIOteKUrN6x5vcQ9i77zhVNKE4YUZgMSMA+jqSTus5aTW669Tp83jlv5OwcdPvQS0AivFLlq5D/4GTVX74Yk4NL3AAWtGZ8j01eeLLqF6tvKGutK66MLs+9QRAs8K9ni1Grqiwy/erJ+iJCQmYN2cmDh865FI1R86ceOSxdogvZe67x9OY/JwESIAESIAEzBKgAGiWWBjV17pPzEqU1Pc//oZXX5viEv0nKL0VAPWOKru7UyaMpjCsXdUSbSRqQS7oz5ogwsrRqsxwte4dlMi71wc+jdYPNDQdVejNxGm9LPnCFnmBi4qK9MY0BHK/as2JGG82wYGesGElIijcBUC9TNUvPNsKLz7/oKH1dfHSVbz+5kdYtnyTy1o0IgBq3QFoRYSU9SUi0a9rd7jY4QuxSCs5h9Uj7HqbVu9YttnoLrl2YfonizFm/BeaQwVTBKA4oHVFhPx7q5YN8Gr/DqYjiJ1Q0tLSIQHmRqLM9X6E7dfnCXR4oqmhPvb9eRTdeo3CsWOnLYuZegKgiJGjRnQ3/IPw7j2H0L33aIWtsxiNTrfT96u7L8DtW7fg24ULIPtBq5S/sQIefvRxREdHe/U9ysYkQAIkQAIk4A0BCoDe0AvxtlrHJG8sH48xI3oYjtaQiI/XBk2FvHRpFfmDetDApxETY/0PIq0XJbO/Tof4VIale3v3HkbnHiNVLxyyLm6rczMGDpqqYuLtXZTSmZbQnTdvLuWo1B31qhp6YdOaKBE8JCKlcuUyqFalnMe51BNIvLFlx64D2Ljxdzz95P0ex/dUIZD7VUsElhdX+YGg/h3VPJmq3DU3ddoiTJ76taqu1YjRcBcABaJWllVZm8OHdvEoJsiLtbR/8+3pmnNnRADUu8+xZ7f/oNPTLQzt08TEJEycsgAff/qdph0ibJg9Hp61I637POvWqYxhQ7uaTr7gbqFrHcu+o1415bllJMmDzMnylVsw6K1puHDhsuZQIvB27fywx/1mlwri0+y5P+H9YTNcTBJfXni2NaJjokyZe/7cJXw6YymebN8M+fMbSzajtVeM/g0mx9PfHfq5S+I1MdqMQK0nAEo/dWpXwvtDXkKRwvndstCzxcw6s8v3qztHv/t2EbZs3KBbJTo6Bo+174BSpa1loje14FiZBEiABEiABHQIUADk0tAloPcr+F2Nb8VrA56CHKfTK/JL94qVm/HOe59CImikxMXFIDUlVRUJ6G3klfSrF/E08L9P4cFWdyIiwtydblwSoUFAS2yRNZs3Ty78uf9ohpNWj4VmpaT3kiPi9ovPt0b7x5siR45YQ3BFePrzz6OYNfcnfPvdr5BIHTMJeLZt/xNde45yeSEXW17u8zgeat3I0AusiIlz5v2EKVMXon27pujV7RFD9rurFMj9evyfM+jZdyzk2GfmUrhQPkjyiUZ31tAVfOQ49YxZ32P8pK9copcfaXsX+vdtb4hh5nEpAAJyt9mA/07Gug27VXMiosQ7bz6P2rVu0pwTmY8vv16B4SNmaUaTS2dGBECppyUMiwg54OX2aH5fPbffGafPXMCoMXNVwooIwiIsZi7eRqFr/YAh/VsVoPT2pN44jz96DyTiMHeuHLrbWeZk/sKVGDZytvKM0vuez3z/qtcPkAB14C7CU3647N3zURQqmNejNfIsX7N2Bz4YPhP58+dWrqEwKgDqzY2nv8FkjX4wYqbyw5FW8ZUAKH2LKP3awKdRulQxzbG09otUFJF85PDuaNSwhkeGUsFO3696Bi9a8CV2bNvm1p+77rkXdzS405DPrEQCJEACJEAC/iBAAdAfVEOkT3e/gssL9JPtmuH+++tB/l+OBorod/bcRWza/Admzv5B+a+zyB97r736NOZ//Qu2bN2b8e/Oe9ni461fjqwnVMog8gvzQ63vxI0V4lFY54/1uLhYRZxkCT0CWnc5ZfXSamIILVonT53DgIGTIVETWYsIDG0fboy776qNcmWKI3fuHBlChwhDsnd+/+MvrF23Cz/8+FuGcO7sx4wAKHt34Ter8PaQTzTFErnn67FH7kajRjVR8oYiGetf9vCFC5ew78+/sXjJr0pWYWdUj7fH9Z1+BHq/SiRzn37jXDjIM6lF8zvQtk1jSNZWeQYItwsXrmDTlj8wbfo32L5jv8s8ynHRMSN7oFzZEqY3DAXAa8jk7rx+/SdqRozJM1sEo2pVyyFHXAxOnbmAzZv3KkL03n1HMpjLPY6nT51XBEVnMSoA6gnD0o8IEk89eT+qVC4LEfakyLwdPvwPvl26Fl9+tUJld5O7aqFOrUoYNnKWaj14e1xXL8GIDCLXGDz877qNL1FIcx1Gx0Rn2O9uoYpANXLMHEgkYNZSqmRRPP/sA2jYoAYK5M+jCKNSX37UW/PrDuV7PvOcyI8pvbo/gskffo3DR05kdOeLH/pMbzYfNNi3/yj69BuveYJBfkxp2fwOPNCiPipWKIm8eXNmPM9FDD52/DRWrtyCBQtXZbSXeTMjAIrAOnTEDMz7crmLN/J31xOP36v8jSNrIC09Hfv3H1OOxi/8dnXGGpWodzlyPP/rlRl9eCsAyrNPhD3nd4OTxf3NbseNN8Yr4t5fR05i9ept+OKr5S7fZWKIlR9R7PL9qre0Nqxfix+WaEcFO9vUrF0HzVu28sHqZBckQAIkQAIkYI0ABUBr3MKmlbtfwY1CkD8GX+7bDq0faKC8JH05f0VGU7OXWmuN6U6oNGJjsN1PZMQn1rlG4PDhE0oknN4RdKnj6/k/eOi4csR4x05X8cibeTEjAMo4IuZ9vegXDHnvU92IKTP2+EoADPR+FcFCjh1/NG2R1xyMHlXV40oB8BoZTwK1p3UpRw9f6dMOb70zHTt3H8yoblQAlAbu7qb1NH7Gy3yNinh38PM4ffYiXuoyTBUF6IuoNz3x2oh9ZvarPCclUjZzZLSRMTLXkb0x+I1nUavmTXjl1UlYu25nxse++KHPrD2+qi9ReH37T3T7HWJ0LLMCoPTrToT0NK7ziO7ceT/jw2mLMqp7KwC+/urTiqg3acoCTyZofm706LBWY7t8v2rZ5i4JiLN+5arV0Kat95H0lsCzEQmQAAmQAAn8/7svBUAuA48EJFpi4KAPNaOaPDXOeqxK604bOYonL0veFImW+GDELNWv3Eb787UAZHRc1vM/Ab2kE86RrVz+b8RqvWNPRtpq1bF6p5gILb+u3Yl3h36misixYocZQcFT/4HeryICSvSxHItzHlX0ZGPWz+Wl+d3BL6DWrTeZbZpRnwLgdXQiUC/6dhXeee8zU3Mie3bk8G4oUbwQXn39QyxfsTmjUzMCoLcCeeZjmGfPXkSPvmOxbdu+DFskS/T4sb0hWa6tFm/Ea7P71RuhK/PxbfF13IQvMe3jb1VufzjpZY93PFrl5O92kkRj6IiZmolnzIxtRQCUZ/jS79djyNDPdO9Y1LJB7goc9n4X3Fj+Bpd7N70VAOXHqFuqlXN7D6YeF9k3b7zW0at9YZfvVy0fExISsGrFMuzYvg1Xr1xxqUIB0MyOYV0SIAESIAF/EKAA6A+qIdinXGAtl55/OX+54SgaORrVr9fjKFny+vFeuYurc/eRqmNbvkrYIcdlZn/xMz78aKGpP5QpAIbggs3kklYyG+fHvlp7WgRFYFi3ficmTJ6veZTUCHUROx5u0wgPtKyvHLW3Ws6du4i5Xy7HZzOWmtobMp4cF37umVZ4oMUdhu8wNGJnoPervEhLtNiIUbNV1xN4slXE17YP3YUXnm9t6M4vd/1RAHSls2vPQYwePdflTkAtjvKd0r9vOyWJgVYGWzMCoPRvRSCXfdijW1u0uO+OjDsgtTK2Wk0Uk9VveY58/8N6jBo7F/JjnNFiVgCUfs0KXXp7Q+uZ263Lw3iu0wOGkqwY9TGQ9eR5tWrNNuV5nvnYsxEb5Ijsww82UpIo3XBDYSNNVHVkncqVKm8M/p/HH3K05kSO3L/QeVhGn94IgPJ9MGFcH1QoH68cB5c7aseO/0LzmG9mJ+TH4Beea43H/3O36btT7f796m5C9+zehfnz5mRUub1efdzT7D7Ta4ANSIAESIAESMBXBCgA+opkGPQjf4QePXoKXy1YgSU/rMfRoyddvJa7/O5ufCtaP9AQFSqUdLlMXf6IloyimaNwIiMjUaVyGeT8974lb1FKhsbNW/YqmQklIuPw0ZNuRQ8KgN4St3f7S5evYveeQ0hLTXMxtGR8EXhz/6QRz+UFfv+Bv7Hily3Kmty964CuiC62yBG6xo1qomb1CihcOJ9PX5ide+O7peuwavU23Zc25z5u1vR25S40uePTXyXQ+1XmY9++I8odiT+v2Kz5HJOX6MpVyqHZvbeh6T11FBGUxX8EnHPy3ffr8NuG3fj9j8PKd4TMQ8UKpZS7Ku9repty76LcZ+brImtwzdqdSnKQjZt+d4lIFAGndq1KaNm8Hu5qXAt5crsmxpDvwyNZvhOLFi1g6a5ILf9EbNm1+yCWrdisiEFHjpxwK7pYEQBlXOdczPniZyW60pnEK7NNcv+i3J3aqkV9xMcXdpkTrWeu3OdYuXJZREeby57r67n2tj/n81zuR/1p2UZI5KRWEcFL7oZs1bI+brutiuaaMWuLrNN1v+3Ggq9/wZ4//sp4dslYcmemfG/ce3cdr34sMmuT1JdkUctXbMLiJWuxY+eBjL+35Hvk5ptKKz8e+YpBVvvs9P2qxe6X5T9j1crr1940vb856txezwpmtiEBEiABEiABnxCgAOgTjOHZiUSzJCQkZjjPZBrhuQ7otTkCIqRfunQVqampGQ0djgjkyZMz4BmrRVS4fDkB6enXxFGxI1euOL8KfuZo+b+2FoPsmAv/e8oRjBAQQeHixSuqPRHO60ESWiT/m+FX+OXKlSPoRTwj68BoHa3nOf8WMkrP9/Xs9f2ajC9mz8KB/X8qjkZFRePRdu1Rpmw53zvOHkmABEiABEjAIAEKgAZBsRoJkAAJkAAJkAAJkAAJkAAJeCLwz/HjmPX5Jxl3ARYrUQLtOjyNuByuEcSe+uLnJEACJEACJOArAhQAfUWS/ZAACZAACZAACZAACZAACYQ1gbTUVCz6ej527diewaFeg4Zock/TsOZC50mABEiABLKfAAXA7J8DWkACJEACJEACJEACJEACJBACBET4+2bhAqSmpCjeFChYEE90eBr58ucPAe/oAgmQAAmQQDAToAAYzLNH20mABEiABEhAh4Bkf+7Wa7TlLNRWwFpNPmFlLLYJfgILFv6iZLcNVDGTATdQNnGc0CGgZJvfvg2Lv1mYIf5FRkXhgdZtUKXaLaHjKD0hARIgARIIWgIUAIN26mg4CZAACZAACegToADI1WF3AhQA7T5DtM8ogeTkZCz76Qds3vAb0tKcibUcaNi4CRrc2cgvGcyN2sZ6JEACJEACJOAkQAGQa4EESIAESIAEQpAABcAQnNQQc4kCYIhNaBi6I/f97dy5HSuX/YwL589nEHA4HKhbvwEa33U3IiIjw5AMXSYBEiABErAjAQqAdpwV2kQCJEACJEACJEACJEACJGBrApcuXcSMj6fjzJnTGXbGxcbh3ubNUe2WGoz8s/Xs0TgSIAESCD8CFADDb87pMQmQAAmQAAmQAAmQAAmQgA8IyNHftatXISIiAjdWvAlN72vOhB8+4MouSIAESIAEfE+AAqDvmbJHEiABEiABEiABEiABEiCBMCBw7uxZbN+6BdVr3krhLwzmmy6SAAmQQDAToAAYzLNH20mABEiABEiABEiABEiABEiABEiABEiABEjAAwEKgFwiJEACJEACJEACJEACJEACJEACJEACJEACJBDCBCgAhvDk0jUSIAESIAESIAESIAESIAESIAESIAESIAESoADINUACJEACJEACJEACJEACJEACJEACJEACJEACIUyAAmAITy5dIwESIAESIAESIAESIAESIAESIAESIAESIAEKgFwDJEACJEACJEACJEACJEACJEACJEACJEACJBDCBCgAhvDk0jUSIAESIAESIAESIAESIAESIAESIAESIAESoADINUACJEACJEACJEACJEACJEACJEACJEACJEACIUyAAmAITy5dIwESIAESIAESIAESIAESIAESIAESIAESIAEKgFwDJEACJEACJEACJEACJEACJEACJEACJEACJBDCBCgAhvDk0jUSIAESIAESIAESIAESIAESIAESIAESIAESoADINUACJEACJEACJEACJEACJEACJEACJEACJEACIUyAAmAITy5dIwESIAESIAESIAESIAESIAESIAESIAESIAEKgFwDJEACJEACJEACJEACJEACJEACJEACJEACJBDCBCgAhvDk0jUSIAESIAESIAESIAESIAESIAESIAESIAESoADINUACJEACJEACJEACJEACJEACJEACJEACJEACIUyAAmAITy5dIwESIAESIAESIAESIAESIAESIAESIAESIAEKgFwDJEACJEACJEACJEACJEACJEACJEACJEACJBDCBCgAhvDk0jUSIAESIAESIAESIAESIAESIAESIAESIAESoADINUACJEACJEACJEACJEACJEACJEACJEACJEACIUyAAmAITy5dIwESIAESIAESIAESIAESIAESIAESIAESIAEKgFwDJEACJEACJEACJEACJEACJEACJEACJEACJBDCBCgAhvDk0jUSIAESIAESIAESIAESIAESIAESIAESIAESoADINRASBP7++xR69B2LvXsPZ/gTExONjya9gho1KoSEj3SCBDwRWLDwF7wx+H+eqqk+f2vQM2jT+k5TbViZBEiABLISiDqyATGbZsCRlpzxUVruokhs2BNpcfkIjARIgARIgARIgARIIJsJUADM5gng8L4hsP/A3+jSYySOHTut6nDalAGoU7uSbwZhLyRgcwIUAG0+QTSPBEKYAAXAEJ5cukYCJEACJEACJBASBCgAhsQ0Zq8TaWnp2LfvCKZ8tBDtn2iKWrfeFHCDKAAGHDkHtCEBCoA2nBSaRAIGCUScO4K4NePgSLqc0UIvgi5246eIOrxe1XNSldZIvqmZwdF8Xy2cBMDIMwcQvfsbID0NCQ17+h6mTXs0uu7MrGWbukqzSIAESIAESCAkCVAADMlpDYxTiYlJWL1mOyZOWYC9+44og2ZXxB0FwMDMOUexNwEKgPaeH1pHAu4ImBFNjAoxgSQe6gKgIy0FUYd/Q/QfS+G4LKcN0pFaqDwS7uwTSMzZOpbRdWdmLWerQxycBEiABEiABMKMAAXAMJtwX7o7evw8TP94sapLCoC+JMy+SMAcgYSEJCQkJOo2+m7pOrw/bIbqc94BaI4xa5OAvwiYEU2MCjH+slWr31AXAKP/+B4xuxaqXKcACGhFnppZy4FcoxyLBEiABEiABMKdAAXAcF8BXvhvJwGQSUC8mEg2DRsCWhGCFADDZvrpqM0JmBFNKAAGfjIpAAJG152ZtRz4meSIJEACJEACJBC+BCgAhu/ce+25nQRAr51hByQQBgQoAIbBJNPFoCVgRjQxKsQEEgYjAANJO3vGMrruzKzl7PGEo5IACZAACZBAeBKgABie8+4TrykA+gQjOyGBgBGgABgw1ByIBEwTMCOaGBViTBvhRQMKgF7AC5KmRtedmbUcJK7TTBIgARIgARIICQIUAENiGrPHCQqA2cOdo5KAVQIUAK2SYzsS8D8BM6KJUSHG/1ZfH4ECYCBpZ89YRtedmbWcPZ5wVBIgARIgARIITwIUAMNz3n3iNQVAn2BkJyQQMAIUAAOGmgORgGkCZkQTo0KMaSO8aEAB0At4QdLU6Lozs5aDxHWaSQIkQAIkQAIhQYACYEhMY/Y4QQEwe7hzVBKwSoACoFVybEcC/idgRjQxKsT43+rrI1AADCTt7BnL6Lozs5azxxOOSgIkQAIkQALhSYACYHjOu0+8pgB4DWNycgr+2HcEp0+fR1RkJPLlz42bKpREdHSUC+eUlFQc+usf/PPPGaSkpiIuLgblypRA4cL54HA4fDIv0klaWjrOnruIAweOITU1FVcTEpEjLhaOCAdKlyqGwoXyISoq0mfjBUNHCQlJOHnyHP4+dkox18lE/v+GEoVRvHhBzTnzhW9Z5yMxKVlZK5GREcrYRYrkV9aCvwsFQHvuV+e8yzo5eeocDv11HCnJqcozIjYmGoUK50OZUsX8tj79ve7YvxTy2y0AACAASURBVDECZkQTo0KMsZH1a0UknEfEsW2ISLwIpCQCUbFIj86B1GJVkJa7mKqhvwRAR1oKHBeOI/L0XjiSrwJpqUhHGhwR0cr4aflLIi1/GaTF5fPWXbft7ZYF2JF0BZFn9kHWTWYmyvwUqYS0PCUAH/5dIXCMrjsza9mvk8bOSYAESIAESIAEVAQoAHJBaBI4d+4iuvUaje079vuNUKeOLdCr2yOm+t+w8Xc8++L7httMmzIAdWpXMlxfq2JWFiVKFMLEsX1QtkwJLPl+HUaMmo1Tp8+rmhYvVhB9ej2GZvfepgh76enp2LT5D7z3wefYu++IyzBN7qqF/n3bQfq2WkQ82LfvCGbP+wk//LQBFy5c1u0qb95caPtwYzz6cBPccENhq0Pavp3M3eIla7HomzXYteegW3tjYqJR/45qaPtQY9S9rTJiY70X5P7++xTmfrUMX361wu18REdF4taaFdHp6Za4/bbKfhNnAyUAau1TK/td6zl0S7XyGD+6F/Lnz2Po2ZXd+1WE57fema6sQ2eRNfbfVzpkCHpXrybii/kr8PmMpTj+zxlNv2R9PvxgIzzTqSWKFS1g+71HA80TMCOaGBVizFsBiOAW/ecyRB1YBccVWY/pGt04kJ6zIJIqNkVK2QaK0OQrAVDGjzixB1GH1iDi7CFEJF4A0rVsUJuVHpsbKcWqIfnmlkjPaX6PxP0yEpGn/fc3T3pMLiTU764IllaLI+E8ovf9hKjDv8GReElnbv7tPSoOKSVqIKnyA5Z4aNlodN2ZWctWWbAdCZAACZAACZCAeQIUAM0zC4sWFACvT7MWCxEWj/59Am8P+QTJKamaa0JEnTde74RWLRtg3W+70K//RLcikAiV7w95CUUK5ze9xo4cOYnho2dj2fJNptqKjc8/1xpPtb8POXLEmmpr58oiqMyY/QOmTF2IpKRk06aKgPv8s63QqmV9S0LgpctXMXHyfMyd97Pu+tAzqtatN+Hlvk+gys1lTdvtqUE4CoDCJDv3q5YA2OL+enjjtU5K1OeOXQcw6M1p+HP/UU/Tp3wu0btDBj+PurdX8WnUsKHBWcmvBMyIJkaFGLMGR57+E7GbPoPj8rVIac/FgbTCFZFw+7OIPLEbMZtmwJF2/ZmblrsoEhv2NBSd50i6jJjNMxD5z25VH55tUNdIj4hEanwdJNZ4VIlYNFrsLAAqouzuxYjevxxITTLqklIvPSIaKRWaIPnmFkiPcD2ZYKYzo+vOzFo2Mz7rkgAJkAAJkAAJeEeAAqB3/EK2NQXA61OrxUIi+9au3+VW0JMebiwfjwGvtMeI0XOwZ88hj+ulW5eH8VynBwy/2EvU33dL1+L9YTM82uJu8Lsa34o3XuuIggXyerTR7hXMCip6/jgjx8qXu8GUyxLB9ebb0/Hr2h2m2mWuLBGaA/s/ifua3W54LRgZLFwFwOzcr1oCoDOK8fe9h/Hqax+6RBB7mktZH6OGdfc6utnTOPw8sATMiCZGhRgzHkQe3YzYrbMgR0vNltTCFZFSui5itsyxLABq+W/Wjsz10/IUR2K9F5GWq4ihbuwqAEZcPonY9f9DxPnDhvzQruRAavGqSKjTyZQomrUvo+vOzFr2wik2JQESIAESIAESMEmAAqBJYOFSnQLg9Zl2x0JexEvFF4EjIgLHj5/WfJEXUe3M2QtKhxK9U7z4tWO+WvWrVi6LMSN7KnfCeSpyn+CX81dg2IiZulFm8fFFUCDTUUk9G2UsiVR8tX8H5MwZ52lo234ukZaeBJVyZUsgV64cGT4kJibh4MFjLgytCIByf9uAgZMhR2C1Sub1Ip/LPY1Hj57UrTt8aBfUva2Kz3iHqwDoBJgd+1VLAKxUqTRe6dMO7w79TBX5l/n5oPeMcPpyR71qGDrkJeTLl8tn64MdZS8BM6KJUSHGqEdy9DV2/VQ45K4/jSJRdRnRdOmAIzVBLpvNVNOB1ELlEHH2sN8EQJUN/47sEBvkbkLNY8pQ7ilMqN8F6Tk9X69hRwEw4vwRxK6fBhEBtYvj2r2MERHXPk5PhyMlQefItAMppW5HYq0Olu8GNLruzKxlo2uU9UiABEiABEiABLwnQAHQe4Yh2YNEll28eAXp6Zn/wFe7OuWjRZg5+wfVP44d2RM1qt9oiEl0TDRymRSbJOHG5ctXNfvXsscfdwA6B5cju0MGvwA5LiolOSkFH05biA+nLdK0r+NTzdHlxTYZR0rlmKgIAN8u/jWjvhzJnTzhZUORPYu+XY233p7uIlzJXWHPdmqJ/zx8lyI4Zi5yF+HRo6fw8WffYcHXK13avvT8g8rR12BMELJv/1H06TdeSaCQtUjE1bOdHlDu9tMSOEVM/fPPo8qx4cXf/apwMSsASh8jx8zBjFnqPSG2yLHezi+2Qa2aN6nYepqPMqWLY8zIHhDR0hclnAXA7NqvWgKg/CggiT327r0W0SN3gHZ5oQ0qVCiJiIjryYDkObxj534MHT5T+W/mIs+KD97rjLub1PbF0vBrHykpyUi4qv3c9tfAUVHRiMtxXej31zi+7NeMaGJUiDFkX0oicqwag4hzf7lUT89RQDk6mlLqNvXx0ZRERP+xBDF/rnB7JNXMEWAX/yNjkFagLFJK347UopV1jxFLxGLUwV8QLXcWXj3r4oPYnljrKY+il+Py6WtJRnRK1NHfEL33J9WnaflLI7FmO0OYERGB9NxFDR/DlQQssavHIeKi63caImOQXLY+kis2RXrW5CcyN38uU44LX7snMFOJiEDSTfcrc2qlGF13ZtayFTvYhgRIgARIgARIwBoBCoDWuLEVALtlAfaXPVoRgCJcThrXFzVqVFCthfPnL+Pl/hOwbsNu1b/rRfaJANC5x0glO62zDBrYUUlE4a4cOHgMPfuMdRG7qlUtj7feeAYVyse7bS/C069rd6L/wMmqo8MSITVhTG9Uv8WYiGuXjSDcxZesx25FJOnW+WG0f6IZomOM3X301+F/8M6QT/DX0RNKshejR4Al+rB333G4fCVBhaVlizvwav8nkTtT1GFWbiL0LPp2Fd557zOXOwvbP9EUfXo+5hNRNlwFwOzcr1oCYOb5f+HZVnjh2dZu16deZGnWZCJ22Y9Z7dizexfmz5sTUPMqV62GNm3NJZkKqIE2Gix638+I2bkAyPKDX2rBcki8/TlXgSmT7ZEnf0fsho91IwdNC4C/jkd6bF6k3NjEVXT0xCwlEXFrJyPy1F5VzfTonEis+wJSC6u/rz11l/XzQGcBjtn0OaL/WucS3ZiWrxQSb3/G49FmuVNRojojT+1TuSLZkhPrd0VaXnPXW5jlxfokQAIkQAIkQAL2I0AB0H5zEjQW+UtwswrAX/ZoCYA1a1SERDtmPX4nwtqosXPxyWdLVG488di96Nf7cRcRR6Is+w2YiLXrdmbU95QtVSINh46YgXlfLleNIdFiI4d38yj+ORuJrQu/WeWSyKRN6zvx2oCnDAtmVufLl+3mzPtZiabMXET8G/jfp/BgqztVUVVGxpVjwZ/OWIp7mtQ2JADqiTxmErvIfEz/ZDHGjP9CZaIcB580tg8qVixlxHS3dcJVAMzO/epOALz/vrp4Y2BHQ8fuV67aij79xqmiduUo8fhRvVDU5lmBKQB6vXX91oGIRHG/jEbExWOWRaKow+sQs3m2ZuIOMwKg2OK4choSVWe1RFw6gbg1E5R+Mpekm5oiucqDVrtV2gVSAIw6th2xGz8B5DhvpmLmSLM0Ew5xayYi4tI/qn5SyjVEYo3HveLBxiRAAiRAAiRAAsFHgAJg8M2ZbSz2l+Bm1UF/2aMlAGbO4pnVXrmXb/CQj1X/rBfVJxlqBw/5BHKc11nc9S11du85hO69R6uiBiXCafjQrqh/RzVT+C5euorX3/xIlT3Y7NFXUwP6obJET/bsMwY7dx9U9f5I27vQv297y0KmCHLp6TAkHkqCl87dR2bc9ai8LEZFYuTw7mjUsIZhr0+dPo9X/jsJGzep7xA0mxxGb8BwFQCzc7/qCYBmo23Pnr2IHn3HYtu269E8su8nT3wZ1auVN7zGsqMiBcDsoG5szKgjG1wy9wIOJFW8B8lV2xjrJD0dcWsnIfKfXS71zQiAxgbzXCtm6zxEH1ihqijRfwkNe3lu7KZGwATA9HTl3r+oY1tU1qTH5kbi7c8jtZC5CP2og6sRs30eHKkpGf1lx7x4BZ+NSYAESIAESIAEfEKAAqBPMIZnJ/4S3KzS9Jc9WgKguyi9bxavwcBBU1VuiDjX9J46mq5ltVsyv771+jPIkSPWpb6IUuMmfIlpH3+r+sybqL0lS9cpx2czl7cGPQPpMxjKDz9tQL/+E1Sm+jJqzggDuffvgxEzVVXr1qmMYUO7mk7SoBXNWK9uVQx/vwvy5MlpxBzdOuEqAGbXfpWJ0BMAJbr0nbeeMxT9J/3IHZPDR83GrDk/quZ33OhepkRmrxaQxcYUAC2CC0AzrTvd5AhughwRzef+KonM5kX9tRYxW2erRCb5PDuEpqjDvyFm80zLyUj0sAdKAJS7GJUoxqTLKlOsRu1pRXmmR0QjqVZ7pJTU/rskAEuPQ5AACZAACZAACWQDAQqA2QA9VIb0l+BmlY+/7DErAEoG2GdffF/lhrtkJFntloQV40f3Qv5M2XudnWlFAUmkmWQOblD/Fkvo9h/4G116jMSxY9ePTAXL3WKSFOa9Dz5XsiFnLnpHri0B8tBIK4pTmnTv2hbPdXrA9JBa0YSSaGbCuD6Gj3frDUoB0JWMP/erjKYnAL7Stx3kfkcz5aPp3yg/AGQuwSTWm/GVdQNAIDUJOeT4b5bkHxJhpkTLOa4npPFkjePqOcRJIpEs2WqzQwDUSkCRHpcXCQ16IC1PcU+u6H4eKAEw+o+liNn1jeruP2/vMdQSepPLNUZSDd6TaXlBsCEJkAAJkAAJBCEBCoBBOGl2MdlfgptV//xlj5YA6O7l3aygMGHSV6rMwe4EwG079uOlLsNUiSa8vQdMEmj06DMGW7Zevzhd7840q3Pjr3Znzl5Atx6jXI7/BjIqSs+GDye9jLq3VTHtutZ8SCe+8ClcBcDs2q/uBEAr6yNQ82d60bJBUBKQ7LJxq8fCkXBBZb/V+/Ikai3yhDoBlm0EwJhcSKjfHWn5S1qeq0AJgJoc85fG1Tt7QbL/WimSvVhJ9IL0jOa+OBZtxRa2IQESIAESIAESyD4CFACzj33Qj+wvwc0qGH/ZoyUAuou6MSsAZn2pdycAah0vdndk2AhLrQglyXwrUYjx8UWMdJFtdfbtP4qu3Ufi+D9nMmzwVbScUae0Iii9sUEvotBKxFhWHwIlIGntAU/JbbR4a+09d/tD+rDTftUTAK3e3Reo+TO69lkvuAlEnNqLHOs+BJKvZjiSHhGJpOqPIqVsA9POxWyegehDv6raeSsAOpKuQI4XR/6zU0lk4UhOAFISXTLjejI2PUgEQEfixWtJWbIm7ShVB4m1O3pyU/dzrbseJQuwRHqmx3h3tYRlo9iQBEiABEiABEgg4AQoAAYceegM6C/BzSohf9ljJ0Eha7SgsGr3eFO8+Fwrq9iQkJiMYSNm4cefN2T0ESyJQLSEJk8CkWVQOg21bKhauSzGj+2NggXyWhpOay1bEdAoAF4jkF2CvZ4AaHV/UQC0tJ3YSIeAlijkzd1wWhFyVgVASSgSs3shIs4fhZKNycsSLAKg+Bu3ZhwciZdUHidXvAcp8bdZphB5+g9E71zk83sRLRvEhiRAAiRAAiRAAtlCgAJgtmAPjUH9JbhZpeMve+wkAGr5aJWXu3ZWI5T8YYu7PrUEEU9ZlH1toz9ESK2kIr64lzFQAhIjAK+vMq0IWwqAvt6F7M8KAa1jod4IZUq22W1z4UhLzTDHrAAoCStiN32mRPz5QvhzGuKNX84+AnEEWOv+Qitza6SNL+5FNDIO65AACZAACZAACdiHAAVA+8xF0FniL8HNKgh/2WMXAVDvaKhVXp7auUtc4qltoD4PVQHQX35RAHRdmf48si+jUQAM1NOA45gloCVoeSOUaR4zzV0UiQ17Ii0un0fzHAnnEbv+I0SeOeCxrtkK3vgVSAEw8u/NiNv4GZCaZNZF0/V9wcT0oGxAAiRAAiRAAiSQrQQoAGYr/uAe3F+Cm1Uq/rLHLgKgXjZRq7w8taMA6InQtc/X/LoDnbuPUFW+q/GtePftFyCRlFYKBcBr1EL1DsBwiwBMSUlGwtXr98xZ2RNm20RFRSMuRw6zzcKqvq0EwPR0xK2dBDn6q1XkbsL0vPFILVQeabmLIa1AOd25clw5idjNs+BIvpJRxxdiVyAiALVEVH8tSl8w8Zdt7JcESIAESIAESMA/BCgA+odrWPTqL8HNKjx/2WMXATA5OQXvffA5vpy/wioiU+0oABrDpRVB5m0WZQqAFAC1Vl+gIjiNrXzjtfbs3oX58+YYb+CDmpWrVkObto/4oKfQ7cJOAqAk+ojZOhuO1BQ18MgYJN3YGMk33Q9ExRqaDK1jtL4QuwIhAEYe34G4DR8DKQmGfPWmki+YeDM+25IACZAACZAACQSeAAXAwDMPmRH9JbhZBeQve+wiAAoXLR/dJTiwyjJY2v3w0wb06z9BZa630XdmfffHHYBayV6efvJ+9O7xKBwOh1kTM+oHSkDiHYDXp4hHgAEKgJa3rF8bakabRefA1bovIK1wRdNjW04CItF/ayYg8uQe1ZjpsbmReGsHpBavZsqWiLOHlP6CMQJQU7yMiEZSrfZIKVnHFAdWJgESIAESIAESIIGsBCgAck1YJuAvwc2qQf6yx04CoFZyiHAWAP2Rgdfs+tu2Yz9e6jIMl69cj9ioVKk0xo/qhaJFC5jtDunp6Rg1di4++WyJqi2zAF/D4SnLs532q9hLAZACoOmHQIAaaN0351UW4N+/Q8zub1XWG0kCEnHxOOJWj4Uj4UKmtg4kVbwHyVXbmKahmd04JhcS6ndHWv6SpvtzNghEBKDj8inkEBZXzmTY6c2cWHaWDUmABEiABEiABEKSAAXAkJzWwDjlL8HNqvX+ssdOgsLKVVvRvddonwtDVplnd7tDfx1H1x6jcPjIiQxTChbIi0nj+uDmm8sExDxf23D1aiLeePt/WPr9epX9vhB6gy0CUIstBcD/+Xxd+HujMALQ34St9R9x/iji1oyDI/GSqoOkKq2RfFMz053GbvwYUYc3mBYANYVIRbDrirT8pU3b4evsxoEUACX5R45fRiPi3F8+mRPT8NiABEiABEiABEggpAlQAAzp6fWvc/4S3KxarWXPh5NeRt3bqljtUmlnJwFw3/6j6Np9JI7/cz06INBHXr2C6ePGFy9eQb8BE7F23c5sE0XOn7+MHn3GYMvWvSobhg/tiqb3mD+ydeLEWXTrPRq//65+AfTFWtYSAAcN7Ii2DzX26cxoRWbKGP99pQOio6MMj6UVXUkBMPgEQMMTzooBJeBIvIg4EZsu/aMaN6VUHSTW7mjOFh3hykgEYPT+5YjZ/hWQnpYxppF2egbGrvsQUce2qT/24mhzQAVAAFpCakqJ6kis+4K5OWFtEiABEiABEiABEshCgAIgl4RlAnYTAP11PNZOAqCW4FWkSH5MGtsHFSuWsjyXwdpQjsuOm/Alpn2sPnZ2T5PaeOet55DTYhZeMzxSUlIxfNRszJrzo6rZU+3vQ8/ujyAqKtJMdxDx7KWuw5CckprRrlTJopgwtjfKlC5uqq+sldf9tgsvdB6m+mdf3C2YdRxfCdVagiUFQAqAXm0CNlYR0BLL0vKUQMKdvSBJIowWiVhT7t1LuqxqYkTIs3x3oIZxjiunrx2hvXxa9akvjtEG4giwGK0liKbnKoSrDXogPWcho1MSVvXS0tKwa8d2rFq5AufOnlHuyi1WvASaNG2GMmXKhhULOksCJEACJEAC7ghQAOT6sExASwAcN7oXGjWsYblPbxp+s3gNBg6aquqie9e2eK7TA950a6sIQHFkzryf8e7Qz1Q+vfBsK7z4/IOmxSavwNik8dat+9C5+wjVHXy5csZh1IjuXkd/GnVRS6iqWrksxozsCRFojRYRE8eMm4dPZyxVNfGVoLlnzyF07j4SZ85ev2vLHxGkR4+eRLdeo7H/wN8ZfpQvdwPGj+6F+PgihnBcuZKA1974CD8t26iqTwGQAqChBcRKhghoiU2IjEHibR2RUry6oT6kUsyuRRCBDEhXtTEiAEYdXI2YbXPhSLv+o0dariJIaNgT6TmMPz9l4Gi5h3DPd6poQvl3fwmAckT56p29IMx8VTRFTEcEkm5ujuRKzX01TMj0k5aaisWLFmL7ti0uPkVGReGB1m1QpdotIeMvHSEBEiABEiABbwhQAPSGXpi3/Wj6N0r0VebiC8HNKtbNW/bi+ZeGqiKnfCFu2CkCUNgcPnwCXXuOgtyP5ix58+bC8KFdAiZ4WZ0jf7TTE4rq1K6E94e8hCKFzb1AOm2U6ML0dCAiwnPWXa05kX4GvNwejz96j+HMvSKYdekxEseOqaNXXu3/JB575G6v8Z09exE9+o7Ftm37MvoSsXTSuL6oUaOC1/07O5CEKK++/iGWr9is6nP0iB5o0vhWQ+Os+XWHkuE5c3IVaUgBkAKgoQXESoYIaCfgAFILV0DCHV0MCVsRl05ci/67on5uiQFGBECtOwCtiJARF/5G7JoJiEg47+K7TwRAjaPK6XF5kdCgB9LyeBedndXg2K2zEXVgleqf02PzIPH255FaqLyhuQ2XSof/OoQ5Mz5HcnKSpsuFChdBu6c6Infu3OGChH6SAAmQAAmQgC4BCoBcHJYJ/PDTBuUFPXOpW6cyhg3tinz5jB8dsmxAloZad6f5QtywmwAowtT0TxZjzPgvVATkeOiIoV28Ogp86vR5LFm6Do0b1YQcOw2WIslR+vQbpxJ/xfaWLe6AiGe5c+Uw5UpiYhI+n/UD7r6rFsqVLeGxrV7kXokShTB+dG9UuDHeYx8iZL479HMs+na1y7xOGNMbpUp5Px96dnorlmZ1Tu9o9h31qmHokJc8Ph9OnjqHAQMnK8ehsxYKgBQAPW4mVjBFIHbjp4g6rE46hIgIJN10P5JvbuG+r/R0xG6S9r9p1jMiAGplvpXOUotVQUK9zoDD848wjoTziF3/ESLPHNCx14Gkqm2QXPEeU2wyV448vgNxGz4GUq5nfIdE5km/Fbz/gSbzWHpiZlruYki84yVIhKSV4khLUeYq4vg2JNVsBxEVg71sWL8WPyz5Tv9Fx+FAy9ZtcEuNmsHuKu0nARIgARIgAa8JUAD0GmH4drB372F07jESJ0+eU0GQ46gvPNsa0THGL/v3BUV34saQwS+geLGCloaxmwAoTugJJIUL5UOPbm3R4r47DPNPTk7Blm37IHcorlq1FYWL5MfEsX0gRzaDpSQnpWDoiBmY9+VyF5NFlH5t4NMoXaqYR3fS0tKxY+d+jBo7F8eOnzbFYfeeQ+jee7TLfrixfDwGv/ksqlUppzv+pctXlWja2XN/cqnTs9t/0OnpFoajCD05uW37n0oE6YUL6ru6at16E1564UHUqnmTqUQdeuOtXrMdPfuMcRFlJSJSIoX1RNm/Dv+D19+c5pJUxTkOBUAKgJ7WOD83RyDi7CHErZ0CR+L1qwGkB4maS775fiRXbKYpwsl9f7FbZiPybzl6qT7667TAiAAodePWT4NEAqpKRASSS9VDco1HkR6h//dExNmDiN34mTqZiSPC5RhwcrnGSKrxiDk4mWrr3i8okXl1OiK1SCXLfWs1jN6zGDF/LAHSridHUeYlNjeSbm6BlLJ3GhJHpY1kfI7e9zOijm1VBEyj8+JTh/zU2a+rf8Hyn9R38GYdqlr16mjVpq2fLGC3JEACJEACJBA8BCgABs9c2c5SvaOXYqi8pD/cpjEqVSqN+BLal1ZHx0RDIvR8WfREGBH/Oj7VHA3rV0eePK7RYA5HBHLlitO8Q8+OAqAwk0QLffqNVx0FdrIUf+XIaKNGNVGieCEVZzlSeeb0BezafRArVm3BL6u2qcQgiVoLNgFQ/HYXNRYdFYmGDWvg4TaNULVKORTInyfjaG9CQpIi2q1dvwtfzV+BXXsOKhjNcpCoNxHw3h82w2VJx8REo90TTfHA/fVQtmwJRWATsfHsuYtYtXorpk77BoePnHBpJ+Ll+++9hIIF8vpsm4hQPnXaIkye+rXpPqdNGQCJFjRSJDty/4GT8evaHS7VJbr06Seb49ZbK6JwwbyKSCh794cff8OS79cjKSlZaSN79sCBv7Hil60ZfVAApABoZP2xjjkCemKT9JIWlw+pJWoitcQtSI/JjYiLxxD5zw5EHd+pjoaLzoH01CT1XX65iyKxYU+lD3cl8uTvSgSfI/mqS7X0HAWQXK4hUuLrQJJhSJFjvpEndiPy0BpEnj2oEskkUUZq3nhEHVdnAk4tWhkJ9buaA5OltqZQqYilkUgrWB6pRW5CWuFKSNe6EzAiAum5i7oVM1XDKdGVn/8bnekqsIoQmHrDrUgpUQNyF2F6TE6luUT5OS6dQMTpP68xOnMAjsRLKpE2lATAP/ftxZdzZiE19fodklknuVz5G/Gfx59AVFS0V/PPxiRAAiRAAiQQ7AQoAAb7DGaz/XpHL42Y1aljC/TqZv3XeK0xRNyQuwknTVlgxISMOu7EHrsKgGL8ps1/4NVBH7rcGWfK+SyVzQpf3ozl67bH/zmDgYM+1Dw6anYsKxxEFP9gxCzM/3ql2eFc6suR7pHDu6FCec/Hh80Opnfc2FM/ZgRA6UuyDvfrP9El2tDTOPJ5q5YN0LfXYxgxeo7qWDQFQAqARtYP65gk4EFs8tSbHCVNrtIa0Tvmw5F8JaO6GaEpdutcRB34RTea0JMN8rmIYom3dkDElVOI2f6VKgowLe8NSGgo2Y2vCWVWijuh0lN/klU5hwtw+QAAIABJREFUoX53pOUv6anq9c9TEhG3YToiRWzVibI03tn1mmbmxUr/gWzjLgmI046SpUrj0XYdEBsbG0jTOBYJkAAJkAAJ2I4ABUDbTUlwGeQU3D6atsjlqJ8nT/whAMqYVkSYYBUAxV85MvnOkE+wbsNuT8gNfS7RWRPG9oYIUMFYzp+7hIlTFuDL+ctNr8nM/loRAKW93B84ZepCfPr5EsvjV6taHkMGP4+yZfw3B+6OHevNu1kBUJ4PcrR83IQvTLGQuwLffvNZJYFL1mzjFAApAAbjcykYbJbIsZjNsxB1ZD2UDEhGi2QNrvkEUguWQ47VY+G4ciajpRmh6dr4MxB1eIMlsSs9Z0Ek1n4aqYVuRMS5v64lJkm6ftVBenROJQIwrUAZo55p1pNMw9G/L1FFOhrp0JIA+G9EX/TOrxF1YKXpMfXskrsEE+7sFRJ3AIqPycnJ2PTbeqxftxaXLqqPssvnFACNrFDWIQESIAESCAcCFADDYZb97KMcZfz+h/XKvWkSgWW0+EsAVP4YTErBzLk/YvzErzKOE7qzK5gFQKe/Py7bgAmT5mseJTUyJ1VuLovHH7sbdzepgzy5zSXNMNJ/IOvImty4+XdMnbrQtDAqx4UbN7oVnV9sgxvL32Dp7j0Zf82v25XjwFpHe/VYyFHhF59vjfaPN0WOHP6PVBA75cjz3Hk/Y9mKzR4j9cwKgOKnjLHk+3UYMWo2JMmMu6Ll/5fzV2DwkI8zmlEApAAYyGdJOI4l2Wdj9ix2uRNQi4Uct02s+TjkeK0j8SLifhmtuovPjACo9J+ejpg93yr31SFVO6trVjvk+G1qfB0k3fIwRGRTSmoScogt5/66Xt2HCTskkUaMRDtmuTfR3XqxKgA6+5S7DmXMyDP7zQm0zg4cDsh8JZepj+TyjYEo/3/HZNf+OXr0COZ+/hkSEq8lbKlwUyU8/MhjiIyMzC6TOC4JkAAJkAAJ2IIABUBbTENoGCHRPnKvnAgJcjT1yJETbl/4/SkAOomK4PDjzxuwYuUW7Nh5QFfgsBrtZbeZyzwHv6zeBknUolcku229ulVR/45qqHFLBY+ZWe3mqxF75F6+48fP4MdlG/H9j79h964DmpFoIjzVrlUJze+7HQ3qV4ckU/FFkfnYsnWfcoR11eptmvsh89iN76yJ/PmzJyujsLp06arbe5Ry5cphOUHIxUtXsXzFJiz9fr1y359TDBTWNapXwD1310ajO2sGvfjsi3XDPkgguwk4s8VG/vUrIi7+c+1YrxIV6EC63PWXrySSy9ZHSnxtw4kozPgkWX2j9/2EyCMbESEiW9aIRIcDabF5FeEx5aZmSlKLrEWy9kZmFgDlB4k8xa7Z7IuSno7Ik3uUY8syjnJ/YUqibs/eCoDOjiMunVCiASP/2Q3HlVP6UYEi+MXkQlq+UkgtXhUpJW/36vizL5AFqo/dO7ZjwVdfZAxXs3YdNG/ZKlDDcxwSIAESIAESsC0BCoC2nRoaRgLeE5Doq4sXryA9/XoWQfkFPHfuHJYi27y3KPt7kCQoyf8mmRBr/JGMRs9Lybh8+fL1S+7DfS6yfzXQAhIgAbsTcCa1yMiGazaZht0d9NI+R9IV1bFrpbu4PB4Tr3g5rK2bf/ftImzZKEfJr5WWrR9E9Zq1bG0zjSMBEiABEiCBQBCgABgIyhyDBEiABEiABEiABEiABEjArwQuXbqIGR9Px5kzp5VxcufOgw4dO6FAwWsZpFlIgARIgARIIJwJUAAM59mn7yRAAiRAAiRAAiRAAiQQAgTkKovVK5fjlxXLM7ypdHNlPNj2Ed7/FwLzSxdIgARIgAS8J0AB0HuG7IEESIAESIAESIAESIAESCAbCRw9fBjz5szE1StXFCviYuPwaIcnER9fMhut4tAkQAIkQAIkYB8CFADtMxe0hARsT2D/gb/RpcdIHDt27WhNIMpbg55Bm9Z3BmIojkECJEACJEACJBCEBP46dAhfzZudIf45HA40bNwEDe5sFLZ3HgfhNNJkEiABEiABPxOgAOhnwOyeBEKJAAXAUJpN+kICJEACJEACwU0gLS0N69f+ilUrliE5OTnDmVuq10SLVq0RERkZ3A7SehIgARIgARLwIQEKgD6Eya5IINQJUAAM9RmmfyRAAiRAAiRgfwIi/B08sB/LfvgeJ078ozK4cpWq+D/27jswimr/+/g3QEghobfQQRCRrlxBQIqoIEgRpGNBQXpVxM4FwQtXQTp2QHpRUARElCbVSwcFBekRld4TQsjznPW3624yuzuzM7vZTd7z173smVNeZ2ZxP5yZ07RFS8mePSL4B0IPEUAAAQQQCKAAAWAAsWkKAQQQQAABBBBAAAEEzAmo1X6L582RY8eOOirKmi2b1K5bT2rXqcvKP3O8nI0AAgggkEEFCAAz6MQyLAQQQAABBBBAAAEEMqrAvj27ZflXS23DKxxXRJo1bykFChXKqMNlXAgggAACCJgWIAA0TUgFCCCAAAIIIIAAAgggEEgBtdvvjv9tk/J33S35CxZks49A4tMWAggggEBIChAAhuS00WkEEEAAAQQQQAABBBBAAAEEEEAAAQT0CRAA6nOiFAIIIIAAAggggAACCCCAAAIIIIAAAiEpQAAYktNGpxFAAAEEEEAAAQQQQAABBBBAAAEEENAnQACoz4lSCCCAAAIIIIAAAggggAACCCCAAAIIhKQAAWBIThudRgABBBBAAAEEEEAAAQQQQAABBBBAQJ8AAaA+J0ohgAACCCCAAAIIIIAAAggggAACCCAQkgIEgCE5bXQaAQQQQAABBBBAAAEEEEAAAQQQQAABfQIEgPqcKIUAAggggAACCCCAAAIIIIAAAggggEBIChAAhuS00WkEEEAAAQQQQAABBBBAAAEEEEAAAQT0CRAA6nOiFAIIIIAAAggggAACCCCAAAIIIIAAAiEpQAAYktNGpxFAAAEEEEAAAQQQQAABBBBAAAEEENAnQACoz4lSCCCAAAIIIIAAAggggAACCCCAAAIIhKQAAWBIThudRgABBBBAAAEEEEAAAQQQQAABBBBAQJ8AAaA+J0ohgAACCCCAAAIIIIAAAggggAACCCAQkgIEgCE5bXQaAQQQQAABBBBAAAEEEEAAAQQQQAABfQIEgPqcKIUAAggggAACCCCAAAIIIIAAAggggEBIChAAhuS00WkEEEAAAQQQQAABBBBAAAEEEEAAAQT0CRAA6nOiFAIIIIAAAggggAACCCCAAAIIIIAAAiEpQAAYktNGpxFAAAEEEEAAAQQQQAABBBBAAAEEENAnQACoz4lSbgSuXL0hQ1+dJps273OUCM+WVUb8u5s0bVILNwQQCKDA0q9+kGEjPjXU4vA3n5VWLR4wdA6FEcjoAjM+WynvTVzoMszHW9aTV4d2kezZwzP68BkfAggggAACCCCAQAYUIADMgJMayCFdvHhF+g4cL/v2H3FpllAhkLNAWwj8LUAAyJWAgDUC4ycvkukzVrhUpv5Ra9jrXSUyMrs1jVALAggggAACCCCAAAIBFCAADCB2RmyKADDtrKpVkd+s2ia//HpCXhzUgR+LGfHCD9IxEQAanxjuV+Nm/j4jGOaEANDfs0z9wShw8MDPsmTRgnTpWrHiJaRdpy4SERHhaD8+/pQsnD1LEhITDPUpPDxccsTESMGChaRUmTukfIUKEhMTa6gO58IbN6yTH9atdTk/Z65c8vSz3SQmNqfherWcIyMipV2XJ6Vo0WIe6/P3HJkZl2EITkAAAQQQCLgAAWDAyTNWgwSAf89nSkqKxMeflVlzVskXX26QmzeTbI9As1okY13vwT4aAkB9M8T9qs8pkKWCbU4IAAM5+7QVLAL+Dpc8jdPKAFCrndx58sgD9RvK3ZUqS5YsWQyREwAa4qIwAggggEAQCxAABvHkhELXCAD/nqUjR3+X3v3HyenT5xzTRgAYCldwxupjQsJNSUhIdDuolau2yeh35rh8nhkf1+d+Db7rPtjmhAAw+K4ReuR/gYwcANr1CheOk+aPt5H8BQroBiUA1E1FQQQQQACBIBcgAAzyCQr27rEJCAFgsF+j9O8fAa0VggSAf/sQ2KfvnRJsASCbgKTv9UDr6SOQGQJAJZsjOoe06dBJihbz/LitfRYIANPneqRVBBBAAAHrBQgArTelxkwoEGw/XjPhFDBkHQIEgAT2Oi6TdCnCd2i6sNMoAi4Ct24lScKNG4ZUfty6VbZt2eRyjnovXtsOHSUmJkZ3XVmyZJWo6GgJCwtznOPuHYA1768j99WqpVl3QmKinP49Xn47fEiOHDokiYnaq+Lz5MkrHbo8JerRYG9HsAeA6r2JzR9/QuLiCnsbivfPw7JIdHS04cekvVdMCQQQQACBYBAgAAyGWaAPIS/Aj9eQn8JMMQACQALAYL3Q+Q4N1pmhXwh4FrA6HHNuzV0A+ECDhlK3XgOvU5OUlCRbN2+SLZt+kORbt9KUL1f+Lmn9RDvJkjWrx7qsHqPVm4Do3UDEKxgFEEAAAQQyvAABYIafYgYYCAF+vAZCmTbMChAAEgCavYb8dT7fof6SpV4E/CtgdThmZQBor+vn/fvk66+WpgkBw8OzS/vOXaR4iZIEgP69TKgdAQQQQCBIBAgAg2Qi6EZoC/DjNbTnL7P0ngCQADBYr3W+Q4N1ZugXAp4FQiEAVLuMr/1udZpHldXIqt1bQx5t1pwAkAsdAQQQQCBTCBAAZoppZpD+FuDHq7+Fqd8KAQJAAkArriN/1MF3qD9UqRMB/wuEQgCoFP784w+ZN3um3Lh+3QVFbQTSrtOTEhkZ6RbL6jHyCLD/r0taQAABBBDQFiAA5MrIcAIJCTflt6O/y9Ur1yXxZpJky5pVsmcPlzvKFJHcuWNcXjBt1eCD7cfr7dspcuHiFTl69LQkJyfLjYREiYqMkLAsYVKieCHJny+XZMvm+Z03Vtlo1aM1R9nCs/q1b85t2j1iYqOlVMnCkiPa/X/4W+GQej7s12XWrFmkSFx+KVAgt0RGZreiKY91BEMAeO16gpz+45ycO3vJ1lf7XKj/reajRLGCEhMT5Zf71I7D/er3S81wA8E2J4YHYNEJaqXS2bOX5Ojx03L9eoJER0dK6ZJxkj9/Ls174tKla3Lo8Cm5fiPB9nddrtwxcmfZYhIens2iHv1djfr+PPX7Gdt9m5x8W24lJ0tE9nDbPRuI71BLB0NllgpYHY45d87sOwCd60pISJCFc2dJ/KlTLuOPzZlTnuraTXLmyuXWxeoxEgBaeglSGQIIIICAAQECQANYmbmo1o8zTx7D33xWWrV4wDKy7Tt+ked6jHbUpwKb96cOkSqVytj+TP1oOvjLCfng469k48Y9knQrWbPtcmWLSZ9ereWBOlUMBWBawYllgxORuLh8MnXiYClTuojP1aqQ6fDhUzJ/0fey+vvtcvnyNbd15cyZQ9q0ri/tWjeUIkXy+9ym/cTU86M1HtW/bT/+JJ/OWC67dh9yO0cqrG326P3SpdMjttDWeUfA1B1VP0qHj5wuK77Z6vioaZNaMuz1ro5A7dSpM/Lx9K9l+cotcvNmkuZY76l+pzz/XHOpeV9FyZLlnx0IzcL8/vtZWfjFWvn8i/Ue5yM8W1apXq2cdH26mdz3rwqGrk0jfUyPAFAFFDt2HpQ163bJlq375ey5v4M/T0fhQnmlVct60vKxOj5dn9yv3oQD/3kwzonW94cnmdTfLb4qprbo+kxTGdi3rZw5c1H+O3aufPvd/1yqVt8PjRrVkKEvdpK8eXLaPrt67YZ88OGXMn/RmjTfa+ofePr3fcL2PWrmH3quXL0ha9Zul/kL1sjPB495HK76Dn3myUeldq1KEp7d2vDRV2fOC4yA1eGYc6+tDABVvUs/XyQHftrvAqNnAw2rx0gAGJhrk1YQQAABBNIKEAByVegSCLYAUHX6kw9elhr3lpfExJvywUdfyWezv3EbKqUeZMvmdeWlFztJTI4oXeMPxh+vzh1XIde74+fL2nU7dY3HXkj9sOzerYU81bmxREVFGDrXuXDqANB5ftT/dvfD1lODqm8fvT/UFoy5O7R+wNeqWVHeHd3btops1bc/yqgxszyGb851P/LQv+SlFzrZVuSZOdSP86nvL5GFi9bovibt7akf0kNe6Ch331XKTBc0zw1kAPjj9gMy7YOlsnPXrz6PQ10DbR5vIL17tLKtbNJ7cL/qlQpcuWCck2AJAFWw2LvH4/LvkZ+K+i51d9SsUUFG/6enREZkl7fHzJZlyze5LavunTdee1paPFbX8GrapJu3ZMWqLTJx8ue6AnvnTlSqWEZeGdpFKlYoZbjdwF2NtGSlgNXhmHPfCADTzpSZ8NDKeacuBBBAAIHQFCAADM15C3ivgzEAVKsMVWDz37HzZMmXGwybqBDw1aHqvS/eH70Mxh+vasBqVd3KVVtl9DtzdIdcWlAN6leXYa8/41hdYhTTUwB47Pgf8tqbH8n+n44YrdYR8ro7UesHvPrhOXH8QNm0ea+8NWqm4QBO/YAdNaK77bE2X44//jwv/35rum21m6+HWqH52tAnpfEj91n6IzqQAeD4yYtk+owVvhK4nHdHmaIyZlQPKVeuuK76uF91MQW0UDDOSbAEgCVLFJaiRfPL5i3evzPUyj4VAKqVgt4OVe+UCYOkePGC3oo6Plf/WDNy9Geybv0u3eekLuiv7y+fO8SJfhUgAPx7Va6Rw0yIZ+ZcI32kLAIIIIBAxhQgAMyY82r5qIIxABwyuKPt0acJkxc7xqtWPZQqFScREX+Hemp14LFjpzVDIFX27ZE9bCGityMYf7zeupUsny9ZL++Mnes25CpatIDkyR3rGN4ff5xzu6KjebM68urQLrZ3Thk9tAJAFaLVvr+SvPzK+7Jt+wGXKtVjvmXKFLG9s8p+aPXNvsrTXX+0fsCrx4/VapqJUxbbVh7aj9RterJQK0tHj+opBfIbWwl45uxFefm1992u4lE/jIsXLSBhWbLYuqXe0xgff0ZzeKrsu2N6S81/3W10OtyWD5YAUGv+U27flpPxZ9wG2SrMGPduXylbpqhXD+5Xr0QBLxCMcxIsAaDzZJQuFSc5ckS5/bvL/r5S9S5N57/v3P1dp/6Rq33bB3XNt/ouevXNj2T3nkOa5VPft57+fvXH95euQVAo4AKhEgDevHlTFs6bLSePH3cxUu/+e/rZbhIT6z7Is3qMZkI8M+cG/OKgQQQQQACBoBMgAAy6KQnODqmw6dq1BElJuZ2mgytXbbOtQHM+/P0OQNWWep/fxUtXbSGPeudRj+4t5NEm90tsjOtjveo9RnPnr5aPPv4qTVBWp3ZlGfN2rzTnpB6k+qGYkJDodnJOnPhThrwyTdTqL/vx0IM1bI9yRkaEe53UsLAskiNHpKH3NanHv4a/NT3NmNSPtOe6NpMnWjewuTgf6l2J8fFnZcaslbL0yw1pzu3ZvaV0f665oX6o+rUCQHUNnD9/2RHQqh+r9etVt71r7447iqZpw/7y++UrNsusud/agkpfAkD1A1k9zmx/11zxYgVl8IB2oubaHgyrPtvfmTj1w6Waj04/90wz6d3zcd0W6h4ZN2GBzJm3Os18q8d6e/VoJfdUu9OlPm/zoUKvCeP6iwoFrDjSKwBUYUDD+tVFPepY4a5SkjNntObKRjUn8b+fkcVL1svceavTvNusSeOaMuy1Z7yG1NyvVlwt1tYRjHOi7r+rV2/YNkpKfWh9p/vrHYCqbfX9+NorT0nL5g843kN66NBJeWHoVDl+4o80/VPfDSNHdHd5D+6WrT/J0NfedwnR9fb5/IXLmv9Yoxp29/2lPlMh4KbN+2TchIVy8tRfLv00Etpbe7UZq01dB2pn2Nu3td8dbKw2naXDwiQ6KlqyOP0jmM4zg66Y1eGY8wCtfAT4wvlzMnvGdLl69YqLYbHiJaRdpy4SEeH+NShWj9FMiGfm3KC7eOgQAggggEDABQgAA06e8RoMRKigFTDZJdWPjLFjent8PFD9B/5XX29M80ho6s1EfJ2dQO9gefTYaRkweGKaH4bq8dXhw571ukpKeWj9WFRBjXpkrErlOwxRaM2PWv2nwkb141Wtynvz1Wfk/loVdT3SeuniVZn6wVLbI7Dqx6e7w9sKnmpVy8nbI7qLWgnp7lA/YFVbMz5b6VLEqMW2//0sg16YJGpljvPRrOn9tkfNPb1vUgVfy5ZvlJH/mZUm9Orc8WEZPKC97iDS08QF4l61t68eAd6z57A81aWJ1K5V0SV81XNxKc8Xh051CTNUSDJh3ABbmGvmyOz3qxk7f50b6DnxNg5/9kfrPlSbZr3+8lNpNtD4ZtU2W6iX+tBa2af+EWLCpEXy2ZxVjuLqlQiTJw7y+HoHdZ7aKEm9s9P5UPdb316tpXPHR7xu7KHee/r2mFmyfMUWlzratmkgQ1/o7PV8b/Phz88TExNl4dzZcurkCX8241K3no0nAtYZkw1ZHY45d8fKAHDbls2yZvU/94a9nVp16krDRg97VLB6jGZCPDPnmpxqTkcAAQQQyAACBIAZYBLTewiBCBXcBYAqwHt3TB/bo6beDrUS8I1/f5xmtZfa9EGFLGYOf/5YTN0v9YL2MWPnyKLP17l8ZHS1hbtQ1N0PUU8+ngJataHGmFE95d57yhsiVj9K1coc51V7qSvwFACqdie9N1Aq3FXSa7tqp1r1Izv1e/vU5igD+rX1Gr6564eRR4nVfEyfucLlkXbVcTWOaRMH637/nafBBuJetbevVubmy5fL512Vlcf8hd+nWV3csf1D8uKgDl7nxJNDZr9fvd4Q6VAgkHOiZ3j+7I/WfahemfBY09ppunb4SLz06TfOZXW52gl42qTBcpfGd5vaAf7FoVMc9ejZYX7vvt+kz4D30jx+b3RFuNYrENTf0dMmvSBVq5bVw54uZQgAzbFbHY4598aqADD+5ElZtGCubaWn8xETGyudn3pG8ubL7xHB6jGaCfG0zjU3g/+cnZGCaatMqAcBBBDIaAIEgBltRtNhPIEIFdwFTEZXF2j1tc3j9eWVl7pIeHg2n/X8+WMxdacOHDwu/QaNd3m/nZEg1Lk+rVBUzw/G1H1yNz9mdqLUMxmeAkD1qHGP7i11B0XqMbYBgye4PBat9yX6Bw8el179xol6jM5+qLGPe7ef1KtbVc9QbGXUY8svvTJNdux03Qm0b+/W0q3rY7pWT3pqLBD3qu7B6iio3knWd+B4UfeX/VCrOieOGyC5cuXQUYN2kcx+v/oM58cTAzkneobhz/5o3YfuXnegvlP69n9PfjpwzNFtT6v6du0+JN17jnH5HvP0KgV3ry7Q+7h9assNG/fI4BcnubSvXqfQr08b099feubNlzIEgL6o/XOO1eGYc2/MBoDqH5KOHD4sy79cIteuX3MZaFhYmDR6pIn8q2YtrwBWj5EA0Cs5BRBAAAEE/CRAAOgn2MxUbSBCBa2AyZfHAbWCGrUD7ttvPS/2l6v7Mnf+/LHo3B/1H7OTpnwun8xY7tJNX1bt2SvQesTM6Dsc3QWADRvcI2/9u5vXdyz6Yq7OcRcAeloh464ttQpwyNApaTYsUStMH25Uw2MX1Xv/Uu/KWbNGBXlnTB/DQdWCRWtsj9I5H7VqVpR3R/eW2NhoX6ls5wXiXjXVwVQn37iRKMPe+lRWffuj4xNfAurUfcrs96uVc2RVXYGaE7399Wd/Ut+Hnq5p9b3Uf/AEl405PH0faPX7w2lD3G4mpFXezKo9re/RKlXKysSx/SVPnn82pNI7D4EoRwBoTtnqcMy5N+4CwJr315H7amkHd+qVGn/99accP3pUfv3lgFy8cCHNAFX4V7N2Hanf4EFd72G0eowEgOauOc5GAAEEEPBdgADQdzvO/D+BQIQKWgFT+fIlZPJ7A6VgwTy650JrRVHlSmVk8viBkttpt1zdFf5fQX/+WHTuy4ULV6T/CxNl797Djj/2JQh1rlOr70ZXRboLAI0GiUbd3QWAvgZm6j1YKmB1Pp5+sokM6t/O7eoVtRP1iFEzRW3K4nyoFS9q1Z7RQyukLlwor0yZNNjrux29tRWIe9VbH4x+rt4lOH3GCsdpVry3M7Pfr0bnIBDlAzUnesfiz/4YCQC1vuM8beyh1W9P38Na3wmNGt4rI4d387rZjpal1j9SWXHP6p03ygVewOpwzHkE7gJAM6OMjIqShxs/KhUrV9G9KtXqMRIAmplBzkUAAQQQMCNAAGhGj3NtAoEIFbQCJrVBxPA3nrXt+Kr3uHjxiu2Rwn37jzhOCaUAcO/+I9Kz9zsuG034EoQ6e2mtMDH6mKXW/FixUsvbvLoLAL2Fdu7qVY+v9Rs43uVjbytEtR7RUxV4WnXjaVxa86HKTxo/0NDjxFptBOJe9TZnRj9PHQCq873tDu2tDX+GO85tB+v96s0nPT4P1JzoHZs/+5P6PvT0HW40AFSbLvXp/57LjrzuAsCkpFvyn//Ols+XrHdhMfte3K9XbJbX3vzIpU537zjUOx+UC14Bq8Mx55FaFQBmyZJF8uTNZ3vct2LlypI9u/7/blT9sXqMVgeAagfj5o8/IXFxhc1dKBlod2pzEJyNAAIIZFwBAsCMO7cBG1kgQgWtgMnoKjUFEuoBoNYPK1+CUOeLQ+sHZpnSRWyrIj3tnutch9b8+LoKz8iF6y4A9HXlodbqO2+7aGoFBWZW7LlbUWj2R7lyDcS96m7+1GNZp0+flR8275X9+4/KkSPxcjL+TJqNB/TMf6gEgMF6v+oxDnQZfwZuvozFn/1JfR96+kcoowGg1t9x7r4P3f1jg6//eGF31vr7wNcV0b7MHecEVsDqcMzqAFCFf3eULSd1GzSUQoUK617159wPq8dodQDI5h2BveZpDQEEEAhlAQLAUJ69IOl7IEIFrR8UXZ9pKgP7tjWkEOoB4JRpX8iHnywLNzYaAAAgAElEQVRzGXOnDg9Lj27NDTm4BICJSfLO2Hny3Zrtjj82unpPa36aN6sjb772tGTPHu5z37yd6C4A9PUHrNbqGW8WWmP3Fhp6G5fWqjdfrvfU7QTiXk3dpnqP39crtsjHny5z2cnUm4Gnz0MlAAzW+9WMvb/O9Wfg5kuf/dmfYAkAtb7v1D9evPOfXlKiRCFf2Gzn7Nn7m+29hc6HFd9fPneIE/0qYHU45txZq1YAqjrVe/+qVKsuDzVukuFWABIA+vUSp3IEEEAgQwkQAGao6UyfwQQiVCAA/HtutYIhf8y60Xc2WTU/RsfiLgD0NSDSCoi9bSiiNXazj5VrbSriy4rX9AwA1bvAdu76VYaN+NTlcUSjc6xV3tf5tdflz3DHub/Ber9aMQdW1xGoOdHbb3/2J1gCQK0x6vUxWs6K7y+jbVI+MALpEQA+0KCh1K3XIM0A1d87165dk+NHj8jWTRttm4GkPipXqSZNm7fQtfmH/Vyrx8gKwMBcm7SCAAIIIJBWgACQq8K0AAGgiD9/LNonyN2joaYn0E0FRkKWjBwAKh5PFv4IALXuKU8v/td7DQTiXlV9UT/C1m3YLW8O/8SnR3y9jcfItalVV2a/X735psfngZgTI+PyZ3+CJQDctfuQdO85RpJuJRuh8amsFd9fPjXMSX4XsDocc+6wuxWA7gJA53NvJyfL+nVrZNvmTba/k+yHWglYt35DqfNAPd2PA1s9RgJAv1+WNIAAAggg4EaAAJBLw7RAIEIFqwKmUH4E2N1qN9MTSADoENC6PrwFgJu37Jde/ca6KHrbOMTbnIV6ALh332/SZ8B7muGfeiS89v2V5MEG1aVokYJSsmQhUTtZuzs++HiZzJ2/2uXjUAgAg/l+9Xb9pcfn/gzcfBmPP/sTLAGgu93bffHydk4wB4AqHLpx/brcvu3/INQphZLoqGhDq9C8GafX51aHY1YFgKoeFQKuWPaV7Nu724UnKjpa2nfqInFFiupis3qMBIC62CmEAAIIIOAHAQJAP6BmtioJAAOzAtDdjo3+ut6MhCxWBbRGxxKIR4C9BYBaYze6i3LqcYdyAHj9eoK8Puxj+X7tDpdhqeCvR/cW0r5tI4mNidI91aG6C3Aw36+68QNY0J+Bmy/D8Gd/giUA1Nql2hcrPecEcwCYmJgoC+fOllMnT+gZiiVlMtI726wOx6wMAFVdV69elbmfzZBzZ8+4zF2ZO8pK63YdJDzc+3uKrR4jAaAltxGVIIAAAgj4IEAA6AMap7gKEAAGJgBU6lphiK873lp5HWfkANDbjr7+eARYa/OIp59sIoP6t9P9yJLW/AbiXt2z57BtReS16wmOLuTMmUNGDHtOGtSrZqj/amXOexMXysxZ37gMx0g4reXgz3DHub1gvV+tvPetqitQc6K3v/7sT7AEgFpjNPv+Ur2+wVSOANDcbFgdjlkdAKr6DuzfJ8u+XCLJyf+s8syaNau0fqK9lC1f3iuA1WMkAPRKTgEEEEAAAT8JEAD6CTYzVRuIUMGqgCmUHwFW15TW5hAEgNNlxTdbXW65SeMHSr26VQ3fhlo/iL3tAqy1iqZ8+RIy+b2BUrBgHsN9cBd6WbGLZiDu1Y+nfy2TpnzuMu7OHR+WwQPaSzYPj/pqQVm9wtPehj/DHedxBOv9aviiDMAJgZoTvUPxZ3+CJQD8668L0nfQePnll39WvhEA6r1CzJVjBaA+PzPvAHRuISkpSb5YOF+O/HbYpeFixUtIu05dJCIiwmOHtAK76Bw5pOOTT0vBgsZ3zDZTn5nwUJ86pRBAAAEEMrIAAWBGnt0AjS0QoQIB4N+TuWHjHuk3cLzLzFoRDJm9VKyaH6P9cBcQvfRCJ1Ghk9FDK8zz9oP4+Ik/pE//91x2uvW2c7Cnft24kSjD3vpUVn37o0sxK4Jef9+rWhvVqPf7vT9liNS41/sqi9Quly5dk/6DJ8juPYdcPgqVFYDBer8avS8CUd6fgZsv/fdnf4IlAFSrdF9940NZt36Xg8jbP3j4Yhns57AC0NwMWb06zrk3VgWAqs7Dv/wiXyxekGYVYPOWj0uFSpUNB4BmQlytEC9nrlzy9LPdJCY2Z0D7Ym72ORsBBBBAINQECABDbcaCsL9aocKbrz0jbR6vb1lvrQqYQn0F4OEj8dKn3zj548/zDluzG05YMUlWzY/RvrgLADu2f0heHNTB8Iqz1d9vlxeHTnHpRuNH7pPhbzwrUVHaKwTchVTvjukjDzeqYXRIorUqR1Xy4bQhUvNfdxuuz/kEf9+rV65clxdfnipbt/1kSaBw8OBx6dVvnJy/cNll3L6u8LRX4s9wx7mjwXq/mrqI/HRyoOZEb/e1+uPtu0Bv3cESALpbbWz2/tLrQLmMIRAqAaBaBbh43hw5duyoC7yeVYDHjx2VhXPnyK1bSY5zzQSA23/cKqu/WenSj9x58siTXZ+TmJhYjxcGKwAzxn3DKBBAAIH0EiAATC/5DNRuIFa5WBUwhXoAqBWwFCiQW6ZNHCzlyhVPt6vKqvkxOgB3AWCVKmVl4tj+kieP5/+Qdm7v1q1kefe9+TJvwXcu3Xj+uebSp1drt11zd95TnRvLgH5tDYeQyrJnn3ck6dY/7yoqXqygTJk4SEqWKGyUyKX8tv/9LM/3esflz6x4t6C9Qq37y8yKogWL1sjbY2alGbPZ1ZCBCpuC9X41dRH56eRAzYne7vvz8dhgCQCVhdY/evj63aXXlnIZSyBUAkCl7u5dgN5WAf71158yb9ZMuX7tmmPy1GPD7Ts/KUWLGf9vLy0zPUGkajxUAsDbt2/Lz/v3ycYN6+XihfO29/8WKhwnDR9+REqWLJWxbgJGgwACCISQAAFgCE1WsHZ11+5D0r3nGJfAQq3+e+WlLhIens2SblsVMAUyAPTXyjytUESFVD26tzQcNlkyOSJi1fwY7Y+7AFA9djph3ACpU9vzYz3O7Z05c1EGDJ4gPx045vhjvfVorayrWKGUrQ8qoNV7qDBxwqRF8tmcVS6nNGp4r4wc3k2ioyP1VqVZTmtFnZXXqdYjhd42UXE3oLPnLslLr0yTHTt/CUgAaKWDc4eD8X41dRH56WStANBfc6JnCFore8uULiKTxw+UokUL6KnCbZlgCgC1vvfMhPamYDg5JAVCKQBMTEiwBXmnT//uYh0XV8T2Pr+ISO2/Y69dvyZzZnwq586edTmvWYuWUqXaPYbmTa28Xbp4oS3Icz4qVakizVu18VpXKASAt5OTZcWyr2Tf3t1pxpM1WzZ5rEUrudvLY9deISiAAAIIIOCTAAGgT2yc5Cyg9Q40M5sgaOlaFTD5KwCMjz8jfQeOF/Uj1n5Y9WMxtcfJk39JnwHviXK3H2qX1XfH9Db9iKivV7ZV82O0fXcBoKqnaZNaMuz1rhIZmV1XtWZCPK05UY2+PKSzdGjXSPfOt1ohiKrn1aFPSvu2D+oah6dCFy5ckf4vTJS9e/95EXqO6EiZNukFqVq1rOn6td4BqCodM6qnNGlcU3f96gfS9JkrZMLkxZrnmF0BmNnvV90TEcCCgZwTPcNydy1b8XhsMAWA6l5TG/dMnvqFC0vzZnXk1aFdTP+jgx5ryoS2QCgFgEp6357dsvyrpaKuffuhVqc1a9FKKletpjkZquxXSz63rWhzPkqVKi1PdOws4eHhuifx/LmzMuezGXL1yhWXc/SGiaEQAJ48cVwWzJktSUk3NV3y5S8gnZ56RmJiYnS7URABBBBAwBoBAkBrHDN1LVqrfnz50e8J0aqAyV8BoNajflYb2H3chSPq8dCxY3qbehRYrbr6ZtU2qV+vmqjHTvUeVs2P3vbs5TwFgGr13huvPS0tHqvrNYBT72ob/OJkl1BVtdG3d2vp1vUxr+e7W7mnVtJMHj9Iyt5R1OvQrl9PkLfHzJZlyze5lFXzOmXCICleXP98uGvMXT/VBh2jR/WUAvn1r1Z014bWzrf316pkCwFz5crh1UFd3+s27JY3h38ily//87iV84neHsv21khmv1+9+aTH54GcE73j07qWW7V4QF5/+SkJz+776vZgCgCVhfoHjAEvTJTfjsS70Kj77PnnWvg8VvV9s3P3r3LixJ/yROsGetkpF2ICoRYA3rh+XebP/kz++OO0i7S3VYBam4io4LBu/YZS54F6Xv87QTWm3kO4fNlSObB/v0vbsTlzSuenu0qePHm9zn4oBIBa7zh0Hpi3wNUrAgUQQAABBHwWIAD0mY4TnQW0HnOzIpCyt2FVwOSvANBdsGKlgbP3mbMX5eXX3rc9eut85M+XS/r3bSNNG9+v+0dbUtIt2b33sKgfuxs37pH8BXLL1ImDRa1g1HtYNT9627OX8xQAqjJqZeSIYc9Jg3rV3P7HudpQ5bU3P0xjeUeZojJhbH/dwduBg8el36Dxoh6pcz5UPSP+/ZxUuru02+FdvXZDJk35XOYv/D5NmQF9n5CuTzfV9eNCj9/efb/ZVpCmDtfuqX6n9Hy+pdxT7U5Tj+4fOnRSevUfl8ZBrYTs16eNxOSIctvNpJu3ZMlXG+SdcfNFrcBSh1rBmXwr2dJXDGT2+1XPdRLoMoGeEz3j07qW1T8svPbKU9Ky+QOSJUuYnmrSlAm2ANC2uunrjfLWqJku95nqeMMG98iLAztIsWL6HntWdZ09e0mWr9xie5+q+n4Nhp3qfZooTtIlEGoBoBrUti2bZc1q11dteAul3D0+nCVLFql5fx2pU6++x5WAly5elG9WLJMjh/9ZgW8Hrl7jX9L40Wa6/p7XCgDV+wibP/6ExMWZe0+wvT/h2SNE1enrsWXTD7Lue9f3KaeuS+8jz772gfMQQAABBLQFCAC5MiwRUP+Rr1YQqHeMOR8qgOnc4SF56KF/Sf68OTXbypEjymvgYFXA5K8AUA1s0+Z9tnfIOW/eoP48e/Zw2+qHB+pUkdKl4yRK45HUsLAskiNHpKF3+LlbtabaVO9dU4+M1qtXTeIK5xP1mKf9UCs2z5+7LD8fOCbrN+6WHzbudQmDfHn/k1XzY/Ri9BYAqvrUD/amj94vamdgtRJPvZfy9u0UUSHqypVbZNbcb0WtfHQ+jKwetJ+nfviqAG/0O3PSDENdA506PiyPNaklpUrFOfpw4eIV2bhpj3z0yddy8tRfac6rWaOCjP5PT8mbR/veMeqlyqug5aNPlsn7H31p+PRPPnhZ1GpBT4eqf9yEBbZAOfWhVpV2f+4xqVunquTJHWsLUFR55b95y36ZO3+1HDp8ynGaen/iwH5t5f0Pv3TxqVWzorw7urfExkYbHoP9hMx8v/qM5ucTAz0n3obj7lpW3w/161W3faeUKRMnWcLSBoHh2cNdvned2wq2ANDb94Iab926VaV1q3pyd4VSkjtXjOPvKmWkVm8eO/6HbbXfd99tl58P/vMeVVU3AaC3Ky20Pw/FAPDq1SsyZ8Z0OX/+nAu+t1WAagfhxfPmaj7aqgKz8nfdLWXKlpW4IkVt90hCYqKcOn5cfvppn5w6cULUxhipj7x589neP5gzVy5dF4JWAKjrRAOFHmjQUOrW833V7m+HD8nnC+ZJcvI/m5mlbr50mTvkiQ4dJVs2/Y9PGxgCRRFAAAEE3AgQAHJpWCagHl0c/tb0NAGYtwb0hApWBUz+DACvXL0hb/z7Y1m7bqe3Iaf53JfQTVWyc9ev8uqbH8rp067/EWu4A04n+NIXq+bHaL/dBYBDBneUhYvXpnmkV2/9Pbu3lO7PNTcUyKq61WO8/x07T5Z8uUFvU27LqdWj497tK2XLeH982Ghj7h439laPnntV1eHukUJv9Tt/bl+9qVYkvvTqNNm67SfHx1a8XzMz369G5iGQZdNjTryN7+ix0zJg8ETD3yWeQq9gDADt31+Tpn5hC+KtPAgArdQMvrpCMQBUilr99rYKUP1D3+6dO2T1qpWSfOuW6cnImTOXtG7fQVTwqPcIhQDQ0yYg9nHq3fVYrwvlEEAAAQT0CRAA6nOilA4BtRJAvUz840+WGQoB9YQKVgVM/gwAFdFvR36XIS9PTfMuJW98voRu9jpPnPxTRo6aKdu2H/DWjK7P1SqtKRMHiQqg9B5WzY/e9uzl3AWA6ppKvp0sLw6d6vY9cu7a6tThYenXu7XPL79PTLwpH3z0lXw2+xtD94FzfypVLCOjRnSXUiX1z4FRO0+PHburS8+9aj9XPT75wtCphoMTdb66H0b+u7vce8+dturU49GfzFju0q0Ppw0xvelNZr1fjV4rgSyfHnPibXzb/vezvPr6h2lWCns6LxQDQDUercfwvfl4+9zsOzu91c/n6SsQqgHghQvnZc7M6XLl8mUXQG+rAFXhI78dlq+XfCFqd2Bfj+IlS0rzlq0lV25j794NhQDQ9l2SlCQ7//ej/Lhtq1y94mqsPicA9PXK4TwEEEDAnAABoDk/zk4loB6t/ObbbTL2vfm6fyzpCRWsCpj8HQAqDvUOuHfHz5fvv9+uOwAyEwDaf7R9t3a7TJm2RPNRUj0X6t13lZIO7R+UBxvWkNgY9+9p06rLqvnR00/nMp4CQBUeqRWSw0Z8qsvEl/cnuuuvug82b9lnexxY69Fed+epR4V7dG8hnTs8LFFRvr9/R6+j6qd6XG/hojWydv0ur2GpnnvVuW21MnXM2Lm6V8WqRw3bPN5Anu/eQvI5vTJgw8Y90m/geJdh6d2gxZtFZrxfvZmk9+fpMSfexqxeuTDqP5/ZvlP0HKEaANrHdurUGfnwk69kxcotuv8ec3ZRK3gfblRDOrRtJGXLFvP5fYl6rCmTvgKhGgAqtbXfr5atmza6AHpbBWgvfPNmovy4dav8uGWTJCYm6p4E9chvvQcbSfm7Koh6f6DRI1QCwNTjio8/JQtnz5KExATbR2XvLC+t27aXrFmzGiWgPAIIIICACQECQBN4nOpeQD3KteGH3fL9mh2yZ+9hj2Gg0VAhVNzVe822bN0va9ftErVK79ix025/SJkNAO0mahWmerefCnN+2LRX1Cosd0fpUnGi3qVW+/5KUrVyWV07tAabvacA0P6uOrUi77s1O2T2nG/TvJtKjUcFn80fqy1Nm9SS3LljLR2imo/dew7bdvbduGmv5n2gQr977ykvjza+T+o/UM3yPugdkHq06er/f4zd0zt79LyvM3V7KmQ8fPiULFi8Rtat36VpUK5ccWnU8F5p3rS2FC2aP82L0NVqRbXJyu3kf96fpN6lWaFCKa/vD9U7fu5XvVKBK5cec+JpdPb7+bs1222PpKvHg90dGeWxV/scrFm7U7bv/MXtPxKowK9SxdJSt3YV298rJUsUMvwKhcBdWbRkpYAKv5JupgrAwrJIdHS0TwGXc9/Uo6TXb1wXSUlx6bLZTSr++W+mJEm4cSMNh3ovXWSUvn8IVX38PT5e9u/bI8eOHrWtdlOr3+xHVHS05M6VW0qWKSOVq1STfPnT/h1n5XwEa10H9u+TpV8sdnSv2r015NFmzYO1u/QLAQQQyLACBIAZdmoZGAJi2+xCvaA9JeWf4ET9a2tMTJSu3eaC3VBPAOg8BrXj8bVrf//Hvi8br5j1cG5f1ZWR5kKvjdqEJun/dvhV5/gSKuptK9TKZfT7NdTmg/6mFVDfuQkJrmEP9zBXCgIIeBNYuXyZ7N6x3VGsWYuWUqXaPd5O43MEEEAAAYsFCAAtBqU6BBAInIDRADBwPaMlBBBAAAEEEEAAgdS7LsfExEqXZ7pKnrz5wEEAAQQQCLAAAWCAwWkOAQSsEyAAtM6SmhBAAAEEEEAAASsF1OtFNm1YJz+sX+eoVr3/sGWbtrz/z0po6kIAAQR0ChAA6oSiGAIIBJ8AAWDwzQk9QgABBBBAAAEElED8yZOyaMFcuXH9ug0kMiJS2nV5UooWLQYQAggggEA6CBAApgM6TSKAgDUCBIDWOFJLxhQ4cvR36d1/nKjdmAN1DH/zWWnV4oFANUc7CCCAAAJBKnDi+HH5YtF8R/indliuW7+h1HmgXoZ4D3WQstMtBBBAwKMAASAXCAIIhKwAAWDITh0dD4AAAWAAkGkCAQQQQMBF4Pbt2/Lj1i2ycf1alx2R1S7ITZu3kCxZsyKGAAIIIJBOAgSA6QRPswggYF6AANC8ITVkXAECwIw7t4wMAQQQCDYBFfwdO3pE1q7+Vv7660+X7lW4u6I0bdFSsmePCLZu0x8EEEAgUwkQAGaq6WawCGQsAQLAjDWfjAYBBBBAAAEEQlMgKSlJFs+bI8eOHXUMIGu2bFK7bj2pXacuK/9Cc1rpNQIIZDABAsAMNqEMB4HMJEAAmJlmm7EigAACCCCAQDAL7NuzW5Z/tdTWxcJxRaRZ85ZSoFChYO4yfUMAAQQylQABYKaabgaLQMYSIADMWPPJaBBAAAEEEEAgdAXUbr87/rdNyt91t+QvWJDNPkJ3Kuk5AghkUAECwAw6sQwLgcwgQACYGWaZMSKAAAIIIIAAAggggAACCJgVIAA0K8j5CCCAAAIIIIAAAggggAACCCCAAAIIBLEAAWAQTw5dQwABBBBAAAEEEEAAAQQQQAABBBBAwKwAAaBZQc5HAAEEEEAAAQQQQAABBBBAAAEEEEAgiAUIAIN4cugaAggggAACCCCAAAIIIIAAAggggAACZgUIAM0Kcj4CCCCAAAIIIIAAAggggAACCCCAAAJBLEAAGMSTQ9cQQAABBBBAAAEEEEAAAQQQQAABBBAwK0AAaFaQ8xFAAAEEEEAAAQQQQAABBBBAAAEEEAhiAQLAIJ4cuoYAAggggAACCCCAAAIIIIAAAggggIBZAQJAs4KcjwACCCCAAAIIIIAAAggggAACCCCAQBALEAAG8eTQNQQQQAABBBBAAAEEEEAAAQQQQAABBMwKEACaFeR8BBBAAAEEEEAAAQQQQAABBBBAAAEEgliAADCIJ4euIYAAAggggAACCCCAAAIIIIAAAgggYFaAANCsIOcjgAACCCCAAAIIIIAAAggggAACCCAQxAIEgEE8OXQNAQQQQAABBBBAAAEEEEAAAQQQQAABswIEgGYFOR8BBBBAAAEEEEAAAQQQQAABBBBAAIEgFiAADOLJoWsIIIAAAggggAACCCCAAAIIIIAAAgiYFSAANCvI+QgggAACCCCAAAIIIIAAAggggAACCASxAAFgEE8OXUMAAQQQQAABBBBAAAEEEEAAAQQQQMCsAAGgWUHORwABBBBAAAEEEEAAAQQQQAABBBBAIIgFCACDeHLoGgIIIIAAAggggAACCCCAAAIIIIAAAmYFCADNCnI+AggggAACCCCAAAIIIIAAAggggAACQSxAABjEk0PXEEAAAQQQQAABBBBAAAEEEEAAAQQQMCtAAGhWkPMRQAABBBBAAAEEEEAAAQQQQAABBBAIYgECwCCeHLqGAAIIIIAAAggggAACCCCAAAIIIICAWQECQLOCmeD8I0d/l979x8np0+f8MtqmTWrJsNe7SmRkds36x09eJNNnrHD5zNs5njq69KsfZNiIT12KVK5URiaPHyi5c8dqnurJoGKFUjJh3AApUCC3IR9f+mGoAQojgAACCCCAAAIIIIAAAggggAACIkIAyGXgVYAAUMSbwZhRPaVJ45peLZ0LEAAa4qIwAggggAACCCCAAAIIIIAAAgj4KEAA6CNcZjrNW/hl1sLbar5gXwGoxt+o4b0ycng3iY6O1M1BAKibioIIIIAAAggggAACCCCAAAIIIGBCgADQBF5mOZUA0PsKwBzRkTJt0gtStWpZ3ZcFAaBuKgoigAACCCCAAAIIIIAAAggggIAJAQJAE3iZ5VR3AeDLQzrLowYfe9Uyy5o1q8TERElYWJgmaSisAFQdf6pzYxnQr61ky5ZV16VBAKiLiUIIIIAAAggggAACCCCAAAIIIGBSgADQJGBmON1dADj8zWelVYsH/E4QKgFgyRKFZcqEQVK8eEFdJgSAupgohAACCCCAAAIIIIAAAggggAACJgUIAE0CZobTCQC9PwJsvw5eHfqktG/7oK7LggBQFxOFEEAAAQQQQAABBBBAAAEEEEDApAABoEnAzHA6AaB2AKje+xcVFSFnz11yXAY1a1SQd8b0kVy5cni9NAgAvRJRAAEEEEAAAQQQQAABBBBAAAEELBAgALQAMaNXQQCoHQDGxeWTtm0ayrT3l0jSrWTbZRCeLatMGDdA6tSu7PWyIAD0SkQBBBBAAAEEEEAAAQQQQAABBBCwQIAA0ALEjF4FAaD7APDtEc/L+x8slW3bDzguA/VexNdffkrCs2fzeGkQAGb0O0ckKemW/Hr4lJw7d0myZc0quXLHyJ1li0l4eNpr49atZDl+4k/588/zcis5WSIjs0vpknGSP38utxvk+CJ4+3aKXLh4RY4ePS3JyclyIyFRoiIjJCxLmJQoXkjy58uleyMbX9q/dj1BTv9xTs6d/XvlrL199b9jYqOlRLGCHjcF8qVNb+ekpKTIxYtX5bcjv7uYqP7cUbqIbS44EEAAAQQQQAABBBBAAIFQFiAADOXZC1DfCQDdB4BTJw6W/20/KG+PmeWYjQIFcsu0iYOlXLniBIABukbTq5mLF69I34HjZd/+I7YuqFWh6pooVTJOvvl2m4x9b77LI+KqTOFCeWXwwPbyyEP/sgV7KnzauetX+c9/Z8uhw6fSDKVhg3tk6AudbHX7eqjQ7/DhUzJ/0fey+vvtcvnyNbdV5cyZQ9q0ri/tWjeUIkXy+9qk47xLl67Jjp0HZc26XbJl6/40HloNKKNWLetJy8fqmOpD6g2EatWsKO+O7i2xsdG2ZpNu3pLv1m6XT6Yv17RXZdSq3vr1qkvvno/LHWWKmPagAgQQQAABBBBAAAEEEEAgPQQIANNDPcTaJAD0HABGR0fKgBcmysGDxx0z27d3a+nW9TGPK7dYARhiN4JGd1MHgKrIJx+8LPG//yVvjZrpeHz+jJgAACAASURBVDQ89akqVBr2Rldp3qyObPvfz/Li0KkeQ7ka95aX0aN6SoH8uQ2jnTp1Rt4dP1/Wrttp6FzVx+7dWshTnRvb3nVp9Phx+wGZ9sFSW7jp66H60ObxBtK7Ryvb6kmjR+oAsHKlMjJ5/EDJnTtW4uPPyPC3prus3vVUf/bs4fL6K09K82Z1JUuWMKNdoTwCCCCAAAIIIIAAAgggkK4CBIDpyh8ajRMAeg4AS5eKk4+nfy2Tp37hmNCKFUrZ3gWoVgO6OwgAQ+P699RLrQBQrezb+uPPHgM9VecdZYrKyy91lrHjF7iEx+7a0xMqO5+rVv2tXLVVRr8zx2tfPI2xQf3qMuz1ZyRvnpyGJix1+Gbo5FSFldWYUT28rqpN3UbqPthXaKakiAx5ear8diTeULecg1tDJ1IYAQQQQAABBBBAAAEEEEhnAQLAdJ6AUGieANBzAFimdBE5dOik9Oo/Ts6cueiY0jGjekqTxjUJAEPhIvexj1oBoL0q9Sht8aIFJCxLFvnjj3Oaj76qUO38hcu2U9S79woX/vsxX63yekJle9vqfYKfL1kv74yd63YVYtGiBSRP7ljHyN31URVQKxVfHdpF1GpXvYenAFCtpitTpojtvYj2I+X2bTkZf8ZtWFmyRGEZ925fKVumqN4uSOo+KO/Ro3rI9M9W2h5H1por9WfqHYlqhaDWocLICWP7S/HiBXX3g4IIIIAAAggggAACCCCAQHoLEACm9wyEQPsEgN4DQPUusZGjPxO1qs9+NGp4r4wc3s1taBKKKwBvJyfL9RvXRdQSqgAdWbJklajoaEs3wrCq6+4CQPXI7qj/v0GMepedOtT18eEnX8mHnyzTbPqZpx61PeYaEfH3ZhNXr92wvVdy+YotjvJq9dn7U4aIqtvbsWz5Jtvjrfbdqe3lVfD2XNdm8kTrBrbA0flQ7yKMjz8rM2atlKVfbkhzbs/uLaX7c811bxDiHL6pMLRh/erStEktqXBXKcmZU3s+1arF+N/PyOIl62XuvNVy82aSSx9VoD7stWd0B5FaIWS1quVk955DtnrvqX6n9OrRSu6pdqfLuJTFyVN/yTtj58mGjXvScA/q307UnHEggAACCCCAAAIIIIAAAqEiQAAYKjOVjv0kAPQeAKrp2bR5nwwYPMERnOSIjpRpk16QqlXLas5eKAaA8fGnZOHsWZKQmBCwK7JY8RLSrlMXiYgw/h46f3dSKwB0N+9qM4whQ6ekeeecu5V9WqtK33ztGWnzeH2Pwzp67LQMGDxRjp/4w6VcpYplZPiwZ72uoFPh15atP8nQ1953WY2nQrwpEwZJlcp36GJV4duePYflqS5NpHatio5wU9fJIprvRlQhqHq0vk7tyrqq8bQKsVnT++XVoU9KTI4ot3Vdv54gb4+ZLSpQdT5SbyaiqzMUQgABBBBAAAEEEEAAAQTSUYAAMB3xQ6VpdwHgy0M6y6MeHnH1Nr6wsCySI0ek1xVFWj/i1UqiYa93lcjIv1dMGTl8Cd60DOzvE1OPAKtDK+BRGygM6NdWc4y+9MPIOP1RlgDQVVUrAFQrzCaOGyC5cuVwKayCtfcmLpSZs75x+fOO7R+SFwd1SHONXLlyXV58eaps3faTo3zXZ5rKwL5t3U6tWmk4ZuwcWfT5OpcyRh+fVX396uuNaTYyadXiAXn95ackPHs2r5eXehw+X75cPm+Yofowf+H3tncYOh/uvLQ65C4AVHOkdgP29I5Oe30HDh6XfoPGuzzerx4lnjZpsNx1V0mvDhRAAAEEEEAAAQQQQAABBIJBgAAwGGYhyPvgLgA02+3UAZq7+kIlAFT9X7Boje3RTfuhghe1akrrfWEEgPquoFBbAegpnFbv5RsxaobLwN2t6lOPv44YNdNl9Zm34FsrrFIrEt8d00dq319JH/j/lbpy9Ya88e+PXXYP1nvPGmrIQ2H1Hr6+A8eL+g6yH+4CVr0BoFpF+PbIHqI2a9FzJCTclOEjp8uKb7a6FFemDzeqoacKyiCAAAIIIIAAAggggAAC6S5AAJjuUxD8HSAA1PcIsJrJkyf/kj4D3nN5/FI9Zti+7YNpJpoAUN+1H2oBoKdVel+v2CyvvfmR7iApdfjd+JH7ZPgbz0pUVNrHodWKuUlTPpdPZix3qd/Iqr3UM/LNqm22R4Gdj+FvPiuqzkAcN24kyrC3PpVV3/7oaM5ICKn1jwdGNlOxNzpn3mr579i5LkN+6YVO0rnjw4FgoA0EEEAAAQQQQAABBBBAwLQAAaBpwoxfAQGg/gBQ7b46YdIi+WzOKseFUbNGBXlnTJ80j4SGYgCY8a92YyPUegTYUwC4fccv8lyP0S6NfPLBy2439kgdYFWuVEYmjx8ouZ1277VXduHCFen/wkTZu/ewo36j78xLPXqte1+9g/CVl7pIeLj3x4CNaWqXTm2gVjS+P3WIVKlUxmv1WgGgkUeI7Q2s/n67vDh0ikt73h7H9to5CiCAAAIIIIAAAggggAACARQgAAwgdqg2RQCoPwBUc6w2PujVb6xcu/73RhnuQhgCwFC9I/7pt1YA6GllmNEAcMq0L1x2DvYUAO7df0R69n7Hcd2pXpYvX0ImvzdQChbM4xO2eq9l/8ETHLvmqkqMPILrU6OpTtIK8TyFps6na52rZyOV1P3WmjcCQCtmlzoQQAABBBBAAAEEEEAgUAIEgIGSDuF22AXYWACodg59fdjH8v3aHY5Z13oMkwAwhG+K/+u6VgDo6RFZowFg6mvEUwCo9Xixp0eG9ehrvf9ObXqjViEWLVpATxWOMrdvp8jp02flh817Zf/+o3LkSLycjD/jstOw3grNBIC+vLuPAFDvzFAOAQQQQAABBBBAAAEEglWAADBYZyaI+kUAaCwAVFOX+t1parfRaRMHS7lyxR0zSwAYRBe5j10JpgAw9WpBNaROHR6WHt2a+zg6kYTEJHln7Dz5bs12Rx1G3sGnTlLv8ft6xRb5+NNl8sef533ui/OJZgJAvec6t0cAaMm0UQkCCCCAAAIIIIAAAgikowABYDrih0rTBIDGA8AzZy7KgMET5KcDxxzT3Ld3a+nW9TEJCwuz/RkBYKjcAe77GUwBoNbjrv4Q1vsOPrUpyc5dv8qwEZ/KyVN/WdoVvSGemceHCQAtnTIqQwABBBBAAAEEEEAAgXQWIABM5wkIheYJAI0HgCr8+Hj61zJ56heOKU69+ygBYChc/Z77GCwB4M2bSTJi1ExZtnxTQFC9BXDq+l+3Ybe8OfwTnx7x9TYIb+3bzycA9CbJ5wgggAACCCCAAAIIIJBZBAgAM8tMmxgnAaDxAFBxHzp0Unr1HydqNaD9GDOqpzRpXNP2f0MxALydnCzXb1wXSUkxcUUZOzVLlqwSFR3tWDlp7Gz/lg6WAFDrXX3+HLm3AG7vvt+kz4D3NMO/7NnDpfb9leTBBtWlaJGCUrJkIdtGOe6ODz5eJnPnr3b52Fv7BID+nH3qRgABBBBAAAEEEEAAgVAUIAAMxVkLcJ8JAH0LAJNu3pKRoz+zBX32o1HDe2Xk8G4SHR0ZkgFgfPwpWTh7liQk/r3DcSCOYsVLSLtOXSQiIiIQzRlqI1gCwKSkW/Kf/86Wz5esN9R/Xwt7CuC0NsFR7ajgr0f3FtK+bSOJjYnS3bSZVXxmznXuIO8A1D1dFEQAAQQQQAABBBBAAIEgFSAADNKJCaZuEQD6FgCqOdy0eZ/tXYBJt5JtU6renzZt0gtStWpZAkCdFzkB4KcOKU+7AGuFXZ52JNbJb7jYnj2HpVe/sXLt+j8hcc6cOWTEsOekQb1qhlZyqkeJ35u4UGbO+salH6wANDwtnIAAAggggAACCCCAAAKZXIAAMJNfAHqGn94BoNajsrVqVpR3R/eW2NhoPUNwKeNLfVoGenZDvXTpmgwZOkW2bT/g6MNTnRvLgH5t5esVm20bJDgfngIewwP1wwmsAHRFDZYVgKpXc+atlv+OnevSwfQIANW7LydN+dylH507PiyDB7SXbB4e9dW6XN092kwA6IebmyoRQAABBBBAAAEEEEAgQwsQAGbo6bVmcMEYAJoJyrQCwKZNasmw17tKZGR2TTRfA0BVWer2SpYoLFMmDJIdu34hANRxibICUN8KwA0b90i/geNdRLs+01QG9m2rQ9maIlqbkaj3+70/ZYjUuLe84UZUgN5/8ATZveeQy7kEgIYpOQEBBBBAAAEEEEAAAQQyuQABYCa/APQMP70DQK1gw0wAqLVCqXmzOvLma0/b3lOmdZgJANUmIOox4J8OHHNU/erQJyUiIjzkAkA910tmKhNMKwAPH4mXPv3GyR9/nndMQYP61eXtt563PXoeiOPKlevy4stTZeu2nxzN6Vkp665vBw8el179xsn5C5ddikwaP1Dq1a3qdUi8A9ArEQUQQAABBBBAAAEEEEAgkwgQAGaSiTYzzPQOAPfuPyI9e7/j8k6xihVKyeSJgyRvnpyGh6YVCnhbKWUmAFTvMVOh4+SpXzj6WrNGBalZq6JMnLzYpf9mgk3DEJxgWiCYAkCt8K1AgdwybeJgKVeuuOmx6qlAy8NMALhg0Rp5e8ysNE3rfbSZAFDPrFEGAQQQQAABBBBAAAEEMoMAAWBmmGWTY0zvADA+/oz0HTheVD/shwr+pk0aLHfdVdLQ6G7cSJRhb30qq7790eW8USO6y2NNa7uty0wAqCo9dOik9Oo/TtRqQHWoxyLvvru07Nl7mADQ0AwGV+FgCgCVjFZg9vxzzaVH95aG37/ni7Ta+OPVNz6Udet3OU4vXCivTJk0WMqWKWqoyrPnLslLr0yTHTt/IQA0JEdhBBBAAAEEEEAAAQQQQCCtAAEgV4VXgfQOAN1tBNC3d2vp1vUxQ7uKHjh4XPoNGu8I4tTg9YSJZgPApJu3ZOToz2zvA/R0sALQ6+UYVAWCLQA8efIv6TPgPTl+4g+Hk9qB990xvaXmv+72u53WOwBVo2NG9ZQmjWvqbl+tmp0+c4VMSLVC1l4BKwB1U1IQAQQQQAABBBBAAAEEELAJEAByIXgVSO8AUHXwm1XbZOhr77v01WiwcfXaDRkxakaa1X+NGt4rI4d3k2gP70kzGwCqjm/avM/2LsCkW8luzQkAvV6OQVUg2AJAd8GZ2nhm7Jjeph4FVivy1H1Yv141KV6soNt50NqN+P5alWwhYK5cObzOnxrDug275c3hn8jly9c0y6tVjX16tfZaF48AeyWiAAIIIIAAAggggAACCGQSAQLATDLRZoYZDAGg1kYaakz58+WS1195SurXqy5ZsoS5HeapU2dkzLtzRG0o4nyoR3HfHtlDHnnoXx6JrAgA1Y6mQ4ZOkW3bDxAAmrkgg+jcYAsAFc2Zsxfl5dfel+07XB+dVfdK/75tpGnj+yU8ezZdiklJt2T33sOiQr2NG/dI/gK5ZerEwVKmdBG356d+3N1esEO7RtKvTxuJyRHl9ly1UnbJVxvknXHzRa0mVIfamTv5VrJLcN7m8fryyktdJDzc8zgIAHVNM4UQQAABBBBAAAEEEEAgEwgQAGaCSTY7xGAIANUYVHg3+MVJmivoypUtJi1bPCBVK98hxYoVkCxhYXLlyg35+cAx+XrFZtmydb/meS2b1xW1I68KGTwdVgSAqn53mxrY22YFoNmrNbDnB2MAqATUjsCDX5zs8iiwXUa9k6992welXr1qElc4n8sOweodfufPXbbdN+s37pYfNu51WYWnZ0OPW7eSZdyEBbbQMPWhVg52f+4xqVunquTJHWsL7VV5tbpw85b9Mnf+ajl0+JTjNLWJycB+beX9D7+Uk6f+cvx5rZoV5d3RvSU2NtrjhBMABvZ+oDUEEEAAAQQQQAABBBAIXgECwOCdm6DpWbAEgCoo+HzJenln7FyPj9HqhWtQv7oMe/0ZXTsJWxUAar2jzbm/BIB6Zy84ygVrAKh0du76VV5980M5ffqcZVh6AkDVmLrOB7wwUX47Eu9z2+oR/xHDnpN7qt0pL706TbZu+8lRl1qBOHn8QClatAABoM/CnIgAAggggAACCCCAAAKZSYAAMDPNto9jDZYAUHVfvR9sww97bO/yU6uGfDnUY79dujSWHs+1kKioCF1VWBUAqhBzwqRF8tmcVZrtEgDqmo6gKRTMAaBCOnHyTxk5aqbHx86NYKoVfFMmDhL1TkFvh3oU+IWhUzVXIXo7VwWNI//dXe69505b0UlTPpdPZix3Oe3DaUO8bmzCCkBv0nyOAAIIIIAAAggggAACmUWAADCzzLSJcQZTAGgfxpWrN2TBou9l5qxv3G4UkHrIKvhT7wrs1aOV3FGmiKHdg60KAFWf9uw5LL36jRX1uGXqgwDQxIWaDqcGewCoSNR79b5bu12mTFvi8hitEa677yolHdo/KA82rCGxMe7f4Ze6TrX6cMzYubJ23U5dzal7tM3jDeT57i0kX96cjnPU4//9Bo53qUPPLuAEgLrYKYQAAggggAACCCCAAAKZQIAAMBNMstkhqlVr164lSErKbZeqIiMjvL47z2zb3s5XmxT8/PMxWffDbtmx8xc5euy0IxBUYUKpUnFyV/mSUvO+CqJ2IlUbIXAgkBkF1H2s3u23dv0u+WHTXlEr9NwdpUvFiXrPXu37K0nVymV17d7rrq7bt1Pk8OFTsmDxGlm3fpfmyt1y5YqL2o27edPaUrRo/jThvNrB+8DB43I7+Z/voKjI7FKhQimvG4FkxrlmzAgggAACCCCAAAIIIIBAagECQK4JBBBAIBMKqGDuypXrLsF+1qxZJSYmytDqWKN0auVr0v/t8KvOzZEjihDPKCLlEUAAAQQQQAABBBBAAAGDAgSABsEojgACCCCAAAIIIIAAAggggAACCCCAQCgJEACG0mzRVwQQQAABBBBAAAEEEEAAAQQQQAABBAwKEAAaBKM4AggggAACCCCAAAIIIIAAAggggAACoSRAABhKs0VfEUAAAQQQQAABBBBAAAEEEEAAAQQQMChAAGgQjOIIIIAAAggggAACCCCAAAIIIIAAAgiEkgABYCjNFn1FAAEEEEAAAQQQQAABBBBAAAEEEEDAoAABoEEwiiOAAAIIIIAAAggggAACCCCAAAIIIBBKAgSAoTRb9BUBBBBAAAEEEEAAAQQQQAABBBBAAAGDAgSABsEojgACCCCAAAIIIIAAAggggAACCCCAQCgJEACG0mzRVwQQQAABBBBAAAEEEEAAAQQQQAABBAwKEAAaBKM4AggggAACCCCAAAIIIIAAAggggAACoSRAABhKs0VfEUAAAQQQQAABBBBAAAEEEEAAAQQQMChAAGgQjOIIIIAAAggggAACCCCAAAIIIIAAAgiEkgABYCjNFn1FAAEEEEAAAQQQQAABBBBAAAEEEEDAoAABoEEwiiOAAAIIIIAAAggggAACCCCAAAIIIBBKAgSAoTRb9BUBBBBAAAEEEEAAAQQQQAABBBBAAAGDAgSABsEojgACCCCAAAIIIIAAAggggAACCCCAQCgJEACG0mzRVwQQQAABBBBAAAEEEEAAAQQQQAABBAwKEAAaBKM4AggggAACCCCAAAIIIIAAAggggAACoSRAABhKs0VfEUAAAQQQQAABBBBAAAEEEEAAAQQQMChAAGgQjOIIIIAAAggggAACCCCAAAIIIIAAAgiEkgABYCjNFn1FAAEEEEAAAQQQQAABBBBAAAEEEEDAoAABoEEwiiOAAAIIIIAAAggggAACCCCAAAIIIBBKAgSAoTRb9BUBBBBAAAEEEEAAAQQQQAABBBBAAAGDAgSABsEojgACCCCAAAIIIIAAAggggAACCCCAQCgJEACG0mzRVwQQQAABBBBAAAEEEEAAAQQQQAABBAwKEAAaBKM4AggggAACCCCAAAIIIIAAAggggAACoSRAABhKs0VfEUAAAQQQQAABBBBAAAEEEEAAAQQQMChAAGgQ7Pbt27Jqxdeye+cOx5ll7igrrdt1kPDwcIO1URwBBBBAAAEEEEAAAQQQQAABBBBAAAH/ChAA+uB7/txZmfPZDLl65Yrt7LCwMHn0sRZStfo9PtTGKQgggAACCCCAAAIIIIAAAggggAACCPhPgADQB9uUlBRZ+91q2bZlk+PsPHnzSscuT0uu3Ll9qJFTEEAAAQQQQAABBBBAAAEEEEAAAQQQ8I8AAaCPrhcunJc5M6fLlcuXHTXUvL+ONHzoYduKQA4EEEAAAQQQQAABBBBAAAEEEEAAAQSCQYAA0MQsrP1+tWzdtNFRQ47oHNKhy1NSsHBhE7VyKgIIIIAAAggggAACCCCAAAIIIIAAAtYJEACasEz9LkBVVdXq98qjjzVnFaAJV05FAAEEEEAAAQQQQAABBBBAAAEEELBOgADQhKV6F+DKr5fJnl3/7AgcFR1texdgIVYBmpDlVAQQQAABBBBAAAEEEEAAAQQQQAABqwQIAE1KnjxxXBbMmS1JSTcdNbEK0CQqpyOAAAIIIIAAAggggAACCCCAAAIIWCZAAGiSMikpSRbPmyPHjh111BSbM6d0frqr5MmT12TtnI4AAggggAACCCCAAAIIIIAAAggggIA5AQJAc362s7f/uFVWf7PSpaYHH24sNe+vbUHtVIEAAggggAACCCCAAAIIIIAAAggggIDvAgSAvts5zrxw/pzMnjFdrl694vizuLgi0vHJpyUiMtKCFqgCAQQQQAABBBBAAAEEEEAAAQQQQAAB3wQIAH1zczkrOTlZvli0QA7/+ovjz7NlC5d2nTpLyVKlLWiBKhBAAAEEEEAAAQQQQAABBBBAAAEEEPBNgADQN7c0Z2k9Blzt3hryaLPmFrVANQgggAACCCCAAAIIIIAAAggggAACCBgXIAA0bqZ5Rnz8KVk4e5YkJCY4Pi8UFyedujwtkVFRFrVCNQgggAACCCCAAAIIIIAAAggggAACCBgTIAA05uW29LXr12TOjE/l3NmzjjKREZHSrsuTUrRoMYtaoRoEEEAAAQQQQAABBBBAAAEEEEAAAQSMCRAAGvNyWzolJUWWLl4oBw/87FLm4SaPSo37alnUCtUggAACCCCAAAIIIIAAAggggAACCCBgTIAA0JiXx9IbN6yTH9atdSlzV4W7pdUT7SQsLMzClqgKAQQQQAABBBBAAAEEEEAAAQQQQAABfQIEgPqcdJVSq/+WLFrgUpb3AOqioxACCCCAAAIIIIAAAggggAACCCCAgJ8ECAAthNXaCCQ6Rw7p+OTTUrBgIQtboioEEEAAAQQQQAABBBBAAAEEEEAAAQT0CRAA6nPSVerqlcsy89OP5fKlS47y2bKFS7tOnaVkqdK66qAQAggggAACCCCAAAIIIIAAAggggAACVgoQAFqomXDjhsydPVP+PH3apdZWrZ+QCpUqW9gSVSGAAAIIIIAAAggggAACCCCAAAIIIKBPgABQn5OuUomJibJw7mw5dfKES/kHGjSUuvUa6KqDQggggAACCCCAAAIIIIAAAggggAACCFgpQABooebNmzdl4bzZcvL4cQJAC12pCgEEEEAAAQQQQAABBBBAAAEEEEDAdwECQN/tNM9c+vkiOfDTfpfPKlSsJK3atLW4JapDAAEEEEAAAQQQQAABBBBAAAEEEEDAuwABoHcjQyUIAA1xURgBBBBAAAEEEEAAAQQQQAABBBBAwM8CBIAWAxMAWgxKdQgggAACCCCAAAIIIIAAAggggAACpgQIAE3xuZ6ckpIiSxcvlIMHfnb54L5ataXRI40tbImqEEAAAQQQQAABBBBAAAEEEEAAAQQQ0CdAAKjPSVcpdgHWxUQhBBBAAAEEEEAAAQQQQAABBBBAAIEAChAAWojtLgB8uMmjUuO+Wha2RFUIIIAAAggggAACCCCAAAIIIIAAAgjoEyAA1Oekq9TVK5dl5qcfy+VLl1zKP962vdxV4W5ddVAIAQQQQAABBBBAAAEEEEAAAQQQQAABKwUIAC3U/OuvP2XerJly/do1R62REZHSrsuTUrRoMQtboioEEEAAAQQQQAABBBBAAAEEEEAAAQT0CRAA6nPSVer4saOycO4cuXUryVE+Z65c8vSz3SQmNqeuOiiEAAIIIIAAAggggAACCCCAAAIIIICAlQIEgBZqbv9xq6z+ZqVLjcVLlpR2HbtI9uzZLWyJqhBAAAEEEEAAAQQQQAABBBBAAAEEENAnQACoz0lXqZXLl8nuHdtdyt5Xq7Y0eqSxrvMphAACCCCAAAIIIIAAAggggAACCCCAgNUCBIAWiWrtABwWFiatnmgrd1WoaFErVIMAAggggAACCCCAAAIIIIAAAggggIAxAQJAY15uS184f05mz5guV69ecZSJiYmVLs90lTx581nUCtUggAACCCCAAAIIIIAAAggggAACCCBgTIAA0JiX29IHD/wkSxcvkpSUFEeZsneWl9Zt20vWrFktaoVqEEAAAQQQQAABBBBAAAEEEEAAAQQQMCZAAGjMS7O0Cv1Wfr1M9uza4fJ5sxYtpUq1eyxogSoQQAABBBBAAAEEEEAAAQQQQAABBBDwTYAA0Dc3l7OuXb8mc2Z8KufOnnX8eWzOnNL56a6SJ09eC1qgCgQQQAABBBBAAAEEEEAAAQQQQAABBHwTIAD0zc3lrMO//CJfLF4gycnJjj+/u1JlafF4G1EbgXAggAACCCCAAAIIIIAAAggggAACCCCQXgIEgCbltR7/Ve/8a/1EeylbvrzJ2jkdAQQQQAABBBBAAAEEEEAAAQQQQAABcwIEgOb85MKF8zJn5nS5cvmyo6ZSpUrLEx07S3h4uMnaOR0BBBBAAAEEEEAAAQQQQAABBBBAAAFzAgSA5vxk25bNsmb1Kkct6pHfZi1aSeWq1UzWzOkIIIAAAggggAACCCCAAAIIIIAAAgiYFyAANGGYmJAg82bNlNOnf3fUEhdXRDo++bREREaaqJlTEUAA1OY9OAAABvdJREFUAQQQQAABBBBAAAEEEEAAAQQQsEaAANCEY+rNP1j9ZwKTUxFAAAEEEEAAAQQQQAABBBBAAAEE/CJAAOgja1JSkiyeN0eOHTvqqKFY8RLSrlMXiYiI8LFWTkMAAQQQQAABBBBAAAEEEEAAAQQQQMBaAQJAHz1Tr/7Lmi2btGnbQe4oV87HGjkNAQQQQAABBBBAAAEEEEAAAQQQQAAB6wUIAH0wTUxMlIVzZ8upkyccZ99dqbI0b/m4ZMma1YcaOQUBBBBAAAEEEEAAAQQQQAABBBBAAAH/CBAA+uC6Z9dOWfn1V5KSkmI7OyY2Vjo/9YzkzZffh9o4BQEEEEAAAQQQQAABBBBAAAEEEEAAAf8JEAAatE2+dcv23r+EGzccZ+bPX0AKxcUZrIniCCCAAAIIIIAAAggggAACCCCAAAII+F+AAND/xrSAAAIIIIAAAggggAACCCCAAAIIIIBAugkQAKYbPQ0jgAACCCCAAAIIIIAAAggggAACCCDgfwECQP8b0wICCCCAAAIIIIAAAggggAACCCCAAALpJkAAmG70NIwAAggggAACCCCAAAIIIIAAAggggID/BQgA/W9MCwgggAACCCCAAAIIIIAAAggggAACCKSbAAFgutHTMAIIIIAAAggggAACCCCAAAIIIIAAAv4XIAD0vzEtIIAAAggggAACCCCAAAIIIIAAAgggkG4CBIDpRk/DCCCAAAIIIIAAAggggAACCCCAAAII+F+AAND/xrSAAAIIIIAAAggggAACCCCAAAIIIIBAugkQAKYbPQ0jgAACCCCAAAIIIIAAAggggAACCCDgfwECQP8b0wICCCCAAAIIIIAAAggggAACCCCAAALpJkAAmG70NIwAAggggAACCCCAAAIIIIAAAggggID/BQgA/W9MCwgggAACCCCAAAIIIIAAAggggAACCKSbAAFgutHTMAIIIIAAAggggAACCCCAAAIIIIAAAv4XIAD0vzEtIIAAAggggAACCCCAAAIIIIAAAgggkG4CBIDpRk/DCCCAAAIIIIAAAggggAACCCCAAAII+F8gLP7s7ZSwsDD/t0QLCCCAAAIIIIAAAggggAACCCCAAAIIIBBQgZSUFAk7evpmSkT28IA2TGMIIIAAAggggAACCCCAAAIIIIAAAggg4H+BxJtJErb3yOWU/Lli/d8aLSCAAAIIIIAAAggggAACCCCAAAIIIIBAQAXOXroiYet2/55yZ/G4gDZMYwgggAACCCCAAAIIIIAAAggggAACCCDgf4FfT56WsHnf/ZxSv3oF/7dGCwgggAACCCCAAAIIIIAAAggggAACCCAQUIH1uw5I2Ji5P6Q82bhuQBumMQQQQAABBBBAAAEEEEAAAQQQQAABBBDwv8CsVRslrO97S1P6PfGIxEZH+b9FWkAAAQQQQAABBBBAAAEEEEAAAQQQQACBgAhcuX5DJi3+9u8A8MF77pZalcoFpGEaQQABBBBAAAEEEEAAAQQQQAABBBBAAAH/C2zdf0jW7Pz57wAwT2wO6fX4Q/5vlRYQQAABBBBAAAEEEEAAAQQQQAABBBBAICAC05Z8JxeuXPs7AFQtNq5ZRe4tXzogjdMIAggggAACCCCAAAIIIIAAAggggAACCPhPYMcvR2XVtr22BhwBYI6oCOnZspFEZA/3X8vUjAACCCCAAAIIIIAAAggggAACCCCAAAJ+FUi8mSTvf/m9XLuR6BoAqv9XtWxJaVa7ml87QOUIIIAAAggggAACCCCAAAIIIIAAAggg4D+B5Zt3y57Dxx0NOFYA2v+ER4H9h0/NCCCAAAIIIIAAAggggAACCCCAAAII+FPA+dFfeztpAkD1wRMN75M7i8f5sy/UjQACCCCAAAIIIIAAAggggAACCCCAAAIWCvx68rQsXvtjmho1A0BCQAvlqQoBBBBAAAEEEEAAAQQQQAABBBBAAAE/C7gL/1SzbgNA9SGPA/t5ZqgeAQQQQAABBBBAAAEEEEAAAQQQQAABkwJaj/06V+kxAFQF1cYgD9WoyO7AJieC0xFAAAEEEEAAAQQQQAABBBBAAAEEELBSQO32+932n1w2/NCq32sAqE7KERUhdauUl3vLl7ayj9SFAAIIIIAAAggggAACCCCAAAIIIIAAAj4IqFV/G/f+ItduJHo9W1cAaK8lT2wOqV6upFQsU0xio6O8Vk4BBBBAAAEEEEAAAQQQQAABBBBAAAEEELBG4Mr1G/LTkVOy69BxuXDlmu5KDQWAzrUWL5RPShTMJ3H5c0venDESGxUp2cOzSVhYmO7GKYgAAggggAACCCCAAAIIIIAAAggggAACrgIpKSlyM+mW/L99/v6D4d2nLwzP33xgePTqLcPjl2/JCioAE2ML4MRaGbEAAAAASUVORK5CYII=;clipPath=inset(12.84% 24.33% 4.05% 3.33%);" parent="1" vertex="1">
          <mxGeometry x="9" y="30" width="225.68" height="127.91861026633491" as="geometry" />
        </mxCell>
        <mxCell id="yM3fGQsoTe8s-scs91LO-3" value="b)" style="text;html=1;align=center;verticalAlign=middle;whiteSpace=wrap;rounded=0;fontFamily=Tahoma;fontSize=15;" parent="1" vertex="1">
          <mxGeometry x="250" width="33" height="30" as="geometry" />
        </mxCell>
        <mxCell id="yM3fGQsoTe8s-scs91LO-4" value="a)" style="text;html=1;align=center;verticalAlign=middle;whiteSpace=wrap;rounded=0;fontFamily=Tahoma;fontSize=15;" parent="1" vertex="1">
          <mxGeometry width="30" height="30" as="geometry" />
        </mxCell>
      </root>
    </mxGraphModel>
  </diagram>
</mxfile>
